%TF.GenerationSoftware,KiCad,Pcbnew,(7.0.0)*%
%TF.CreationDate,2023-03-20T12:13:36+05:30*%
%TF.ProjectId,IMRT1160_DB,494d5254-3131-4363-905f-44422e6b6963,rev?*%
%TF.SameCoordinates,Original*%
%TF.FileFunction,Legend,Bot*%
%TF.FilePolarity,Positive*%
%FSLAX46Y46*%
G04 Gerber Fmt 4.6, Leading zero omitted, Abs format (unit mm)*
G04 Created by KiCad (PCBNEW (7.0.0)) date 2023-03-20 12:13:36*
%MOMM*%
%LPD*%
G01*
G04 APERTURE LIST*
%ADD10C,0.150000*%
%ADD11C,0.070000*%
%ADD12C,0.100000*%
G04 APERTURE END LIST*
D10*
X152300000Y-110075000D02*
X152300000Y-107800000D01*
X145450000Y-111000000D02*
X153975000Y-111000000D01*
X153050000Y-102200000D02*
X152650000Y-102200000D01*
X157950000Y-114150000D02*
X157950000Y-115100000D01*
X156350000Y-106900000D02*
X152600000Y-106900000D01*
X159000000Y-101550000D02*
X160300000Y-101550000D01*
X156350000Y-103450000D02*
X156350000Y-106900000D01*
X149750000Y-106550000D02*
X149750000Y-107200000D01*
X144750000Y-108100000D02*
X144500000Y-108400000D01*
X152650000Y-101850000D02*
X152650000Y-102200000D01*
X145600000Y-107400000D02*
X145600000Y-108400000D01*
X154600000Y-100750000D02*
X154600000Y-98300000D01*
X144500000Y-108400000D02*
X144750000Y-108700000D01*
X154600000Y-98300000D02*
X154600000Y-95650000D01*
X152650000Y-101850000D02*
X144300000Y-101850000D01*
X160850000Y-115100000D02*
X157950000Y-115100000D01*
X152300000Y-111000000D02*
X152300000Y-110050000D01*
X159150000Y-109100000D02*
X160950000Y-109100000D01*
X152250000Y-106900000D02*
X152600000Y-106900000D01*
X159500000Y-102350000D02*
X160300000Y-102350000D01*
D11*
X154700000Y-92950000D02*
X156050000Y-92950000D01*
X156050000Y-92950000D02*
X156050000Y-95250000D01*
X156050000Y-95250000D02*
X154700000Y-95250000D01*
X154700000Y-95250000D02*
X154700000Y-92950000D01*
D10*
X156150000Y-95650000D02*
X156150000Y-95450000D01*
D11*
X141750000Y-109150000D02*
X144200000Y-109150000D01*
X144200000Y-109150000D02*
X144200000Y-110500000D01*
X144200000Y-110500000D02*
X141750000Y-110500000D01*
X141750000Y-110500000D02*
X141750000Y-109150000D01*
D10*
X157700000Y-100750000D02*
X154600000Y-100750000D01*
X153050000Y-102750000D02*
X153050000Y-102200000D01*
X157700000Y-98600000D02*
X157700000Y-100750000D01*
X156350000Y-103450000D02*
X153800000Y-103450000D01*
X155950000Y-102650000D02*
X159000000Y-102650000D01*
X153800000Y-103450000D02*
X153800000Y-105100000D01*
D11*
X143200000Y-110550000D02*
X145300000Y-110550000D01*
X145300000Y-110550000D02*
X145300000Y-111900000D01*
X145300000Y-111900000D02*
X143200000Y-111900000D01*
X143200000Y-111900000D02*
X143200000Y-110550000D01*
D10*
X150600000Y-104900000D02*
X146900000Y-104900000D01*
X144850000Y-107200000D02*
X145150000Y-107000000D01*
X159150000Y-106350000D02*
X159150000Y-109100000D01*
X157950000Y-115800000D02*
X157950000Y-115100000D01*
X145100000Y-107500000D02*
X144850000Y-107200000D01*
X156150000Y-98600000D02*
X157700000Y-98600000D01*
X144500000Y-108400000D02*
X144750000Y-108100000D01*
X156350000Y-106350000D02*
X159150000Y-106350000D01*
X155050000Y-115800000D02*
X157950000Y-115800000D01*
D11*
X143950000Y-111900000D02*
X145300000Y-111900000D01*
X145300000Y-111900000D02*
X145300000Y-114000000D01*
X145300000Y-114000000D02*
X143950000Y-114000000D01*
X143950000Y-114000000D02*
X143950000Y-111900000D01*
D10*
X160950000Y-109100000D02*
X160950000Y-114150000D01*
X160950000Y-114150000D02*
X157950000Y-114150000D01*
X153800000Y-105100000D02*
X152250000Y-105100000D01*
X152250000Y-105100000D02*
X152250000Y-106900000D01*
X155050000Y-119000000D02*
X155050000Y-115800000D01*
X149750000Y-107200000D02*
X144850000Y-107200000D01*
X150100000Y-106550000D02*
X149750000Y-106550000D01*
X160850000Y-115100000D02*
X160850000Y-119000000D01*
X159000000Y-102650000D02*
X159000000Y-101550000D01*
X159500000Y-103300000D02*
X159500000Y-102350000D01*
X158450000Y-103300000D02*
X159500000Y-103300000D01*
X145600000Y-108400000D02*
X144500000Y-108400000D01*
X154600000Y-95650000D02*
X156150000Y-95650000D01*
X150850000Y-107400000D02*
X145600000Y-107400000D01*
D11*
X156250000Y-92950000D02*
X157600000Y-92950000D01*
X157600000Y-92950000D02*
X157600000Y-95250000D01*
X157600000Y-95250000D02*
X156250000Y-95250000D01*
X156250000Y-95250000D02*
X156250000Y-92950000D01*
D10*
X160850000Y-119000000D02*
X155050000Y-119000000D01*
X156150000Y-98600000D02*
X154600000Y-98600000D01*
D12*
%TO.C,C29*%
X143350000Y-110090500D02*
X143383333Y-110123833D01*
X143383333Y-110123833D02*
X143483333Y-110157166D01*
X143483333Y-110157166D02*
X143550000Y-110157166D01*
X143550000Y-110157166D02*
X143650000Y-110123833D01*
X143650000Y-110123833D02*
X143716667Y-110057166D01*
X143716667Y-110057166D02*
X143750000Y-109990500D01*
X143750000Y-109990500D02*
X143783333Y-109857166D01*
X143783333Y-109857166D02*
X143783333Y-109757166D01*
X143783333Y-109757166D02*
X143750000Y-109623833D01*
X143750000Y-109623833D02*
X143716667Y-109557166D01*
X143716667Y-109557166D02*
X143650000Y-109490500D01*
X143650000Y-109490500D02*
X143550000Y-109457166D01*
X143550000Y-109457166D02*
X143483333Y-109457166D01*
X143483333Y-109457166D02*
X143383333Y-109490500D01*
X143383333Y-109490500D02*
X143350000Y-109523833D01*
X143083333Y-109523833D02*
X143050000Y-109490500D01*
X143050000Y-109490500D02*
X142983333Y-109457166D01*
X142983333Y-109457166D02*
X142816667Y-109457166D01*
X142816667Y-109457166D02*
X142750000Y-109490500D01*
X142750000Y-109490500D02*
X142716667Y-109523833D01*
X142716667Y-109523833D02*
X142683333Y-109590500D01*
X142683333Y-109590500D02*
X142683333Y-109657166D01*
X142683333Y-109657166D02*
X142716667Y-109757166D01*
X142716667Y-109757166D02*
X143116667Y-110157166D01*
X143116667Y-110157166D02*
X142683333Y-110157166D01*
X142350000Y-110157166D02*
X142216666Y-110157166D01*
X142216666Y-110157166D02*
X142150000Y-110123833D01*
X142150000Y-110123833D02*
X142116666Y-110090500D01*
X142116666Y-110090500D02*
X142050000Y-109990500D01*
X142050000Y-109990500D02*
X142016666Y-109857166D01*
X142016666Y-109857166D02*
X142016666Y-109590500D01*
X142016666Y-109590500D02*
X142050000Y-109523833D01*
X142050000Y-109523833D02*
X142083333Y-109490500D01*
X142083333Y-109490500D02*
X142150000Y-109457166D01*
X142150000Y-109457166D02*
X142283333Y-109457166D01*
X142283333Y-109457166D02*
X142350000Y-109490500D01*
X142350000Y-109490500D02*
X142383333Y-109523833D01*
X142383333Y-109523833D02*
X142416666Y-109590500D01*
X142416666Y-109590500D02*
X142416666Y-109757166D01*
X142416666Y-109757166D02*
X142383333Y-109823833D01*
X142383333Y-109823833D02*
X142350000Y-109857166D01*
X142350000Y-109857166D02*
X142283333Y-109890500D01*
X142283333Y-109890500D02*
X142150000Y-109890500D01*
X142150000Y-109890500D02*
X142083333Y-109857166D01*
X142083333Y-109857166D02*
X142050000Y-109823833D01*
X142050000Y-109823833D02*
X142016666Y-109757166D01*
%TO.C,FB4*%
X161115500Y-105366667D02*
X161115500Y-105133333D01*
X161482166Y-105133333D02*
X160782166Y-105133333D01*
X160782166Y-105133333D02*
X160782166Y-105466667D01*
X161115500Y-105966667D02*
X161148833Y-106066667D01*
X161148833Y-106066667D02*
X161182166Y-106100000D01*
X161182166Y-106100000D02*
X161248833Y-106133333D01*
X161248833Y-106133333D02*
X161348833Y-106133333D01*
X161348833Y-106133333D02*
X161415500Y-106100000D01*
X161415500Y-106100000D02*
X161448833Y-106066667D01*
X161448833Y-106066667D02*
X161482166Y-106000000D01*
X161482166Y-106000000D02*
X161482166Y-105733333D01*
X161482166Y-105733333D02*
X160782166Y-105733333D01*
X160782166Y-105733333D02*
X160782166Y-105966667D01*
X160782166Y-105966667D02*
X160815500Y-106033333D01*
X160815500Y-106033333D02*
X160848833Y-106066667D01*
X160848833Y-106066667D02*
X160915500Y-106100000D01*
X160915500Y-106100000D02*
X160982166Y-106100000D01*
X160982166Y-106100000D02*
X161048833Y-106066667D01*
X161048833Y-106066667D02*
X161082166Y-106033333D01*
X161082166Y-106033333D02*
X161115500Y-105966667D01*
X161115500Y-105966667D02*
X161115500Y-105733333D01*
X161015500Y-106733333D02*
X161482166Y-106733333D01*
X160748833Y-106566667D02*
X161248833Y-106400000D01*
X161248833Y-106400000D02*
X161248833Y-106833333D01*
%TO.C,C35*%
X158250000Y-108390500D02*
X158283333Y-108423833D01*
X158283333Y-108423833D02*
X158383333Y-108457166D01*
X158383333Y-108457166D02*
X158450000Y-108457166D01*
X158450000Y-108457166D02*
X158550000Y-108423833D01*
X158550000Y-108423833D02*
X158616667Y-108357166D01*
X158616667Y-108357166D02*
X158650000Y-108290500D01*
X158650000Y-108290500D02*
X158683333Y-108157166D01*
X158683333Y-108157166D02*
X158683333Y-108057166D01*
X158683333Y-108057166D02*
X158650000Y-107923833D01*
X158650000Y-107923833D02*
X158616667Y-107857166D01*
X158616667Y-107857166D02*
X158550000Y-107790500D01*
X158550000Y-107790500D02*
X158450000Y-107757166D01*
X158450000Y-107757166D02*
X158383333Y-107757166D01*
X158383333Y-107757166D02*
X158283333Y-107790500D01*
X158283333Y-107790500D02*
X158250000Y-107823833D01*
X158016667Y-107757166D02*
X157583333Y-107757166D01*
X157583333Y-107757166D02*
X157816667Y-108023833D01*
X157816667Y-108023833D02*
X157716667Y-108023833D01*
X157716667Y-108023833D02*
X157650000Y-108057166D01*
X157650000Y-108057166D02*
X157616667Y-108090500D01*
X157616667Y-108090500D02*
X157583333Y-108157166D01*
X157583333Y-108157166D02*
X157583333Y-108323833D01*
X157583333Y-108323833D02*
X157616667Y-108390500D01*
X157616667Y-108390500D02*
X157650000Y-108423833D01*
X157650000Y-108423833D02*
X157716667Y-108457166D01*
X157716667Y-108457166D02*
X157916667Y-108457166D01*
X157916667Y-108457166D02*
X157983333Y-108423833D01*
X157983333Y-108423833D02*
X158016667Y-108390500D01*
X156950000Y-107757166D02*
X157283333Y-107757166D01*
X157283333Y-107757166D02*
X157316666Y-108090500D01*
X157316666Y-108090500D02*
X157283333Y-108057166D01*
X157283333Y-108057166D02*
X157216666Y-108023833D01*
X157216666Y-108023833D02*
X157050000Y-108023833D01*
X157050000Y-108023833D02*
X156983333Y-108057166D01*
X156983333Y-108057166D02*
X156950000Y-108090500D01*
X156950000Y-108090500D02*
X156916666Y-108157166D01*
X156916666Y-108157166D02*
X156916666Y-108323833D01*
X156916666Y-108323833D02*
X156950000Y-108390500D01*
X156950000Y-108390500D02*
X156983333Y-108423833D01*
X156983333Y-108423833D02*
X157050000Y-108457166D01*
X157050000Y-108457166D02*
X157216666Y-108457166D01*
X157216666Y-108457166D02*
X157283333Y-108423833D01*
X157283333Y-108423833D02*
X157316666Y-108390500D01*
%TO.C,C17*%
X160050000Y-110040500D02*
X160083333Y-110073833D01*
X160083333Y-110073833D02*
X160183333Y-110107166D01*
X160183333Y-110107166D02*
X160250000Y-110107166D01*
X160250000Y-110107166D02*
X160350000Y-110073833D01*
X160350000Y-110073833D02*
X160416667Y-110007166D01*
X160416667Y-110007166D02*
X160450000Y-109940500D01*
X160450000Y-109940500D02*
X160483333Y-109807166D01*
X160483333Y-109807166D02*
X160483333Y-109707166D01*
X160483333Y-109707166D02*
X160450000Y-109573833D01*
X160450000Y-109573833D02*
X160416667Y-109507166D01*
X160416667Y-109507166D02*
X160350000Y-109440500D01*
X160350000Y-109440500D02*
X160250000Y-109407166D01*
X160250000Y-109407166D02*
X160183333Y-109407166D01*
X160183333Y-109407166D02*
X160083333Y-109440500D01*
X160083333Y-109440500D02*
X160050000Y-109473833D01*
X159383333Y-110107166D02*
X159783333Y-110107166D01*
X159583333Y-110107166D02*
X159583333Y-109407166D01*
X159583333Y-109407166D02*
X159650000Y-109507166D01*
X159650000Y-109507166D02*
X159716667Y-109573833D01*
X159716667Y-109573833D02*
X159783333Y-109607166D01*
X159150000Y-109407166D02*
X158683333Y-109407166D01*
X158683333Y-109407166D02*
X158983333Y-110107166D01*
%TO.C,C5*%
X143990500Y-101633333D02*
X144023833Y-101600000D01*
X144023833Y-101600000D02*
X144057166Y-101500000D01*
X144057166Y-101500000D02*
X144057166Y-101433333D01*
X144057166Y-101433333D02*
X144023833Y-101333333D01*
X144023833Y-101333333D02*
X143957166Y-101266667D01*
X143957166Y-101266667D02*
X143890500Y-101233333D01*
X143890500Y-101233333D02*
X143757166Y-101200000D01*
X143757166Y-101200000D02*
X143657166Y-101200000D01*
X143657166Y-101200000D02*
X143523833Y-101233333D01*
X143523833Y-101233333D02*
X143457166Y-101266667D01*
X143457166Y-101266667D02*
X143390500Y-101333333D01*
X143390500Y-101333333D02*
X143357166Y-101433333D01*
X143357166Y-101433333D02*
X143357166Y-101500000D01*
X143357166Y-101500000D02*
X143390500Y-101600000D01*
X143390500Y-101600000D02*
X143423833Y-101633333D01*
X143357166Y-102266667D02*
X143357166Y-101933333D01*
X143357166Y-101933333D02*
X143690500Y-101900000D01*
X143690500Y-101900000D02*
X143657166Y-101933333D01*
X143657166Y-101933333D02*
X143623833Y-102000000D01*
X143623833Y-102000000D02*
X143623833Y-102166667D01*
X143623833Y-102166667D02*
X143657166Y-102233333D01*
X143657166Y-102233333D02*
X143690500Y-102266667D01*
X143690500Y-102266667D02*
X143757166Y-102300000D01*
X143757166Y-102300000D02*
X143923833Y-102300000D01*
X143923833Y-102300000D02*
X143990500Y-102266667D01*
X143990500Y-102266667D02*
X144023833Y-102233333D01*
X144023833Y-102233333D02*
X144057166Y-102166667D01*
X144057166Y-102166667D02*
X144057166Y-102000000D01*
X144057166Y-102000000D02*
X144023833Y-101933333D01*
X144023833Y-101933333D02*
X143990500Y-101900000D01*
%TO.C,C26*%
X158340500Y-117449999D02*
X158373833Y-117416666D01*
X158373833Y-117416666D02*
X158407166Y-117316666D01*
X158407166Y-117316666D02*
X158407166Y-117249999D01*
X158407166Y-117249999D02*
X158373833Y-117149999D01*
X158373833Y-117149999D02*
X158307166Y-117083333D01*
X158307166Y-117083333D02*
X158240500Y-117049999D01*
X158240500Y-117049999D02*
X158107166Y-117016666D01*
X158107166Y-117016666D02*
X158007166Y-117016666D01*
X158007166Y-117016666D02*
X157873833Y-117049999D01*
X157873833Y-117049999D02*
X157807166Y-117083333D01*
X157807166Y-117083333D02*
X157740500Y-117149999D01*
X157740500Y-117149999D02*
X157707166Y-117249999D01*
X157707166Y-117249999D02*
X157707166Y-117316666D01*
X157707166Y-117316666D02*
X157740500Y-117416666D01*
X157740500Y-117416666D02*
X157773833Y-117449999D01*
X157773833Y-117716666D02*
X157740500Y-117749999D01*
X157740500Y-117749999D02*
X157707166Y-117816666D01*
X157707166Y-117816666D02*
X157707166Y-117983333D01*
X157707166Y-117983333D02*
X157740500Y-118049999D01*
X157740500Y-118049999D02*
X157773833Y-118083333D01*
X157773833Y-118083333D02*
X157840500Y-118116666D01*
X157840500Y-118116666D02*
X157907166Y-118116666D01*
X157907166Y-118116666D02*
X158007166Y-118083333D01*
X158007166Y-118083333D02*
X158407166Y-117683333D01*
X158407166Y-117683333D02*
X158407166Y-118116666D01*
X157707166Y-118716666D02*
X157707166Y-118583333D01*
X157707166Y-118583333D02*
X157740500Y-118516666D01*
X157740500Y-118516666D02*
X157773833Y-118483333D01*
X157773833Y-118483333D02*
X157873833Y-118416666D01*
X157873833Y-118416666D02*
X158007166Y-118383333D01*
X158007166Y-118383333D02*
X158273833Y-118383333D01*
X158273833Y-118383333D02*
X158340500Y-118416666D01*
X158340500Y-118416666D02*
X158373833Y-118450000D01*
X158373833Y-118450000D02*
X158407166Y-118516666D01*
X158407166Y-118516666D02*
X158407166Y-118650000D01*
X158407166Y-118650000D02*
X158373833Y-118716666D01*
X158373833Y-118716666D02*
X158340500Y-118750000D01*
X158340500Y-118750000D02*
X158273833Y-118783333D01*
X158273833Y-118783333D02*
X158107166Y-118783333D01*
X158107166Y-118783333D02*
X158040500Y-118750000D01*
X158040500Y-118750000D02*
X158007166Y-118716666D01*
X158007166Y-118716666D02*
X157973833Y-118650000D01*
X157973833Y-118650000D02*
X157973833Y-118516666D01*
X157973833Y-118516666D02*
X158007166Y-118450000D01*
X158007166Y-118450000D02*
X158040500Y-118416666D01*
X158040500Y-118416666D02*
X158107166Y-118383333D01*
%TO.C,C2*%
X151590500Y-94533333D02*
X151623833Y-94500000D01*
X151623833Y-94500000D02*
X151657166Y-94400000D01*
X151657166Y-94400000D02*
X151657166Y-94333333D01*
X151657166Y-94333333D02*
X151623833Y-94233333D01*
X151623833Y-94233333D02*
X151557166Y-94166667D01*
X151557166Y-94166667D02*
X151490500Y-94133333D01*
X151490500Y-94133333D02*
X151357166Y-94100000D01*
X151357166Y-94100000D02*
X151257166Y-94100000D01*
X151257166Y-94100000D02*
X151123833Y-94133333D01*
X151123833Y-94133333D02*
X151057166Y-94166667D01*
X151057166Y-94166667D02*
X150990500Y-94233333D01*
X150990500Y-94233333D02*
X150957166Y-94333333D01*
X150957166Y-94333333D02*
X150957166Y-94400000D01*
X150957166Y-94400000D02*
X150990500Y-94500000D01*
X150990500Y-94500000D02*
X151023833Y-94533333D01*
X151023833Y-94800000D02*
X150990500Y-94833333D01*
X150990500Y-94833333D02*
X150957166Y-94900000D01*
X150957166Y-94900000D02*
X150957166Y-95066667D01*
X150957166Y-95066667D02*
X150990500Y-95133333D01*
X150990500Y-95133333D02*
X151023833Y-95166667D01*
X151023833Y-95166667D02*
X151090500Y-95200000D01*
X151090500Y-95200000D02*
X151157166Y-95200000D01*
X151157166Y-95200000D02*
X151257166Y-95166667D01*
X151257166Y-95166667D02*
X151657166Y-94766667D01*
X151657166Y-94766667D02*
X151657166Y-95200000D01*
%TO.C,C14*%
X160000000Y-117090500D02*
X160033333Y-117123833D01*
X160033333Y-117123833D02*
X160133333Y-117157166D01*
X160133333Y-117157166D02*
X160200000Y-117157166D01*
X160200000Y-117157166D02*
X160300000Y-117123833D01*
X160300000Y-117123833D02*
X160366667Y-117057166D01*
X160366667Y-117057166D02*
X160400000Y-116990500D01*
X160400000Y-116990500D02*
X160433333Y-116857166D01*
X160433333Y-116857166D02*
X160433333Y-116757166D01*
X160433333Y-116757166D02*
X160400000Y-116623833D01*
X160400000Y-116623833D02*
X160366667Y-116557166D01*
X160366667Y-116557166D02*
X160300000Y-116490500D01*
X160300000Y-116490500D02*
X160200000Y-116457166D01*
X160200000Y-116457166D02*
X160133333Y-116457166D01*
X160133333Y-116457166D02*
X160033333Y-116490500D01*
X160033333Y-116490500D02*
X160000000Y-116523833D01*
X159333333Y-117157166D02*
X159733333Y-117157166D01*
X159533333Y-117157166D02*
X159533333Y-116457166D01*
X159533333Y-116457166D02*
X159600000Y-116557166D01*
X159600000Y-116557166D02*
X159666667Y-116623833D01*
X159666667Y-116623833D02*
X159733333Y-116657166D01*
X158733333Y-116690500D02*
X158733333Y-117157166D01*
X158900000Y-116423833D02*
X159066666Y-116923833D01*
X159066666Y-116923833D02*
X158633333Y-116923833D01*
%TO.C,C3*%
X149416666Y-103690500D02*
X149449999Y-103723833D01*
X149449999Y-103723833D02*
X149549999Y-103757166D01*
X149549999Y-103757166D02*
X149616666Y-103757166D01*
X149616666Y-103757166D02*
X149716666Y-103723833D01*
X149716666Y-103723833D02*
X149783333Y-103657166D01*
X149783333Y-103657166D02*
X149816666Y-103590500D01*
X149816666Y-103590500D02*
X149849999Y-103457166D01*
X149849999Y-103457166D02*
X149849999Y-103357166D01*
X149849999Y-103357166D02*
X149816666Y-103223833D01*
X149816666Y-103223833D02*
X149783333Y-103157166D01*
X149783333Y-103157166D02*
X149716666Y-103090500D01*
X149716666Y-103090500D02*
X149616666Y-103057166D01*
X149616666Y-103057166D02*
X149549999Y-103057166D01*
X149549999Y-103057166D02*
X149449999Y-103090500D01*
X149449999Y-103090500D02*
X149416666Y-103123833D01*
X149183333Y-103057166D02*
X148749999Y-103057166D01*
X148749999Y-103057166D02*
X148983333Y-103323833D01*
X148983333Y-103323833D02*
X148883333Y-103323833D01*
X148883333Y-103323833D02*
X148816666Y-103357166D01*
X148816666Y-103357166D02*
X148783333Y-103390500D01*
X148783333Y-103390500D02*
X148749999Y-103457166D01*
X148749999Y-103457166D02*
X148749999Y-103623833D01*
X148749999Y-103623833D02*
X148783333Y-103690500D01*
X148783333Y-103690500D02*
X148816666Y-103723833D01*
X148816666Y-103723833D02*
X148883333Y-103757166D01*
X148883333Y-103757166D02*
X149083333Y-103757166D01*
X149083333Y-103757166D02*
X149149999Y-103723833D01*
X149149999Y-103723833D02*
X149183333Y-103690500D01*
%TO.C,C15*%
X154890500Y-113799999D02*
X154923833Y-113766666D01*
X154923833Y-113766666D02*
X154957166Y-113666666D01*
X154957166Y-113666666D02*
X154957166Y-113599999D01*
X154957166Y-113599999D02*
X154923833Y-113499999D01*
X154923833Y-113499999D02*
X154857166Y-113433333D01*
X154857166Y-113433333D02*
X154790500Y-113399999D01*
X154790500Y-113399999D02*
X154657166Y-113366666D01*
X154657166Y-113366666D02*
X154557166Y-113366666D01*
X154557166Y-113366666D02*
X154423833Y-113399999D01*
X154423833Y-113399999D02*
X154357166Y-113433333D01*
X154357166Y-113433333D02*
X154290500Y-113499999D01*
X154290500Y-113499999D02*
X154257166Y-113599999D01*
X154257166Y-113599999D02*
X154257166Y-113666666D01*
X154257166Y-113666666D02*
X154290500Y-113766666D01*
X154290500Y-113766666D02*
X154323833Y-113799999D01*
X154957166Y-114466666D02*
X154957166Y-114066666D01*
X154957166Y-114266666D02*
X154257166Y-114266666D01*
X154257166Y-114266666D02*
X154357166Y-114199999D01*
X154357166Y-114199999D02*
X154423833Y-114133333D01*
X154423833Y-114133333D02*
X154457166Y-114066666D01*
X154257166Y-115100000D02*
X154257166Y-114766666D01*
X154257166Y-114766666D02*
X154590500Y-114733333D01*
X154590500Y-114733333D02*
X154557166Y-114766666D01*
X154557166Y-114766666D02*
X154523833Y-114833333D01*
X154523833Y-114833333D02*
X154523833Y-115000000D01*
X154523833Y-115000000D02*
X154557166Y-115066666D01*
X154557166Y-115066666D02*
X154590500Y-115100000D01*
X154590500Y-115100000D02*
X154657166Y-115133333D01*
X154657166Y-115133333D02*
X154823833Y-115133333D01*
X154823833Y-115133333D02*
X154890500Y-115100000D01*
X154890500Y-115100000D02*
X154923833Y-115066666D01*
X154923833Y-115066666D02*
X154957166Y-115000000D01*
X154957166Y-115000000D02*
X154957166Y-114833333D01*
X154957166Y-114833333D02*
X154923833Y-114766666D01*
X154923833Y-114766666D02*
X154890500Y-114733333D01*
%TO.C,C48*%
X147150000Y-106790500D02*
X147183333Y-106823833D01*
X147183333Y-106823833D02*
X147283333Y-106857166D01*
X147283333Y-106857166D02*
X147350000Y-106857166D01*
X147350000Y-106857166D02*
X147450000Y-106823833D01*
X147450000Y-106823833D02*
X147516667Y-106757166D01*
X147516667Y-106757166D02*
X147550000Y-106690500D01*
X147550000Y-106690500D02*
X147583333Y-106557166D01*
X147583333Y-106557166D02*
X147583333Y-106457166D01*
X147583333Y-106457166D02*
X147550000Y-106323833D01*
X147550000Y-106323833D02*
X147516667Y-106257166D01*
X147516667Y-106257166D02*
X147450000Y-106190500D01*
X147450000Y-106190500D02*
X147350000Y-106157166D01*
X147350000Y-106157166D02*
X147283333Y-106157166D01*
X147283333Y-106157166D02*
X147183333Y-106190500D01*
X147183333Y-106190500D02*
X147150000Y-106223833D01*
X146550000Y-106390500D02*
X146550000Y-106857166D01*
X146716667Y-106123833D02*
X146883333Y-106623833D01*
X146883333Y-106623833D02*
X146450000Y-106623833D01*
X146083333Y-106457166D02*
X146150000Y-106423833D01*
X146150000Y-106423833D02*
X146183333Y-106390500D01*
X146183333Y-106390500D02*
X146216666Y-106323833D01*
X146216666Y-106323833D02*
X146216666Y-106290500D01*
X146216666Y-106290500D02*
X146183333Y-106223833D01*
X146183333Y-106223833D02*
X146150000Y-106190500D01*
X146150000Y-106190500D02*
X146083333Y-106157166D01*
X146083333Y-106157166D02*
X145950000Y-106157166D01*
X145950000Y-106157166D02*
X145883333Y-106190500D01*
X145883333Y-106190500D02*
X145850000Y-106223833D01*
X145850000Y-106223833D02*
X145816666Y-106290500D01*
X145816666Y-106290500D02*
X145816666Y-106323833D01*
X145816666Y-106323833D02*
X145850000Y-106390500D01*
X145850000Y-106390500D02*
X145883333Y-106423833D01*
X145883333Y-106423833D02*
X145950000Y-106457166D01*
X145950000Y-106457166D02*
X146083333Y-106457166D01*
X146083333Y-106457166D02*
X146150000Y-106490500D01*
X146150000Y-106490500D02*
X146183333Y-106523833D01*
X146183333Y-106523833D02*
X146216666Y-106590500D01*
X146216666Y-106590500D02*
X146216666Y-106723833D01*
X146216666Y-106723833D02*
X146183333Y-106790500D01*
X146183333Y-106790500D02*
X146150000Y-106823833D01*
X146150000Y-106823833D02*
X146083333Y-106857166D01*
X146083333Y-106857166D02*
X145950000Y-106857166D01*
X145950000Y-106857166D02*
X145883333Y-106823833D01*
X145883333Y-106823833D02*
X145850000Y-106790500D01*
X145850000Y-106790500D02*
X145816666Y-106723833D01*
X145816666Y-106723833D02*
X145816666Y-106590500D01*
X145816666Y-106590500D02*
X145850000Y-106523833D01*
X145850000Y-106523833D02*
X145883333Y-106490500D01*
X145883333Y-106490500D02*
X145950000Y-106457166D01*
%TO.C,C40*%
X143850000Y-108640500D02*
X143883333Y-108673833D01*
X143883333Y-108673833D02*
X143983333Y-108707166D01*
X143983333Y-108707166D02*
X144050000Y-108707166D01*
X144050000Y-108707166D02*
X144150000Y-108673833D01*
X144150000Y-108673833D02*
X144216667Y-108607166D01*
X144216667Y-108607166D02*
X144250000Y-108540500D01*
X144250000Y-108540500D02*
X144283333Y-108407166D01*
X144283333Y-108407166D02*
X144283333Y-108307166D01*
X144283333Y-108307166D02*
X144250000Y-108173833D01*
X144250000Y-108173833D02*
X144216667Y-108107166D01*
X144216667Y-108107166D02*
X144150000Y-108040500D01*
X144150000Y-108040500D02*
X144050000Y-108007166D01*
X144050000Y-108007166D02*
X143983333Y-108007166D01*
X143983333Y-108007166D02*
X143883333Y-108040500D01*
X143883333Y-108040500D02*
X143850000Y-108073833D01*
X143250000Y-108240500D02*
X143250000Y-108707166D01*
X143416667Y-107973833D02*
X143583333Y-108473833D01*
X143583333Y-108473833D02*
X143150000Y-108473833D01*
X142750000Y-108007166D02*
X142683333Y-108007166D01*
X142683333Y-108007166D02*
X142616666Y-108040500D01*
X142616666Y-108040500D02*
X142583333Y-108073833D01*
X142583333Y-108073833D02*
X142550000Y-108140500D01*
X142550000Y-108140500D02*
X142516666Y-108273833D01*
X142516666Y-108273833D02*
X142516666Y-108440500D01*
X142516666Y-108440500D02*
X142550000Y-108573833D01*
X142550000Y-108573833D02*
X142583333Y-108640500D01*
X142583333Y-108640500D02*
X142616666Y-108673833D01*
X142616666Y-108673833D02*
X142683333Y-108707166D01*
X142683333Y-108707166D02*
X142750000Y-108707166D01*
X142750000Y-108707166D02*
X142816666Y-108673833D01*
X142816666Y-108673833D02*
X142850000Y-108640500D01*
X142850000Y-108640500D02*
X142883333Y-108573833D01*
X142883333Y-108573833D02*
X142916666Y-108440500D01*
X142916666Y-108440500D02*
X142916666Y-108273833D01*
X142916666Y-108273833D02*
X142883333Y-108140500D01*
X142883333Y-108140500D02*
X142850000Y-108073833D01*
X142850000Y-108073833D02*
X142816666Y-108040500D01*
X142816666Y-108040500D02*
X142750000Y-108007166D01*
%TO.C,C24*%
X158250000Y-107490500D02*
X158283333Y-107523833D01*
X158283333Y-107523833D02*
X158383333Y-107557166D01*
X158383333Y-107557166D02*
X158450000Y-107557166D01*
X158450000Y-107557166D02*
X158550000Y-107523833D01*
X158550000Y-107523833D02*
X158616667Y-107457166D01*
X158616667Y-107457166D02*
X158650000Y-107390500D01*
X158650000Y-107390500D02*
X158683333Y-107257166D01*
X158683333Y-107257166D02*
X158683333Y-107157166D01*
X158683333Y-107157166D02*
X158650000Y-107023833D01*
X158650000Y-107023833D02*
X158616667Y-106957166D01*
X158616667Y-106957166D02*
X158550000Y-106890500D01*
X158550000Y-106890500D02*
X158450000Y-106857166D01*
X158450000Y-106857166D02*
X158383333Y-106857166D01*
X158383333Y-106857166D02*
X158283333Y-106890500D01*
X158283333Y-106890500D02*
X158250000Y-106923833D01*
X157983333Y-106923833D02*
X157950000Y-106890500D01*
X157950000Y-106890500D02*
X157883333Y-106857166D01*
X157883333Y-106857166D02*
X157716667Y-106857166D01*
X157716667Y-106857166D02*
X157650000Y-106890500D01*
X157650000Y-106890500D02*
X157616667Y-106923833D01*
X157616667Y-106923833D02*
X157583333Y-106990500D01*
X157583333Y-106990500D02*
X157583333Y-107057166D01*
X157583333Y-107057166D02*
X157616667Y-107157166D01*
X157616667Y-107157166D02*
X158016667Y-107557166D01*
X158016667Y-107557166D02*
X157583333Y-107557166D01*
X156983333Y-107090500D02*
X156983333Y-107557166D01*
X157150000Y-106823833D02*
X157316666Y-107323833D01*
X157316666Y-107323833D02*
X156883333Y-107323833D01*
%TO.C,C25*%
X153190500Y-98449999D02*
X153223833Y-98416666D01*
X153223833Y-98416666D02*
X153257166Y-98316666D01*
X153257166Y-98316666D02*
X153257166Y-98249999D01*
X153257166Y-98249999D02*
X153223833Y-98149999D01*
X153223833Y-98149999D02*
X153157166Y-98083333D01*
X153157166Y-98083333D02*
X153090500Y-98049999D01*
X153090500Y-98049999D02*
X152957166Y-98016666D01*
X152957166Y-98016666D02*
X152857166Y-98016666D01*
X152857166Y-98016666D02*
X152723833Y-98049999D01*
X152723833Y-98049999D02*
X152657166Y-98083333D01*
X152657166Y-98083333D02*
X152590500Y-98149999D01*
X152590500Y-98149999D02*
X152557166Y-98249999D01*
X152557166Y-98249999D02*
X152557166Y-98316666D01*
X152557166Y-98316666D02*
X152590500Y-98416666D01*
X152590500Y-98416666D02*
X152623833Y-98449999D01*
X152623833Y-98716666D02*
X152590500Y-98749999D01*
X152590500Y-98749999D02*
X152557166Y-98816666D01*
X152557166Y-98816666D02*
X152557166Y-98983333D01*
X152557166Y-98983333D02*
X152590500Y-99049999D01*
X152590500Y-99049999D02*
X152623833Y-99083333D01*
X152623833Y-99083333D02*
X152690500Y-99116666D01*
X152690500Y-99116666D02*
X152757166Y-99116666D01*
X152757166Y-99116666D02*
X152857166Y-99083333D01*
X152857166Y-99083333D02*
X153257166Y-98683333D01*
X153257166Y-98683333D02*
X153257166Y-99116666D01*
X152557166Y-99750000D02*
X152557166Y-99416666D01*
X152557166Y-99416666D02*
X152890500Y-99383333D01*
X152890500Y-99383333D02*
X152857166Y-99416666D01*
X152857166Y-99416666D02*
X152823833Y-99483333D01*
X152823833Y-99483333D02*
X152823833Y-99650000D01*
X152823833Y-99650000D02*
X152857166Y-99716666D01*
X152857166Y-99716666D02*
X152890500Y-99750000D01*
X152890500Y-99750000D02*
X152957166Y-99783333D01*
X152957166Y-99783333D02*
X153123833Y-99783333D01*
X153123833Y-99783333D02*
X153190500Y-99750000D01*
X153190500Y-99750000D02*
X153223833Y-99716666D01*
X153223833Y-99716666D02*
X153257166Y-99650000D01*
X153257166Y-99650000D02*
X153257166Y-99483333D01*
X153257166Y-99483333D02*
X153223833Y-99416666D01*
X153223833Y-99416666D02*
X153190500Y-99383333D01*
%TO.C,C45*%
X147800000Y-108440500D02*
X147833333Y-108473833D01*
X147833333Y-108473833D02*
X147933333Y-108507166D01*
X147933333Y-108507166D02*
X148000000Y-108507166D01*
X148000000Y-108507166D02*
X148100000Y-108473833D01*
X148100000Y-108473833D02*
X148166667Y-108407166D01*
X148166667Y-108407166D02*
X148200000Y-108340500D01*
X148200000Y-108340500D02*
X148233333Y-108207166D01*
X148233333Y-108207166D02*
X148233333Y-108107166D01*
X148233333Y-108107166D02*
X148200000Y-107973833D01*
X148200000Y-107973833D02*
X148166667Y-107907166D01*
X148166667Y-107907166D02*
X148100000Y-107840500D01*
X148100000Y-107840500D02*
X148000000Y-107807166D01*
X148000000Y-107807166D02*
X147933333Y-107807166D01*
X147933333Y-107807166D02*
X147833333Y-107840500D01*
X147833333Y-107840500D02*
X147800000Y-107873833D01*
X147200000Y-108040500D02*
X147200000Y-108507166D01*
X147366667Y-107773833D02*
X147533333Y-108273833D01*
X147533333Y-108273833D02*
X147100000Y-108273833D01*
X146500000Y-107807166D02*
X146833333Y-107807166D01*
X146833333Y-107807166D02*
X146866666Y-108140500D01*
X146866666Y-108140500D02*
X146833333Y-108107166D01*
X146833333Y-108107166D02*
X146766666Y-108073833D01*
X146766666Y-108073833D02*
X146600000Y-108073833D01*
X146600000Y-108073833D02*
X146533333Y-108107166D01*
X146533333Y-108107166D02*
X146500000Y-108140500D01*
X146500000Y-108140500D02*
X146466666Y-108207166D01*
X146466666Y-108207166D02*
X146466666Y-108373833D01*
X146466666Y-108373833D02*
X146500000Y-108440500D01*
X146500000Y-108440500D02*
X146533333Y-108473833D01*
X146533333Y-108473833D02*
X146600000Y-108507166D01*
X146600000Y-108507166D02*
X146766666Y-108507166D01*
X146766666Y-108507166D02*
X146833333Y-108473833D01*
X146833333Y-108473833D02*
X146866666Y-108440500D01*
%TO.C,C31*%
X144890500Y-112499999D02*
X144923833Y-112466666D01*
X144923833Y-112466666D02*
X144957166Y-112366666D01*
X144957166Y-112366666D02*
X144957166Y-112299999D01*
X144957166Y-112299999D02*
X144923833Y-112199999D01*
X144923833Y-112199999D02*
X144857166Y-112133333D01*
X144857166Y-112133333D02*
X144790500Y-112099999D01*
X144790500Y-112099999D02*
X144657166Y-112066666D01*
X144657166Y-112066666D02*
X144557166Y-112066666D01*
X144557166Y-112066666D02*
X144423833Y-112099999D01*
X144423833Y-112099999D02*
X144357166Y-112133333D01*
X144357166Y-112133333D02*
X144290500Y-112199999D01*
X144290500Y-112199999D02*
X144257166Y-112299999D01*
X144257166Y-112299999D02*
X144257166Y-112366666D01*
X144257166Y-112366666D02*
X144290500Y-112466666D01*
X144290500Y-112466666D02*
X144323833Y-112499999D01*
X144257166Y-112733333D02*
X144257166Y-113166666D01*
X144257166Y-113166666D02*
X144523833Y-112933333D01*
X144523833Y-112933333D02*
X144523833Y-113033333D01*
X144523833Y-113033333D02*
X144557166Y-113099999D01*
X144557166Y-113099999D02*
X144590500Y-113133333D01*
X144590500Y-113133333D02*
X144657166Y-113166666D01*
X144657166Y-113166666D02*
X144823833Y-113166666D01*
X144823833Y-113166666D02*
X144890500Y-113133333D01*
X144890500Y-113133333D02*
X144923833Y-113099999D01*
X144923833Y-113099999D02*
X144957166Y-113033333D01*
X144957166Y-113033333D02*
X144957166Y-112833333D01*
X144957166Y-112833333D02*
X144923833Y-112766666D01*
X144923833Y-112766666D02*
X144890500Y-112733333D01*
X144957166Y-113833333D02*
X144957166Y-113433333D01*
X144957166Y-113633333D02*
X144257166Y-113633333D01*
X144257166Y-113633333D02*
X144357166Y-113566666D01*
X144357166Y-113566666D02*
X144423833Y-113500000D01*
X144423833Y-113500000D02*
X144457166Y-113433333D01*
%TO.C,R13*%
X158600000Y-96757166D02*
X158833333Y-96423833D01*
X159000000Y-96757166D02*
X159000000Y-96057166D01*
X159000000Y-96057166D02*
X158733333Y-96057166D01*
X158733333Y-96057166D02*
X158666667Y-96090500D01*
X158666667Y-96090500D02*
X158633333Y-96123833D01*
X158633333Y-96123833D02*
X158600000Y-96190500D01*
X158600000Y-96190500D02*
X158600000Y-96290500D01*
X158600000Y-96290500D02*
X158633333Y-96357166D01*
X158633333Y-96357166D02*
X158666667Y-96390500D01*
X158666667Y-96390500D02*
X158733333Y-96423833D01*
X158733333Y-96423833D02*
X159000000Y-96423833D01*
X157933333Y-96757166D02*
X158333333Y-96757166D01*
X158133333Y-96757166D02*
X158133333Y-96057166D01*
X158133333Y-96057166D02*
X158200000Y-96157166D01*
X158200000Y-96157166D02*
X158266667Y-96223833D01*
X158266667Y-96223833D02*
X158333333Y-96257166D01*
X157700000Y-96057166D02*
X157266666Y-96057166D01*
X157266666Y-96057166D02*
X157500000Y-96323833D01*
X157500000Y-96323833D02*
X157400000Y-96323833D01*
X157400000Y-96323833D02*
X157333333Y-96357166D01*
X157333333Y-96357166D02*
X157300000Y-96390500D01*
X157300000Y-96390500D02*
X157266666Y-96457166D01*
X157266666Y-96457166D02*
X157266666Y-96623833D01*
X157266666Y-96623833D02*
X157300000Y-96690500D01*
X157300000Y-96690500D02*
X157333333Y-96723833D01*
X157333333Y-96723833D02*
X157400000Y-96757166D01*
X157400000Y-96757166D02*
X157600000Y-96757166D01*
X157600000Y-96757166D02*
X157666666Y-96723833D01*
X157666666Y-96723833D02*
X157700000Y-96690500D01*
%TO.C,C20*%
X158000000Y-105040500D02*
X158033333Y-105073833D01*
X158033333Y-105073833D02*
X158133333Y-105107166D01*
X158133333Y-105107166D02*
X158200000Y-105107166D01*
X158200000Y-105107166D02*
X158300000Y-105073833D01*
X158300000Y-105073833D02*
X158366667Y-105007166D01*
X158366667Y-105007166D02*
X158400000Y-104940500D01*
X158400000Y-104940500D02*
X158433333Y-104807166D01*
X158433333Y-104807166D02*
X158433333Y-104707166D01*
X158433333Y-104707166D02*
X158400000Y-104573833D01*
X158400000Y-104573833D02*
X158366667Y-104507166D01*
X158366667Y-104507166D02*
X158300000Y-104440500D01*
X158300000Y-104440500D02*
X158200000Y-104407166D01*
X158200000Y-104407166D02*
X158133333Y-104407166D01*
X158133333Y-104407166D02*
X158033333Y-104440500D01*
X158033333Y-104440500D02*
X158000000Y-104473833D01*
X157733333Y-104473833D02*
X157700000Y-104440500D01*
X157700000Y-104440500D02*
X157633333Y-104407166D01*
X157633333Y-104407166D02*
X157466667Y-104407166D01*
X157466667Y-104407166D02*
X157400000Y-104440500D01*
X157400000Y-104440500D02*
X157366667Y-104473833D01*
X157366667Y-104473833D02*
X157333333Y-104540500D01*
X157333333Y-104540500D02*
X157333333Y-104607166D01*
X157333333Y-104607166D02*
X157366667Y-104707166D01*
X157366667Y-104707166D02*
X157766667Y-105107166D01*
X157766667Y-105107166D02*
X157333333Y-105107166D01*
X156900000Y-104407166D02*
X156833333Y-104407166D01*
X156833333Y-104407166D02*
X156766666Y-104440500D01*
X156766666Y-104440500D02*
X156733333Y-104473833D01*
X156733333Y-104473833D02*
X156700000Y-104540500D01*
X156700000Y-104540500D02*
X156666666Y-104673833D01*
X156666666Y-104673833D02*
X156666666Y-104840500D01*
X156666666Y-104840500D02*
X156700000Y-104973833D01*
X156700000Y-104973833D02*
X156733333Y-105040500D01*
X156733333Y-105040500D02*
X156766666Y-105073833D01*
X156766666Y-105073833D02*
X156833333Y-105107166D01*
X156833333Y-105107166D02*
X156900000Y-105107166D01*
X156900000Y-105107166D02*
X156966666Y-105073833D01*
X156966666Y-105073833D02*
X157000000Y-105040500D01*
X157000000Y-105040500D02*
X157033333Y-104973833D01*
X157033333Y-104973833D02*
X157066666Y-104840500D01*
X157066666Y-104840500D02*
X157066666Y-104673833D01*
X157066666Y-104673833D02*
X157033333Y-104540500D01*
X157033333Y-104540500D02*
X157000000Y-104473833D01*
X157000000Y-104473833D02*
X156966666Y-104440500D01*
X156966666Y-104440500D02*
X156900000Y-104407166D01*
%TO.C,C12*%
X149500000Y-102740500D02*
X149533333Y-102773833D01*
X149533333Y-102773833D02*
X149633333Y-102807166D01*
X149633333Y-102807166D02*
X149700000Y-102807166D01*
X149700000Y-102807166D02*
X149800000Y-102773833D01*
X149800000Y-102773833D02*
X149866667Y-102707166D01*
X149866667Y-102707166D02*
X149900000Y-102640500D01*
X149900000Y-102640500D02*
X149933333Y-102507166D01*
X149933333Y-102507166D02*
X149933333Y-102407166D01*
X149933333Y-102407166D02*
X149900000Y-102273833D01*
X149900000Y-102273833D02*
X149866667Y-102207166D01*
X149866667Y-102207166D02*
X149800000Y-102140500D01*
X149800000Y-102140500D02*
X149700000Y-102107166D01*
X149700000Y-102107166D02*
X149633333Y-102107166D01*
X149633333Y-102107166D02*
X149533333Y-102140500D01*
X149533333Y-102140500D02*
X149500000Y-102173833D01*
X148833333Y-102807166D02*
X149233333Y-102807166D01*
X149033333Y-102807166D02*
X149033333Y-102107166D01*
X149033333Y-102107166D02*
X149100000Y-102207166D01*
X149100000Y-102207166D02*
X149166667Y-102273833D01*
X149166667Y-102273833D02*
X149233333Y-102307166D01*
X148566666Y-102173833D02*
X148533333Y-102140500D01*
X148533333Y-102140500D02*
X148466666Y-102107166D01*
X148466666Y-102107166D02*
X148300000Y-102107166D01*
X148300000Y-102107166D02*
X148233333Y-102140500D01*
X148233333Y-102140500D02*
X148200000Y-102173833D01*
X148200000Y-102173833D02*
X148166666Y-102240500D01*
X148166666Y-102240500D02*
X148166666Y-102307166D01*
X148166666Y-102307166D02*
X148200000Y-102407166D01*
X148200000Y-102407166D02*
X148600000Y-102807166D01*
X148600000Y-102807166D02*
X148166666Y-102807166D01*
%TO.C,C36*%
X160000000Y-116090500D02*
X160033333Y-116123833D01*
X160033333Y-116123833D02*
X160133333Y-116157166D01*
X160133333Y-116157166D02*
X160200000Y-116157166D01*
X160200000Y-116157166D02*
X160300000Y-116123833D01*
X160300000Y-116123833D02*
X160366667Y-116057166D01*
X160366667Y-116057166D02*
X160400000Y-115990500D01*
X160400000Y-115990500D02*
X160433333Y-115857166D01*
X160433333Y-115857166D02*
X160433333Y-115757166D01*
X160433333Y-115757166D02*
X160400000Y-115623833D01*
X160400000Y-115623833D02*
X160366667Y-115557166D01*
X160366667Y-115557166D02*
X160300000Y-115490500D01*
X160300000Y-115490500D02*
X160200000Y-115457166D01*
X160200000Y-115457166D02*
X160133333Y-115457166D01*
X160133333Y-115457166D02*
X160033333Y-115490500D01*
X160033333Y-115490500D02*
X160000000Y-115523833D01*
X159766667Y-115457166D02*
X159333333Y-115457166D01*
X159333333Y-115457166D02*
X159566667Y-115723833D01*
X159566667Y-115723833D02*
X159466667Y-115723833D01*
X159466667Y-115723833D02*
X159400000Y-115757166D01*
X159400000Y-115757166D02*
X159366667Y-115790500D01*
X159366667Y-115790500D02*
X159333333Y-115857166D01*
X159333333Y-115857166D02*
X159333333Y-116023833D01*
X159333333Y-116023833D02*
X159366667Y-116090500D01*
X159366667Y-116090500D02*
X159400000Y-116123833D01*
X159400000Y-116123833D02*
X159466667Y-116157166D01*
X159466667Y-116157166D02*
X159666667Y-116157166D01*
X159666667Y-116157166D02*
X159733333Y-116123833D01*
X159733333Y-116123833D02*
X159766667Y-116090500D01*
X158733333Y-115457166D02*
X158866666Y-115457166D01*
X158866666Y-115457166D02*
X158933333Y-115490500D01*
X158933333Y-115490500D02*
X158966666Y-115523833D01*
X158966666Y-115523833D02*
X159033333Y-115623833D01*
X159033333Y-115623833D02*
X159066666Y-115757166D01*
X159066666Y-115757166D02*
X159066666Y-116023833D01*
X159066666Y-116023833D02*
X159033333Y-116090500D01*
X159033333Y-116090500D02*
X159000000Y-116123833D01*
X159000000Y-116123833D02*
X158933333Y-116157166D01*
X158933333Y-116157166D02*
X158800000Y-116157166D01*
X158800000Y-116157166D02*
X158733333Y-116123833D01*
X158733333Y-116123833D02*
X158700000Y-116090500D01*
X158700000Y-116090500D02*
X158666666Y-116023833D01*
X158666666Y-116023833D02*
X158666666Y-115857166D01*
X158666666Y-115857166D02*
X158700000Y-115790500D01*
X158700000Y-115790500D02*
X158733333Y-115757166D01*
X158733333Y-115757166D02*
X158800000Y-115723833D01*
X158800000Y-115723833D02*
X158933333Y-115723833D01*
X158933333Y-115723833D02*
X159000000Y-115757166D01*
X159000000Y-115757166D02*
X159033333Y-115790500D01*
X159033333Y-115790500D02*
X159066666Y-115857166D01*
%TO.C,C37*%
X144050000Y-107490500D02*
X144083333Y-107523833D01*
X144083333Y-107523833D02*
X144183333Y-107557166D01*
X144183333Y-107557166D02*
X144250000Y-107557166D01*
X144250000Y-107557166D02*
X144350000Y-107523833D01*
X144350000Y-107523833D02*
X144416667Y-107457166D01*
X144416667Y-107457166D02*
X144450000Y-107390500D01*
X144450000Y-107390500D02*
X144483333Y-107257166D01*
X144483333Y-107257166D02*
X144483333Y-107157166D01*
X144483333Y-107157166D02*
X144450000Y-107023833D01*
X144450000Y-107023833D02*
X144416667Y-106957166D01*
X144416667Y-106957166D02*
X144350000Y-106890500D01*
X144350000Y-106890500D02*
X144250000Y-106857166D01*
X144250000Y-106857166D02*
X144183333Y-106857166D01*
X144183333Y-106857166D02*
X144083333Y-106890500D01*
X144083333Y-106890500D02*
X144050000Y-106923833D01*
X143816667Y-106857166D02*
X143383333Y-106857166D01*
X143383333Y-106857166D02*
X143616667Y-107123833D01*
X143616667Y-107123833D02*
X143516667Y-107123833D01*
X143516667Y-107123833D02*
X143450000Y-107157166D01*
X143450000Y-107157166D02*
X143416667Y-107190500D01*
X143416667Y-107190500D02*
X143383333Y-107257166D01*
X143383333Y-107257166D02*
X143383333Y-107423833D01*
X143383333Y-107423833D02*
X143416667Y-107490500D01*
X143416667Y-107490500D02*
X143450000Y-107523833D01*
X143450000Y-107523833D02*
X143516667Y-107557166D01*
X143516667Y-107557166D02*
X143716667Y-107557166D01*
X143716667Y-107557166D02*
X143783333Y-107523833D01*
X143783333Y-107523833D02*
X143816667Y-107490500D01*
X143150000Y-106857166D02*
X142683333Y-106857166D01*
X142683333Y-106857166D02*
X142983333Y-107557166D01*
%TO.C,C8*%
X157340500Y-117433333D02*
X157373833Y-117400000D01*
X157373833Y-117400000D02*
X157407166Y-117300000D01*
X157407166Y-117300000D02*
X157407166Y-117233333D01*
X157407166Y-117233333D02*
X157373833Y-117133333D01*
X157373833Y-117133333D02*
X157307166Y-117066667D01*
X157307166Y-117066667D02*
X157240500Y-117033333D01*
X157240500Y-117033333D02*
X157107166Y-117000000D01*
X157107166Y-117000000D02*
X157007166Y-117000000D01*
X157007166Y-117000000D02*
X156873833Y-117033333D01*
X156873833Y-117033333D02*
X156807166Y-117066667D01*
X156807166Y-117066667D02*
X156740500Y-117133333D01*
X156740500Y-117133333D02*
X156707166Y-117233333D01*
X156707166Y-117233333D02*
X156707166Y-117300000D01*
X156707166Y-117300000D02*
X156740500Y-117400000D01*
X156740500Y-117400000D02*
X156773833Y-117433333D01*
X157007166Y-117833333D02*
X156973833Y-117766667D01*
X156973833Y-117766667D02*
X156940500Y-117733333D01*
X156940500Y-117733333D02*
X156873833Y-117700000D01*
X156873833Y-117700000D02*
X156840500Y-117700000D01*
X156840500Y-117700000D02*
X156773833Y-117733333D01*
X156773833Y-117733333D02*
X156740500Y-117766667D01*
X156740500Y-117766667D02*
X156707166Y-117833333D01*
X156707166Y-117833333D02*
X156707166Y-117966667D01*
X156707166Y-117966667D02*
X156740500Y-118033333D01*
X156740500Y-118033333D02*
X156773833Y-118066667D01*
X156773833Y-118066667D02*
X156840500Y-118100000D01*
X156840500Y-118100000D02*
X156873833Y-118100000D01*
X156873833Y-118100000D02*
X156940500Y-118066667D01*
X156940500Y-118066667D02*
X156973833Y-118033333D01*
X156973833Y-118033333D02*
X157007166Y-117966667D01*
X157007166Y-117966667D02*
X157007166Y-117833333D01*
X157007166Y-117833333D02*
X157040500Y-117766667D01*
X157040500Y-117766667D02*
X157073833Y-117733333D01*
X157073833Y-117733333D02*
X157140500Y-117700000D01*
X157140500Y-117700000D02*
X157273833Y-117700000D01*
X157273833Y-117700000D02*
X157340500Y-117733333D01*
X157340500Y-117733333D02*
X157373833Y-117766667D01*
X157373833Y-117766667D02*
X157407166Y-117833333D01*
X157407166Y-117833333D02*
X157407166Y-117966667D01*
X157407166Y-117966667D02*
X157373833Y-118033333D01*
X157373833Y-118033333D02*
X157340500Y-118066667D01*
X157340500Y-118066667D02*
X157273833Y-118100000D01*
X157273833Y-118100000D02*
X157140500Y-118100000D01*
X157140500Y-118100000D02*
X157073833Y-118066667D01*
X157073833Y-118066667D02*
X157040500Y-118033333D01*
X157040500Y-118033333D02*
X157007166Y-117966667D01*
%TO.C,C30*%
X155645500Y-93599999D02*
X155678833Y-93566666D01*
X155678833Y-93566666D02*
X155712166Y-93466666D01*
X155712166Y-93466666D02*
X155712166Y-93399999D01*
X155712166Y-93399999D02*
X155678833Y-93299999D01*
X155678833Y-93299999D02*
X155612166Y-93233333D01*
X155612166Y-93233333D02*
X155545500Y-93199999D01*
X155545500Y-93199999D02*
X155412166Y-93166666D01*
X155412166Y-93166666D02*
X155312166Y-93166666D01*
X155312166Y-93166666D02*
X155178833Y-93199999D01*
X155178833Y-93199999D02*
X155112166Y-93233333D01*
X155112166Y-93233333D02*
X155045500Y-93299999D01*
X155045500Y-93299999D02*
X155012166Y-93399999D01*
X155012166Y-93399999D02*
X155012166Y-93466666D01*
X155012166Y-93466666D02*
X155045500Y-93566666D01*
X155045500Y-93566666D02*
X155078833Y-93599999D01*
X155012166Y-93833333D02*
X155012166Y-94266666D01*
X155012166Y-94266666D02*
X155278833Y-94033333D01*
X155278833Y-94033333D02*
X155278833Y-94133333D01*
X155278833Y-94133333D02*
X155312166Y-94199999D01*
X155312166Y-94199999D02*
X155345500Y-94233333D01*
X155345500Y-94233333D02*
X155412166Y-94266666D01*
X155412166Y-94266666D02*
X155578833Y-94266666D01*
X155578833Y-94266666D02*
X155645500Y-94233333D01*
X155645500Y-94233333D02*
X155678833Y-94199999D01*
X155678833Y-94199999D02*
X155712166Y-94133333D01*
X155712166Y-94133333D02*
X155712166Y-93933333D01*
X155712166Y-93933333D02*
X155678833Y-93866666D01*
X155678833Y-93866666D02*
X155645500Y-93833333D01*
X155012166Y-94700000D02*
X155012166Y-94766666D01*
X155012166Y-94766666D02*
X155045500Y-94833333D01*
X155045500Y-94833333D02*
X155078833Y-94866666D01*
X155078833Y-94866666D02*
X155145500Y-94900000D01*
X155145500Y-94900000D02*
X155278833Y-94933333D01*
X155278833Y-94933333D02*
X155445500Y-94933333D01*
X155445500Y-94933333D02*
X155578833Y-94900000D01*
X155578833Y-94900000D02*
X155645500Y-94866666D01*
X155645500Y-94866666D02*
X155678833Y-94833333D01*
X155678833Y-94833333D02*
X155712166Y-94766666D01*
X155712166Y-94766666D02*
X155712166Y-94700000D01*
X155712166Y-94700000D02*
X155678833Y-94633333D01*
X155678833Y-94633333D02*
X155645500Y-94600000D01*
X155645500Y-94600000D02*
X155578833Y-94566666D01*
X155578833Y-94566666D02*
X155445500Y-94533333D01*
X155445500Y-94533333D02*
X155278833Y-94533333D01*
X155278833Y-94533333D02*
X155145500Y-94566666D01*
X155145500Y-94566666D02*
X155078833Y-94600000D01*
X155078833Y-94600000D02*
X155045500Y-94633333D01*
X155045500Y-94633333D02*
X155012166Y-94700000D01*
%TO.C,FB3*%
X161090500Y-103316667D02*
X161090500Y-103083333D01*
X161457166Y-103083333D02*
X160757166Y-103083333D01*
X160757166Y-103083333D02*
X160757166Y-103416667D01*
X161090500Y-103916667D02*
X161123833Y-104016667D01*
X161123833Y-104016667D02*
X161157166Y-104050000D01*
X161157166Y-104050000D02*
X161223833Y-104083333D01*
X161223833Y-104083333D02*
X161323833Y-104083333D01*
X161323833Y-104083333D02*
X161390500Y-104050000D01*
X161390500Y-104050000D02*
X161423833Y-104016667D01*
X161423833Y-104016667D02*
X161457166Y-103950000D01*
X161457166Y-103950000D02*
X161457166Y-103683333D01*
X161457166Y-103683333D02*
X160757166Y-103683333D01*
X160757166Y-103683333D02*
X160757166Y-103916667D01*
X160757166Y-103916667D02*
X160790500Y-103983333D01*
X160790500Y-103983333D02*
X160823833Y-104016667D01*
X160823833Y-104016667D02*
X160890500Y-104050000D01*
X160890500Y-104050000D02*
X160957166Y-104050000D01*
X160957166Y-104050000D02*
X161023833Y-104016667D01*
X161023833Y-104016667D02*
X161057166Y-103983333D01*
X161057166Y-103983333D02*
X161090500Y-103916667D01*
X161090500Y-103916667D02*
X161090500Y-103683333D01*
X160757166Y-104316667D02*
X160757166Y-104750000D01*
X160757166Y-104750000D02*
X161023833Y-104516667D01*
X161023833Y-104516667D02*
X161023833Y-104616667D01*
X161023833Y-104616667D02*
X161057166Y-104683333D01*
X161057166Y-104683333D02*
X161090500Y-104716667D01*
X161090500Y-104716667D02*
X161157166Y-104750000D01*
X161157166Y-104750000D02*
X161323833Y-104750000D01*
X161323833Y-104750000D02*
X161390500Y-104716667D01*
X161390500Y-104716667D02*
X161423833Y-104683333D01*
X161423833Y-104683333D02*
X161457166Y-104616667D01*
X161457166Y-104616667D02*
X161457166Y-104416667D01*
X161457166Y-104416667D02*
X161423833Y-104350000D01*
X161423833Y-104350000D02*
X161390500Y-104316667D01*
%TO.C,C18*%
X150590500Y-109049999D02*
X150623833Y-109016666D01*
X150623833Y-109016666D02*
X150657166Y-108916666D01*
X150657166Y-108916666D02*
X150657166Y-108849999D01*
X150657166Y-108849999D02*
X150623833Y-108749999D01*
X150623833Y-108749999D02*
X150557166Y-108683333D01*
X150557166Y-108683333D02*
X150490500Y-108649999D01*
X150490500Y-108649999D02*
X150357166Y-108616666D01*
X150357166Y-108616666D02*
X150257166Y-108616666D01*
X150257166Y-108616666D02*
X150123833Y-108649999D01*
X150123833Y-108649999D02*
X150057166Y-108683333D01*
X150057166Y-108683333D02*
X149990500Y-108749999D01*
X149990500Y-108749999D02*
X149957166Y-108849999D01*
X149957166Y-108849999D02*
X149957166Y-108916666D01*
X149957166Y-108916666D02*
X149990500Y-109016666D01*
X149990500Y-109016666D02*
X150023833Y-109049999D01*
X150657166Y-109716666D02*
X150657166Y-109316666D01*
X150657166Y-109516666D02*
X149957166Y-109516666D01*
X149957166Y-109516666D02*
X150057166Y-109449999D01*
X150057166Y-109449999D02*
X150123833Y-109383333D01*
X150123833Y-109383333D02*
X150157166Y-109316666D01*
X150257166Y-110116666D02*
X150223833Y-110050000D01*
X150223833Y-110050000D02*
X150190500Y-110016666D01*
X150190500Y-110016666D02*
X150123833Y-109983333D01*
X150123833Y-109983333D02*
X150090500Y-109983333D01*
X150090500Y-109983333D02*
X150023833Y-110016666D01*
X150023833Y-110016666D02*
X149990500Y-110050000D01*
X149990500Y-110050000D02*
X149957166Y-110116666D01*
X149957166Y-110116666D02*
X149957166Y-110250000D01*
X149957166Y-110250000D02*
X149990500Y-110316666D01*
X149990500Y-110316666D02*
X150023833Y-110350000D01*
X150023833Y-110350000D02*
X150090500Y-110383333D01*
X150090500Y-110383333D02*
X150123833Y-110383333D01*
X150123833Y-110383333D02*
X150190500Y-110350000D01*
X150190500Y-110350000D02*
X150223833Y-110316666D01*
X150223833Y-110316666D02*
X150257166Y-110250000D01*
X150257166Y-110250000D02*
X150257166Y-110116666D01*
X150257166Y-110116666D02*
X150290500Y-110050000D01*
X150290500Y-110050000D02*
X150323833Y-110016666D01*
X150323833Y-110016666D02*
X150390500Y-109983333D01*
X150390500Y-109983333D02*
X150523833Y-109983333D01*
X150523833Y-109983333D02*
X150590500Y-110016666D01*
X150590500Y-110016666D02*
X150623833Y-110050000D01*
X150623833Y-110050000D02*
X150657166Y-110116666D01*
X150657166Y-110116666D02*
X150657166Y-110250000D01*
X150657166Y-110250000D02*
X150623833Y-110316666D01*
X150623833Y-110316666D02*
X150590500Y-110350000D01*
X150590500Y-110350000D02*
X150523833Y-110383333D01*
X150523833Y-110383333D02*
X150390500Y-110383333D01*
X150390500Y-110383333D02*
X150323833Y-110350000D01*
X150323833Y-110350000D02*
X150290500Y-110316666D01*
X150290500Y-110316666D02*
X150257166Y-110250000D01*
%TO.C,C16*%
X161615500Y-107399999D02*
X161648833Y-107366666D01*
X161648833Y-107366666D02*
X161682166Y-107266666D01*
X161682166Y-107266666D02*
X161682166Y-107199999D01*
X161682166Y-107199999D02*
X161648833Y-107099999D01*
X161648833Y-107099999D02*
X161582166Y-107033333D01*
X161582166Y-107033333D02*
X161515500Y-106999999D01*
X161515500Y-106999999D02*
X161382166Y-106966666D01*
X161382166Y-106966666D02*
X161282166Y-106966666D01*
X161282166Y-106966666D02*
X161148833Y-106999999D01*
X161148833Y-106999999D02*
X161082166Y-107033333D01*
X161082166Y-107033333D02*
X161015500Y-107099999D01*
X161015500Y-107099999D02*
X160982166Y-107199999D01*
X160982166Y-107199999D02*
X160982166Y-107266666D01*
X160982166Y-107266666D02*
X161015500Y-107366666D01*
X161015500Y-107366666D02*
X161048833Y-107399999D01*
X161682166Y-108066666D02*
X161682166Y-107666666D01*
X161682166Y-107866666D02*
X160982166Y-107866666D01*
X160982166Y-107866666D02*
X161082166Y-107799999D01*
X161082166Y-107799999D02*
X161148833Y-107733333D01*
X161148833Y-107733333D02*
X161182166Y-107666666D01*
X160982166Y-108666666D02*
X160982166Y-108533333D01*
X160982166Y-108533333D02*
X161015500Y-108466666D01*
X161015500Y-108466666D02*
X161048833Y-108433333D01*
X161048833Y-108433333D02*
X161148833Y-108366666D01*
X161148833Y-108366666D02*
X161282166Y-108333333D01*
X161282166Y-108333333D02*
X161548833Y-108333333D01*
X161548833Y-108333333D02*
X161615500Y-108366666D01*
X161615500Y-108366666D02*
X161648833Y-108400000D01*
X161648833Y-108400000D02*
X161682166Y-108466666D01*
X161682166Y-108466666D02*
X161682166Y-108600000D01*
X161682166Y-108600000D02*
X161648833Y-108666666D01*
X161648833Y-108666666D02*
X161615500Y-108700000D01*
X161615500Y-108700000D02*
X161548833Y-108733333D01*
X161548833Y-108733333D02*
X161382166Y-108733333D01*
X161382166Y-108733333D02*
X161315500Y-108700000D01*
X161315500Y-108700000D02*
X161282166Y-108666666D01*
X161282166Y-108666666D02*
X161248833Y-108600000D01*
X161248833Y-108600000D02*
X161248833Y-108466666D01*
X161248833Y-108466666D02*
X161282166Y-108400000D01*
X161282166Y-108400000D02*
X161315500Y-108366666D01*
X161315500Y-108366666D02*
X161382166Y-108333333D01*
%TO.C,C33*%
X161800000Y-102640500D02*
X161833333Y-102673833D01*
X161833333Y-102673833D02*
X161933333Y-102707166D01*
X161933333Y-102707166D02*
X162000000Y-102707166D01*
X162000000Y-102707166D02*
X162100000Y-102673833D01*
X162100000Y-102673833D02*
X162166667Y-102607166D01*
X162166667Y-102607166D02*
X162200000Y-102540500D01*
X162200000Y-102540500D02*
X162233333Y-102407166D01*
X162233333Y-102407166D02*
X162233333Y-102307166D01*
X162233333Y-102307166D02*
X162200000Y-102173833D01*
X162200000Y-102173833D02*
X162166667Y-102107166D01*
X162166667Y-102107166D02*
X162100000Y-102040500D01*
X162100000Y-102040500D02*
X162000000Y-102007166D01*
X162000000Y-102007166D02*
X161933333Y-102007166D01*
X161933333Y-102007166D02*
X161833333Y-102040500D01*
X161833333Y-102040500D02*
X161800000Y-102073833D01*
X161566667Y-102007166D02*
X161133333Y-102007166D01*
X161133333Y-102007166D02*
X161366667Y-102273833D01*
X161366667Y-102273833D02*
X161266667Y-102273833D01*
X161266667Y-102273833D02*
X161200000Y-102307166D01*
X161200000Y-102307166D02*
X161166667Y-102340500D01*
X161166667Y-102340500D02*
X161133333Y-102407166D01*
X161133333Y-102407166D02*
X161133333Y-102573833D01*
X161133333Y-102573833D02*
X161166667Y-102640500D01*
X161166667Y-102640500D02*
X161200000Y-102673833D01*
X161200000Y-102673833D02*
X161266667Y-102707166D01*
X161266667Y-102707166D02*
X161466667Y-102707166D01*
X161466667Y-102707166D02*
X161533333Y-102673833D01*
X161533333Y-102673833D02*
X161566667Y-102640500D01*
X160900000Y-102007166D02*
X160466666Y-102007166D01*
X160466666Y-102007166D02*
X160700000Y-102273833D01*
X160700000Y-102273833D02*
X160600000Y-102273833D01*
X160600000Y-102273833D02*
X160533333Y-102307166D01*
X160533333Y-102307166D02*
X160500000Y-102340500D01*
X160500000Y-102340500D02*
X160466666Y-102407166D01*
X160466666Y-102407166D02*
X160466666Y-102573833D01*
X160466666Y-102573833D02*
X160500000Y-102640500D01*
X160500000Y-102640500D02*
X160533333Y-102673833D01*
X160533333Y-102673833D02*
X160600000Y-102707166D01*
X160600000Y-102707166D02*
X160800000Y-102707166D01*
X160800000Y-102707166D02*
X160866666Y-102673833D01*
X160866666Y-102673833D02*
X160900000Y-102640500D01*
%TO.C,R16*%
X156400000Y-96757166D02*
X156633333Y-96423833D01*
X156800000Y-96757166D02*
X156800000Y-96057166D01*
X156800000Y-96057166D02*
X156533333Y-96057166D01*
X156533333Y-96057166D02*
X156466667Y-96090500D01*
X156466667Y-96090500D02*
X156433333Y-96123833D01*
X156433333Y-96123833D02*
X156400000Y-96190500D01*
X156400000Y-96190500D02*
X156400000Y-96290500D01*
X156400000Y-96290500D02*
X156433333Y-96357166D01*
X156433333Y-96357166D02*
X156466667Y-96390500D01*
X156466667Y-96390500D02*
X156533333Y-96423833D01*
X156533333Y-96423833D02*
X156800000Y-96423833D01*
X155733333Y-96757166D02*
X156133333Y-96757166D01*
X155933333Y-96757166D02*
X155933333Y-96057166D01*
X155933333Y-96057166D02*
X156000000Y-96157166D01*
X156000000Y-96157166D02*
X156066667Y-96223833D01*
X156066667Y-96223833D02*
X156133333Y-96257166D01*
X155133333Y-96057166D02*
X155266666Y-96057166D01*
X155266666Y-96057166D02*
X155333333Y-96090500D01*
X155333333Y-96090500D02*
X155366666Y-96123833D01*
X155366666Y-96123833D02*
X155433333Y-96223833D01*
X155433333Y-96223833D02*
X155466666Y-96357166D01*
X155466666Y-96357166D02*
X155466666Y-96623833D01*
X155466666Y-96623833D02*
X155433333Y-96690500D01*
X155433333Y-96690500D02*
X155400000Y-96723833D01*
X155400000Y-96723833D02*
X155333333Y-96757166D01*
X155333333Y-96757166D02*
X155200000Y-96757166D01*
X155200000Y-96757166D02*
X155133333Y-96723833D01*
X155133333Y-96723833D02*
X155100000Y-96690500D01*
X155100000Y-96690500D02*
X155066666Y-96623833D01*
X155066666Y-96623833D02*
X155066666Y-96457166D01*
X155066666Y-96457166D02*
X155100000Y-96390500D01*
X155100000Y-96390500D02*
X155133333Y-96357166D01*
X155133333Y-96357166D02*
X155200000Y-96323833D01*
X155200000Y-96323833D02*
X155333333Y-96323833D01*
X155333333Y-96323833D02*
X155400000Y-96357166D01*
X155400000Y-96357166D02*
X155433333Y-96390500D01*
X155433333Y-96390500D02*
X155466666Y-96457166D01*
%TO.C,C69*%
X159940500Y-99899999D02*
X159973833Y-99866666D01*
X159973833Y-99866666D02*
X160007166Y-99766666D01*
X160007166Y-99766666D02*
X160007166Y-99699999D01*
X160007166Y-99699999D02*
X159973833Y-99599999D01*
X159973833Y-99599999D02*
X159907166Y-99533333D01*
X159907166Y-99533333D02*
X159840500Y-99499999D01*
X159840500Y-99499999D02*
X159707166Y-99466666D01*
X159707166Y-99466666D02*
X159607166Y-99466666D01*
X159607166Y-99466666D02*
X159473833Y-99499999D01*
X159473833Y-99499999D02*
X159407166Y-99533333D01*
X159407166Y-99533333D02*
X159340500Y-99599999D01*
X159340500Y-99599999D02*
X159307166Y-99699999D01*
X159307166Y-99699999D02*
X159307166Y-99766666D01*
X159307166Y-99766666D02*
X159340500Y-99866666D01*
X159340500Y-99866666D02*
X159373833Y-99899999D01*
X159307166Y-100499999D02*
X159307166Y-100366666D01*
X159307166Y-100366666D02*
X159340500Y-100299999D01*
X159340500Y-100299999D02*
X159373833Y-100266666D01*
X159373833Y-100266666D02*
X159473833Y-100199999D01*
X159473833Y-100199999D02*
X159607166Y-100166666D01*
X159607166Y-100166666D02*
X159873833Y-100166666D01*
X159873833Y-100166666D02*
X159940500Y-100199999D01*
X159940500Y-100199999D02*
X159973833Y-100233333D01*
X159973833Y-100233333D02*
X160007166Y-100299999D01*
X160007166Y-100299999D02*
X160007166Y-100433333D01*
X160007166Y-100433333D02*
X159973833Y-100499999D01*
X159973833Y-100499999D02*
X159940500Y-100533333D01*
X159940500Y-100533333D02*
X159873833Y-100566666D01*
X159873833Y-100566666D02*
X159707166Y-100566666D01*
X159707166Y-100566666D02*
X159640500Y-100533333D01*
X159640500Y-100533333D02*
X159607166Y-100499999D01*
X159607166Y-100499999D02*
X159573833Y-100433333D01*
X159573833Y-100433333D02*
X159573833Y-100299999D01*
X159573833Y-100299999D02*
X159607166Y-100233333D01*
X159607166Y-100233333D02*
X159640500Y-100199999D01*
X159640500Y-100199999D02*
X159707166Y-100166666D01*
X160007166Y-100900000D02*
X160007166Y-101033333D01*
X160007166Y-101033333D02*
X159973833Y-101100000D01*
X159973833Y-101100000D02*
X159940500Y-101133333D01*
X159940500Y-101133333D02*
X159840500Y-101200000D01*
X159840500Y-101200000D02*
X159707166Y-101233333D01*
X159707166Y-101233333D02*
X159440500Y-101233333D01*
X159440500Y-101233333D02*
X159373833Y-101200000D01*
X159373833Y-101200000D02*
X159340500Y-101166666D01*
X159340500Y-101166666D02*
X159307166Y-101100000D01*
X159307166Y-101100000D02*
X159307166Y-100966666D01*
X159307166Y-100966666D02*
X159340500Y-100900000D01*
X159340500Y-100900000D02*
X159373833Y-100866666D01*
X159373833Y-100866666D02*
X159440500Y-100833333D01*
X159440500Y-100833333D02*
X159607166Y-100833333D01*
X159607166Y-100833333D02*
X159673833Y-100866666D01*
X159673833Y-100866666D02*
X159707166Y-100900000D01*
X159707166Y-100900000D02*
X159740500Y-100966666D01*
X159740500Y-100966666D02*
X159740500Y-101100000D01*
X159740500Y-101100000D02*
X159707166Y-101166666D01*
X159707166Y-101166666D02*
X159673833Y-101200000D01*
X159673833Y-101200000D02*
X159607166Y-101233333D01*
%TO.C,C27*%
X150690500Y-99799999D02*
X150723833Y-99766666D01*
X150723833Y-99766666D02*
X150757166Y-99666666D01*
X150757166Y-99666666D02*
X150757166Y-99599999D01*
X150757166Y-99599999D02*
X150723833Y-99499999D01*
X150723833Y-99499999D02*
X150657166Y-99433333D01*
X150657166Y-99433333D02*
X150590500Y-99399999D01*
X150590500Y-99399999D02*
X150457166Y-99366666D01*
X150457166Y-99366666D02*
X150357166Y-99366666D01*
X150357166Y-99366666D02*
X150223833Y-99399999D01*
X150223833Y-99399999D02*
X150157166Y-99433333D01*
X150157166Y-99433333D02*
X150090500Y-99499999D01*
X150090500Y-99499999D02*
X150057166Y-99599999D01*
X150057166Y-99599999D02*
X150057166Y-99666666D01*
X150057166Y-99666666D02*
X150090500Y-99766666D01*
X150090500Y-99766666D02*
X150123833Y-99799999D01*
X150123833Y-100066666D02*
X150090500Y-100099999D01*
X150090500Y-100099999D02*
X150057166Y-100166666D01*
X150057166Y-100166666D02*
X150057166Y-100333333D01*
X150057166Y-100333333D02*
X150090500Y-100399999D01*
X150090500Y-100399999D02*
X150123833Y-100433333D01*
X150123833Y-100433333D02*
X150190500Y-100466666D01*
X150190500Y-100466666D02*
X150257166Y-100466666D01*
X150257166Y-100466666D02*
X150357166Y-100433333D01*
X150357166Y-100433333D02*
X150757166Y-100033333D01*
X150757166Y-100033333D02*
X150757166Y-100466666D01*
X150057166Y-100700000D02*
X150057166Y-101166666D01*
X150057166Y-101166666D02*
X150757166Y-100866666D01*
%TO.C,C32*%
X161850000Y-101490500D02*
X161883333Y-101523833D01*
X161883333Y-101523833D02*
X161983333Y-101557166D01*
X161983333Y-101557166D02*
X162050000Y-101557166D01*
X162050000Y-101557166D02*
X162150000Y-101523833D01*
X162150000Y-101523833D02*
X162216667Y-101457166D01*
X162216667Y-101457166D02*
X162250000Y-101390500D01*
X162250000Y-101390500D02*
X162283333Y-101257166D01*
X162283333Y-101257166D02*
X162283333Y-101157166D01*
X162283333Y-101157166D02*
X162250000Y-101023833D01*
X162250000Y-101023833D02*
X162216667Y-100957166D01*
X162216667Y-100957166D02*
X162150000Y-100890500D01*
X162150000Y-100890500D02*
X162050000Y-100857166D01*
X162050000Y-100857166D02*
X161983333Y-100857166D01*
X161983333Y-100857166D02*
X161883333Y-100890500D01*
X161883333Y-100890500D02*
X161850000Y-100923833D01*
X161616667Y-100857166D02*
X161183333Y-100857166D01*
X161183333Y-100857166D02*
X161416667Y-101123833D01*
X161416667Y-101123833D02*
X161316667Y-101123833D01*
X161316667Y-101123833D02*
X161250000Y-101157166D01*
X161250000Y-101157166D02*
X161216667Y-101190500D01*
X161216667Y-101190500D02*
X161183333Y-101257166D01*
X161183333Y-101257166D02*
X161183333Y-101423833D01*
X161183333Y-101423833D02*
X161216667Y-101490500D01*
X161216667Y-101490500D02*
X161250000Y-101523833D01*
X161250000Y-101523833D02*
X161316667Y-101557166D01*
X161316667Y-101557166D02*
X161516667Y-101557166D01*
X161516667Y-101557166D02*
X161583333Y-101523833D01*
X161583333Y-101523833D02*
X161616667Y-101490500D01*
X160916666Y-100923833D02*
X160883333Y-100890500D01*
X160883333Y-100890500D02*
X160816666Y-100857166D01*
X160816666Y-100857166D02*
X160650000Y-100857166D01*
X160650000Y-100857166D02*
X160583333Y-100890500D01*
X160583333Y-100890500D02*
X160550000Y-100923833D01*
X160550000Y-100923833D02*
X160516666Y-100990500D01*
X160516666Y-100990500D02*
X160516666Y-101057166D01*
X160516666Y-101057166D02*
X160550000Y-101157166D01*
X160550000Y-101157166D02*
X160950000Y-101557166D01*
X160950000Y-101557166D02*
X160516666Y-101557166D01*
%TO.C,C41*%
X149250000Y-105790500D02*
X149283333Y-105823833D01*
X149283333Y-105823833D02*
X149383333Y-105857166D01*
X149383333Y-105857166D02*
X149450000Y-105857166D01*
X149450000Y-105857166D02*
X149550000Y-105823833D01*
X149550000Y-105823833D02*
X149616667Y-105757166D01*
X149616667Y-105757166D02*
X149650000Y-105690500D01*
X149650000Y-105690500D02*
X149683333Y-105557166D01*
X149683333Y-105557166D02*
X149683333Y-105457166D01*
X149683333Y-105457166D02*
X149650000Y-105323833D01*
X149650000Y-105323833D02*
X149616667Y-105257166D01*
X149616667Y-105257166D02*
X149550000Y-105190500D01*
X149550000Y-105190500D02*
X149450000Y-105157166D01*
X149450000Y-105157166D02*
X149383333Y-105157166D01*
X149383333Y-105157166D02*
X149283333Y-105190500D01*
X149283333Y-105190500D02*
X149250000Y-105223833D01*
X148650000Y-105390500D02*
X148650000Y-105857166D01*
X148816667Y-105123833D02*
X148983333Y-105623833D01*
X148983333Y-105623833D02*
X148550000Y-105623833D01*
X147916666Y-105857166D02*
X148316666Y-105857166D01*
X148116666Y-105857166D02*
X148116666Y-105157166D01*
X148116666Y-105157166D02*
X148183333Y-105257166D01*
X148183333Y-105257166D02*
X148250000Y-105323833D01*
X148250000Y-105323833D02*
X148316666Y-105357166D01*
%TO.C,C19*%
X156790500Y-113849999D02*
X156823833Y-113816666D01*
X156823833Y-113816666D02*
X156857166Y-113716666D01*
X156857166Y-113716666D02*
X156857166Y-113649999D01*
X156857166Y-113649999D02*
X156823833Y-113549999D01*
X156823833Y-113549999D02*
X156757166Y-113483333D01*
X156757166Y-113483333D02*
X156690500Y-113449999D01*
X156690500Y-113449999D02*
X156557166Y-113416666D01*
X156557166Y-113416666D02*
X156457166Y-113416666D01*
X156457166Y-113416666D02*
X156323833Y-113449999D01*
X156323833Y-113449999D02*
X156257166Y-113483333D01*
X156257166Y-113483333D02*
X156190500Y-113549999D01*
X156190500Y-113549999D02*
X156157166Y-113649999D01*
X156157166Y-113649999D02*
X156157166Y-113716666D01*
X156157166Y-113716666D02*
X156190500Y-113816666D01*
X156190500Y-113816666D02*
X156223833Y-113849999D01*
X156857166Y-114516666D02*
X156857166Y-114116666D01*
X156857166Y-114316666D02*
X156157166Y-114316666D01*
X156157166Y-114316666D02*
X156257166Y-114249999D01*
X156257166Y-114249999D02*
X156323833Y-114183333D01*
X156323833Y-114183333D02*
X156357166Y-114116666D01*
X156857166Y-114850000D02*
X156857166Y-114983333D01*
X156857166Y-114983333D02*
X156823833Y-115050000D01*
X156823833Y-115050000D02*
X156790500Y-115083333D01*
X156790500Y-115083333D02*
X156690500Y-115150000D01*
X156690500Y-115150000D02*
X156557166Y-115183333D01*
X156557166Y-115183333D02*
X156290500Y-115183333D01*
X156290500Y-115183333D02*
X156223833Y-115150000D01*
X156223833Y-115150000D02*
X156190500Y-115116666D01*
X156190500Y-115116666D02*
X156157166Y-115050000D01*
X156157166Y-115050000D02*
X156157166Y-114916666D01*
X156157166Y-114916666D02*
X156190500Y-114850000D01*
X156190500Y-114850000D02*
X156223833Y-114816666D01*
X156223833Y-114816666D02*
X156290500Y-114783333D01*
X156290500Y-114783333D02*
X156457166Y-114783333D01*
X156457166Y-114783333D02*
X156523833Y-114816666D01*
X156523833Y-114816666D02*
X156557166Y-114850000D01*
X156557166Y-114850000D02*
X156590500Y-114916666D01*
X156590500Y-114916666D02*
X156590500Y-115050000D01*
X156590500Y-115050000D02*
X156557166Y-115116666D01*
X156557166Y-115116666D02*
X156523833Y-115150000D01*
X156523833Y-115150000D02*
X156457166Y-115183333D01*
%TO.C,C6*%
X144790500Y-102833333D02*
X144823833Y-102800000D01*
X144823833Y-102800000D02*
X144857166Y-102700000D01*
X144857166Y-102700000D02*
X144857166Y-102633333D01*
X144857166Y-102633333D02*
X144823833Y-102533333D01*
X144823833Y-102533333D02*
X144757166Y-102466667D01*
X144757166Y-102466667D02*
X144690500Y-102433333D01*
X144690500Y-102433333D02*
X144557166Y-102400000D01*
X144557166Y-102400000D02*
X144457166Y-102400000D01*
X144457166Y-102400000D02*
X144323833Y-102433333D01*
X144323833Y-102433333D02*
X144257166Y-102466667D01*
X144257166Y-102466667D02*
X144190500Y-102533333D01*
X144190500Y-102533333D02*
X144157166Y-102633333D01*
X144157166Y-102633333D02*
X144157166Y-102700000D01*
X144157166Y-102700000D02*
X144190500Y-102800000D01*
X144190500Y-102800000D02*
X144223833Y-102833333D01*
X144157166Y-103433333D02*
X144157166Y-103300000D01*
X144157166Y-103300000D02*
X144190500Y-103233333D01*
X144190500Y-103233333D02*
X144223833Y-103200000D01*
X144223833Y-103200000D02*
X144323833Y-103133333D01*
X144323833Y-103133333D02*
X144457166Y-103100000D01*
X144457166Y-103100000D02*
X144723833Y-103100000D01*
X144723833Y-103100000D02*
X144790500Y-103133333D01*
X144790500Y-103133333D02*
X144823833Y-103166667D01*
X144823833Y-103166667D02*
X144857166Y-103233333D01*
X144857166Y-103233333D02*
X144857166Y-103366667D01*
X144857166Y-103366667D02*
X144823833Y-103433333D01*
X144823833Y-103433333D02*
X144790500Y-103466667D01*
X144790500Y-103466667D02*
X144723833Y-103500000D01*
X144723833Y-103500000D02*
X144557166Y-103500000D01*
X144557166Y-103500000D02*
X144490500Y-103466667D01*
X144490500Y-103466667D02*
X144457166Y-103433333D01*
X144457166Y-103433333D02*
X144423833Y-103366667D01*
X144423833Y-103366667D02*
X144423833Y-103233333D01*
X144423833Y-103233333D02*
X144457166Y-103166667D01*
X144457166Y-103166667D02*
X144490500Y-103133333D01*
X144490500Y-103133333D02*
X144557166Y-103100000D01*
%TO.C,C4*%
X157816666Y-110940500D02*
X157849999Y-110973833D01*
X157849999Y-110973833D02*
X157949999Y-111007166D01*
X157949999Y-111007166D02*
X158016666Y-111007166D01*
X158016666Y-111007166D02*
X158116666Y-110973833D01*
X158116666Y-110973833D02*
X158183333Y-110907166D01*
X158183333Y-110907166D02*
X158216666Y-110840500D01*
X158216666Y-110840500D02*
X158249999Y-110707166D01*
X158249999Y-110707166D02*
X158249999Y-110607166D01*
X158249999Y-110607166D02*
X158216666Y-110473833D01*
X158216666Y-110473833D02*
X158183333Y-110407166D01*
X158183333Y-110407166D02*
X158116666Y-110340500D01*
X158116666Y-110340500D02*
X158016666Y-110307166D01*
X158016666Y-110307166D02*
X157949999Y-110307166D01*
X157949999Y-110307166D02*
X157849999Y-110340500D01*
X157849999Y-110340500D02*
X157816666Y-110373833D01*
X157216666Y-110540500D02*
X157216666Y-111007166D01*
X157383333Y-110273833D02*
X157549999Y-110773833D01*
X157549999Y-110773833D02*
X157116666Y-110773833D01*
%TO.C,C44*%
X146250000Y-105140500D02*
X146283333Y-105173833D01*
X146283333Y-105173833D02*
X146383333Y-105207166D01*
X146383333Y-105207166D02*
X146450000Y-105207166D01*
X146450000Y-105207166D02*
X146550000Y-105173833D01*
X146550000Y-105173833D02*
X146616667Y-105107166D01*
X146616667Y-105107166D02*
X146650000Y-105040500D01*
X146650000Y-105040500D02*
X146683333Y-104907166D01*
X146683333Y-104907166D02*
X146683333Y-104807166D01*
X146683333Y-104807166D02*
X146650000Y-104673833D01*
X146650000Y-104673833D02*
X146616667Y-104607166D01*
X146616667Y-104607166D02*
X146550000Y-104540500D01*
X146550000Y-104540500D02*
X146450000Y-104507166D01*
X146450000Y-104507166D02*
X146383333Y-104507166D01*
X146383333Y-104507166D02*
X146283333Y-104540500D01*
X146283333Y-104540500D02*
X146250000Y-104573833D01*
X145650000Y-104740500D02*
X145650000Y-105207166D01*
X145816667Y-104473833D02*
X145983333Y-104973833D01*
X145983333Y-104973833D02*
X145550000Y-104973833D01*
X144983333Y-104740500D02*
X144983333Y-105207166D01*
X145150000Y-104473833D02*
X145316666Y-104973833D01*
X145316666Y-104973833D02*
X144883333Y-104973833D01*
%TO.C,C22*%
X158350000Y-102040500D02*
X158383333Y-102073833D01*
X158383333Y-102073833D02*
X158483333Y-102107166D01*
X158483333Y-102107166D02*
X158550000Y-102107166D01*
X158550000Y-102107166D02*
X158650000Y-102073833D01*
X158650000Y-102073833D02*
X158716667Y-102007166D01*
X158716667Y-102007166D02*
X158750000Y-101940500D01*
X158750000Y-101940500D02*
X158783333Y-101807166D01*
X158783333Y-101807166D02*
X158783333Y-101707166D01*
X158783333Y-101707166D02*
X158750000Y-101573833D01*
X158750000Y-101573833D02*
X158716667Y-101507166D01*
X158716667Y-101507166D02*
X158650000Y-101440500D01*
X158650000Y-101440500D02*
X158550000Y-101407166D01*
X158550000Y-101407166D02*
X158483333Y-101407166D01*
X158483333Y-101407166D02*
X158383333Y-101440500D01*
X158383333Y-101440500D02*
X158350000Y-101473833D01*
X158083333Y-101473833D02*
X158050000Y-101440500D01*
X158050000Y-101440500D02*
X157983333Y-101407166D01*
X157983333Y-101407166D02*
X157816667Y-101407166D01*
X157816667Y-101407166D02*
X157750000Y-101440500D01*
X157750000Y-101440500D02*
X157716667Y-101473833D01*
X157716667Y-101473833D02*
X157683333Y-101540500D01*
X157683333Y-101540500D02*
X157683333Y-101607166D01*
X157683333Y-101607166D02*
X157716667Y-101707166D01*
X157716667Y-101707166D02*
X158116667Y-102107166D01*
X158116667Y-102107166D02*
X157683333Y-102107166D01*
X157416666Y-101473833D02*
X157383333Y-101440500D01*
X157383333Y-101440500D02*
X157316666Y-101407166D01*
X157316666Y-101407166D02*
X157150000Y-101407166D01*
X157150000Y-101407166D02*
X157083333Y-101440500D01*
X157083333Y-101440500D02*
X157050000Y-101473833D01*
X157050000Y-101473833D02*
X157016666Y-101540500D01*
X157016666Y-101540500D02*
X157016666Y-101607166D01*
X157016666Y-101607166D02*
X157050000Y-101707166D01*
X157050000Y-101707166D02*
X157450000Y-102107166D01*
X157450000Y-102107166D02*
X157016666Y-102107166D01*
%TO.C,C13*%
X149000000Y-104490500D02*
X149033333Y-104523833D01*
X149033333Y-104523833D02*
X149133333Y-104557166D01*
X149133333Y-104557166D02*
X149200000Y-104557166D01*
X149200000Y-104557166D02*
X149300000Y-104523833D01*
X149300000Y-104523833D02*
X149366667Y-104457166D01*
X149366667Y-104457166D02*
X149400000Y-104390500D01*
X149400000Y-104390500D02*
X149433333Y-104257166D01*
X149433333Y-104257166D02*
X149433333Y-104157166D01*
X149433333Y-104157166D02*
X149400000Y-104023833D01*
X149400000Y-104023833D02*
X149366667Y-103957166D01*
X149366667Y-103957166D02*
X149300000Y-103890500D01*
X149300000Y-103890500D02*
X149200000Y-103857166D01*
X149200000Y-103857166D02*
X149133333Y-103857166D01*
X149133333Y-103857166D02*
X149033333Y-103890500D01*
X149033333Y-103890500D02*
X149000000Y-103923833D01*
X148333333Y-104557166D02*
X148733333Y-104557166D01*
X148533333Y-104557166D02*
X148533333Y-103857166D01*
X148533333Y-103857166D02*
X148600000Y-103957166D01*
X148600000Y-103957166D02*
X148666667Y-104023833D01*
X148666667Y-104023833D02*
X148733333Y-104057166D01*
X148100000Y-103857166D02*
X147666666Y-103857166D01*
X147666666Y-103857166D02*
X147900000Y-104123833D01*
X147900000Y-104123833D02*
X147800000Y-104123833D01*
X147800000Y-104123833D02*
X147733333Y-104157166D01*
X147733333Y-104157166D02*
X147700000Y-104190500D01*
X147700000Y-104190500D02*
X147666666Y-104257166D01*
X147666666Y-104257166D02*
X147666666Y-104423833D01*
X147666666Y-104423833D02*
X147700000Y-104490500D01*
X147700000Y-104490500D02*
X147733333Y-104523833D01*
X147733333Y-104523833D02*
X147800000Y-104557166D01*
X147800000Y-104557166D02*
X148000000Y-104557166D01*
X148000000Y-104557166D02*
X148066666Y-104523833D01*
X148066666Y-104523833D02*
X148100000Y-104490500D01*
%TO.C,C42*%
X150550000Y-112140500D02*
X150583333Y-112173833D01*
X150583333Y-112173833D02*
X150683333Y-112207166D01*
X150683333Y-112207166D02*
X150750000Y-112207166D01*
X150750000Y-112207166D02*
X150850000Y-112173833D01*
X150850000Y-112173833D02*
X150916667Y-112107166D01*
X150916667Y-112107166D02*
X150950000Y-112040500D01*
X150950000Y-112040500D02*
X150983333Y-111907166D01*
X150983333Y-111907166D02*
X150983333Y-111807166D01*
X150983333Y-111807166D02*
X150950000Y-111673833D01*
X150950000Y-111673833D02*
X150916667Y-111607166D01*
X150916667Y-111607166D02*
X150850000Y-111540500D01*
X150850000Y-111540500D02*
X150750000Y-111507166D01*
X150750000Y-111507166D02*
X150683333Y-111507166D01*
X150683333Y-111507166D02*
X150583333Y-111540500D01*
X150583333Y-111540500D02*
X150550000Y-111573833D01*
X149950000Y-111740500D02*
X149950000Y-112207166D01*
X150116667Y-111473833D02*
X150283333Y-111973833D01*
X150283333Y-111973833D02*
X149850000Y-111973833D01*
X149616666Y-111573833D02*
X149583333Y-111540500D01*
X149583333Y-111540500D02*
X149516666Y-111507166D01*
X149516666Y-111507166D02*
X149350000Y-111507166D01*
X149350000Y-111507166D02*
X149283333Y-111540500D01*
X149283333Y-111540500D02*
X149250000Y-111573833D01*
X149250000Y-111573833D02*
X149216666Y-111640500D01*
X149216666Y-111640500D02*
X149216666Y-111707166D01*
X149216666Y-111707166D02*
X149250000Y-111807166D01*
X149250000Y-111807166D02*
X149650000Y-112207166D01*
X149650000Y-112207166D02*
X149216666Y-112207166D01*
%TO.C,C9*%
X156240500Y-117383333D02*
X156273833Y-117350000D01*
X156273833Y-117350000D02*
X156307166Y-117250000D01*
X156307166Y-117250000D02*
X156307166Y-117183333D01*
X156307166Y-117183333D02*
X156273833Y-117083333D01*
X156273833Y-117083333D02*
X156207166Y-117016667D01*
X156207166Y-117016667D02*
X156140500Y-116983333D01*
X156140500Y-116983333D02*
X156007166Y-116950000D01*
X156007166Y-116950000D02*
X155907166Y-116950000D01*
X155907166Y-116950000D02*
X155773833Y-116983333D01*
X155773833Y-116983333D02*
X155707166Y-117016667D01*
X155707166Y-117016667D02*
X155640500Y-117083333D01*
X155640500Y-117083333D02*
X155607166Y-117183333D01*
X155607166Y-117183333D02*
X155607166Y-117250000D01*
X155607166Y-117250000D02*
X155640500Y-117350000D01*
X155640500Y-117350000D02*
X155673833Y-117383333D01*
X156307166Y-117716667D02*
X156307166Y-117850000D01*
X156307166Y-117850000D02*
X156273833Y-117916667D01*
X156273833Y-117916667D02*
X156240500Y-117950000D01*
X156240500Y-117950000D02*
X156140500Y-118016667D01*
X156140500Y-118016667D02*
X156007166Y-118050000D01*
X156007166Y-118050000D02*
X155740500Y-118050000D01*
X155740500Y-118050000D02*
X155673833Y-118016667D01*
X155673833Y-118016667D02*
X155640500Y-117983333D01*
X155640500Y-117983333D02*
X155607166Y-117916667D01*
X155607166Y-117916667D02*
X155607166Y-117783333D01*
X155607166Y-117783333D02*
X155640500Y-117716667D01*
X155640500Y-117716667D02*
X155673833Y-117683333D01*
X155673833Y-117683333D02*
X155740500Y-117650000D01*
X155740500Y-117650000D02*
X155907166Y-117650000D01*
X155907166Y-117650000D02*
X155973833Y-117683333D01*
X155973833Y-117683333D02*
X156007166Y-117716667D01*
X156007166Y-117716667D02*
X156040500Y-117783333D01*
X156040500Y-117783333D02*
X156040500Y-117916667D01*
X156040500Y-117916667D02*
X156007166Y-117983333D01*
X156007166Y-117983333D02*
X155973833Y-118016667D01*
X155973833Y-118016667D02*
X155907166Y-118050000D01*
%TO.C,C28*%
X154190500Y-98649999D02*
X154223833Y-98616666D01*
X154223833Y-98616666D02*
X154257166Y-98516666D01*
X154257166Y-98516666D02*
X154257166Y-98449999D01*
X154257166Y-98449999D02*
X154223833Y-98349999D01*
X154223833Y-98349999D02*
X154157166Y-98283333D01*
X154157166Y-98283333D02*
X154090500Y-98249999D01*
X154090500Y-98249999D02*
X153957166Y-98216666D01*
X153957166Y-98216666D02*
X153857166Y-98216666D01*
X153857166Y-98216666D02*
X153723833Y-98249999D01*
X153723833Y-98249999D02*
X153657166Y-98283333D01*
X153657166Y-98283333D02*
X153590500Y-98349999D01*
X153590500Y-98349999D02*
X153557166Y-98449999D01*
X153557166Y-98449999D02*
X153557166Y-98516666D01*
X153557166Y-98516666D02*
X153590500Y-98616666D01*
X153590500Y-98616666D02*
X153623833Y-98649999D01*
X153623833Y-98916666D02*
X153590500Y-98949999D01*
X153590500Y-98949999D02*
X153557166Y-99016666D01*
X153557166Y-99016666D02*
X153557166Y-99183333D01*
X153557166Y-99183333D02*
X153590500Y-99249999D01*
X153590500Y-99249999D02*
X153623833Y-99283333D01*
X153623833Y-99283333D02*
X153690500Y-99316666D01*
X153690500Y-99316666D02*
X153757166Y-99316666D01*
X153757166Y-99316666D02*
X153857166Y-99283333D01*
X153857166Y-99283333D02*
X154257166Y-98883333D01*
X154257166Y-98883333D02*
X154257166Y-99316666D01*
X153857166Y-99716666D02*
X153823833Y-99650000D01*
X153823833Y-99650000D02*
X153790500Y-99616666D01*
X153790500Y-99616666D02*
X153723833Y-99583333D01*
X153723833Y-99583333D02*
X153690500Y-99583333D01*
X153690500Y-99583333D02*
X153623833Y-99616666D01*
X153623833Y-99616666D02*
X153590500Y-99650000D01*
X153590500Y-99650000D02*
X153557166Y-99716666D01*
X153557166Y-99716666D02*
X153557166Y-99850000D01*
X153557166Y-99850000D02*
X153590500Y-99916666D01*
X153590500Y-99916666D02*
X153623833Y-99950000D01*
X153623833Y-99950000D02*
X153690500Y-99983333D01*
X153690500Y-99983333D02*
X153723833Y-99983333D01*
X153723833Y-99983333D02*
X153790500Y-99950000D01*
X153790500Y-99950000D02*
X153823833Y-99916666D01*
X153823833Y-99916666D02*
X153857166Y-99850000D01*
X153857166Y-99850000D02*
X153857166Y-99716666D01*
X153857166Y-99716666D02*
X153890500Y-99650000D01*
X153890500Y-99650000D02*
X153923833Y-99616666D01*
X153923833Y-99616666D02*
X153990500Y-99583333D01*
X153990500Y-99583333D02*
X154123833Y-99583333D01*
X154123833Y-99583333D02*
X154190500Y-99616666D01*
X154190500Y-99616666D02*
X154223833Y-99650000D01*
X154223833Y-99650000D02*
X154257166Y-99716666D01*
X154257166Y-99716666D02*
X154257166Y-99850000D01*
X154257166Y-99850000D02*
X154223833Y-99916666D01*
X154223833Y-99916666D02*
X154190500Y-99950000D01*
X154190500Y-99950000D02*
X154123833Y-99983333D01*
X154123833Y-99983333D02*
X153990500Y-99983333D01*
X153990500Y-99983333D02*
X153923833Y-99950000D01*
X153923833Y-99950000D02*
X153890500Y-99916666D01*
X153890500Y-99916666D02*
X153857166Y-99850000D01*
%TO.C,C23*%
X157190500Y-93649999D02*
X157223833Y-93616666D01*
X157223833Y-93616666D02*
X157257166Y-93516666D01*
X157257166Y-93516666D02*
X157257166Y-93449999D01*
X157257166Y-93449999D02*
X157223833Y-93349999D01*
X157223833Y-93349999D02*
X157157166Y-93283333D01*
X157157166Y-93283333D02*
X157090500Y-93249999D01*
X157090500Y-93249999D02*
X156957166Y-93216666D01*
X156957166Y-93216666D02*
X156857166Y-93216666D01*
X156857166Y-93216666D02*
X156723833Y-93249999D01*
X156723833Y-93249999D02*
X156657166Y-93283333D01*
X156657166Y-93283333D02*
X156590500Y-93349999D01*
X156590500Y-93349999D02*
X156557166Y-93449999D01*
X156557166Y-93449999D02*
X156557166Y-93516666D01*
X156557166Y-93516666D02*
X156590500Y-93616666D01*
X156590500Y-93616666D02*
X156623833Y-93649999D01*
X156623833Y-93916666D02*
X156590500Y-93949999D01*
X156590500Y-93949999D02*
X156557166Y-94016666D01*
X156557166Y-94016666D02*
X156557166Y-94183333D01*
X156557166Y-94183333D02*
X156590500Y-94249999D01*
X156590500Y-94249999D02*
X156623833Y-94283333D01*
X156623833Y-94283333D02*
X156690500Y-94316666D01*
X156690500Y-94316666D02*
X156757166Y-94316666D01*
X156757166Y-94316666D02*
X156857166Y-94283333D01*
X156857166Y-94283333D02*
X157257166Y-93883333D01*
X157257166Y-93883333D02*
X157257166Y-94316666D01*
X156557166Y-94550000D02*
X156557166Y-94983333D01*
X156557166Y-94983333D02*
X156823833Y-94750000D01*
X156823833Y-94750000D02*
X156823833Y-94850000D01*
X156823833Y-94850000D02*
X156857166Y-94916666D01*
X156857166Y-94916666D02*
X156890500Y-94950000D01*
X156890500Y-94950000D02*
X156957166Y-94983333D01*
X156957166Y-94983333D02*
X157123833Y-94983333D01*
X157123833Y-94983333D02*
X157190500Y-94950000D01*
X157190500Y-94950000D02*
X157223833Y-94916666D01*
X157223833Y-94916666D02*
X157257166Y-94850000D01*
X157257166Y-94850000D02*
X157257166Y-94650000D01*
X157257166Y-94650000D02*
X157223833Y-94583333D01*
X157223833Y-94583333D02*
X157190500Y-94550000D01*
%TO.C,C43*%
X150600000Y-113690500D02*
X150633333Y-113723833D01*
X150633333Y-113723833D02*
X150733333Y-113757166D01*
X150733333Y-113757166D02*
X150800000Y-113757166D01*
X150800000Y-113757166D02*
X150900000Y-113723833D01*
X150900000Y-113723833D02*
X150966667Y-113657166D01*
X150966667Y-113657166D02*
X151000000Y-113590500D01*
X151000000Y-113590500D02*
X151033333Y-113457166D01*
X151033333Y-113457166D02*
X151033333Y-113357166D01*
X151033333Y-113357166D02*
X151000000Y-113223833D01*
X151000000Y-113223833D02*
X150966667Y-113157166D01*
X150966667Y-113157166D02*
X150900000Y-113090500D01*
X150900000Y-113090500D02*
X150800000Y-113057166D01*
X150800000Y-113057166D02*
X150733333Y-113057166D01*
X150733333Y-113057166D02*
X150633333Y-113090500D01*
X150633333Y-113090500D02*
X150600000Y-113123833D01*
X150000000Y-113290500D02*
X150000000Y-113757166D01*
X150166667Y-113023833D02*
X150333333Y-113523833D01*
X150333333Y-113523833D02*
X149900000Y-113523833D01*
X149700000Y-113057166D02*
X149266666Y-113057166D01*
X149266666Y-113057166D02*
X149500000Y-113323833D01*
X149500000Y-113323833D02*
X149400000Y-113323833D01*
X149400000Y-113323833D02*
X149333333Y-113357166D01*
X149333333Y-113357166D02*
X149300000Y-113390500D01*
X149300000Y-113390500D02*
X149266666Y-113457166D01*
X149266666Y-113457166D02*
X149266666Y-113623833D01*
X149266666Y-113623833D02*
X149300000Y-113690500D01*
X149300000Y-113690500D02*
X149333333Y-113723833D01*
X149333333Y-113723833D02*
X149400000Y-113757166D01*
X149400000Y-113757166D02*
X149600000Y-113757166D01*
X149600000Y-113757166D02*
X149666666Y-113723833D01*
X149666666Y-113723833D02*
X149700000Y-113690500D01*
%TO.C,C34*%
X144700000Y-111490500D02*
X144733333Y-111523833D01*
X144733333Y-111523833D02*
X144833333Y-111557166D01*
X144833333Y-111557166D02*
X144900000Y-111557166D01*
X144900000Y-111557166D02*
X145000000Y-111523833D01*
X145000000Y-111523833D02*
X145066667Y-111457166D01*
X145066667Y-111457166D02*
X145100000Y-111390500D01*
X145100000Y-111390500D02*
X145133333Y-111257166D01*
X145133333Y-111257166D02*
X145133333Y-111157166D01*
X145133333Y-111157166D02*
X145100000Y-111023833D01*
X145100000Y-111023833D02*
X145066667Y-110957166D01*
X145066667Y-110957166D02*
X145000000Y-110890500D01*
X145000000Y-110890500D02*
X144900000Y-110857166D01*
X144900000Y-110857166D02*
X144833333Y-110857166D01*
X144833333Y-110857166D02*
X144733333Y-110890500D01*
X144733333Y-110890500D02*
X144700000Y-110923833D01*
X144466667Y-110857166D02*
X144033333Y-110857166D01*
X144033333Y-110857166D02*
X144266667Y-111123833D01*
X144266667Y-111123833D02*
X144166667Y-111123833D01*
X144166667Y-111123833D02*
X144100000Y-111157166D01*
X144100000Y-111157166D02*
X144066667Y-111190500D01*
X144066667Y-111190500D02*
X144033333Y-111257166D01*
X144033333Y-111257166D02*
X144033333Y-111423833D01*
X144033333Y-111423833D02*
X144066667Y-111490500D01*
X144066667Y-111490500D02*
X144100000Y-111523833D01*
X144100000Y-111523833D02*
X144166667Y-111557166D01*
X144166667Y-111557166D02*
X144366667Y-111557166D01*
X144366667Y-111557166D02*
X144433333Y-111523833D01*
X144433333Y-111523833D02*
X144466667Y-111490500D01*
X143433333Y-111090500D02*
X143433333Y-111557166D01*
X143600000Y-110823833D02*
X143766666Y-111323833D01*
X143766666Y-111323833D02*
X143333333Y-111323833D01*
%TO.C,C29*%
X153457836Y-108510000D02*
X153242164Y-108510000D01*
X153457836Y-107790000D02*
X153242164Y-107790000D01*
%TO.C,FB4*%
X159695000Y-106103641D02*
X159695000Y-105796359D01*
X160455000Y-106103641D02*
X160455000Y-105796359D01*
%TO.C,C35*%
X155992836Y-108505000D02*
X155777164Y-108505000D01*
X155992836Y-107785000D02*
X155777164Y-107785000D01*
%TO.C,C17*%
X157377164Y-109385000D02*
X157592836Y-109385000D01*
X157377164Y-110105000D02*
X157592836Y-110105000D01*
%TO.C,C5*%
X151875000Y-102972836D02*
X151875000Y-102757164D01*
X152595000Y-102972836D02*
X152595000Y-102757164D01*
%TO.C,C26*%
X154240000Y-106207836D02*
X154240000Y-105992164D01*
X154960000Y-106207836D02*
X154960000Y-105992164D01*
%TO.C,C2*%
X151710000Y-96367164D02*
X151710000Y-96582836D01*
X150990000Y-96367164D02*
X150990000Y-96582836D01*
%TO.C,C14*%
X155192836Y-105285000D02*
X154977164Y-105285000D01*
X155192836Y-104565000D02*
X154977164Y-104565000D01*
%TO.C,C3*%
X151017836Y-103705000D02*
X150802164Y-103705000D01*
X151017836Y-102985000D02*
X150802164Y-102985000D01*
%TO.C,C15*%
X155035000Y-112092164D02*
X155035000Y-112307836D01*
X154315000Y-112092164D02*
X154315000Y-112307836D01*
%TO.C,C48*%
X148807836Y-106900000D02*
X148592164Y-106900000D01*
X148807836Y-106180000D02*
X148592164Y-106180000D01*
%TO.C,C40*%
X151782164Y-106985000D02*
X151997836Y-106985000D01*
X151782164Y-107705000D02*
X151997836Y-107705000D01*
%TO.C,C24*%
X155777164Y-106990000D02*
X155992836Y-106990000D01*
X155777164Y-107710000D02*
X155992836Y-107710000D01*
%TO.C,C25*%
X152640000Y-101357836D02*
X152640000Y-101142164D01*
X153360000Y-101357836D02*
X153360000Y-101142164D01*
%TO.C,C45*%
X149457836Y-108510000D02*
X149242164Y-108510000D01*
X149457836Y-107790000D02*
X149242164Y-107790000D01*
%TO.C,C31*%
X154960000Y-110142164D02*
X154960000Y-110357836D01*
X154240000Y-110142164D02*
X154240000Y-110357836D01*
%TO.C,R13*%
X158303641Y-97755000D02*
X157996359Y-97755000D01*
X158303641Y-96995000D02*
X157996359Y-96995000D01*
%TO.C,C20*%
X157457836Y-106110000D02*
X157242164Y-106110000D01*
X157457836Y-105390000D02*
X157242164Y-105390000D01*
%TO.C,C12*%
X150942164Y-102135000D02*
X151157836Y-102135000D01*
X150942164Y-102855000D02*
X151157836Y-102855000D01*
%TO.C,C36*%
X155067836Y-104505000D02*
X154852164Y-104505000D01*
X155067836Y-103785000D02*
X154852164Y-103785000D01*
%TO.C,C37*%
X150972164Y-106185000D02*
X151187836Y-106185000D01*
X150972164Y-106905000D02*
X151187836Y-106905000D01*
%TO.C,C8*%
X154170000Y-106112164D02*
X154170000Y-106327836D01*
X153450000Y-106112164D02*
X153450000Y-106327836D01*
%TO.C,C30*%
X155040000Y-99807836D02*
X155040000Y-99592164D01*
X155760000Y-99807836D02*
X155760000Y-99592164D01*
%TO.C,FB3*%
X159720000Y-104153641D02*
X159720000Y-103846359D01*
X160480000Y-104153641D02*
X160480000Y-103846359D01*
%TO.C,C18*%
X151770000Y-109312164D02*
X151770000Y-109527836D01*
X151050000Y-109312164D02*
X151050000Y-109527836D01*
%TO.C,C16*%
X160460000Y-107762164D02*
X160460000Y-107977836D01*
X159740000Y-107762164D02*
X159740000Y-107977836D01*
%TO.C,C33*%
X157607836Y-103710000D02*
X157392164Y-103710000D01*
X157607836Y-102990000D02*
X157392164Y-102990000D01*
%TO.C,R16*%
X155771359Y-96970000D02*
X156078641Y-96970000D01*
X155771359Y-97730000D02*
X156078641Y-97730000D01*
%TO.C,C69*%
X158240000Y-100582836D02*
X158240000Y-100367164D01*
X158960000Y-100582836D02*
X158960000Y-100367164D01*
%TO.C,C27*%
X151040000Y-100607836D02*
X151040000Y-100392164D01*
X151760000Y-100607836D02*
X151760000Y-100392164D01*
%TO.C,C32*%
X155042836Y-102930000D02*
X154827164Y-102930000D01*
X155042836Y-102210000D02*
X154827164Y-102210000D01*
%TO.C,C41*%
X151027836Y-106100000D02*
X150812164Y-106100000D01*
X151027836Y-105380000D02*
X150812164Y-105380000D01*
%TO.C,C19*%
X156985000Y-112067164D02*
X156985000Y-112282836D01*
X156265000Y-112067164D02*
X156265000Y-112282836D01*
%TO.C,C6*%
X152725000Y-103802836D02*
X152725000Y-103587164D01*
X153445000Y-103802836D02*
X153445000Y-103587164D01*
%TO.C,C4*%
X155777164Y-110185000D02*
X155992836Y-110185000D01*
X155777164Y-110905000D02*
X155992836Y-110905000D01*
%TO.C,C44*%
X151842836Y-105330000D02*
X151627164Y-105330000D01*
X151842836Y-104610000D02*
X151627164Y-104610000D01*
%TO.C,C22*%
X155742164Y-101385000D02*
X155957836Y-101385000D01*
X155742164Y-102105000D02*
X155957836Y-102105000D01*
%TO.C,C13*%
X150992164Y-103770000D02*
X151207836Y-103770000D01*
X150992164Y-104490000D02*
X151207836Y-104490000D01*
%TO.C,C42*%
X152790580Y-112410000D02*
X152509420Y-112410000D01*
X152790580Y-111390000D02*
X152509420Y-111390000D01*
%TO.C,C9*%
X153345000Y-106137164D02*
X153345000Y-106352836D01*
X152625000Y-106137164D02*
X152625000Y-106352836D01*
%TO.C,C28*%
X153490000Y-101407836D02*
X153490000Y-101192164D01*
X154210000Y-101407836D02*
X154210000Y-101192164D01*
%TO.C,C23*%
X156640000Y-99807836D02*
X156640000Y-99592164D01*
X157360000Y-99807836D02*
X157360000Y-99592164D01*
%TO.C,C43*%
X152790580Y-113985000D02*
X152509420Y-113985000D01*
X152790580Y-112965000D02*
X152509420Y-112965000D01*
%TO.C,C34*%
X153992164Y-108590000D02*
X154207836Y-108590000D01*
X153992164Y-109310000D02*
X154207836Y-109310000D01*
%TD*%
M02*
