M48
; DRILL file {KiCad (7.0.0)} date Mon Mar 20 12:13:31 2023
; FORMAT={-:-/ absolute / inch / decimal}
; #@! TF.CreationDate,2023-03-20T12:13:31+05:30
; #@! TF.GenerationSoftware,Kicad,Pcbnew,(7.0.0)
; #@! TF.FileFunction,Plated,1,6,PTH
FMAT,2
INCH
; #@! TA.AperFunction,Plated,PTH,ViaDrill
T1C0.0079
; #@! TA.AperFunction,Plated,PTH,ComponentDrill
T2C0.0394
%
G90
G05
T1
X4.561Y-4.7884
X4.5679Y-4.9016
X4.5679Y-4.9646
X4.5773Y-4.8396
X4.602Y-4.7884
X4.6053Y-4.3415
X4.6063Y-4.3189
X4.6093Y-4.9016
X4.6093Y-4.9646
X4.6388Y-4.8396
X4.6417Y-4.4193
X4.6417Y-4.4419
X4.643Y-4.7884
X4.6437Y-2.9557
X4.6437Y-4.2185
X4.6476Y-3.2805
X4.6496Y-4.9016
X4.6496Y-4.9646
X4.6598Y-3.5996
X4.6654Y-4.5197
X4.6703Y-3.4478
X4.6801Y-3.281
X4.6831Y-3.2382
X4.6841Y-4.7884
X4.6884Y-4.0707
X4.6917Y-3.5925
X4.6933Y-3.9311
X4.6933Y-4.0057
X4.6933Y-4.1807
X4.6933Y-4.2185
X4.6943Y-3.8925
X4.6943Y-3.9683
X4.6953Y-4.2744
X4.6954Y-4.3129
X4.6959Y-3.001
X4.7031Y-3.6191
X4.7087Y-3.4478
X4.7227Y-4.0743
X4.7248Y-4.0008
X4.7276Y-3.7752
X4.7352Y-3.377
X4.7372Y-3.3474
X4.7411Y-2.9557
X4.7508Y-3.7858
X4.7598Y-3.4478
X4.7602Y-4.3541
X4.7748Y-4.0332
X4.776Y-4.2213
X4.776Y-4.3157
X4.7776Y-4.8199
X4.7904Y-3.0108
X4.7947Y-3.8217
X4.7963Y-3.4478
X4.8059Y-4.3163
X4.8065Y-3.9063
X4.807Y-4.0339
X4.8075Y-3.9671
X4.8085Y-3.9368
X4.812Y-3.0315
X4.8193Y-4.4014
X4.8331Y-3.8217
X4.8337Y-3.0108
X4.8371Y-3.7776
X4.839Y-4.0953
X4.8439Y-3.9289
X4.8439Y-3.9673
X4.8439Y-4.0648
X4.8439Y-4.1233
X4.8442Y-4.2472
X4.8449Y-4.0135
X4.8569Y-4.4014
X4.8612Y-4.2667
X4.8616Y-4.3394
X4.872Y-4.1811
X4.8772Y-3.0083
X4.8892Y-4.1593
X4.8937Y-4.8583
X4.8996Y-3.0236
X4.9193Y-3.0089
X4.9256Y-4.1022
X4.9277Y-4.0188
X4.9281Y-4.125
X4.9291Y-4.5413
X4.9409Y-4.8543
X4.9429Y-3.2146
X4.9463Y-4.4024
X4.9624Y-3.2315
X4.9647Y-4.0027
X4.965Y-4.0638
X4.965Y-4.1246
X4.9665Y-3.9065
X4.9665Y-4.3157
X4.9748Y-3.8212
X4.9809Y-3.8696
X4.9837Y-4.4024
X4.9965Y-4.1258
X5.0049Y-3.0246
X5.0142Y-3.8207
X5.0167Y-4.7776
X5.0329Y-3.9098
X5.0358Y-4.0958
X5.0472Y-4.7926
X5.0492Y-3.0098
X5.0604Y-4.1066
X5.0644Y-3.8433
X5.0679Y-3.9035
X5.0738Y-3.0246
X5.0762Y-3.9373
X5.0801Y-3.9757
X5.0801Y-4.176
X5.0801Y-4.2154
X5.0811Y-4.0146
X5.0909Y-4.2803
X5.0909Y-4.3413
X5.0929Y-3.0063
X5.0959Y-3.8989
X5.1102Y-3.2392
X5.1122Y-3.2736
X5.1156Y-3.9752
X5.1195Y-4.176
X5.1195Y-4.2156
X5.1333Y-3.9181
X5.1368Y-3.315
X5.1467Y-3.2736
X5.2087Y-2.9587
X5.2096Y-3.0197
X5.2096Y-3.3789
X5.2096Y-3.4193
X5.2106Y-3.3012
X5.2106Y-3.3415
X5.2982Y-3.3986
X5.2985Y-3.3572
X5.3051Y-4.8967
X5.3199Y-3.2579
X5.3199Y-3.2972
X5.3258Y-4.7431
X5.3396Y-3.3986
X5.3406Y-3.3573
X5.3656Y-4.7421
X5.373Y-3.0138
X5.3799Y-3.2766
X5.3799Y-3.3169
X5.3878Y-3.1024
X5.3937Y-4.9134
X5.4862Y-3.1014
X5.5443Y-3.2638
X5.5453Y-3.1014
X5.5501Y-4.0485
X5.5748Y-4.0738
X5.5768Y-4.7618
X5.5801Y-4.257
X5.5915Y-3.5177
X5.6043Y-3.1033
X5.6057Y-4.257
X5.6081Y-4.2955
X5.6132Y-4.9813
X5.6161Y-4.7628
X5.6168Y-4.7218
X5.6372Y-4.0776
X5.6448Y-4.3167
X5.6486Y-4.7062
X5.6594Y-3.5354
X5.6634Y-3.0866
X5.664Y-4.3413
X5.6732Y-3.2638
X5.6737Y-4.9813
X5.6841Y-3.1033
X5.6973Y-4.814
X5.6973Y-4.8406
X5.6973Y-4.8937
X5.6973Y-4.9213
X5.7007Y-4.6361
X5.7007Y-4.6653
X5.7056Y-4.3025
X5.7096Y-4.5965
X5.7109Y-3.9078
X5.7111Y-4.4071
X5.7165Y-3.6172
X5.7343Y-3.6575
X5.7343Y-4.9823
X5.7358Y-3.8537
X5.7461Y-3.6378
X5.7539Y-3.3691
X5.7598Y-4.4193
X5.7648Y-4.3888
X5.7697Y-4.8957
X5.7697Y-4.935
X5.7726Y-4.0073
X5.7765Y-4.8237
X5.788Y-3.2224
X5.788Y-3.2726
X5.7913Y-4.9823
X5.7953Y-3.3701
X5.801Y-3.7994
X5.8012Y-3.1014
X5.8016Y-4.0055
X5.802Y-4.1631
X5.8035Y-3.9114
X5.8035Y-3.9739
X5.804Y-3.8777
X5.8081Y-3.628
X5.8091Y-4.8957
X5.8091Y-4.935
X5.8133Y-3.8373
X5.8209Y-3.0778
X5.8264Y-4.4667
X5.8284Y-4.7158
X5.8304Y-4.7521
X5.8308Y-4.8119
X5.8308Y-4.8414
X5.8328Y-4.0373
X5.8342Y-4.1342
X5.8346Y-4.2575
X5.835Y-4.0682
X5.8351Y-4.2262
X5.8364Y-4.1951
X5.8376Y-4.9813
X5.8406Y-3.1033
X5.8484Y-4.8957
X5.8484Y-4.935
X5.8504Y-3.4193
X5.8568Y-4.7324
X5.8573Y-4.8268
X5.8602Y-3.0148
X5.8647Y-4.0049
X5.8652Y-3.9419
X5.866Y-4.2262
X5.8661Y-4.0364
X5.8665Y-4.0687
X5.8665Y-4.1632
X5.8665Y-4.2596
X5.8666Y-3.9742
X5.8675Y-4.1327
X5.8743Y-4.1929
X5.8829Y-4.9823
X5.8832Y-4.7517
X5.884Y-4.717
X5.8847Y-4.8119
X5.8847Y-4.8426
X5.8878Y-4.8957
X5.8878Y-4.935
X5.8928Y-3.913
X5.8947Y-4.0694
X5.8965Y-3.6575
X5.8976Y-4.3514
X5.898Y-4.1317
X5.8986Y-3.7333
X5.8987Y-4.1009
X5.8988Y-4.2579
X5.9055Y-4.4027
X5.9252Y-3.3307
X5.9252Y-3.3701
X5.9262Y-4.3878
X5.9275Y-3.9736
X5.9281Y-4.0364
X5.9291Y-4.3524
X5.9295Y-4.1012
X5.9295Y-4.1949
X5.9301Y-4.9823
X5.9307Y-4.0051
X5.9323Y-4.1631
X5.9341Y-3.6565
X5.9419Y-4.4148
X5.9478Y-3.7077
X5.9478Y-3.7677
X5.9587Y-3.8169
X5.9587Y-4.1634
X5.9591Y-4.1317
X5.96Y-4.0687
X5.9606Y-3.878
X5.9606Y-3.9094
X5.9606Y-3.9756
X5.9606Y-4.2579
X5.961Y-4.0372
X5.961Y-4.2262
X5.961Y-4.2902
X5.961Y-4.3234
X5.9616Y-4.5059
X5.9616Y-4.5433
X5.9616Y-4.5925
X5.962Y-3.9388
X5.962Y-4.1012
X5.9626Y-4.0059
X5.9637Y-4.1947
X5.9646Y-3.3307
X5.9646Y-3.3701
X5.9783Y-4.4045
X5.9872Y-4.9823
X5.9915Y-4.0687
X5.9921Y-3.9744
X5.9921Y-4.0049
X5.9921Y-4.1329
X5.9925Y-3.9085
X5.9925Y-4.0352
X5.9941Y-4.2884
X5.9945Y-4.1002
X6.0031Y-3.3724
X6.0039Y-3.3307
X6.0098Y-4.4715
X6.0128Y-4.5354
X6.0226Y-4.5925
X6.023Y-4.164
X6.0236Y-4.2913
X6.0239Y-4.1316
X6.024Y-4.1974
X6.024Y-4.1002
X6.0246Y-4.0039
X6.0246Y-4.2262
X6.025Y-4.0638
X6.0252Y-4.3522
X6.0267Y-3.9427
X6.0276Y-4.7402
X6.0404Y-4.4024
X6.0435Y-3.3309
X6.0435Y-3.3703
X6.0443Y-4.9823
X6.0531Y-4.2894
X6.0554Y-4.0085
X6.0555Y-3.9722
X6.0555Y-4.1632
X6.0555Y-4.1974
X6.0555Y-3.9418
X6.0555Y-4.2604
X6.0567Y-3.9098
X6.0709Y-3.6866
X6.076Y-3.4921
X6.076Y-3.5315
X6.0774Y-4.8848
X6.0778Y-3.4419
X6.0778Y-4.7671
X6.0781Y-4.8242
X6.0807Y-3.1004
X6.0807Y-3.138
X6.0837Y-4.5463
X6.0846Y-4.1004
X6.0846Y-4.4843
X6.085Y-4.0372
X6.0858Y-4.1588
X6.0866Y-4.0689
X6.0866Y-4.1299
X6.087Y-4.3549
X6.087Y-4.0059
X6.087Y-4.2894
X6.087Y-4.3207
X6.0874Y-3.9441
X6.0876Y-4.1959
X6.0896Y-4.437
X6.0906Y-4.3986
X6.0945Y-3.0758
X6.1049Y-4.8848
X6.1053Y-4.7671
X6.1057Y-4.8242
X6.1157Y-3.4921
X6.1157Y-3.5315
X6.1165Y-4.0693
X6.1181Y-3.9441
X6.1181Y-4.0374
X6.1181Y-4.2894
X6.1181Y-4.3189
X6.1183Y-4.2264
X6.1183Y-4.2577
X6.1183Y-4.3522
X6.1185Y-3.8327
X6.1185Y-4.0057
X6.1185Y-3.9085
X6.1197Y-4.1002
X6.1203Y-3.0856
X6.1205Y-4.1317
X6.1329Y-4.8848
X6.1333Y-4.7671
X6.1337Y-4.8242
X6.1358Y-3.7402
X6.1358Y-3.7799
X6.1391Y-3.6759
X6.1485Y-3.9112
X6.1496Y-3.8799
X6.1496Y-4.0689
X6.1496Y-4.2894
X6.1519Y-4.3524
X6.152Y-4.0057
X6.152Y-4.2577
X6.1534Y-4.5
X6.1589Y-3.8327
X6.1593Y-3.4843
X6.1596Y-3.0856
X6.1654Y-3.2884
X6.1656Y-4.3974
X6.1663Y-3.2362
X6.1663Y-4.435
X6.1673Y-3.3396
X6.1682Y-4.4803
X6.1788Y-4.1632
X6.1805Y-4.3197
X6.1811Y-3.9441
X6.1811Y-3.9744
X6.1815Y-4.226
X6.1815Y-3.9085
X6.1816Y-4.0999
X6.1819Y-4.0689
X6.1831Y-4.0059
X6.1831Y-4.2579
X6.1841Y-3.5039
X6.192Y-3.7757
X6.2057Y-3.8337
X6.2067Y-4.4872
X6.2096Y-3.4833
X6.2106Y-3.1722
X6.2122Y-4.2898
X6.2126Y-3.8789
X6.2136Y-4.2264
X6.2138Y-4.1634
X6.2146Y-4.5502
X6.2154Y-4.3209
X6.2184Y-4.0668
X6.2333Y-3.4577
X6.2343Y-3.1624
X6.2439Y-3.8797
X6.2441Y-3.9746
X6.2441Y-4.1634
X6.2441Y-4.1949
X6.2446Y-3.9402
X6.2451Y-4.5502
X6.2461Y-4.3209
X6.247Y-3.8346
X6.2589Y-3.1703
X6.2593Y-3.4439
X6.2648Y-4.8435
X6.2657Y-4.3917
X6.2657Y-4.7057
X6.2667Y-4.7465
X6.2726Y-4.6575
X6.2833Y-3.8376
X6.2854Y-4.3602
X6.2911Y-3.4438
X6.2913Y-4.315
X6.3002Y-4.6132
X6.3012Y-4.1142
X6.3022Y-4.0098
X6.3022Y-4.1516
X6.3031Y-3.3396
X6.3031Y-4.2657
X6.3041Y-3.2372
X6.3041Y-3.2894
X6.3051Y-4.0748
X6.3088Y-3.4172
X6.3285Y-3.4438
X6.3317Y-4.6132
X6.3386Y-4.4872
X6.3425Y-4.7067
X6.3425Y-4.7465
X6.3435Y-4.8435
X6.3484Y-3.9636
X6.3504Y-4.0551
X6.3504Y-4.0945
X6.3504Y-4.1319
X6.3504Y-4.1717
X6.3504Y-4.2075
X6.3504Y-4.2843
X6.3504Y-4.3226
X6.3514Y-4.2478
X6.3827Y-4.2047
X6.3878Y-3.9281
X6.3888Y-3.9685
X6.3888Y-4.0461
X6.3898Y-4.0059
X6.3976Y-4.3406
T2
X4.5138Y-3.0187
X4.5138Y-3.1187
X4.5138Y-3.2187
X4.5138Y-3.3187
X4.5138Y-3.4187
X4.5138Y-3.5187
X4.5138Y-3.6187
X4.5138Y-3.7187
X4.5138Y-3.8187
X4.5138Y-3.9187
X4.5138Y-4.0187
X4.5138Y-4.1187
X4.5138Y-4.2187
X4.5138Y-4.3187
X4.5138Y-4.4187
X4.5138Y-4.5187
X4.5138Y-4.6187
X4.5138Y-4.7187
X4.5138Y-4.8187
X4.5138Y-4.9187
X4.6396Y-5.0492
X4.7396Y-5.0492
X4.8396Y-5.0492
X4.9396Y-5.0492
X5.0396Y-5.0492
X5.1396Y-5.0492
X5.2396Y-5.0492
X5.3396Y-5.0492
X5.4396Y-5.0492
X5.5396Y-5.0492
X5.6396Y-5.0492
X5.7396Y-5.0492
X5.8396Y-5.0492
X5.9396Y-5.0492
X6.0396Y-5.0492
X6.1396Y-5.0492
X6.2396Y-5.0492
X6.3396Y-5.0492
X6.4813Y-3.0189
X6.4813Y-3.1189
X6.4813Y-3.2189
X6.4813Y-3.3189
X6.4813Y-3.4189
X6.4813Y-3.5189
X6.4813Y-3.6189
X6.4813Y-3.7189
X6.4813Y-3.8189
X6.4813Y-3.9189
X6.4813Y-4.0189
X6.4813Y-4.1189
X6.4813Y-4.2189
X6.4813Y-4.3189
X6.4813Y-4.4189
X6.4813Y-4.5189
X6.4813Y-4.6189
X6.4813Y-4.7189
X6.4813Y-4.8189
X6.4813Y-4.9189
T0
M30
