%TF.GenerationSoftware,KiCad,Pcbnew,(7.0.0)*%
%TF.CreationDate,2023-03-20T12:13:36+05:30*%
%TF.ProjectId,IMRT1160_DB,494d5254-3131-4363-905f-44422e6b6963,rev?*%
%TF.SameCoordinates,Original*%
%TF.FileFunction,Paste,Bot*%
%TF.FilePolarity,Positive*%
%FSLAX46Y46*%
G04 Gerber Fmt 4.6, Leading zero omitted, Abs format (unit mm)*
G04 Created by KiCad (PCBNEW (7.0.0)) date 2023-03-20 12:13:36*
%MOMM*%
%LPD*%
G01*
G04 APERTURE LIST*
G04 Aperture macros list*
%AMRoundRect*
0 Rectangle with rounded corners*
0 $1 Rounding radius*
0 $2 $3 $4 $5 $6 $7 $8 $9 X,Y pos of 4 corners*
0 Add a 4 corners polygon primitive as box body*
4,1,4,$2,$3,$4,$5,$6,$7,$8,$9,$2,$3,0*
0 Add four circle primitives for the rounded corners*
1,1,$1+$1,$2,$3*
1,1,$1+$1,$4,$5*
1,1,$1+$1,$6,$7*
1,1,$1+$1,$8,$9*
0 Add four rect primitives between the rounded corners*
20,1,$1+$1,$2,$3,$4,$5,0*
20,1,$1+$1,$4,$5,$6,$7,0*
20,1,$1+$1,$6,$7,$8,$9,0*
20,1,$1+$1,$8,$9,$2,$3,0*%
G04 Aperture macros list end*
%ADD10RoundRect,0.140000X0.140000X0.170000X-0.140000X0.170000X-0.140000X-0.170000X0.140000X-0.170000X0*%
%ADD11RoundRect,0.135000X0.185000X-0.135000X0.185000X0.135000X-0.185000X0.135000X-0.185000X-0.135000X0*%
%ADD12RoundRect,0.140000X-0.140000X-0.170000X0.140000X-0.170000X0.140000X0.170000X-0.140000X0.170000X0*%
%ADD13RoundRect,0.140000X0.170000X-0.140000X0.170000X0.140000X-0.170000X0.140000X-0.170000X-0.140000X0*%
%ADD14RoundRect,0.140000X-0.170000X0.140000X-0.170000X-0.140000X0.170000X-0.140000X0.170000X0.140000X0*%
%ADD15RoundRect,0.135000X0.135000X0.185000X-0.135000X0.185000X-0.135000X-0.185000X0.135000X-0.185000X0*%
%ADD16RoundRect,0.135000X-0.135000X-0.185000X0.135000X-0.185000X0.135000X0.185000X-0.135000X0.185000X0*%
%ADD17RoundRect,0.225000X0.225000X0.250000X-0.225000X0.250000X-0.225000X-0.250000X0.225000X-0.250000X0*%
G04 APERTURE END LIST*
D10*
%TO.C,C29*%
X153830000Y-108150000D03*
X152870000Y-108150000D03*
%TD*%
D11*
%TO.C,FB4*%
X160075000Y-106460000D03*
X160075000Y-105440000D03*
%TD*%
D10*
%TO.C,C35*%
X156365000Y-108145000D03*
X155405000Y-108145000D03*
%TD*%
D12*
%TO.C,C17*%
X157005000Y-109745000D03*
X157965000Y-109745000D03*
%TD*%
D13*
%TO.C,C5*%
X152235000Y-103345000D03*
X152235000Y-102385000D03*
%TD*%
%TO.C,C26*%
X154600000Y-106580000D03*
X154600000Y-105620000D03*
%TD*%
D14*
%TO.C,C2*%
X151350000Y-95995000D03*
X151350000Y-96955000D03*
%TD*%
D10*
%TO.C,C14*%
X155565000Y-104925000D03*
X154605000Y-104925000D03*
%TD*%
%TO.C,C3*%
X151390000Y-103345000D03*
X150430000Y-103345000D03*
%TD*%
D14*
%TO.C,C15*%
X154675000Y-111720000D03*
X154675000Y-112680000D03*
%TD*%
D10*
%TO.C,C48*%
X149180000Y-106540000D03*
X148220000Y-106540000D03*
%TD*%
D12*
%TO.C,C40*%
X151410000Y-107345000D03*
X152370000Y-107345000D03*
%TD*%
%TO.C,C24*%
X155405000Y-107350000D03*
X156365000Y-107350000D03*
%TD*%
D13*
%TO.C,C25*%
X153000000Y-101730000D03*
X153000000Y-100770000D03*
%TD*%
D10*
%TO.C,C45*%
X149830000Y-108150000D03*
X148870000Y-108150000D03*
%TD*%
D14*
%TO.C,C31*%
X154600000Y-109770000D03*
X154600000Y-110730000D03*
%TD*%
D15*
%TO.C,R13*%
X158660000Y-97375000D03*
X157640000Y-97375000D03*
%TD*%
D10*
%TO.C,C20*%
X157830000Y-105750000D03*
X156870000Y-105750000D03*
%TD*%
D12*
%TO.C,C12*%
X150570000Y-102495000D03*
X151530000Y-102495000D03*
%TD*%
D10*
%TO.C,C36*%
X155440000Y-104145000D03*
X154480000Y-104145000D03*
%TD*%
D12*
%TO.C,C37*%
X150600000Y-106545000D03*
X151560000Y-106545000D03*
%TD*%
D14*
%TO.C,C8*%
X153810000Y-105740000D03*
X153810000Y-106700000D03*
%TD*%
D13*
%TO.C,C30*%
X155400000Y-100180000D03*
X155400000Y-99220000D03*
%TD*%
D11*
%TO.C,FB3*%
X160100000Y-104510000D03*
X160100000Y-103490000D03*
%TD*%
D14*
%TO.C,C18*%
X151410000Y-108940000D03*
X151410000Y-109900000D03*
%TD*%
%TO.C,C16*%
X160100000Y-107390000D03*
X160100000Y-108350000D03*
%TD*%
D10*
%TO.C,C33*%
X157980000Y-103350000D03*
X157020000Y-103350000D03*
%TD*%
D16*
%TO.C,R16*%
X155415000Y-97350000D03*
X156435000Y-97350000D03*
%TD*%
D13*
%TO.C,C69*%
X158600000Y-100955000D03*
X158600000Y-99995000D03*
%TD*%
%TO.C,C27*%
X151400000Y-100980000D03*
X151400000Y-100020000D03*
%TD*%
D10*
%TO.C,C32*%
X155415000Y-102570000D03*
X154455000Y-102570000D03*
%TD*%
%TO.C,C41*%
X151400000Y-105740000D03*
X150440000Y-105740000D03*
%TD*%
D14*
%TO.C,C19*%
X156625000Y-111695000D03*
X156625000Y-112655000D03*
%TD*%
D13*
%TO.C,C6*%
X153085000Y-104175000D03*
X153085000Y-103215000D03*
%TD*%
D12*
%TO.C,C4*%
X155405000Y-110545000D03*
X156365000Y-110545000D03*
%TD*%
D10*
%TO.C,C44*%
X152215000Y-104970000D03*
X151255000Y-104970000D03*
%TD*%
D12*
%TO.C,C22*%
X155370000Y-101745000D03*
X156330000Y-101745000D03*
%TD*%
%TO.C,C13*%
X150620000Y-104130000D03*
X151580000Y-104130000D03*
%TD*%
D17*
%TO.C,C42*%
X153425000Y-111900000D03*
X151875000Y-111900000D03*
%TD*%
D14*
%TO.C,C9*%
X152985000Y-105765000D03*
X152985000Y-106725000D03*
%TD*%
D13*
%TO.C,C28*%
X153850000Y-101780000D03*
X153850000Y-100820000D03*
%TD*%
%TO.C,C23*%
X157000000Y-100180000D03*
X157000000Y-99220000D03*
%TD*%
D17*
%TO.C,C43*%
X153425000Y-113475000D03*
X151875000Y-113475000D03*
%TD*%
D12*
%TO.C,C34*%
X153620000Y-108950000D03*
X154580000Y-108950000D03*
%TD*%
M02*
