%TF.GenerationSoftware,KiCad,Pcbnew,(7.0.0)*%
%TF.CreationDate,2023-03-20T12:13:36+05:30*%
%TF.ProjectId,IMRT1160_DB,494d5254-3131-4363-905f-44422e6b6963,rev?*%
%TF.SameCoordinates,Original*%
%TF.FileFunction,Copper,L3,Inr*%
%TF.FilePolarity,Positive*%
%FSLAX46Y46*%
G04 Gerber Fmt 4.6, Leading zero omitted, Abs format (unit mm)*
G04 Created by KiCad (PCBNEW (7.0.0)) date 2023-03-20 12:13:36*
%MOMM*%
%LPD*%
G01*
G04 APERTURE LIST*
%TA.AperFunction,ComponentPad*%
%ADD10R,1.700000X1.700000*%
%TD*%
%TA.AperFunction,ComponentPad*%
%ADD11O,1.700000X1.700000*%
%TD*%
%TA.AperFunction,ViaPad*%
%ADD12C,0.450000*%
%TD*%
%TA.AperFunction,Conductor*%
%ADD13C,0.127000*%
%TD*%
%TA.AperFunction,Conductor*%
%ADD14C,0.250000*%
%TD*%
G04 APERTURE END LIST*
D10*
%TO.N,GND*%
%TO.C,J5*%
X164624999Y-76679999D03*
D11*
%TO.N,USB_VBUS*%
X164624999Y-79219999D03*
%TO.N,USB_DP*%
X164624999Y-81759999D03*
%TO.N,USB_DN*%
X164624999Y-84299999D03*
%TO.N,GND*%
X164624999Y-86839999D03*
%TO.N,UART_RX*%
X164624999Y-89379999D03*
%TO.N,UART_TX*%
X164624999Y-91919999D03*
%TO.N,PUMP*%
X164624999Y-94459999D03*
%TO.N,BUCK_5V_EN*%
X164624999Y-96999999D03*
%TO.N,BTN_SERVICE*%
X164624999Y-99539999D03*
%TO.N,IC_PUMP*%
X164624999Y-102079999D03*
%TO.N,BUZZER*%
X164624999Y-104619999D03*
%TO.N,DEVICE_ON*%
X164624999Y-107159999D03*
%TO.N,LCD_BKLT*%
X164624999Y-109699999D03*
%TO.N,P2SENSE*%
X164624999Y-112239999D03*
%TO.N,P1SENSE*%
X164624999Y-114779999D03*
%TO.N,DCDC_IN*%
X164624999Y-117319999D03*
%TO.N,GND*%
X164624999Y-119859999D03*
%TO.N,unconnected-(J5-Pin_19-Pad19)*%
X164624999Y-122399999D03*
%TO.N,GND*%
X164624999Y-124939999D03*
%TD*%
D10*
%TO.N,DCDC_IN*%
%TO.C,J4*%
X114649999Y-76674999D03*
D11*
%TO.N,GND*%
X114649999Y-79214999D03*
%TO.N,LED_A*%
X114649999Y-81754999D03*
%TO.N,LED_K*%
X114649999Y-84294999D03*
%TO.N,GND*%
X114649999Y-86834999D03*
%TO.N,SWDIO*%
X114649999Y-89374999D03*
%TO.N,SWCLK*%
X114649999Y-91914999D03*
%TO.N,CHRG_LED*%
X114649999Y-94454999D03*
%TO.N,PVALVE3*%
X114649999Y-96994999D03*
%TO.N,PVALVE1*%
X114649999Y-99534999D03*
%TO.N,BTN_DOWN*%
X114649999Y-102074999D03*
%TO.N,BTN_DEC*%
X114649999Y-104614999D03*
%TO.N,BTN_UP*%
X114649999Y-107154999D03*
%TO.N,I2C1_SCL*%
X114649999Y-109694999D03*
%TO.N,I2C1_SDA*%
X114649999Y-112234999D03*
%TO.N,BTN_START*%
X114649999Y-114774999D03*
%TO.N,BTN_MODE*%
X114649999Y-117314999D03*
%TO.N,BTN_INC*%
X114649999Y-119854999D03*
%TO.N,DCDC_IN*%
X114649999Y-122394999D03*
%TO.N,GND*%
X114649999Y-124934999D03*
%TD*%
D10*
%TO.N,GND*%
%TO.C,J3*%
X161024999Y-128249999D03*
D11*
%TO.N,DCDC_IN*%
X158484999Y-128249999D03*
%TO.N,GND*%
X155944999Y-128249999D03*
%TO.N,5V*%
X153404999Y-128249999D03*
X150864999Y-128249999D03*
X148324999Y-128249999D03*
X145784999Y-128249999D03*
X143244999Y-128249999D03*
%TO.N,GND*%
X140704999Y-128249999D03*
%TO.N,NRST*%
X138164999Y-128249999D03*
%TO.N,PVALVE2*%
X135624999Y-128249999D03*
%TO.N,I2C2_SDA*%
X133084999Y-128249999D03*
%TO.N,I2C2_SCL*%
X130544999Y-128249999D03*
%TO.N,CAPSENSE*%
X128004999Y-128249999D03*
%TO.N,CHRG_OK*%
X125464999Y-128249999D03*
%TO.N,GND*%
X122924999Y-128249999D03*
%TO.N,DCDC_IN*%
X120384999Y-128249999D03*
%TO.N,GND*%
X117844999Y-128249999D03*
%TD*%
D12*
%TO.N,VDD_SOC*%
X151425000Y-114450000D03*
X151385000Y-103345000D03*
X152985000Y-105765000D03*
X152185000Y-103345000D03*
X151075000Y-95700000D03*
X153007954Y-104941592D03*
X153010000Y-104145000D03*
X152260000Y-104145000D03*
X153810000Y-105745000D03*
X152650000Y-113575000D03*
X151350000Y-105750000D03*
X152200000Y-104975000D03*
X152975000Y-116650000D03*
%TO.N,GND*%
X149010000Y-108195000D03*
X116025000Y-126100000D03*
X117075000Y-124500000D03*
X154525000Y-115475000D03*
X155340000Y-89700000D03*
X155340000Y-88700000D03*
X155850000Y-95000000D03*
X127125000Y-76825000D03*
X148975000Y-100125000D03*
X130725000Y-83150000D03*
X129850000Y-83150000D03*
X144712500Y-125000000D03*
X118875000Y-83337500D03*
X156600000Y-83525000D03*
X124450000Y-76800000D03*
X157650000Y-113975000D03*
X153009999Y-106613516D03*
X157850000Y-115575000D03*
X160100000Y-84825000D03*
X149825000Y-94825000D03*
X151410000Y-109813515D03*
X134582000Y-85272000D03*
X150681340Y-105742675D03*
X153025000Y-107345000D03*
X129035000Y-100984011D03*
X123750000Y-106200000D03*
X128725000Y-99150000D03*
X122085000Y-99220000D03*
X129035000Y-106070000D03*
X125550000Y-81650000D03*
X116025000Y-124500000D03*
X141650000Y-120950000D03*
X148350000Y-78825000D03*
X120325000Y-85025000D03*
X151075000Y-94175000D03*
X159150000Y-111550000D03*
X158675000Y-97400000D03*
X126360000Y-97059520D03*
X125175000Y-104775000D03*
X159793978Y-87473000D03*
X119275000Y-76225000D03*
X154550000Y-104150000D03*
X155410000Y-97350000D03*
X156625000Y-112650000D03*
X144100000Y-82900000D03*
X161300000Y-108820000D03*
X160025000Y-117175000D03*
X157870000Y-109750000D03*
X148850000Y-76575000D03*
X155455000Y-78375000D03*
X159125000Y-123025000D03*
X123475000Y-108375000D03*
X121825000Y-87575000D03*
X139350000Y-78775000D03*
X158350000Y-80325000D03*
X136850000Y-78800000D03*
X160125000Y-82225000D03*
X129800000Y-82275000D03*
X156650000Y-84825000D03*
X153750000Y-108950000D03*
X161325000Y-107895000D03*
X136475000Y-76550000D03*
X160125000Y-83550000D03*
X151425000Y-115400000D03*
X119210000Y-101745000D03*
X145689931Y-97883000D03*
X162275000Y-100800000D03*
X149432500Y-120692500D03*
X151400000Y-98500000D03*
X156941486Y-105745000D03*
X116975000Y-110275000D03*
X154560000Y-102545000D03*
X151850000Y-111875000D03*
X153810000Y-100895000D03*
X140825000Y-82900000D03*
X148092500Y-120702500D03*
X150725000Y-92875000D03*
X125635000Y-111820000D03*
X160825000Y-117175000D03*
X152500000Y-84600000D03*
X159325000Y-118300000D03*
X122070061Y-109634220D03*
X158625000Y-115575000D03*
X143850000Y-78400000D03*
X151500000Y-84600000D03*
X122225000Y-77000000D03*
X118950000Y-82250000D03*
X126103484Y-101668645D03*
X129310000Y-108720000D03*
X118625000Y-87575000D03*
X146425000Y-111475000D03*
X158613628Y-100080815D03*
X151350000Y-96950000D03*
X148244900Y-106554900D03*
X160243978Y-86798000D03*
X154800000Y-78125000D03*
X148042500Y-119782500D03*
X128875000Y-76825000D03*
X157010001Y-99276484D03*
X118050000Y-83325000D03*
X142350000Y-78825000D03*
X156260000Y-108145000D03*
X151478514Y-106545000D03*
X141600000Y-103475000D03*
X130475000Y-84200000D03*
X120425000Y-75075000D03*
X117950000Y-75075000D03*
X151410000Y-102545000D03*
X154578559Y-105634381D03*
X162300000Y-101750000D03*
X153035000Y-103220000D03*
X153840096Y-99309766D03*
X160100000Y-108350000D03*
X160743978Y-87473000D03*
X132300000Y-75150000D03*
X154609999Y-110613515D03*
X161000000Y-113975000D03*
X140850000Y-78775000D03*
X119235000Y-98870000D03*
X157020000Y-103350000D03*
X152210000Y-102495000D03*
X119210000Y-107150000D03*
X121785000Y-97070000D03*
X153810000Y-106613514D03*
X153505750Y-84605750D03*
X144712500Y-122275000D03*
X151435000Y-104170000D03*
X144712500Y-124300000D03*
X154600000Y-104900000D03*
X155410001Y-99276484D03*
X154450000Y-78750000D03*
X122410000Y-111795000D03*
X152210000Y-99276486D03*
X119262500Y-109547500D03*
X150500000Y-84600000D03*
X156625000Y-82200000D03*
X118100000Y-126100000D03*
X156260000Y-101745000D03*
X151360000Y-104945000D03*
X157075000Y-89000000D03*
X149452500Y-119812500D03*
X148210000Y-103332000D03*
X151434568Y-100044375D03*
X130035000Y-106070000D03*
X152725000Y-115200000D03*
X161125000Y-123025000D03*
X148762500Y-120202500D03*
X151425000Y-116650000D03*
X158325000Y-87825000D03*
X156258000Y-110550000D03*
X119170000Y-91250000D03*
X118100000Y-124500000D03*
X154675000Y-112700000D03*
X117075000Y-126100000D03*
X117900000Y-112825000D03*
X144712500Y-122950000D03*
%TO.N,Net-(U1A-DCDC_PSWITCH)*%
X142667431Y-119932569D03*
X148200000Y-108140000D03*
%TO.N,/MCU_POWER/VDD_SNVS_DIG*%
X156985000Y-109720000D03*
%TO.N,DCDC_1V8*%
X154625000Y-106575000D03*
X157830000Y-105750000D03*
X160150000Y-103500000D03*
X152250000Y-108925000D03*
X153425000Y-111822000D03*
X150610000Y-106550000D03*
X161300000Y-106870000D03*
X161300000Y-105960000D03*
X157948591Y-103296059D03*
X151410000Y-107345000D03*
%TO.N,VDD_1P0*%
X153810482Y-108212933D03*
X153808176Y-101815727D03*
%TO.N,Net-(U1A-VDDA_ADC_3P3)*%
X155460000Y-104945000D03*
%TO.N,Net-(U1A-VDD_MIPI_1P8)*%
X153025000Y-101700000D03*
X161300000Y-104950000D03*
X154600000Y-103350000D03*
%TO.N,Net-(U1A-VDD_USB_3P3)*%
X161300000Y-103000000D03*
X155400000Y-102550000D03*
%TO.N,DCDC_IN*%
X161300000Y-104000000D03*
X129310000Y-110270000D03*
X155405000Y-110545000D03*
X115850000Y-121625000D03*
X155775000Y-124075000D03*
X149472500Y-123002500D03*
X126149500Y-109620000D03*
X149770000Y-92900000D03*
X161100000Y-119550000D03*
X119210000Y-106190000D03*
X132325000Y-85825000D03*
X154365000Y-124075000D03*
X135275000Y-120475000D03*
X155085000Y-122535000D03*
X161300000Y-109795000D03*
X159150000Y-119525000D03*
X135650000Y-85275000D03*
X155400000Y-100180000D03*
X160075000Y-105450000D03*
X116262500Y-122925000D03*
X154375000Y-87425000D03*
X154550000Y-113900000D03*
X119235000Y-100795000D03*
X142650000Y-120975000D03*
X155785000Y-121085000D03*
X130035000Y-107075000D03*
X119600000Y-87575000D03*
X154375000Y-121085000D03*
X154450000Y-79705000D03*
X155795000Y-122535000D03*
X147200000Y-85600000D03*
X151410000Y-108970000D03*
X122760000Y-97070000D03*
X129035000Y-107070000D03*
X156455000Y-78375000D03*
X151400000Y-100980000D03*
X155410000Y-101745000D03*
X148102500Y-122222500D03*
X147015000Y-81850000D03*
X144375000Y-78825000D03*
X154385000Y-122535000D03*
X132350000Y-84875000D03*
X150575000Y-102525000D03*
X116891666Y-121625000D03*
X155065000Y-124075000D03*
X124950000Y-76425000D03*
X119210000Y-99850000D03*
X136650000Y-83225000D03*
X117825000Y-122925000D03*
X126585000Y-111820000D03*
X149830000Y-108150000D03*
X157000000Y-100180000D03*
X123365000Y-111795000D03*
X149472500Y-122222500D03*
X148775000Y-122600000D03*
X120900000Y-87575000D03*
X154610000Y-109745000D03*
X155358944Y-103360135D03*
X118975000Y-121625000D03*
X117933332Y-121625000D03*
X123060000Y-101942480D03*
X148102500Y-122972500D03*
X150610000Y-104170000D03*
X126149500Y-99225000D03*
X155405000Y-107350000D03*
X146722500Y-122522500D03*
X129060000Y-101970000D03*
X135125000Y-82750000D03*
X147015000Y-83125000D03*
X119260000Y-108570000D03*
X155075000Y-121085000D03*
X132325000Y-76700000D03*
X149207333Y-106500764D03*
X127360000Y-97045000D03*
%TO.N,LED_A*%
X147850000Y-78175000D03*
%TO.N,LED_K*%
X147350000Y-78775000D03*
%TO.N,LCD_RST*%
X146150000Y-85575000D03*
X147525000Y-92150000D03*
%TO.N,SD_2*%
X121675000Y-76475000D03*
X132325000Y-86850000D03*
X148600000Y-86850000D03*
%TO.N,SD_3*%
X135625000Y-86325000D03*
X134575000Y-86325000D03*
X122775000Y-76475000D03*
X155932713Y-93367287D03*
%TO.N,SD_CMD*%
X158595213Y-98545213D03*
X132350000Y-83850000D03*
X123880000Y-76410000D03*
%TO.N,SD_CLK*%
X157000000Y-100950000D03*
X126045213Y-82079787D03*
%TO.N,SD_0*%
X128250000Y-76450000D03*
X157800000Y-98525000D03*
X136650000Y-84250000D03*
%TO.N,SD_1*%
X159597000Y-97475000D03*
X135125000Y-83750000D03*
X129360000Y-76360000D03*
%TO.N,SDL_CD*%
X120275000Y-85775000D03*
X158600000Y-105750000D03*
%TO.N,QSPI_CS*%
X160074992Y-101849992D03*
X156445000Y-88500000D03*
%TO.N,A1*%
X145650000Y-92900000D03*
X142025000Y-89350000D03*
%TO.N,A0*%
X147656839Y-97468161D03*
X123035011Y-104732000D03*
%TO.N,Net-(U1A-VDD_LPSR_DIG)*%
X154610000Y-108950000D03*
%TO.N,Net-(U1A-VDD_LPSR_ANA)*%
X155405000Y-108145000D03*
%TO.N,Net-(U1A-VDD_USB_1P8)*%
X160050000Y-104500000D03*
X155440000Y-104145000D03*
%TO.N,A8*%
X127910000Y-104034531D03*
X147409780Y-99348979D03*
%TO.N,A9*%
X147420421Y-98494224D03*
X125110000Y-104196011D03*
%TO.N,Net-(U1C-GPIO_DISP_B1_08)*%
X157625000Y-97375000D03*
%TO.N,Net-(U1C-GPIO_DISP_B1_09)*%
X154330000Y-89700000D03*
X156172000Y-99345001D03*
%TO.N,Net-(U1C-GPIO_DISP_B1_10)*%
X156200000Y-98550000D03*
X154330000Y-88700000D03*
%TO.N,Net-(U1C-GPIO_DISP_B1_11)*%
X156435000Y-97350000D03*
%TO.N,A11*%
X145950000Y-92400000D03*
X143750000Y-89800000D03*
%TO.N,A3*%
X124185000Y-105645000D03*
X149675931Y-99391276D03*
%TO.N,Net-(U1C-GPIO_DISP_B1_06)*%
X153810001Y-100122000D03*
X157278000Y-95903500D03*
%TO.N,Net-(U1C-GPIO_DISP_B1_07)*%
X154610000Y-101750000D03*
X162275000Y-102772000D03*
%TO.N,Net-(U1C-GPIO_DISP_B2_04)*%
X150500000Y-85600000D03*
X151400000Y-99300000D03*
%TO.N,Net-(U1C-GPIO_DISP_B2_05)*%
X153505750Y-85605750D03*
X153078514Y-100145000D03*
%TO.N,Net-(U1C-GPIO_DISP_B2_00)*%
X151450000Y-101750000D03*
X152478000Y-85660000D03*
%TO.N,Net-(U1C-GPIO_DISP_B2_01)*%
X155850000Y-96010000D03*
X152200000Y-101725000D03*
%TO.N,A7*%
X145057799Y-99256989D03*
X128535000Y-104307000D03*
%TO.N,A4*%
X149010791Y-100944808D03*
X126910000Y-104795000D03*
%TO.N,Net-(U1C-GPIO_DISP_B2_02)*%
X152200000Y-100950000D03*
X162250000Y-99775000D03*
%TO.N,Net-(U1C-GPIO_DISP_B2_03)*%
X151500000Y-85600000D03*
X150558500Y-100930265D03*
%TO.N,Net-(U1G-ONOFF)*%
X153039500Y-110545000D03*
X136285000Y-120450000D03*
%TO.N,DQ11*%
X128635000Y-97620000D03*
X127835000Y-99308001D03*
%TO.N,DQ8*%
X140973141Y-102831859D03*
X147359673Y-101739287D03*
%TO.N,DQ3*%
X147344132Y-96504840D03*
X122135000Y-99995000D03*
%TO.N,SDWE*%
X148964466Y-101724785D03*
X121280595Y-102444328D03*
%TO.N,SDCS*%
X150639449Y-101729538D03*
X119085000Y-103395000D03*
%TO.N,DQ1*%
X123035011Y-99795000D03*
X146624411Y-101784411D03*
%TO.N,DQ0*%
X147410011Y-100937583D03*
X122862344Y-95949989D03*
%TO.N,DQ5*%
X143185000Y-103570000D03*
X148153511Y-102548640D03*
X129935000Y-100970000D03*
X122110352Y-100764602D03*
%TO.N,QSPI_IO_3*%
X157750000Y-80575000D03*
X161250000Y-100675000D03*
%TO.N,BA0*%
X130385000Y-99520000D03*
X122910000Y-104020000D03*
%TO.N,DQ2*%
X149000000Y-102525000D03*
X120671170Y-96159239D03*
%TO.N,SDCKE*%
X149010000Y-103345000D03*
X126110001Y-104764194D03*
%TO.N,QSPI_CLK*%
X158975000Y-80525000D03*
X157050000Y-101750000D03*
%TO.N,DQ15*%
X128935000Y-100008000D03*
X126513713Y-98286737D03*
%TO.N,BA1*%
X125163534Y-102077675D03*
X122097332Y-102461613D03*
%TO.N,DQ7*%
X129435000Y-99032000D03*
X123035011Y-100770000D03*
%TO.N,DQ6*%
X149827613Y-104162109D03*
X120010000Y-101620000D03*
%TO.N,DQ4*%
X149725500Y-103361781D03*
X120080069Y-95890069D03*
%TO.N,QSPI_IO_2*%
X158985000Y-87474300D03*
X156200000Y-103350000D03*
%TO.N,QSPI_IO_1*%
X157725000Y-88475000D03*
X157011965Y-104137672D03*
%TO.N,SDRAS*%
X149035000Y-104970000D03*
X119955681Y-103487866D03*
%TO.N,SDCAS*%
X123035011Y-103245000D03*
X126110000Y-103220000D03*
%TO.N,DQ16*%
X147370415Y-105742904D03*
X121310000Y-107220000D03*
%TO.N,DQ18*%
X148189785Y-105008000D03*
X123043489Y-107878473D03*
%TO.N,DQ17*%
X149010000Y-105745000D03*
X144798000Y-118497853D03*
%TO.N,DQ28*%
X142385000Y-108128844D03*
X149810000Y-104945000D03*
%TO.N,DQ26*%
X148997510Y-107346471D03*
X143377920Y-109645000D03*
%TO.N,UART_RX*%
X157825000Y-107350000D03*
%TO.N,DQ20*%
X142444855Y-109104855D03*
X123485000Y-110220000D03*
%TO.N,DQ23*%
X146300000Y-112250000D03*
X144798000Y-117757569D03*
%TO.N,DQ29*%
X148210452Y-107346460D03*
X141735498Y-108128833D03*
%TO.N,UART_TX*%
X157010000Y-107340000D03*
%TO.N,DQ21*%
X143865920Y-110270000D03*
X120910000Y-110595000D03*
%TO.N,DQM2*%
X143475000Y-119538000D03*
X144922276Y-109282276D03*
%TO.N,GPIO_LPSR_02*%
X159175000Y-120560000D03*
X156297000Y-114300000D03*
%TO.N,DQ19*%
X125200000Y-115350000D03*
X121310000Y-109620000D03*
%TO.N,DQ22*%
X145063000Y-111940000D03*
X145025000Y-116750000D03*
%TO.N,GPIO_LPSR_03*%
X156672000Y-113800000D03*
X161100000Y-120560000D03*
%TO.N,USB_VBUS*%
X158600000Y-100955000D03*
%TO.N,SWDIO*%
X150524338Y-111450664D03*
X118360000Y-91430000D03*
%TO.N,SWCLK*%
X119460000Y-91925011D03*
X149800000Y-110525000D03*
%TO.N,CHRG_LED*%
X145200000Y-91878000D03*
%TO.N,PVALVE3*%
X154200000Y-93640000D03*
%TO.N,PVALVE1*%
X154620000Y-100179500D03*
%TO.N,BTN_DOWN*%
X158600000Y-106550000D03*
X125500000Y-123300000D03*
%TO.N,BTN_DEC*%
X162121500Y-106800500D03*
X124300000Y-123400000D03*
%TO.N,BTN_UP*%
X117950000Y-107150000D03*
X150000000Y-111828664D03*
%TO.N,I2C1_SCL*%
X117000000Y-109700000D03*
X151400000Y-108150000D03*
%TO.N,I2C1_SDA*%
X117900000Y-112250000D03*
X150600000Y-110550000D03*
X147990000Y-113453000D03*
%TO.N,BTN_START*%
X150924787Y-112134787D03*
X118500000Y-114800000D03*
%TO.N,BTN_MODE*%
X155400000Y-109700000D03*
%TO.N,BTN_INC*%
X157050000Y-108150000D03*
%TO.N,5V*%
X146550000Y-124350000D03*
X149425000Y-126550000D03*
X148275000Y-126525000D03*
X148550000Y-124350000D03*
X147550000Y-124350000D03*
X153525000Y-126550000D03*
X145650000Y-126550000D03*
X152075000Y-126550000D03*
X149550000Y-125350000D03*
X142575000Y-126525000D03*
X146550000Y-125350000D03*
X150625000Y-126550000D03*
X144112500Y-126525000D03*
X149550000Y-124350000D03*
X147550000Y-125350000D03*
X148550000Y-125350000D03*
X147100000Y-126550000D03*
%TO.N,NRST*%
X121350000Y-122425000D03*
%TO.N,PVALVE2*%
X155400000Y-108950000D03*
X153100000Y-120400000D03*
%TO.N,I2C2_SDA*%
X158650000Y-109750000D03*
%TO.N,I2C2_SCL*%
X157789541Y-108960321D03*
%TO.N,CAPSENSE*%
X137000000Y-124800000D03*
X159800000Y-109600000D03*
%TO.N,CHRG_OK*%
X134750000Y-124375000D03*
X159650000Y-110750000D03*
%TO.N,IC_PUMP*%
X162500000Y-110250000D03*
%TO.N,PUMP*%
X156200000Y-108950000D03*
%TO.N,POR_B*%
X127425000Y-121350000D03*
X153000000Y-109000000D03*
%TO.N,VDD_SNVS_ANA*%
X154700000Y-111725000D03*
X156605000Y-111695000D03*
X128200000Y-121731011D03*
%TD*%
D13*
%TO.N,Net-(U1A-DCDC_PSWITCH)*%
X142667431Y-119932569D02*
X142650000Y-119915138D01*
X148200000Y-108140000D02*
X148200000Y-108150000D01*
X145800000Y-114650000D02*
X142667431Y-117782569D01*
X145800000Y-110550000D02*
X145800000Y-114650000D01*
X148200000Y-108150000D02*
X145800000Y-110550000D01*
X142667431Y-117782569D02*
X142667431Y-119982569D01*
D14*
%TO.N,DCDC_1V8*%
X154225000Y-106950000D02*
X154600000Y-106575000D01*
X152250000Y-108925000D02*
X154225000Y-106950000D01*
X154225000Y-106950000D02*
X154950000Y-106950000D01*
X151410000Y-107345000D02*
X151410000Y-107360000D01*
X154600000Y-106575000D02*
X154625000Y-106575000D01*
D13*
%TO.N,Net-(U1A-VDD_MIPI_1P8)*%
X155700000Y-102928500D02*
X155021500Y-102928500D01*
X161300000Y-104950000D02*
X160921500Y-104571500D01*
X156028500Y-102600000D02*
X155700000Y-102928500D01*
X160921500Y-103521500D02*
X160000000Y-102600000D01*
X160921500Y-104571500D02*
X160921500Y-103521500D01*
X155021500Y-102928500D02*
X154600000Y-103350000D01*
X160000000Y-102600000D02*
X156028500Y-102600000D01*
%TO.N,Net-(U1A-VDD_USB_3P3)*%
X161300000Y-102700000D02*
X160900000Y-102300000D01*
X155650000Y-102300000D02*
X155400000Y-102550000D01*
X161300000Y-103000000D02*
X161300000Y-102700000D01*
X160900000Y-102300000D02*
X155650000Y-102300000D01*
D14*
%TO.N,LED_A*%
X130425000Y-80050000D02*
X118589366Y-80050000D01*
X133025000Y-77450000D02*
X130425000Y-80050000D01*
X116884366Y-81755000D02*
X114824520Y-81755000D01*
X147850000Y-78175000D02*
X147875000Y-78275000D01*
X118589366Y-80050000D02*
X116884366Y-81755000D01*
X147050000Y-77450000D02*
X133025000Y-77450000D01*
X147875000Y-78275000D02*
X147050000Y-77450000D01*
%TO.N,LED_K*%
X130675000Y-80575000D02*
X119575000Y-80575000D01*
X133325000Y-77925000D02*
X130675000Y-80575000D01*
X115855000Y-84295000D02*
X114824520Y-84295000D01*
X147350000Y-78775000D02*
X147350000Y-78425000D01*
X146850000Y-77925000D02*
X133325000Y-77925000D01*
X147350000Y-78425000D02*
X146850000Y-77925000D01*
X119575000Y-80575000D02*
X115855000Y-84295000D01*
D13*
%TO.N,LCD_RST*%
X147525000Y-92150000D02*
X147525000Y-87000000D01*
X147525000Y-87000000D02*
X146125000Y-85600000D01*
%TO.N,Net-(U1C-GPIO_DISP_B1_09)*%
X154671500Y-97850000D02*
X153821500Y-97000000D01*
X153821500Y-97000000D02*
X153821500Y-90208500D01*
X154676999Y-97850000D02*
X154671500Y-97850000D01*
X156172000Y-99345001D02*
X154676999Y-97850000D01*
X153821500Y-90208500D02*
X154330000Y-89700000D01*
%TO.N,Net-(U1C-GPIO_DISP_B1_10)*%
X154486780Y-92456634D02*
X154486780Y-90463220D01*
X154800000Y-89170000D02*
X154330000Y-88700000D01*
X156200000Y-98550000D02*
X156074720Y-98424720D01*
X154800000Y-90150000D02*
X154800000Y-89170000D01*
X156074720Y-98424720D02*
X156074720Y-97479440D01*
X156074720Y-97479440D02*
X155250000Y-96654720D01*
X154486780Y-90463220D02*
X154800000Y-90150000D01*
X155250000Y-96654720D02*
X155250000Y-93219854D01*
X155250000Y-93219854D02*
X154486780Y-92456634D01*
%TO.N,Net-(U1C-GPIO_DISP_B1_06)*%
X154130501Y-99801500D02*
X156401500Y-99801500D01*
X153810001Y-100122000D02*
X154130501Y-99801500D01*
X156401500Y-99801500D02*
X156600000Y-99603000D01*
X157246500Y-98103500D02*
X157246500Y-95935000D01*
X156600000Y-98750000D02*
X157246500Y-98103500D01*
X157246500Y-95935000D02*
X157278000Y-95903500D01*
X156600000Y-99603000D02*
X156600000Y-98750000D01*
%TO.N,Net-(U1C-GPIO_DISP_B1_07)*%
X154610000Y-101750000D02*
X154993500Y-101366500D01*
X160866500Y-101366500D02*
X161750000Y-102250000D01*
X161750000Y-102250000D02*
X161753000Y-102250000D01*
X161753000Y-102250000D02*
X162275000Y-102772000D01*
X154993500Y-101366500D02*
X160866500Y-101366500D01*
%TO.N,Net-(U1C-GPIO_DISP_B2_04)*%
X150950000Y-98850000D02*
X151400000Y-99300000D01*
X151778500Y-97371500D02*
X150950000Y-98200000D01*
X150950000Y-98200000D02*
X150950000Y-98850000D01*
X151778500Y-86878500D02*
X151778500Y-97371500D01*
X150500000Y-85600000D02*
X151778500Y-86878500D01*
%TO.N,Net-(U1C-GPIO_DISP_B2_05)*%
X153078514Y-100145000D02*
X153400000Y-99823514D01*
X153400000Y-85711500D02*
X153505750Y-85605750D01*
X153400000Y-99823514D02*
X153400000Y-85711500D01*
%TO.N,Net-(U1C-GPIO_DISP_B2_00)*%
X151796147Y-100610737D02*
X151796147Y-101403853D01*
X152950000Y-99456884D02*
X152950000Y-86300000D01*
X151796147Y-101403853D02*
X151450000Y-101750000D01*
X152950000Y-86300000D02*
X152478000Y-85828000D01*
X152478000Y-85660000D02*
X152421500Y-85716500D01*
X152478000Y-85828000D02*
X152478000Y-85660000D01*
X151796147Y-100610737D02*
X152950000Y-99456884D01*
%TO.N,Net-(U1C-GPIO_DISP_B2_02)*%
X152200000Y-100950000D02*
X152523500Y-101273500D01*
X161575000Y-99775000D02*
X162250000Y-99775000D01*
X152523500Y-101273500D02*
X154326500Y-101273500D01*
X154326500Y-101273500D02*
X155028500Y-100571500D01*
X155028500Y-100571500D02*
X160778500Y-100571500D01*
X160778500Y-100571500D02*
X161575000Y-99775000D01*
%TO.N,Net-(U1C-GPIO_DISP_B2_03)*%
X151591348Y-100422875D02*
X151831500Y-100182723D01*
X151831500Y-97668500D02*
X152588500Y-96911500D01*
X152588500Y-96911500D02*
X152588500Y-86688500D01*
X151831500Y-100182723D02*
X151831500Y-97668500D01*
X151065890Y-100422875D02*
X151591348Y-100422875D01*
X152588500Y-86688500D02*
X151500000Y-85600000D01*
X150558500Y-100930265D02*
X151065890Y-100422875D01*
%TO.N,Net-(U1G-ONOFF)*%
X153039500Y-110904220D02*
X152946500Y-110997220D01*
X152244000Y-118950000D02*
X146550000Y-118950000D01*
X146550000Y-118950000D02*
X145000000Y-120500000D01*
X152946500Y-113336220D02*
X153700000Y-114089720D01*
X153039500Y-110545000D02*
X153039500Y-110904220D01*
X145000000Y-120500000D02*
X136335000Y-120500000D01*
X136335000Y-120500000D02*
X136285000Y-120450000D01*
X152946500Y-110997220D02*
X152946500Y-113336220D01*
X153700000Y-117494000D02*
X152244000Y-118950000D01*
X153700000Y-114089720D02*
X153700000Y-117494000D01*
%TO.N,GPIO_LPSR_02*%
X158885000Y-120560000D02*
X159175000Y-120560000D01*
X156297000Y-114300000D02*
X156300000Y-114303000D01*
X156300000Y-117975000D02*
X158885000Y-120560000D01*
X156300000Y-114303000D02*
X156300000Y-117975000D01*
%TO.N,GPIO_LPSR_03*%
X156672000Y-113800000D02*
X156675000Y-113803000D01*
X158950000Y-120075000D02*
X160615000Y-120075000D01*
X160615000Y-120075000D02*
X161100000Y-120560000D01*
X156675000Y-113803000D02*
X156675000Y-117800000D01*
X156675000Y-117800000D02*
X158950000Y-120075000D01*
X161100000Y-120535000D02*
X161100000Y-120560000D01*
%TO.N,SWCLK*%
X114915000Y-91650000D02*
X114824520Y-91740480D01*
X114824520Y-91740480D02*
X114824520Y-91915000D01*
X114799520Y-91765480D02*
X114915000Y-91650000D01*
X114799520Y-91875000D02*
X114799520Y-91765480D01*
X114799520Y-91875000D02*
X114799520Y-91915000D01*
X115140000Y-91875000D02*
X114915000Y-91650000D01*
%TO.N,CHRG_LED*%
X145197000Y-91875000D02*
X126875000Y-91875000D01*
X124295000Y-94455000D02*
X114763020Y-94455000D01*
X145200000Y-91878000D02*
X145197000Y-91875000D01*
X126875000Y-91875000D02*
X124295000Y-94455000D01*
%TO.N,BTN_DOWN*%
X158600000Y-109100000D02*
X161700000Y-112200000D01*
X127700000Y-125500000D02*
X125500000Y-123300000D01*
X161700000Y-112200000D02*
X161700000Y-123800000D01*
X139900000Y-125800000D02*
X139600000Y-125500000D01*
X159700000Y-125800000D02*
X139900000Y-125800000D01*
X158600000Y-106550000D02*
X158600000Y-109100000D01*
X139600000Y-125500000D02*
X127700000Y-125500000D01*
X161700000Y-123800000D02*
X159700000Y-125800000D01*
%TO.N,BTN_DEC*%
X140793116Y-127000000D02*
X139510116Y-125717000D01*
X162121500Y-110406780D02*
X162150000Y-110435280D01*
X160206884Y-127000000D02*
X140793116Y-127000000D01*
X162172000Y-106750000D02*
X162121500Y-106800500D01*
X139510116Y-125717000D02*
X126617000Y-125717000D01*
X162150000Y-110435280D02*
X162150000Y-125056884D01*
X162150000Y-125056884D02*
X160206884Y-127000000D01*
X162121500Y-106800500D02*
X162121500Y-110406780D01*
X126617000Y-125717000D02*
X124300000Y-123400000D01*
%TO.N,I2C1_SCL*%
X114799520Y-109695000D02*
X114820000Y-109695000D01*
%TO.N,I2C1_SDA*%
X149621500Y-111671884D02*
X149843220Y-111450164D01*
X149849836Y-111450164D02*
X150600000Y-110700000D01*
X149621500Y-111678500D02*
X149621500Y-111671884D01*
X147990000Y-113453000D02*
X147990000Y-113310000D01*
X149843220Y-111450164D02*
X149849836Y-111450164D01*
X150600000Y-110700000D02*
X150600000Y-110550000D01*
X147990000Y-113310000D02*
X149621500Y-111678500D01*
%TO.N,BTN_MODE*%
X155375000Y-117425000D02*
X150400000Y-122400000D01*
X122315000Y-117315000D02*
X114763020Y-117315000D01*
X150400000Y-122400000D02*
X150400000Y-123200000D01*
X128500000Y-123500000D02*
X122315000Y-117315000D01*
X155375000Y-112700000D02*
X155375000Y-117425000D01*
X155783011Y-110083011D02*
X155783011Y-112291989D01*
X150400000Y-123200000D02*
X150100000Y-123500000D01*
X150100000Y-123500000D02*
X128500000Y-123500000D01*
X155400000Y-109700000D02*
X155783011Y-110083011D01*
X155783011Y-112291989D02*
X155375000Y-112700000D01*
%TO.N,BTN_INC*%
X124155000Y-119855000D02*
X114763020Y-119855000D01*
X155918500Y-113891780D02*
X155918500Y-118181500D01*
X128100000Y-123800000D02*
X124155000Y-119855000D01*
X150300000Y-123800000D02*
X128100000Y-123800000D01*
X157400000Y-112410280D02*
X155918500Y-113891780D01*
X157400000Y-108500000D02*
X157400000Y-112410280D01*
X157050000Y-108150000D02*
X157400000Y-108500000D01*
X155918500Y-118181500D02*
X150300000Y-123800000D01*
D14*
%TO.N,NRST*%
X122625000Y-122425000D02*
X121350000Y-122425000D01*
X136739511Y-126189511D02*
X126389511Y-126189511D01*
X126389511Y-126189511D02*
X122625000Y-122425000D01*
X138165000Y-128125480D02*
X138165000Y-127615000D01*
X138165000Y-127615000D02*
X136739511Y-126189511D01*
D13*
%TO.N,PVALVE2*%
X154300000Y-119200000D02*
X153100000Y-120400000D01*
X156100000Y-112281884D02*
X155592000Y-112789884D01*
X156636500Y-110186500D02*
X156636500Y-110963500D01*
X155400000Y-108950000D02*
X156636500Y-110186500D01*
X155592000Y-112789884D02*
X155592000Y-117908000D01*
X156636500Y-110963500D02*
X156100000Y-111500000D01*
X156100000Y-111500000D02*
X156100000Y-112281884D01*
X155592000Y-117908000D02*
X154300000Y-119200000D01*
%TO.N,IC_PUMP*%
X162550000Y-110200000D02*
X162550000Y-103350000D01*
X162550000Y-103350000D02*
X163820000Y-102080000D01*
X162500000Y-110250000D02*
X162550000Y-110200000D01*
X163820000Y-102080000D02*
X164496500Y-102080000D01*
%TO.N,POR_B*%
X128353500Y-121353500D02*
X150246500Y-121353500D01*
X153920500Y-110620500D02*
X153920500Y-117679500D01*
X153000000Y-109700000D02*
X153920500Y-110620500D01*
X153920500Y-117679500D02*
X153725000Y-117875000D01*
X150246500Y-121353500D02*
X153725000Y-117875000D01*
X127887500Y-120887500D02*
X128353500Y-121353500D01*
X127887500Y-120887500D02*
X127425000Y-121350000D01*
X153000000Y-109000000D02*
X153000000Y-109700000D01*
X129075000Y-119700000D02*
X127887500Y-120887500D01*
%TO.N,VDD_SNVS_ANA*%
X155158480Y-112183480D02*
X154700000Y-111725000D01*
X150369531Y-121619531D02*
X150375000Y-121625000D01*
X128200000Y-121731011D02*
X128311480Y-121619531D01*
X128311480Y-121619531D02*
X150369531Y-121619531D01*
X150568794Y-121625000D02*
X155158480Y-117035314D01*
X155158480Y-117035314D02*
X155158480Y-112183480D01*
X150375000Y-121625000D02*
X150568794Y-121625000D01*
%TD*%
%TA.AperFunction,Conductor*%
%TO.N,DCDC_1V8*%
G36*
X160114097Y-102959591D02*
G01*
X160154974Y-102986905D01*
X160720595Y-103552526D01*
X160747909Y-103593403D01*
X160757500Y-103641621D01*
X160757500Y-104545147D01*
X160755612Y-104565910D01*
X160755656Y-104566653D01*
X160752900Y-104581698D01*
X160757450Y-104596302D01*
X160757451Y-104596305D01*
X160762319Y-104611927D01*
X160764362Y-104619255D01*
X160771939Y-104649995D01*
X160775399Y-104653901D01*
X160776952Y-104658883D01*
X160784916Y-104666847D01*
X160799325Y-104681256D01*
X160804542Y-104686797D01*
X160818312Y-104702340D01*
X160841812Y-104741214D01*
X160850000Y-104785894D01*
X160850000Y-105400000D01*
X161525474Y-105400000D01*
X161588046Y-105416635D01*
X161634096Y-105462146D01*
X161651464Y-105524517D01*
X161652031Y-105572593D01*
X161673505Y-107397945D01*
X161657193Y-107461447D01*
X161611185Y-107508156D01*
X161547937Y-107525426D01*
X158890423Y-107534350D01*
X158827244Y-107517611D01*
X158780951Y-107471473D01*
X158764000Y-107408351D01*
X158764000Y-106896053D01*
X158775805Y-106842804D01*
X158809008Y-106799532D01*
X158815031Y-106794477D01*
X158853194Y-106762455D01*
X158910588Y-106663045D01*
X158930521Y-106550000D01*
X158910588Y-106436955D01*
X158853194Y-106337545D01*
X158765261Y-106263760D01*
X158754900Y-106259989D01*
X158753395Y-106259120D01*
X158707274Y-106213001D01*
X158690393Y-106150000D01*
X158707274Y-106086999D01*
X158753395Y-106040880D01*
X158754900Y-106040011D01*
X158765261Y-106036240D01*
X158853194Y-105962455D01*
X158910588Y-105863045D01*
X158930521Y-105750000D01*
X158910588Y-105636955D01*
X158853194Y-105537545D01*
X158765261Y-105463760D01*
X158754901Y-105459989D01*
X158754899Y-105459988D01*
X158727457Y-105450000D01*
X159744479Y-105450000D01*
X159746393Y-105460855D01*
X159762497Y-105552188D01*
X159762498Y-105552191D01*
X159764412Y-105563045D01*
X159769923Y-105572590D01*
X159769924Y-105572593D01*
X159813351Y-105647811D01*
X159821806Y-105662455D01*
X159909739Y-105736240D01*
X160017606Y-105775500D01*
X160121367Y-105775500D01*
X160132394Y-105775500D01*
X160240261Y-105736240D01*
X160328194Y-105662455D01*
X160385588Y-105563045D01*
X160405521Y-105450000D01*
X160385588Y-105336955D01*
X160328194Y-105237545D01*
X160240261Y-105163760D01*
X160229901Y-105159989D01*
X160229899Y-105159988D01*
X160142756Y-105128271D01*
X160142753Y-105128270D01*
X160132394Y-105124500D01*
X160017606Y-105124500D01*
X160007246Y-105128270D01*
X160007244Y-105128271D01*
X159920099Y-105159989D01*
X159920096Y-105159990D01*
X159909740Y-105163760D01*
X159901299Y-105170842D01*
X159901295Y-105170845D01*
X159830251Y-105230458D01*
X159830248Y-105230460D01*
X159821806Y-105237545D01*
X159816296Y-105247087D01*
X159816293Y-105247092D01*
X159769924Y-105327406D01*
X159769922Y-105327411D01*
X159764412Y-105336955D01*
X159762498Y-105347806D01*
X159762497Y-105347811D01*
X159754980Y-105390444D01*
X159744479Y-105450000D01*
X158727457Y-105450000D01*
X158667756Y-105428271D01*
X158667753Y-105428270D01*
X158657394Y-105424500D01*
X158542606Y-105424500D01*
X158532246Y-105428270D01*
X158532244Y-105428271D01*
X158445099Y-105459989D01*
X158445096Y-105459990D01*
X158434740Y-105463760D01*
X158426299Y-105470842D01*
X158426295Y-105470845D01*
X158355251Y-105530458D01*
X158355248Y-105530460D01*
X158346806Y-105537545D01*
X158341296Y-105547087D01*
X158341293Y-105547092D01*
X158294924Y-105627406D01*
X158294922Y-105627411D01*
X158289412Y-105636955D01*
X158287498Y-105647806D01*
X158287497Y-105647811D01*
X158273155Y-105729152D01*
X158269479Y-105750000D01*
X158271393Y-105760855D01*
X158287497Y-105852188D01*
X158287498Y-105852191D01*
X158289412Y-105863045D01*
X158294923Y-105872590D01*
X158294924Y-105872593D01*
X158322653Y-105920621D01*
X158346806Y-105962455D01*
X158434739Y-106036240D01*
X158445097Y-106040010D01*
X158446606Y-106040881D01*
X158492725Y-106087000D01*
X158509606Y-106150000D01*
X158492725Y-106213000D01*
X158446606Y-106259119D01*
X158445096Y-106259990D01*
X158434740Y-106263760D01*
X158426298Y-106270842D01*
X158426297Y-106270844D01*
X158355251Y-106330458D01*
X158355248Y-106330460D01*
X158346806Y-106337545D01*
X158341296Y-106347087D01*
X158341293Y-106347092D01*
X158294924Y-106427406D01*
X158294922Y-106427411D01*
X158289412Y-106436955D01*
X158287498Y-106447806D01*
X158287497Y-106447811D01*
X158275781Y-106514260D01*
X158269479Y-106550000D01*
X158271393Y-106560855D01*
X158287497Y-106652188D01*
X158287498Y-106652191D01*
X158289412Y-106663045D01*
X158294923Y-106672590D01*
X158294924Y-106672593D01*
X158341295Y-106752910D01*
X158346806Y-106762455D01*
X158380103Y-106790395D01*
X158390992Y-106799532D01*
X158424195Y-106842804D01*
X158436000Y-106896053D01*
X158436000Y-107410299D01*
X158419189Y-107473178D01*
X158373242Y-107519278D01*
X158310421Y-107536297D01*
X158298837Y-107536336D01*
X158273230Y-107536422D01*
X158219845Y-107524750D01*
X158176423Y-107491574D01*
X158151130Y-107443134D01*
X158148725Y-107388541D01*
X158153607Y-107360857D01*
X158153607Y-107360854D01*
X158155521Y-107350000D01*
X158135588Y-107236955D01*
X158124301Y-107217406D01*
X158083704Y-107147089D01*
X158078194Y-107137545D01*
X157990261Y-107063760D01*
X157979901Y-107059989D01*
X157979899Y-107059988D01*
X157892756Y-107028271D01*
X157892753Y-107028270D01*
X157882394Y-107024500D01*
X157767606Y-107024500D01*
X157757246Y-107028270D01*
X157757244Y-107028271D01*
X157670099Y-107059989D01*
X157670096Y-107059990D01*
X157659740Y-107063760D01*
X157651299Y-107070842D01*
X157651295Y-107070845D01*
X157580251Y-107130458D01*
X157580248Y-107130460D01*
X157571806Y-107137545D01*
X157566296Y-107147088D01*
X157566294Y-107147091D01*
X157529505Y-107210812D01*
X157483385Y-107256931D01*
X157420385Y-107273811D01*
X157357385Y-107256930D01*
X157311267Y-107210811D01*
X157263194Y-107127545D01*
X157192459Y-107068191D01*
X157183707Y-107060847D01*
X157183706Y-107060846D01*
X157175261Y-107053760D01*
X157164901Y-107049989D01*
X157164899Y-107049988D01*
X157077756Y-107018271D01*
X157077753Y-107018270D01*
X157067394Y-107014500D01*
X156952606Y-107014500D01*
X156942246Y-107018270D01*
X156942244Y-107018271D01*
X156855099Y-107049989D01*
X156855096Y-107049990D01*
X156844740Y-107053760D01*
X156836299Y-107060842D01*
X156836295Y-107060845D01*
X156765251Y-107120458D01*
X156765248Y-107120460D01*
X156756806Y-107127545D01*
X156751296Y-107137087D01*
X156751293Y-107137092D01*
X156704924Y-107217406D01*
X156704922Y-107217411D01*
X156699412Y-107226955D01*
X156697498Y-107237806D01*
X156697497Y-107237811D01*
X156681393Y-107329145D01*
X156679479Y-107340000D01*
X156681393Y-107350855D01*
X156681393Y-107350856D01*
X156689049Y-107394278D01*
X156686697Y-107448667D01*
X156661620Y-107496987D01*
X156618500Y-107530217D01*
X156565386Y-107542156D01*
X155851800Y-107544552D01*
X155798415Y-107532881D01*
X155754991Y-107499706D01*
X155729698Y-107451266D01*
X155727291Y-107396673D01*
X155727714Y-107394278D01*
X155735521Y-107350000D01*
X155715588Y-107236955D01*
X155704301Y-107217406D01*
X155663704Y-107147089D01*
X155658194Y-107137545D01*
X155570261Y-107063760D01*
X155559901Y-107059989D01*
X155559899Y-107059988D01*
X155472756Y-107028271D01*
X155472753Y-107028270D01*
X155462394Y-107024500D01*
X155347606Y-107024500D01*
X155337246Y-107028270D01*
X155337244Y-107028271D01*
X155250099Y-107059989D01*
X155250096Y-107059990D01*
X155239740Y-107063760D01*
X155231299Y-107070842D01*
X155231295Y-107070845D01*
X155160251Y-107130458D01*
X155160248Y-107130460D01*
X155151806Y-107137545D01*
X155146296Y-107147087D01*
X155146293Y-107147092D01*
X155099924Y-107227406D01*
X155099922Y-107227411D01*
X155094412Y-107236955D01*
X155092498Y-107247806D01*
X155092497Y-107247811D01*
X155087913Y-107273811D01*
X155074479Y-107350000D01*
X155076393Y-107360854D01*
X155076393Y-107360855D01*
X155083237Y-107399669D01*
X155080885Y-107454058D01*
X155055809Y-107502378D01*
X155012688Y-107535609D01*
X154959574Y-107547548D01*
X154355607Y-107549577D01*
X154292589Y-107532930D01*
X154246321Y-107487020D01*
X154229185Y-107424137D01*
X154225260Y-106534028D01*
X154236925Y-106480523D01*
X154270188Y-106437019D01*
X154837758Y-105959975D01*
X155490307Y-105357054D01*
X155528233Y-105332929D01*
X155572213Y-105323651D01*
X156623313Y-105293619D01*
X156683505Y-105306994D01*
X156730145Y-105347329D01*
X156752061Y-105404964D01*
X156744004Y-105466097D01*
X156707904Y-105516087D01*
X156696739Y-105525455D01*
X156696732Y-105525462D01*
X156688292Y-105532545D01*
X156682782Y-105542087D01*
X156682779Y-105542092D01*
X156636410Y-105622406D01*
X156636408Y-105622411D01*
X156630898Y-105631955D01*
X156628984Y-105642806D01*
X156628983Y-105642811D01*
X156613759Y-105729152D01*
X156610965Y-105745000D01*
X156612879Y-105755855D01*
X156628983Y-105847188D01*
X156628984Y-105847191D01*
X156630898Y-105858045D01*
X156636409Y-105867590D01*
X156636410Y-105867593D01*
X156639297Y-105872593D01*
X156688292Y-105957455D01*
X156776225Y-106031240D01*
X156884092Y-106070500D01*
X156987853Y-106070500D01*
X156998880Y-106070500D01*
X157106747Y-106031240D01*
X157194680Y-105957455D01*
X157252074Y-105858045D01*
X157272007Y-105745000D01*
X157252074Y-105631955D01*
X157194680Y-105532545D01*
X157186238Y-105525461D01*
X157186237Y-105525460D01*
X157154352Y-105498705D01*
X157118790Y-105450050D01*
X157109892Y-105390444D01*
X157129694Y-105333524D01*
X157173666Y-105292312D01*
X157231744Y-105276235D01*
X157275000Y-105275000D01*
X157275000Y-104500000D01*
X159719479Y-104500000D01*
X159721393Y-104510855D01*
X159737497Y-104602188D01*
X159737498Y-104602191D01*
X159739412Y-104613045D01*
X159744923Y-104622590D01*
X159744924Y-104622593D01*
X159754431Y-104639059D01*
X159796806Y-104712455D01*
X159884739Y-104786240D01*
X159992606Y-104825500D01*
X160096367Y-104825500D01*
X160107394Y-104825500D01*
X160215261Y-104786240D01*
X160303194Y-104712455D01*
X160360588Y-104613045D01*
X160380521Y-104500000D01*
X160360588Y-104386955D01*
X160303194Y-104287545D01*
X160215261Y-104213760D01*
X160204901Y-104209989D01*
X160204899Y-104209988D01*
X160117756Y-104178271D01*
X160117753Y-104178270D01*
X160107394Y-104174500D01*
X159992606Y-104174500D01*
X159982246Y-104178270D01*
X159982244Y-104178271D01*
X159895099Y-104209989D01*
X159895096Y-104209990D01*
X159884740Y-104213760D01*
X159876299Y-104220842D01*
X159876295Y-104220845D01*
X159805251Y-104280458D01*
X159805248Y-104280460D01*
X159796806Y-104287545D01*
X159791296Y-104297087D01*
X159791293Y-104297092D01*
X159744924Y-104377406D01*
X159744922Y-104377411D01*
X159739412Y-104386955D01*
X159737498Y-104397806D01*
X159737497Y-104397811D01*
X159723799Y-104475500D01*
X159719479Y-104500000D01*
X157275000Y-104500000D01*
X157275000Y-104366843D01*
X157291881Y-104303843D01*
X157317040Y-104260265D01*
X157322553Y-104250717D01*
X157342486Y-104137672D01*
X157322553Y-104024627D01*
X157291881Y-103971501D01*
X157275000Y-103908501D01*
X157275000Y-103593088D01*
X157291881Y-103530088D01*
X157302727Y-103511302D01*
X157330588Y-103463045D01*
X157350521Y-103350000D01*
X157330588Y-103236955D01*
X157291881Y-103169912D01*
X157275000Y-103106912D01*
X157275000Y-103076000D01*
X157291881Y-103013000D01*
X157338000Y-102966881D01*
X157401000Y-102950000D01*
X160065879Y-102950000D01*
X160114097Y-102959591D01*
G37*
%TD.AperFunction*%
%TD*%
%TA.AperFunction,Conductor*%
%TO.N,VDD_SOC*%
G36*
X149373654Y-94729893D02*
G01*
X149429519Y-94743786D01*
X149473378Y-94781085D01*
X149496066Y-94834001D01*
X149512497Y-94927188D01*
X149512498Y-94927191D01*
X149514412Y-94938045D01*
X149519923Y-94947590D01*
X149519924Y-94947593D01*
X149566295Y-95027910D01*
X149571806Y-95037455D01*
X149659739Y-95111240D01*
X149767606Y-95150500D01*
X149871367Y-95150500D01*
X149882394Y-95150500D01*
X149990261Y-95111240D01*
X150078194Y-95037455D01*
X150135588Y-94938045D01*
X150151825Y-94845958D01*
X150175175Y-94792154D01*
X150220356Y-94754748D01*
X150277571Y-94741852D01*
X151490168Y-94757894D01*
X151552460Y-94775324D01*
X151597896Y-94821365D01*
X151614500Y-94883883D01*
X151614500Y-96519934D01*
X151600263Y-96578114D01*
X151560771Y-96623147D01*
X151504947Y-96644856D01*
X151445409Y-96638336D01*
X151407394Y-96624500D01*
X151292606Y-96624500D01*
X151282246Y-96628270D01*
X151282244Y-96628271D01*
X151195099Y-96659989D01*
X151195096Y-96659990D01*
X151184740Y-96663760D01*
X151176299Y-96670842D01*
X151176295Y-96670845D01*
X151105251Y-96730458D01*
X151105248Y-96730460D01*
X151096806Y-96737545D01*
X151091296Y-96747087D01*
X151091293Y-96747092D01*
X151044924Y-96827406D01*
X151044922Y-96827411D01*
X151039412Y-96836955D01*
X151037498Y-96847806D01*
X151037497Y-96847811D01*
X151032475Y-96876294D01*
X151019479Y-96950000D01*
X151021393Y-96960855D01*
X151037497Y-97052188D01*
X151037498Y-97052191D01*
X151039412Y-97063045D01*
X151044923Y-97072590D01*
X151044924Y-97072593D01*
X151084541Y-97141212D01*
X151096806Y-97162455D01*
X151184739Y-97236240D01*
X151292606Y-97275500D01*
X151303633Y-97275500D01*
X151338378Y-97275500D01*
X151395581Y-97289233D01*
X151440314Y-97327439D01*
X151462827Y-97381789D01*
X151458211Y-97440436D01*
X151427473Y-97490596D01*
X150852668Y-98065399D01*
X150836646Y-98078752D01*
X150836154Y-98079306D01*
X150823571Y-98087993D01*
X150816465Y-98101531D01*
X150816461Y-98101536D01*
X150808855Y-98116028D01*
X150805123Y-98122644D01*
X150794562Y-98140114D01*
X150794560Y-98140120D01*
X150788740Y-98149749D01*
X150788424Y-98154957D01*
X150786000Y-98159578D01*
X150786000Y-98170831D01*
X150786000Y-98191233D01*
X150785770Y-98198841D01*
X150783858Y-98230447D01*
X150783612Y-98230432D01*
X150783433Y-98235206D01*
X150786000Y-98235206D01*
X150786000Y-98823647D01*
X150784112Y-98844410D01*
X150784156Y-98845153D01*
X150781400Y-98860198D01*
X150785950Y-98874802D01*
X150785951Y-98874805D01*
X150790819Y-98890427D01*
X150792862Y-98897755D01*
X150800439Y-98928495D01*
X150803899Y-98932401D01*
X150805452Y-98937383D01*
X150813416Y-98945347D01*
X150827825Y-98959756D01*
X150833043Y-98965298D01*
X150854049Y-98989009D01*
X150853868Y-98989169D01*
X150857116Y-98992670D01*
X150858928Y-98990859D01*
X151037876Y-99169807D01*
X151068949Y-99221011D01*
X151072868Y-99280776D01*
X151071403Y-99289087D01*
X151069479Y-99300000D01*
X151071393Y-99310855D01*
X151087497Y-99402188D01*
X151087498Y-99402191D01*
X151089412Y-99413045D01*
X151094923Y-99422590D01*
X151094924Y-99422593D01*
X151138060Y-99497306D01*
X151146806Y-99512455D01*
X151231339Y-99583387D01*
X151234739Y-99586240D01*
X151233567Y-99587636D01*
X151265561Y-99618262D01*
X151284815Y-99674981D01*
X151275704Y-99734181D01*
X151240287Y-99782485D01*
X151189819Y-99824832D01*
X151189813Y-99824838D01*
X151181374Y-99831920D01*
X151175864Y-99841462D01*
X151175861Y-99841467D01*
X151129492Y-99921781D01*
X151129490Y-99921786D01*
X151123980Y-99931330D01*
X151122066Y-99942181D01*
X151122065Y-99942186D01*
X151107849Y-100022811D01*
X151104047Y-100044375D01*
X151105961Y-100055230D01*
X151105961Y-100055231D01*
X151117358Y-100119870D01*
X151113399Y-100179770D01*
X151082173Y-100231039D01*
X151030768Y-100262041D01*
X151028937Y-100262611D01*
X151025469Y-100263692D01*
X151018142Y-100265735D01*
X151010605Y-100267593D01*
X150987395Y-100273314D01*
X150983488Y-100276774D01*
X150978507Y-100278327D01*
X150970551Y-100286282D01*
X150970546Y-100286285D01*
X150956117Y-100300714D01*
X150950583Y-100305924D01*
X150926883Y-100326922D01*
X150926719Y-100326737D01*
X150923214Y-100329987D01*
X150925030Y-100331803D01*
X150688973Y-100567860D01*
X150648096Y-100595174D01*
X150599878Y-100604765D01*
X150501106Y-100604765D01*
X150490746Y-100608535D01*
X150490744Y-100608536D01*
X150403599Y-100640254D01*
X150403596Y-100640255D01*
X150393240Y-100644025D01*
X150384799Y-100651107D01*
X150384795Y-100651110D01*
X150313751Y-100710723D01*
X150313748Y-100710725D01*
X150305306Y-100717810D01*
X150299796Y-100727352D01*
X150299793Y-100727357D01*
X150253424Y-100807671D01*
X150253422Y-100807676D01*
X150247912Y-100817220D01*
X150245998Y-100828071D01*
X150245997Y-100828076D01*
X150239142Y-100866955D01*
X150227979Y-100930265D01*
X150229893Y-100941120D01*
X150245997Y-101032453D01*
X150245998Y-101032456D01*
X150247912Y-101043310D01*
X150253423Y-101052855D01*
X150253424Y-101052858D01*
X150291041Y-101118012D01*
X150305306Y-101142720D01*
X150393239Y-101216505D01*
X150413191Y-101223767D01*
X150433133Y-101231025D01*
X150486560Y-101268434D01*
X150514125Y-101327546D01*
X150508440Y-101392520D01*
X150471030Y-101445947D01*
X150394703Y-101509993D01*
X150394699Y-101509997D01*
X150386255Y-101517083D01*
X150380745Y-101526625D01*
X150380742Y-101526630D01*
X150334373Y-101606944D01*
X150334371Y-101606949D01*
X150328861Y-101616493D01*
X150326947Y-101627344D01*
X150326946Y-101627349D01*
X150323332Y-101647847D01*
X150308928Y-101729538D01*
X150310842Y-101740393D01*
X150326946Y-101831726D01*
X150326947Y-101831729D01*
X150328861Y-101842583D01*
X150334372Y-101852128D01*
X150334373Y-101852131D01*
X150373292Y-101919541D01*
X150386255Y-101941993D01*
X150438986Y-101986240D01*
X150472854Y-102014659D01*
X150510263Y-102068085D01*
X150515948Y-102133058D01*
X150488385Y-102192169D01*
X150434960Y-102229580D01*
X150420100Y-102234988D01*
X150420094Y-102234991D01*
X150409740Y-102238760D01*
X150401299Y-102245842D01*
X150401295Y-102245845D01*
X150330251Y-102305458D01*
X150330248Y-102305460D01*
X150321806Y-102312545D01*
X150316296Y-102322087D01*
X150316293Y-102322092D01*
X150269924Y-102402406D01*
X150269922Y-102402411D01*
X150264412Y-102411955D01*
X150262498Y-102422806D01*
X150262497Y-102422811D01*
X150251932Y-102482732D01*
X150244479Y-102525000D01*
X150246393Y-102535855D01*
X150262497Y-102627188D01*
X150262498Y-102627191D01*
X150264412Y-102638045D01*
X150269923Y-102647590D01*
X150269924Y-102647593D01*
X150308575Y-102714538D01*
X150321806Y-102737455D01*
X150409739Y-102811240D01*
X150517606Y-102850500D01*
X150621367Y-102850500D01*
X150632394Y-102850500D01*
X150740261Y-102811240D01*
X150828194Y-102737455D01*
X150878417Y-102650464D01*
X150929350Y-102601706D01*
X150998509Y-102587946D01*
X151064230Y-102613499D01*
X151097646Y-102659064D01*
X151099412Y-102658045D01*
X151156806Y-102757455D01*
X151244739Y-102831240D01*
X151352606Y-102870500D01*
X151456367Y-102870500D01*
X151467394Y-102870500D01*
X151575261Y-102831240D01*
X151663194Y-102757455D01*
X151715316Y-102667175D01*
X151761432Y-102621059D01*
X151824432Y-102604178D01*
X151887433Y-102621059D01*
X151933552Y-102667178D01*
X151935894Y-102671235D01*
X151956806Y-102707455D01*
X152044739Y-102781240D01*
X152152606Y-102820500D01*
X152256367Y-102820500D01*
X152267394Y-102820500D01*
X152375261Y-102781240D01*
X152463194Y-102707455D01*
X152520588Y-102608045D01*
X152540521Y-102495000D01*
X152520588Y-102381955D01*
X152463194Y-102282545D01*
X152375261Y-102208760D01*
X152375806Y-102208109D01*
X152340899Y-102174691D01*
X152321646Y-102117973D01*
X152330759Y-102058774D01*
X152366173Y-102010474D01*
X152453194Y-101937455D01*
X152510588Y-101838045D01*
X152513406Y-101839672D01*
X152530227Y-101812321D01*
X152578819Y-101781845D01*
X152635885Y-101776066D01*
X152689600Y-101796182D01*
X152728833Y-101838024D01*
X152754745Y-101882904D01*
X152771806Y-101912455D01*
X152859739Y-101986240D01*
X152967606Y-102025500D01*
X153071367Y-102025500D01*
X153082394Y-102025500D01*
X153190261Y-101986240D01*
X153278194Y-101912455D01*
X153283709Y-101902902D01*
X153287451Y-101898443D01*
X153340876Y-101861031D01*
X153405849Y-101855343D01*
X153464962Y-101882904D01*
X153497228Y-101928979D01*
X153497588Y-101928772D01*
X153497707Y-101928979D01*
X153503098Y-101938316D01*
X153503099Y-101938318D01*
X153548673Y-102017254D01*
X153554982Y-102028182D01*
X153642915Y-102101967D01*
X153750782Y-102141227D01*
X153761809Y-102141227D01*
X153781698Y-102141227D01*
X153845073Y-102158325D01*
X153891248Y-102204979D01*
X153907691Y-102268527D01*
X153867480Y-106165274D01*
X153853693Y-106221295D01*
X153816382Y-106265299D01*
X153763475Y-106288014D01*
X153752606Y-106288014D01*
X153742253Y-106291782D01*
X153742248Y-106291783D01*
X153655099Y-106323503D01*
X153655096Y-106323504D01*
X153644740Y-106327274D01*
X153636299Y-106334356D01*
X153636295Y-106334359D01*
X153565251Y-106393972D01*
X153565248Y-106393974D01*
X153556806Y-106401059D01*
X153541595Y-106427406D01*
X153519117Y-106466338D01*
X153472997Y-106512457D01*
X153409997Y-106529337D01*
X153346997Y-106512455D01*
X153300880Y-106466338D01*
X153263193Y-106401061D01*
X153175260Y-106327276D01*
X153164900Y-106323505D01*
X153164898Y-106323504D01*
X153077755Y-106291787D01*
X153077752Y-106291786D01*
X153067393Y-106288016D01*
X152952605Y-106288016D01*
X152942245Y-106291786D01*
X152942243Y-106291787D01*
X152855098Y-106323505D01*
X152855095Y-106323506D01*
X152844739Y-106327276D01*
X152836298Y-106334358D01*
X152836294Y-106334361D01*
X152765250Y-106393974D01*
X152765247Y-106393976D01*
X152756805Y-106401061D01*
X152751295Y-106410603D01*
X152751292Y-106410608D01*
X152704923Y-106490922D01*
X152704921Y-106490927D01*
X152699411Y-106500471D01*
X152697497Y-106511322D01*
X152697496Y-106511327D01*
X152684229Y-106586570D01*
X152679478Y-106613516D01*
X152681392Y-106624371D01*
X152697496Y-106715704D01*
X152697497Y-106715707D01*
X152699411Y-106726561D01*
X152704922Y-106736106D01*
X152704923Y-106736109D01*
X152751294Y-106816426D01*
X152756805Y-106825971D01*
X152831956Y-106889031D01*
X152865159Y-106932301D01*
X152876964Y-106985550D01*
X152865159Y-107038800D01*
X152831956Y-107082072D01*
X152780251Y-107125457D01*
X152780248Y-107125461D01*
X152771806Y-107132545D01*
X152766296Y-107142087D01*
X152766293Y-107142092D01*
X152719924Y-107222406D01*
X152719922Y-107222411D01*
X152714412Y-107231955D01*
X152712498Y-107242806D01*
X152712497Y-107242811D01*
X152702399Y-107300082D01*
X152694479Y-107345000D01*
X152696393Y-107355855D01*
X152712497Y-107447188D01*
X152712498Y-107447191D01*
X152714412Y-107458045D01*
X152719923Y-107467590D01*
X152719924Y-107467593D01*
X152741435Y-107504851D01*
X152771806Y-107557455D01*
X152859739Y-107631240D01*
X152894382Y-107643849D01*
X152941571Y-107661024D01*
X152993209Y-107696347D01*
X153021490Y-107752153D01*
X153019443Y-107814683D01*
X152987573Y-107868520D01*
X152293500Y-108562595D01*
X152252622Y-108589909D01*
X152214470Y-108597497D01*
X152214486Y-108597586D01*
X152210437Y-108598299D01*
X152204404Y-108599500D01*
X152192606Y-108599500D01*
X152182246Y-108603270D01*
X152182244Y-108603271D01*
X152095099Y-108634989D01*
X152095096Y-108634990D01*
X152084740Y-108638760D01*
X152076299Y-108645842D01*
X152076295Y-108645845D01*
X152005251Y-108705458D01*
X152005248Y-108705460D01*
X151996806Y-108712545D01*
X151991296Y-108722087D01*
X151991293Y-108722092D01*
X151953505Y-108787545D01*
X151939412Y-108811955D01*
X151937794Y-108821127D01*
X151896721Y-108877141D01*
X151830999Y-108902698D01*
X151761838Y-108888940D01*
X151710901Y-108840177D01*
X151663194Y-108757545D01*
X151575261Y-108683760D01*
X151555535Y-108676580D01*
X151504994Y-108642490D01*
X151476373Y-108588661D01*
X151476374Y-108527696D01*
X151504996Y-108473868D01*
X151545823Y-108446330D01*
X151545356Y-108445521D01*
X151554897Y-108440011D01*
X151565261Y-108436240D01*
X151653194Y-108362455D01*
X151710588Y-108263045D01*
X151730521Y-108150000D01*
X151710588Y-108036955D01*
X151699301Y-108017406D01*
X151658704Y-107947089D01*
X151653194Y-107937545D01*
X151565261Y-107863760D01*
X151554902Y-107859989D01*
X151553770Y-107859336D01*
X151504999Y-107808383D01*
X151491252Y-107739204D01*
X151516836Y-107673476D01*
X151557277Y-107643849D01*
X151555356Y-107640521D01*
X151564897Y-107635011D01*
X151575261Y-107631240D01*
X151663194Y-107557455D01*
X151720588Y-107458045D01*
X151740521Y-107345000D01*
X151720588Y-107231955D01*
X151663194Y-107132545D01*
X151575261Y-107058760D01*
X151575261Y-107058759D01*
X151577706Y-107055845D01*
X151542934Y-107019509D01*
X151529188Y-106950350D01*
X151554750Y-106884635D01*
X151611613Y-106842945D01*
X151643775Y-106831240D01*
X151731708Y-106757455D01*
X151789102Y-106658045D01*
X151809035Y-106545000D01*
X151789102Y-106431955D01*
X151731708Y-106332545D01*
X151643775Y-106258760D01*
X151633415Y-106254989D01*
X151633413Y-106254988D01*
X151546270Y-106223271D01*
X151546267Y-106223270D01*
X151535908Y-106219500D01*
X151421120Y-106219500D01*
X151410760Y-106223270D01*
X151410758Y-106223271D01*
X151323613Y-106254989D01*
X151323610Y-106254990D01*
X151313254Y-106258760D01*
X151304813Y-106265842D01*
X151304809Y-106265845D01*
X151233765Y-106325458D01*
X151233762Y-106325460D01*
X151225320Y-106332545D01*
X151219810Y-106342087D01*
X151219807Y-106342092D01*
X151173438Y-106422406D01*
X151173436Y-106422411D01*
X151167926Y-106431955D01*
X151166012Y-106442809D01*
X151162241Y-106453171D01*
X151159097Y-106452026D01*
X151140027Y-106492906D01*
X151086599Y-106530305D01*
X151021629Y-106535983D01*
X150962524Y-106508418D01*
X150925117Y-106454995D01*
X150922502Y-106447811D01*
X150920588Y-106436955D01*
X150863194Y-106337545D01*
X150775261Y-106263760D01*
X150776310Y-106262508D01*
X150736252Y-106220660D01*
X150722498Y-106151498D01*
X150748058Y-106085777D01*
X150804922Y-106044084D01*
X150846601Y-106028915D01*
X150934534Y-105955130D01*
X150991928Y-105855720D01*
X151011861Y-105742675D01*
X150991928Y-105629630D01*
X150934534Y-105530220D01*
X150855320Y-105463751D01*
X150855047Y-105463522D01*
X150855046Y-105463521D01*
X150846601Y-105456435D01*
X150836241Y-105452664D01*
X150836239Y-105452663D01*
X150749096Y-105420946D01*
X150749093Y-105420945D01*
X150738734Y-105417175D01*
X150623946Y-105417175D01*
X150613586Y-105420945D01*
X150613584Y-105420946D01*
X150526439Y-105452664D01*
X150526436Y-105452665D01*
X150516080Y-105456435D01*
X150507639Y-105463517D01*
X150507635Y-105463520D01*
X150436591Y-105523133D01*
X150436588Y-105523135D01*
X150428146Y-105530220D01*
X150422636Y-105539762D01*
X150422633Y-105539767D01*
X150376264Y-105620081D01*
X150376262Y-105620086D01*
X150370752Y-105629630D01*
X150368838Y-105640481D01*
X150368837Y-105640486D01*
X150367860Y-105646029D01*
X150350819Y-105742675D01*
X150352733Y-105753530D01*
X150368837Y-105844863D01*
X150368838Y-105844866D01*
X150370752Y-105855720D01*
X150376263Y-105865265D01*
X150376264Y-105865268D01*
X150422635Y-105945585D01*
X150428146Y-105955130D01*
X150507632Y-106021827D01*
X150516079Y-106028915D01*
X150515028Y-106030166D01*
X150555085Y-106072010D01*
X150568842Y-106141172D01*
X150543284Y-106206894D01*
X150486416Y-106248591D01*
X150455099Y-106259989D01*
X150455096Y-106259990D01*
X150444740Y-106263760D01*
X150436299Y-106270842D01*
X150436295Y-106270845D01*
X150365251Y-106330458D01*
X150365248Y-106330460D01*
X150356806Y-106337545D01*
X150351296Y-106347087D01*
X150351293Y-106347092D01*
X150304924Y-106427406D01*
X150304922Y-106427411D01*
X150299412Y-106436955D01*
X150297498Y-106447806D01*
X150297497Y-106447811D01*
X150286099Y-106512455D01*
X150279479Y-106550000D01*
X150281393Y-106560855D01*
X150297497Y-106652188D01*
X150297498Y-106652191D01*
X150299412Y-106663045D01*
X150304923Y-106672590D01*
X150304924Y-106672593D01*
X150341595Y-106736109D01*
X150356806Y-106762455D01*
X150444739Y-106836240D01*
X150552606Y-106875500D01*
X150656367Y-106875500D01*
X150667394Y-106875500D01*
X150775261Y-106836240D01*
X150863194Y-106762455D01*
X150920588Y-106663045D01*
X150922502Y-106652187D01*
X150926273Y-106641829D01*
X150929423Y-106642975D01*
X150948446Y-106602142D01*
X151001869Y-106564710D01*
X151066852Y-106559010D01*
X151125976Y-106586570D01*
X151163395Y-106640002D01*
X151166012Y-106647193D01*
X151167926Y-106658045D01*
X151173436Y-106667589D01*
X151173437Y-106667591D01*
X151207482Y-106726559D01*
X151225320Y-106757455D01*
X151295601Y-106816428D01*
X151313253Y-106831240D01*
X151310804Y-106834157D01*
X151345569Y-106870472D01*
X151359327Y-106939634D01*
X151333769Y-107005356D01*
X151276902Y-107047053D01*
X151244740Y-107058760D01*
X151236299Y-107065842D01*
X151236295Y-107065845D01*
X151165251Y-107125458D01*
X151165248Y-107125460D01*
X151156806Y-107132545D01*
X151151296Y-107142087D01*
X151151293Y-107142092D01*
X151104924Y-107222406D01*
X151104922Y-107222411D01*
X151099412Y-107231955D01*
X151097498Y-107242806D01*
X151097497Y-107242811D01*
X151087399Y-107300082D01*
X151079479Y-107345000D01*
X151081393Y-107355855D01*
X151097497Y-107447188D01*
X151097498Y-107447191D01*
X151099412Y-107458045D01*
X151104923Y-107467590D01*
X151104924Y-107467593D01*
X151126435Y-107504851D01*
X151156806Y-107557455D01*
X151244739Y-107631240D01*
X151255101Y-107635011D01*
X151256228Y-107635662D01*
X151304988Y-107686593D01*
X151318751Y-107755746D01*
X151293207Y-107821466D01*
X151252728Y-107851160D01*
X151254644Y-107854479D01*
X151245097Y-107859990D01*
X151234740Y-107863760D01*
X151226299Y-107870842D01*
X151226295Y-107870845D01*
X151155251Y-107930458D01*
X151155248Y-107930460D01*
X151146806Y-107937545D01*
X151141296Y-107947087D01*
X151141293Y-107947092D01*
X151094924Y-108027406D01*
X151094922Y-108027411D01*
X151089412Y-108036955D01*
X151087498Y-108047806D01*
X151087497Y-108047811D01*
X151081477Y-108081955D01*
X151069479Y-108150000D01*
X151071393Y-108160855D01*
X151087497Y-108252188D01*
X151087498Y-108252191D01*
X151089412Y-108263045D01*
X151094923Y-108272590D01*
X151094924Y-108272593D01*
X151141295Y-108352910D01*
X151146806Y-108362455D01*
X151234739Y-108436240D01*
X151254460Y-108443417D01*
X151305001Y-108477505D01*
X151333624Y-108531330D01*
X151333627Y-108592292D01*
X151305012Y-108646121D01*
X151264177Y-108673670D01*
X151264644Y-108674479D01*
X151255097Y-108679990D01*
X151244740Y-108683760D01*
X151236299Y-108690842D01*
X151236295Y-108690845D01*
X151165251Y-108750458D01*
X151165248Y-108750460D01*
X151156806Y-108757545D01*
X151151296Y-108767087D01*
X151151293Y-108767092D01*
X151104924Y-108847406D01*
X151104922Y-108847411D01*
X151099412Y-108856955D01*
X151097498Y-108867806D01*
X151097497Y-108867811D01*
X151081393Y-108959145D01*
X151079479Y-108970000D01*
X151081393Y-108980855D01*
X151097497Y-109072188D01*
X151097498Y-109072191D01*
X151099412Y-109083045D01*
X151104923Y-109092590D01*
X151104924Y-109092593D01*
X151151295Y-109172910D01*
X151156806Y-109182455D01*
X151244739Y-109256240D01*
X151291770Y-109273357D01*
X151342308Y-109307446D01*
X151370929Y-109361274D01*
X151370930Y-109422238D01*
X151342309Y-109476067D01*
X151291768Y-109510158D01*
X151255507Y-109523356D01*
X151244740Y-109527275D01*
X151236299Y-109534357D01*
X151236295Y-109534360D01*
X151165251Y-109593973D01*
X151165248Y-109593975D01*
X151156806Y-109601060D01*
X151151296Y-109610602D01*
X151151293Y-109610607D01*
X151104924Y-109690921D01*
X151104922Y-109690926D01*
X151099412Y-109700470D01*
X151097498Y-109711321D01*
X151097497Y-109711326D01*
X151081393Y-109802660D01*
X151079479Y-109813515D01*
X151081393Y-109824370D01*
X151097497Y-109915703D01*
X151097498Y-109915706D01*
X151099412Y-109926560D01*
X151104923Y-109936105D01*
X151104924Y-109936108D01*
X151151295Y-110016425D01*
X151156806Y-110025970D01*
X151244739Y-110099755D01*
X151352606Y-110139015D01*
X151456367Y-110139015D01*
X151467394Y-110139015D01*
X151575261Y-110099755D01*
X151663194Y-110025970D01*
X151720588Y-109926560D01*
X151740521Y-109813515D01*
X151720588Y-109700470D01*
X151663194Y-109601060D01*
X151575261Y-109527275D01*
X151528232Y-109510158D01*
X151477690Y-109476067D01*
X151449069Y-109422238D01*
X151449070Y-109361274D01*
X151477692Y-109307445D01*
X151528229Y-109273357D01*
X151575261Y-109256240D01*
X151663194Y-109182455D01*
X151720588Y-109083045D01*
X151722205Y-109073871D01*
X151763274Y-109017860D01*
X151828997Y-108992302D01*
X151898159Y-109006059D01*
X151949098Y-109054822D01*
X151977984Y-109104855D01*
X151996806Y-109137455D01*
X152084739Y-109211240D01*
X152192606Y-109250500D01*
X152296367Y-109250500D01*
X152307394Y-109250500D01*
X152415261Y-109211240D01*
X152503194Y-109137455D01*
X152507082Y-109130719D01*
X152553473Y-109096703D01*
X152612673Y-109087590D01*
X152669392Y-109106843D01*
X152710811Y-109150110D01*
X152746806Y-109212455D01*
X152766705Y-109229152D01*
X152790992Y-109249532D01*
X152824195Y-109292804D01*
X152836000Y-109346053D01*
X152836000Y-109673647D01*
X152834112Y-109694410D01*
X152834156Y-109695153D01*
X152831400Y-109710198D01*
X152835950Y-109724802D01*
X152835951Y-109724805D01*
X152840819Y-109740427D01*
X152842862Y-109747755D01*
X152850439Y-109778495D01*
X152853899Y-109782401D01*
X152855452Y-109787383D01*
X152863416Y-109795347D01*
X152877825Y-109809756D01*
X152883043Y-109815298D01*
X152904049Y-109839009D01*
X152903868Y-109839169D01*
X152907116Y-109842670D01*
X152908928Y-109840859D01*
X153072474Y-110004405D01*
X153103212Y-110054564D01*
X153107828Y-110113211D01*
X153085315Y-110167561D01*
X153040582Y-110205767D01*
X153003472Y-110214675D01*
X153003986Y-110217586D01*
X152993131Y-110219500D01*
X152982106Y-110219500D01*
X152971746Y-110223270D01*
X152971744Y-110223271D01*
X152884599Y-110254989D01*
X152884596Y-110254990D01*
X152874240Y-110258760D01*
X152865799Y-110265842D01*
X152865795Y-110265845D01*
X152794751Y-110325458D01*
X152794748Y-110325460D01*
X152786306Y-110332545D01*
X152780796Y-110342087D01*
X152780793Y-110342092D01*
X152734424Y-110422406D01*
X152734422Y-110422411D01*
X152728912Y-110431955D01*
X152726998Y-110442806D01*
X152726997Y-110442811D01*
X152711074Y-110533117D01*
X152708979Y-110545000D01*
X152710893Y-110555855D01*
X152726997Y-110647188D01*
X152726998Y-110647191D01*
X152728912Y-110658045D01*
X152734423Y-110667590D01*
X152734424Y-110667593D01*
X152778848Y-110744538D01*
X152786306Y-110757455D01*
X152794752Y-110764542D01*
X152794976Y-110764809D01*
X152818666Y-110808049D01*
X152823950Y-110857069D01*
X152810018Y-110904364D01*
X152805354Y-110913249D01*
X152801623Y-110919864D01*
X152791062Y-110937334D01*
X152791060Y-110937340D01*
X152785240Y-110946969D01*
X152784924Y-110952177D01*
X152782500Y-110956798D01*
X152782500Y-110968051D01*
X152782500Y-110988453D01*
X152782270Y-110996061D01*
X152780358Y-111027667D01*
X152780112Y-111027652D01*
X152779933Y-111032426D01*
X152782500Y-111032426D01*
X152782500Y-113309867D01*
X152780612Y-113330630D01*
X152780656Y-113331373D01*
X152777900Y-113346418D01*
X152782450Y-113361022D01*
X152782451Y-113361025D01*
X152787319Y-113376647D01*
X152789362Y-113383975D01*
X152796939Y-113414715D01*
X152800399Y-113418621D01*
X152801952Y-113423603D01*
X152809916Y-113431567D01*
X152824325Y-113445976D01*
X152829543Y-113451518D01*
X152850549Y-113475229D01*
X152850368Y-113475389D01*
X152853616Y-113478890D01*
X152855428Y-113477079D01*
X153499095Y-114120746D01*
X153526409Y-114161623D01*
X153536000Y-114209841D01*
X153536000Y-117373878D01*
X153526408Y-117422097D01*
X153499094Y-117462975D01*
X153453362Y-117508705D01*
X153411823Y-117536289D01*
X153362836Y-117545600D01*
X146836054Y-117471432D01*
X146773232Y-117453826D01*
X146727638Y-117407160D01*
X146711495Y-117343946D01*
X146719597Y-116660855D01*
X146719726Y-116650000D01*
X151094479Y-116650000D01*
X151096393Y-116660855D01*
X151112497Y-116752188D01*
X151112498Y-116752191D01*
X151114412Y-116763045D01*
X151119923Y-116772590D01*
X151119924Y-116772593D01*
X151166295Y-116852910D01*
X151171806Y-116862455D01*
X151259739Y-116936240D01*
X151367606Y-116975500D01*
X151471367Y-116975500D01*
X151482394Y-116975500D01*
X151590261Y-116936240D01*
X151678194Y-116862455D01*
X151735588Y-116763045D01*
X151755521Y-116650000D01*
X151735588Y-116536955D01*
X151678194Y-116437545D01*
X151590261Y-116363760D01*
X151579901Y-116359989D01*
X151579899Y-116359988D01*
X151492756Y-116328271D01*
X151492753Y-116328270D01*
X151482394Y-116324500D01*
X151367606Y-116324500D01*
X151357246Y-116328270D01*
X151357244Y-116328271D01*
X151270099Y-116359989D01*
X151270096Y-116359990D01*
X151259740Y-116363760D01*
X151251299Y-116370842D01*
X151251295Y-116370845D01*
X151180251Y-116430458D01*
X151180248Y-116430460D01*
X151171806Y-116437545D01*
X151166296Y-116447087D01*
X151166293Y-116447092D01*
X151119924Y-116527406D01*
X151119922Y-116527411D01*
X151114412Y-116536955D01*
X151112498Y-116547806D01*
X151112497Y-116547811D01*
X151096393Y-116639145D01*
X151094479Y-116650000D01*
X146719726Y-116650000D01*
X146734552Y-115400000D01*
X151094479Y-115400000D01*
X151096393Y-115410855D01*
X151112497Y-115502188D01*
X151112498Y-115502191D01*
X151114412Y-115513045D01*
X151119923Y-115522590D01*
X151119924Y-115522593D01*
X151166295Y-115602910D01*
X151171806Y-115612455D01*
X151259739Y-115686240D01*
X151367606Y-115725500D01*
X151471367Y-115725500D01*
X151482394Y-115725500D01*
X151590261Y-115686240D01*
X151678194Y-115612455D01*
X151735588Y-115513045D01*
X151755521Y-115400000D01*
X151735588Y-115286955D01*
X151685385Y-115200000D01*
X152394479Y-115200000D01*
X152396393Y-115210855D01*
X152412497Y-115302188D01*
X152412498Y-115302191D01*
X152414412Y-115313045D01*
X152419923Y-115322590D01*
X152419924Y-115322593D01*
X152458348Y-115389145D01*
X152471806Y-115412455D01*
X152559739Y-115486240D01*
X152667606Y-115525500D01*
X152771367Y-115525500D01*
X152782394Y-115525500D01*
X152890261Y-115486240D01*
X152978194Y-115412455D01*
X153035588Y-115313045D01*
X153055521Y-115200000D01*
X153035588Y-115086955D01*
X152978194Y-114987545D01*
X152890261Y-114913760D01*
X152879901Y-114909989D01*
X152879899Y-114909988D01*
X152792756Y-114878271D01*
X152792753Y-114878270D01*
X152782394Y-114874500D01*
X152667606Y-114874500D01*
X152657246Y-114878270D01*
X152657244Y-114878271D01*
X152570099Y-114909989D01*
X152570096Y-114909990D01*
X152559740Y-114913760D01*
X152551299Y-114920842D01*
X152551295Y-114920845D01*
X152480251Y-114980458D01*
X152480248Y-114980460D01*
X152471806Y-114987545D01*
X152466296Y-114997087D01*
X152466293Y-114997092D01*
X152419924Y-115077406D01*
X152419922Y-115077411D01*
X152414412Y-115086955D01*
X152412498Y-115097806D01*
X152412497Y-115097811D01*
X152397925Y-115180458D01*
X152394479Y-115200000D01*
X151685385Y-115200000D01*
X151678194Y-115187545D01*
X151590261Y-115113760D01*
X151579901Y-115109989D01*
X151579899Y-115109988D01*
X151492756Y-115078271D01*
X151492753Y-115078270D01*
X151482394Y-115074500D01*
X151367606Y-115074500D01*
X151357246Y-115078270D01*
X151357244Y-115078271D01*
X151270099Y-115109989D01*
X151270096Y-115109990D01*
X151259740Y-115113760D01*
X151251299Y-115120842D01*
X151251295Y-115120845D01*
X151180251Y-115180458D01*
X151180248Y-115180460D01*
X151171806Y-115187545D01*
X151166296Y-115197087D01*
X151166293Y-115197092D01*
X151119924Y-115277406D01*
X151119922Y-115277411D01*
X151114412Y-115286955D01*
X151112498Y-115297806D01*
X151112497Y-115297811D01*
X151096393Y-115389145D01*
X151094479Y-115400000D01*
X146734552Y-115400000D01*
X146757645Y-113453000D01*
X147659479Y-113453000D01*
X147661393Y-113463855D01*
X147677497Y-113555188D01*
X147677498Y-113555191D01*
X147679412Y-113566045D01*
X147684923Y-113575590D01*
X147684924Y-113575593D01*
X147704846Y-113610099D01*
X147736806Y-113665455D01*
X147824739Y-113739240D01*
X147932606Y-113778500D01*
X148036367Y-113778500D01*
X148047394Y-113778500D01*
X148155261Y-113739240D01*
X148243194Y-113665455D01*
X148300588Y-113566045D01*
X148320521Y-113453000D01*
X148300588Y-113339955D01*
X148297378Y-113334396D01*
X148292952Y-113266884D01*
X148326869Y-113205060D01*
X149536996Y-111994933D01*
X149585588Y-111964717D01*
X149642536Y-111959108D01*
X149696092Y-111979266D01*
X149735208Y-112021031D01*
X149746806Y-112041119D01*
X149834739Y-112114904D01*
X149942606Y-112154164D01*
X150046367Y-112154164D01*
X150057394Y-112154164D01*
X150165261Y-112114904D01*
X150253194Y-112041119D01*
X150310588Y-111941709D01*
X150322065Y-111876616D01*
X150349630Y-111817505D01*
X150403059Y-111780095D01*
X150463274Y-111774828D01*
X150466944Y-111776164D01*
X150477968Y-111776164D01*
X150537745Y-111776164D01*
X150600745Y-111793045D01*
X150646864Y-111839164D01*
X150663745Y-111902164D01*
X150646864Y-111965164D01*
X150619711Y-112012193D01*
X150619709Y-112012198D01*
X150614199Y-112021742D01*
X150612285Y-112032593D01*
X150612284Y-112032598D01*
X150599022Y-112107816D01*
X150594266Y-112134787D01*
X150596180Y-112145642D01*
X150612284Y-112236975D01*
X150612285Y-112236978D01*
X150614199Y-112247832D01*
X150619710Y-112257377D01*
X150619711Y-112257380D01*
X150666082Y-112337697D01*
X150671593Y-112347242D01*
X150759526Y-112421027D01*
X150867393Y-112460287D01*
X150971154Y-112460287D01*
X150982181Y-112460287D01*
X151090048Y-112421027D01*
X151177981Y-112347242D01*
X151235375Y-112247832D01*
X151255308Y-112134787D01*
X151235375Y-112021742D01*
X151177981Y-111922332D01*
X151121573Y-111875000D01*
X151519479Y-111875000D01*
X151521393Y-111885855D01*
X151537497Y-111977188D01*
X151537498Y-111977191D01*
X151539412Y-111988045D01*
X151544923Y-111997590D01*
X151544924Y-111997593D01*
X151570054Y-112041119D01*
X151596806Y-112087455D01*
X151684739Y-112161240D01*
X151792606Y-112200500D01*
X151896367Y-112200500D01*
X151907394Y-112200500D01*
X152015261Y-112161240D01*
X152103194Y-112087455D01*
X152160588Y-111988045D01*
X152180521Y-111875000D01*
X152160588Y-111761955D01*
X152103194Y-111662545D01*
X152015261Y-111588760D01*
X152004901Y-111584989D01*
X152004899Y-111584988D01*
X151917756Y-111553271D01*
X151917753Y-111553270D01*
X151907394Y-111549500D01*
X151792606Y-111549500D01*
X151782246Y-111553270D01*
X151782244Y-111553271D01*
X151695099Y-111584989D01*
X151695096Y-111584990D01*
X151684740Y-111588760D01*
X151676299Y-111595842D01*
X151676295Y-111595845D01*
X151605251Y-111655458D01*
X151605248Y-111655460D01*
X151596806Y-111662545D01*
X151591296Y-111672087D01*
X151591293Y-111672092D01*
X151544924Y-111752406D01*
X151544922Y-111752411D01*
X151539412Y-111761955D01*
X151537498Y-111772806D01*
X151537497Y-111772811D01*
X151524143Y-111848547D01*
X151519479Y-111875000D01*
X151121573Y-111875000D01*
X151090048Y-111848547D01*
X151079688Y-111844776D01*
X151079686Y-111844775D01*
X150992543Y-111813058D01*
X150992540Y-111813057D01*
X150982181Y-111809287D01*
X150911380Y-111809287D01*
X150848380Y-111792406D01*
X150802261Y-111746287D01*
X150785380Y-111683287D01*
X150802261Y-111620287D01*
X150820463Y-111588760D01*
X150834926Y-111563709D01*
X150854859Y-111450664D01*
X150834926Y-111337619D01*
X150777532Y-111238209D01*
X150689599Y-111164424D01*
X150639304Y-111146118D01*
X150587671Y-111110797D01*
X150559389Y-111054991D01*
X150561436Y-110992461D01*
X150593307Y-110938624D01*
X150636129Y-110895802D01*
X150682125Y-110866498D01*
X150765261Y-110836240D01*
X150853194Y-110762455D01*
X150910588Y-110663045D01*
X150930521Y-110550000D01*
X150910588Y-110436955D01*
X150853194Y-110337545D01*
X150765261Y-110263760D01*
X150754901Y-110259989D01*
X150754899Y-110259988D01*
X150667756Y-110228271D01*
X150667753Y-110228270D01*
X150657394Y-110224500D01*
X150542606Y-110224500D01*
X150532246Y-110228270D01*
X150532244Y-110228271D01*
X150445099Y-110259989D01*
X150445096Y-110259990D01*
X150434740Y-110263760D01*
X150426299Y-110270842D01*
X150426295Y-110270845D01*
X150355251Y-110330458D01*
X150355248Y-110330460D01*
X150346806Y-110337545D01*
X150341296Y-110347088D01*
X150341294Y-110347091D01*
X150316335Y-110390322D01*
X150270215Y-110436441D01*
X150207215Y-110453321D01*
X150144215Y-110436440D01*
X150098098Y-110390322D01*
X150053194Y-110312545D01*
X149965261Y-110238760D01*
X149954901Y-110234989D01*
X149954899Y-110234988D01*
X149867756Y-110203271D01*
X149867753Y-110203270D01*
X149857394Y-110199500D01*
X149742606Y-110199500D01*
X149732246Y-110203270D01*
X149732244Y-110203271D01*
X149645099Y-110234989D01*
X149645096Y-110234990D01*
X149634740Y-110238760D01*
X149626299Y-110245842D01*
X149626295Y-110245845D01*
X149555251Y-110305458D01*
X149555248Y-110305460D01*
X149546806Y-110312545D01*
X149541296Y-110322087D01*
X149541293Y-110322092D01*
X149494924Y-110402406D01*
X149494922Y-110402411D01*
X149489412Y-110411955D01*
X149487498Y-110422806D01*
X149487497Y-110422811D01*
X149472206Y-110509534D01*
X149469479Y-110525000D01*
X149471393Y-110535855D01*
X149487497Y-110627188D01*
X149487498Y-110627191D01*
X149489412Y-110638045D01*
X149494923Y-110647590D01*
X149494924Y-110647593D01*
X149527507Y-110704028D01*
X149546806Y-110737455D01*
X149634739Y-110811240D01*
X149742606Y-110850500D01*
X149846367Y-110850500D01*
X149857394Y-110850500D01*
X149889609Y-110838774D01*
X149956742Y-110833491D01*
X150017011Y-110863539D01*
X150053195Y-110920337D01*
X150054958Y-110987658D01*
X150021796Y-111046271D01*
X149775364Y-111292703D01*
X149764687Y-111300560D01*
X149764725Y-111300603D01*
X149760818Y-111304063D01*
X149760466Y-111303666D01*
X149759271Y-111304545D01*
X149755837Y-111305616D01*
X149750321Y-111311131D01*
X149750311Y-111311139D01*
X149733447Y-111328003D01*
X149727913Y-111333213D01*
X149704213Y-111354211D01*
X149704049Y-111354026D01*
X149700543Y-111357276D01*
X149702359Y-111359092D01*
X149610788Y-111450664D01*
X149524171Y-111537281D01*
X149508144Y-111550638D01*
X149507654Y-111551190D01*
X149495071Y-111559877D01*
X149487964Y-111573416D01*
X149484346Y-111577501D01*
X149467016Y-111601051D01*
X147964878Y-113103190D01*
X147918878Y-113132496D01*
X147835099Y-113162989D01*
X147835096Y-113162990D01*
X147824740Y-113166760D01*
X147816299Y-113173842D01*
X147816295Y-113173845D01*
X147745251Y-113233458D01*
X147745248Y-113233460D01*
X147736806Y-113240545D01*
X147731296Y-113250087D01*
X147731293Y-113250092D01*
X147684924Y-113330406D01*
X147684922Y-113330411D01*
X147679412Y-113339955D01*
X147677498Y-113350806D01*
X147677497Y-113350811D01*
X147663258Y-113431567D01*
X147659479Y-113453000D01*
X146757645Y-113453000D01*
X146800592Y-109832036D01*
X146810461Y-109784628D01*
X146837479Y-109744450D01*
X148079528Y-108502401D01*
X148120402Y-108475091D01*
X148168620Y-108465500D01*
X148246367Y-108465500D01*
X148257394Y-108465500D01*
X148365261Y-108426240D01*
X148453194Y-108352455D01*
X148480269Y-108305558D01*
X148531205Y-108256797D01*
X148600365Y-108243038D01*
X148666087Y-108268593D01*
X148696325Y-108309827D01*
X148699412Y-108308045D01*
X148756806Y-108407455D01*
X148844739Y-108481240D01*
X148952606Y-108520500D01*
X149056367Y-108520500D01*
X149067394Y-108520500D01*
X149175261Y-108481240D01*
X149263194Y-108407455D01*
X149320588Y-108308045D01*
X149322510Y-108309155D01*
X149355542Y-108264107D01*
X149421264Y-108238548D01*
X149490426Y-108252306D01*
X149541365Y-108301069D01*
X149571032Y-108352455D01*
X149576806Y-108362455D01*
X149664739Y-108436240D01*
X149772606Y-108475500D01*
X149876367Y-108475500D01*
X149887394Y-108475500D01*
X149995261Y-108436240D01*
X150083194Y-108362455D01*
X150140588Y-108263045D01*
X150160521Y-108150000D01*
X150140588Y-108036955D01*
X150129301Y-108017406D01*
X150088704Y-107947089D01*
X150083194Y-107937545D01*
X149995261Y-107863760D01*
X149984901Y-107859989D01*
X149984899Y-107859988D01*
X149897756Y-107828271D01*
X149897753Y-107828270D01*
X149887394Y-107824500D01*
X149772606Y-107824500D01*
X149762246Y-107828270D01*
X149762244Y-107828271D01*
X149675099Y-107859989D01*
X149675096Y-107859990D01*
X149664740Y-107863760D01*
X149656299Y-107870842D01*
X149656295Y-107870845D01*
X149585251Y-107930458D01*
X149585248Y-107930460D01*
X149576806Y-107937545D01*
X149571296Y-107947087D01*
X149571293Y-107947092D01*
X149519412Y-108036955D01*
X149517490Y-108035845D01*
X149484444Y-108080902D01*
X149418724Y-108106451D01*
X149349567Y-108092691D01*
X149298634Y-108043930D01*
X149263194Y-107982545D01*
X149175261Y-107908760D01*
X149115099Y-107886863D01*
X149064557Y-107852772D01*
X149035937Y-107798943D01*
X149035937Y-107737979D01*
X149064559Y-107684150D01*
X149115096Y-107650062D01*
X149162771Y-107632711D01*
X149250704Y-107558926D01*
X149308098Y-107459516D01*
X149328031Y-107346471D01*
X149308098Y-107233426D01*
X149250704Y-107134016D01*
X149162771Y-107060231D01*
X149158077Y-107058522D01*
X149114819Y-107015264D01*
X149097938Y-106952264D01*
X149114819Y-106889264D01*
X149160938Y-106843145D01*
X149223938Y-106826264D01*
X149253700Y-106826264D01*
X149264727Y-106826264D01*
X149372594Y-106787004D01*
X149460527Y-106713219D01*
X149517921Y-106613809D01*
X149537854Y-106500764D01*
X149517921Y-106387719D01*
X149460527Y-106288309D01*
X149372594Y-106214524D01*
X149287686Y-106183620D01*
X149234262Y-106146212D01*
X149206698Y-106087099D01*
X149212384Y-106022124D01*
X149249793Y-105968699D01*
X149263194Y-105957455D01*
X149320588Y-105858045D01*
X149340521Y-105745000D01*
X149320588Y-105631955D01*
X149263194Y-105532545D01*
X149178759Y-105461695D01*
X149143342Y-105413391D01*
X149134231Y-105354190D01*
X149153486Y-105297471D01*
X149194288Y-105258413D01*
X149200261Y-105256240D01*
X149288194Y-105182455D01*
X149320598Y-105126328D01*
X149366714Y-105080211D01*
X149429714Y-105063329D01*
X149492715Y-105080209D01*
X149538834Y-105126327D01*
X149556806Y-105157455D01*
X149644739Y-105231240D01*
X149752606Y-105270500D01*
X149856367Y-105270500D01*
X149867394Y-105270500D01*
X149975261Y-105231240D01*
X150063194Y-105157455D01*
X150120588Y-105058045D01*
X150140521Y-104945000D01*
X150120588Y-104831955D01*
X150063194Y-104732545D01*
X149975261Y-104658760D01*
X149975261Y-104658759D01*
X149976519Y-104657260D01*
X149940894Y-104621631D01*
X149924017Y-104558631D01*
X149940901Y-104495633D01*
X149985506Y-104451030D01*
X149992874Y-104448349D01*
X150080807Y-104374564D01*
X150107409Y-104328486D01*
X150153526Y-104282368D01*
X150216527Y-104265486D01*
X150279528Y-104282367D01*
X150325647Y-104328486D01*
X150356806Y-104382455D01*
X150444739Y-104456240D01*
X150552606Y-104495500D01*
X150656367Y-104495500D01*
X150667394Y-104495500D01*
X150775261Y-104456240D01*
X150863194Y-104382455D01*
X150913382Y-104295525D01*
X150959500Y-104249408D01*
X151022500Y-104232527D01*
X151085500Y-104249408D01*
X151131617Y-104295525D01*
X151181806Y-104382455D01*
X151231926Y-104424511D01*
X151248205Y-104438171D01*
X151285614Y-104491597D01*
X151291299Y-104556570D01*
X151263737Y-104615680D01*
X151210312Y-104653092D01*
X151205099Y-104654989D01*
X151205096Y-104654990D01*
X151194740Y-104658760D01*
X151186299Y-104665842D01*
X151186295Y-104665845D01*
X151115251Y-104725458D01*
X151115248Y-104725460D01*
X151106806Y-104732545D01*
X151101296Y-104742087D01*
X151101293Y-104742092D01*
X151054924Y-104822406D01*
X151054922Y-104822411D01*
X151049412Y-104831955D01*
X151047498Y-104842806D01*
X151047497Y-104842811D01*
X151031393Y-104934145D01*
X151029479Y-104945000D01*
X151031393Y-104955855D01*
X151047497Y-105047188D01*
X151047498Y-105047191D01*
X151049412Y-105058045D01*
X151054923Y-105067590D01*
X151054924Y-105067593D01*
X151091297Y-105130593D01*
X151106806Y-105157455D01*
X151194739Y-105231240D01*
X151302606Y-105270500D01*
X151406367Y-105270500D01*
X151417394Y-105270500D01*
X151525261Y-105231240D01*
X151613194Y-105157455D01*
X151670588Y-105058045D01*
X151690521Y-104945000D01*
X151670588Y-104831955D01*
X151613194Y-104732545D01*
X151550561Y-104679989D01*
X151546794Y-104676828D01*
X151509384Y-104623400D01*
X151503701Y-104558425D01*
X151531267Y-104499313D01*
X151584692Y-104461906D01*
X151600261Y-104456240D01*
X151688194Y-104382455D01*
X151745588Y-104283045D01*
X151765521Y-104170000D01*
X151745588Y-104056955D01*
X151688194Y-103957545D01*
X151600261Y-103883760D01*
X151589901Y-103879989D01*
X151589899Y-103879988D01*
X151502756Y-103848271D01*
X151502753Y-103848270D01*
X151492394Y-103844500D01*
X151377606Y-103844500D01*
X151367246Y-103848270D01*
X151367244Y-103848271D01*
X151280099Y-103879989D01*
X151280096Y-103879990D01*
X151269740Y-103883760D01*
X151261299Y-103890842D01*
X151261295Y-103890845D01*
X151190251Y-103950458D01*
X151190248Y-103950460D01*
X151181806Y-103957545D01*
X151176296Y-103967087D01*
X151176293Y-103967092D01*
X151131619Y-104044472D01*
X151085500Y-104090591D01*
X151022500Y-104107472D01*
X150959500Y-104090591D01*
X150913381Y-104044472D01*
X150868704Y-103967089D01*
X150863194Y-103957545D01*
X150775261Y-103883760D01*
X150764901Y-103879989D01*
X150764899Y-103879988D01*
X150677756Y-103848271D01*
X150677753Y-103848270D01*
X150667394Y-103844500D01*
X150552606Y-103844500D01*
X150542246Y-103848270D01*
X150542244Y-103848271D01*
X150455099Y-103879989D01*
X150455096Y-103879990D01*
X150444740Y-103883760D01*
X150436299Y-103890842D01*
X150436295Y-103890845D01*
X150365251Y-103950458D01*
X150365248Y-103950460D01*
X150356806Y-103957545D01*
X150351295Y-103967091D01*
X150330203Y-104003623D01*
X150284083Y-104049742D01*
X150221083Y-104066622D01*
X150158083Y-104049741D01*
X150111965Y-104003622D01*
X150080807Y-103949654D01*
X149992874Y-103875869D01*
X149937337Y-103855655D01*
X149883914Y-103818248D01*
X149856349Y-103759136D01*
X149862034Y-103694161D01*
X149899442Y-103640736D01*
X149978694Y-103574236D01*
X150036088Y-103474826D01*
X150056021Y-103361781D01*
X150036088Y-103248736D01*
X150025764Y-103230855D01*
X150019497Y-103220000D01*
X152704479Y-103220000D01*
X152706393Y-103230855D01*
X152722497Y-103322188D01*
X152722498Y-103322191D01*
X152724412Y-103333045D01*
X152729923Y-103342590D01*
X152729924Y-103342593D01*
X152776161Y-103422678D01*
X152781806Y-103432455D01*
X152869739Y-103506240D01*
X152977606Y-103545500D01*
X153081367Y-103545500D01*
X153092394Y-103545500D01*
X153200261Y-103506240D01*
X153288194Y-103432455D01*
X153345588Y-103333045D01*
X153365521Y-103220000D01*
X153345588Y-103106955D01*
X153288194Y-103007545D01*
X153200261Y-102933760D01*
X153189901Y-102929989D01*
X153189899Y-102929988D01*
X153102756Y-102898271D01*
X153102753Y-102898270D01*
X153092394Y-102894500D01*
X152977606Y-102894500D01*
X152967246Y-102898270D01*
X152967244Y-102898271D01*
X152880099Y-102929989D01*
X152880096Y-102929990D01*
X152869740Y-102933760D01*
X152861299Y-102940842D01*
X152861295Y-102940845D01*
X152790251Y-103000458D01*
X152790248Y-103000460D01*
X152781806Y-103007545D01*
X152776296Y-103017087D01*
X152776293Y-103017092D01*
X152729924Y-103097406D01*
X152729922Y-103097411D01*
X152724412Y-103106955D01*
X152722498Y-103117806D01*
X152722497Y-103117811D01*
X152711655Y-103179304D01*
X152704479Y-103220000D01*
X150019497Y-103220000D01*
X149984204Y-103158870D01*
X149978694Y-103149326D01*
X149890761Y-103075541D01*
X149880401Y-103071770D01*
X149880399Y-103071769D01*
X149793256Y-103040052D01*
X149793253Y-103040051D01*
X149782894Y-103036281D01*
X149668106Y-103036281D01*
X149657746Y-103040051D01*
X149657744Y-103040052D01*
X149570599Y-103071770D01*
X149570596Y-103071771D01*
X149560240Y-103075541D01*
X149551799Y-103082623D01*
X149551795Y-103082626D01*
X149480752Y-103142238D01*
X149480749Y-103142241D01*
X149472306Y-103149326D01*
X149468657Y-103155645D01*
X149422545Y-103189454D01*
X149363342Y-103198563D01*
X149306622Y-103179304D01*
X149277619Y-103149000D01*
X149275791Y-103150535D01*
X149268705Y-103142090D01*
X149263194Y-103132545D01*
X149175261Y-103058760D01*
X149155535Y-103051580D01*
X149104994Y-103017490D01*
X149076373Y-102963661D01*
X149076374Y-102902696D01*
X149104996Y-102848868D01*
X149145823Y-102821330D01*
X149145356Y-102820521D01*
X149154897Y-102815011D01*
X149165261Y-102811240D01*
X149253194Y-102737455D01*
X149310588Y-102638045D01*
X149330521Y-102525000D01*
X149310588Y-102411955D01*
X149253194Y-102312545D01*
X149165261Y-102238760D01*
X149153096Y-102234332D01*
X149150628Y-102232523D01*
X149145356Y-102229479D01*
X149145689Y-102228901D01*
X149096228Y-102192634D01*
X149070671Y-102126910D01*
X149084431Y-102057747D01*
X149128860Y-102011340D01*
X149129727Y-102011025D01*
X149217660Y-101937240D01*
X149275054Y-101837830D01*
X149294987Y-101724785D01*
X149275054Y-101611740D01*
X149217660Y-101512330D01*
X149138403Y-101445825D01*
X149102986Y-101397521D01*
X149093875Y-101338320D01*
X149113129Y-101281602D01*
X149156399Y-101240183D01*
X149165688Y-101234819D01*
X149176052Y-101231048D01*
X149263985Y-101157263D01*
X149321379Y-101057853D01*
X149341312Y-100944808D01*
X149321379Y-100831763D01*
X149263985Y-100732353D01*
X149176052Y-100658568D01*
X149165692Y-100654797D01*
X149165690Y-100654796D01*
X149142917Y-100646508D01*
X149086048Y-100604811D01*
X149060490Y-100539088D01*
X149074248Y-100469925D01*
X149123013Y-100418986D01*
X149129893Y-100415013D01*
X149140261Y-100411240D01*
X149228194Y-100337455D01*
X149285588Y-100238045D01*
X149305521Y-100125000D01*
X149285588Y-100011955D01*
X149228194Y-99912545D01*
X149140261Y-99838760D01*
X149129901Y-99834989D01*
X149129899Y-99834988D01*
X149042756Y-99803271D01*
X149042753Y-99803270D01*
X149032394Y-99799500D01*
X148917606Y-99799500D01*
X148907246Y-99803270D01*
X148907244Y-99803271D01*
X148820099Y-99834989D01*
X148820096Y-99834990D01*
X148809740Y-99838760D01*
X148801299Y-99845842D01*
X148801295Y-99845845D01*
X148730251Y-99905458D01*
X148730248Y-99905460D01*
X148721806Y-99912545D01*
X148716296Y-99922087D01*
X148716293Y-99922092D01*
X148669924Y-100002406D01*
X148669922Y-100002411D01*
X148664412Y-100011955D01*
X148662498Y-100022806D01*
X148662497Y-100022811D01*
X148646393Y-100114145D01*
X148644479Y-100125000D01*
X148646393Y-100135855D01*
X148662497Y-100227188D01*
X148662498Y-100227191D01*
X148664412Y-100238045D01*
X148669923Y-100247590D01*
X148669924Y-100247593D01*
X148712302Y-100320994D01*
X148721806Y-100337455D01*
X148809739Y-100411240D01*
X148842873Y-100423299D01*
X148899740Y-100464994D01*
X148925299Y-100530716D01*
X148911543Y-100599878D01*
X148862781Y-100650818D01*
X148855884Y-100654799D01*
X148845531Y-100658568D01*
X148837089Y-100665650D01*
X148837088Y-100665652D01*
X148766042Y-100725266D01*
X148766039Y-100725268D01*
X148757597Y-100732353D01*
X148752087Y-100741895D01*
X148752084Y-100741900D01*
X148705715Y-100822214D01*
X148705713Y-100822219D01*
X148700203Y-100831763D01*
X148698289Y-100842614D01*
X148698288Y-100842619D01*
X148684748Y-100919410D01*
X148680270Y-100944808D01*
X148682184Y-100955663D01*
X148698288Y-101046996D01*
X148698289Y-101046999D01*
X148700203Y-101057853D01*
X148705714Y-101067398D01*
X148705715Y-101067401D01*
X148752086Y-101147718D01*
X148757597Y-101157263D01*
X148766039Y-101164346D01*
X148766041Y-101164349D01*
X148836852Y-101223767D01*
X148872270Y-101272070D01*
X148881382Y-101331270D01*
X148862128Y-101387988D01*
X148818861Y-101429407D01*
X148809561Y-101434775D01*
X148799206Y-101438545D01*
X148790764Y-101445627D01*
X148790763Y-101445629D01*
X148719717Y-101505243D01*
X148719714Y-101505245D01*
X148711272Y-101512330D01*
X148705762Y-101521872D01*
X148705759Y-101521877D01*
X148659390Y-101602191D01*
X148659388Y-101602196D01*
X148653878Y-101611740D01*
X148651964Y-101622591D01*
X148651963Y-101622596D01*
X148644277Y-101666188D01*
X148633945Y-101724785D01*
X148635859Y-101735640D01*
X148651963Y-101826973D01*
X148651964Y-101826976D01*
X148653878Y-101837830D01*
X148659389Y-101847375D01*
X148659390Y-101847378D01*
X148701375Y-101920098D01*
X148711272Y-101937240D01*
X148799205Y-102011025D01*
X148811364Y-102015450D01*
X148813824Y-102017254D01*
X148819110Y-102020306D01*
X148818775Y-102020884D01*
X148868232Y-102057144D01*
X148893793Y-102122866D01*
X148880038Y-102192029D01*
X148835607Y-102238444D01*
X148834740Y-102238760D01*
X148826302Y-102245840D01*
X148826299Y-102245842D01*
X148755251Y-102305458D01*
X148755248Y-102305460D01*
X148746806Y-102312545D01*
X148741296Y-102322087D01*
X148741293Y-102322092D01*
X148694925Y-102402406D01*
X148689412Y-102411955D01*
X148688520Y-102417012D01*
X148648979Y-102470935D01*
X148583257Y-102496491D01*
X148514097Y-102482732D01*
X148463161Y-102433971D01*
X148406705Y-102336185D01*
X148318772Y-102262400D01*
X148308412Y-102258629D01*
X148308410Y-102258628D01*
X148221267Y-102226911D01*
X148221264Y-102226910D01*
X148210905Y-102223140D01*
X148096117Y-102223140D01*
X148085757Y-102226910D01*
X148085755Y-102226911D01*
X147998610Y-102258629D01*
X147998607Y-102258630D01*
X147988251Y-102262400D01*
X147979810Y-102269482D01*
X147979806Y-102269485D01*
X147908762Y-102329098D01*
X147908759Y-102329100D01*
X147900317Y-102336185D01*
X147894807Y-102345727D01*
X147894804Y-102345732D01*
X147848435Y-102426046D01*
X147848433Y-102426051D01*
X147842923Y-102435595D01*
X147841009Y-102446446D01*
X147841008Y-102446451D01*
X147834731Y-102482053D01*
X147822990Y-102548640D01*
X147824904Y-102559495D01*
X147841008Y-102650828D01*
X147841009Y-102650831D01*
X147842923Y-102661685D01*
X147848434Y-102671230D01*
X147848435Y-102671233D01*
X147892706Y-102747912D01*
X147900317Y-102761095D01*
X147988250Y-102834880D01*
X147998612Y-102838651D01*
X148008155Y-102844161D01*
X148007568Y-102845177D01*
X148051281Y-102875781D01*
X148078848Y-102934893D01*
X148073165Y-102999869D01*
X148035755Y-103053298D01*
X147965251Y-103112457D01*
X147965248Y-103112461D01*
X147956806Y-103119545D01*
X147951296Y-103129087D01*
X147951293Y-103129092D01*
X147904924Y-103209406D01*
X147904922Y-103209411D01*
X147899412Y-103218955D01*
X147897498Y-103229806D01*
X147897497Y-103229811D01*
X147881393Y-103321145D01*
X147879479Y-103332000D01*
X147881393Y-103342855D01*
X147897497Y-103434188D01*
X147897498Y-103434191D01*
X147899412Y-103445045D01*
X147904923Y-103454590D01*
X147904924Y-103454593D01*
X147936920Y-103510011D01*
X147956806Y-103544455D01*
X148044739Y-103618240D01*
X148152606Y-103657500D01*
X148256367Y-103657500D01*
X148267394Y-103657500D01*
X148375261Y-103618240D01*
X148463194Y-103544455D01*
X148497129Y-103485676D01*
X148543246Y-103439559D01*
X148606247Y-103422678D01*
X148669247Y-103439559D01*
X148715365Y-103485677D01*
X148737435Y-103523903D01*
X148749903Y-103545500D01*
X148756806Y-103557455D01*
X148844739Y-103631240D01*
X148952606Y-103670500D01*
X149056367Y-103670500D01*
X149067394Y-103670500D01*
X149175261Y-103631240D01*
X149263194Y-103557455D01*
X149266841Y-103551136D01*
X149312946Y-103517329D01*
X149372148Y-103508216D01*
X149428868Y-103527471D01*
X149457881Y-103557779D01*
X149459709Y-103556246D01*
X149466795Y-103564690D01*
X149472306Y-103574236D01*
X149560239Y-103648021D01*
X149611637Y-103666728D01*
X149615772Y-103668233D01*
X149669199Y-103705643D01*
X149696763Y-103764754D01*
X149691078Y-103829728D01*
X149653668Y-103883155D01*
X149582867Y-103942564D01*
X149582863Y-103942568D01*
X149574419Y-103949654D01*
X149568909Y-103959196D01*
X149568906Y-103959201D01*
X149522537Y-104039515D01*
X149522535Y-104039520D01*
X149517025Y-104049064D01*
X149515111Y-104059915D01*
X149515110Y-104059920D01*
X149506726Y-104107472D01*
X149497092Y-104162109D01*
X149499006Y-104172964D01*
X149515110Y-104264297D01*
X149515111Y-104264300D01*
X149517025Y-104275154D01*
X149522536Y-104284699D01*
X149522537Y-104284702D01*
X149547816Y-104328486D01*
X149574419Y-104374564D01*
X149653903Y-104441259D01*
X149662352Y-104448349D01*
X149661093Y-104449848D01*
X149696715Y-104485472D01*
X149713595Y-104548471D01*
X149696715Y-104611469D01*
X149652105Y-104656079D01*
X149644740Y-104658760D01*
X149636298Y-104665842D01*
X149636297Y-104665844D01*
X149565251Y-104725458D01*
X149565248Y-104725460D01*
X149556806Y-104732545D01*
X149551296Y-104742089D01*
X149551293Y-104742093D01*
X149524402Y-104788670D01*
X149478283Y-104834789D01*
X149415283Y-104851670D01*
X149352283Y-104834789D01*
X149306164Y-104788670D01*
X149293704Y-104767089D01*
X149288194Y-104757545D01*
X149200261Y-104683760D01*
X149189901Y-104679989D01*
X149189899Y-104679988D01*
X149102756Y-104648271D01*
X149102753Y-104648270D01*
X149092394Y-104644500D01*
X148977606Y-104644500D01*
X148967246Y-104648270D01*
X148967244Y-104648271D01*
X148880099Y-104679989D01*
X148880096Y-104679990D01*
X148869740Y-104683760D01*
X148861299Y-104690842D01*
X148861295Y-104690845D01*
X148790251Y-104750458D01*
X148790248Y-104750460D01*
X148781806Y-104757545D01*
X148776296Y-104767087D01*
X148776293Y-104767092D01*
X148729924Y-104847407D01*
X148729923Y-104847409D01*
X148724412Y-104856955D01*
X148722648Y-104866955D01*
X148681267Y-104923389D01*
X148615545Y-104948945D01*
X148546384Y-104935186D01*
X148495448Y-104886425D01*
X148442979Y-104795545D01*
X148355046Y-104721760D01*
X148344686Y-104717989D01*
X148344684Y-104717988D01*
X148257541Y-104686271D01*
X148257538Y-104686270D01*
X148247179Y-104682500D01*
X148132391Y-104682500D01*
X148122031Y-104686270D01*
X148122029Y-104686271D01*
X148034884Y-104717989D01*
X148034881Y-104717990D01*
X148024525Y-104721760D01*
X148016084Y-104728842D01*
X148016080Y-104728845D01*
X147945036Y-104788458D01*
X147945033Y-104788460D01*
X147936591Y-104795545D01*
X147931081Y-104805087D01*
X147931078Y-104805092D01*
X147884709Y-104885406D01*
X147884707Y-104885411D01*
X147879197Y-104894955D01*
X147877283Y-104905806D01*
X147877282Y-104905811D01*
X147865964Y-104970000D01*
X147859264Y-105008000D01*
X147861178Y-105018855D01*
X147877282Y-105110188D01*
X147877283Y-105110191D01*
X147879197Y-105121045D01*
X147884708Y-105130590D01*
X147884709Y-105130593D01*
X147909141Y-105172910D01*
X147936591Y-105220455D01*
X148024524Y-105294240D01*
X148132391Y-105333500D01*
X148236152Y-105333500D01*
X148247179Y-105333500D01*
X148355046Y-105294240D01*
X148442979Y-105220455D01*
X148500373Y-105121045D01*
X148502136Y-105111043D01*
X148543514Y-105054613D01*
X148609236Y-105029054D01*
X148678399Y-105042812D01*
X148729336Y-105091574D01*
X148746351Y-105121045D01*
X148771461Y-105164538D01*
X148781806Y-105182455D01*
X148861292Y-105249152D01*
X148866240Y-105253304D01*
X148901657Y-105301607D01*
X148910769Y-105360806D01*
X148891516Y-105417523D01*
X148850711Y-105456586D01*
X148844740Y-105458760D01*
X148836298Y-105465842D01*
X148836297Y-105465844D01*
X148765251Y-105525458D01*
X148765248Y-105525460D01*
X148756806Y-105532545D01*
X148751296Y-105542087D01*
X148751293Y-105542092D01*
X148704924Y-105622406D01*
X148704922Y-105622411D01*
X148699412Y-105631955D01*
X148697498Y-105642806D01*
X148697497Y-105642811D01*
X148696930Y-105646029D01*
X148679479Y-105745000D01*
X148681393Y-105755855D01*
X148697497Y-105847188D01*
X148697498Y-105847191D01*
X148699412Y-105858045D01*
X148704923Y-105867590D01*
X148704924Y-105867593D01*
X148720057Y-105893804D01*
X148756806Y-105957455D01*
X148844739Y-106031240D01*
X148929645Y-106062143D01*
X148983068Y-106099549D01*
X149010633Y-106158659D01*
X149004951Y-106223632D01*
X148967544Y-106277060D01*
X148962585Y-106281221D01*
X148962582Y-106281224D01*
X148954139Y-106288309D01*
X148948629Y-106297851D01*
X148948626Y-106297856D01*
X148902257Y-106378170D01*
X148902255Y-106378175D01*
X148896745Y-106387719D01*
X148894831Y-106398570D01*
X148894830Y-106398575D01*
X148882882Y-106466338D01*
X148876812Y-106500764D01*
X148878726Y-106511619D01*
X148894830Y-106602952D01*
X148894831Y-106602955D01*
X148896745Y-106613809D01*
X148902256Y-106623354D01*
X148902257Y-106623357D01*
X148948628Y-106703674D01*
X148954139Y-106713219D01*
X148995266Y-106747729D01*
X149027096Y-106774438D01*
X149042072Y-106787004D01*
X149046765Y-106788712D01*
X149090024Y-106831971D01*
X149106905Y-106894971D01*
X149090024Y-106957971D01*
X149043905Y-107004090D01*
X148980905Y-107020971D01*
X148940116Y-107020971D01*
X148929756Y-107024741D01*
X148929754Y-107024742D01*
X148842609Y-107056460D01*
X148842606Y-107056461D01*
X148832250Y-107060231D01*
X148823809Y-107067313D01*
X148823805Y-107067316D01*
X148752761Y-107126929D01*
X148752758Y-107126931D01*
X148744316Y-107134016D01*
X148738806Y-107143560D01*
X148738803Y-107143564D01*
X148713103Y-107188078D01*
X148666984Y-107234197D01*
X148603984Y-107251078D01*
X148540984Y-107234197D01*
X148494865Y-107188078D01*
X148469165Y-107143564D01*
X148463646Y-107134005D01*
X148375713Y-107060220D01*
X148377282Y-107058349D01*
X148339184Y-107018548D01*
X148325434Y-106949375D01*
X148351010Y-106883649D01*
X148392069Y-106853561D01*
X148390256Y-106850421D01*
X148399797Y-106844911D01*
X148410161Y-106841140D01*
X148498094Y-106767355D01*
X148555488Y-106667945D01*
X148575421Y-106554900D01*
X148555488Y-106441855D01*
X148498094Y-106342445D01*
X148410161Y-106268660D01*
X148399801Y-106264889D01*
X148399799Y-106264888D01*
X148312656Y-106233171D01*
X148312653Y-106233170D01*
X148302294Y-106229400D01*
X148187506Y-106229400D01*
X148177146Y-106233170D01*
X148177144Y-106233171D01*
X148089999Y-106264889D01*
X148089996Y-106264890D01*
X148079640Y-106268660D01*
X148071199Y-106275742D01*
X148071195Y-106275745D01*
X148000151Y-106335358D01*
X148000148Y-106335360D01*
X147991706Y-106342445D01*
X147986196Y-106351987D01*
X147986193Y-106351992D01*
X147939824Y-106432306D01*
X147939822Y-106432311D01*
X147934312Y-106441855D01*
X147932398Y-106452706D01*
X147932397Y-106452711D01*
X147917157Y-106539145D01*
X147914379Y-106554900D01*
X147916293Y-106565755D01*
X147932397Y-106657088D01*
X147932398Y-106657091D01*
X147934312Y-106667945D01*
X147939823Y-106677490D01*
X147939824Y-106677493D01*
X147983366Y-106752910D01*
X147991706Y-106767355D01*
X148078294Y-106840011D01*
X148079639Y-106841140D01*
X148078069Y-106843010D01*
X148116157Y-106882792D01*
X148129920Y-106951948D01*
X148104373Y-107017669D01*
X148063286Y-107047805D01*
X148065096Y-107050939D01*
X148055549Y-107056450D01*
X148045192Y-107060220D01*
X148036751Y-107067302D01*
X148036747Y-107067305D01*
X147965703Y-107126918D01*
X147965700Y-107126920D01*
X147957258Y-107134005D01*
X147951748Y-107143547D01*
X147951745Y-107143552D01*
X147905376Y-107223866D01*
X147905374Y-107223871D01*
X147899864Y-107233415D01*
X147897950Y-107244266D01*
X147897949Y-107244271D01*
X147887047Y-107306101D01*
X147879931Y-107346460D01*
X147881845Y-107357315D01*
X147897949Y-107448648D01*
X147897950Y-107448651D01*
X147899864Y-107459505D01*
X147905375Y-107469050D01*
X147905376Y-107469053D01*
X147926044Y-107504851D01*
X147957258Y-107558915D01*
X148045191Y-107632700D01*
X148049360Y-107634217D01*
X148092355Y-107677209D01*
X148109237Y-107740209D01*
X148092358Y-107803209D01*
X148046240Y-107849329D01*
X148045090Y-107849992D01*
X148034740Y-107853760D01*
X148026302Y-107860840D01*
X148026299Y-107860842D01*
X147955251Y-107920458D01*
X147955248Y-107920460D01*
X147946806Y-107927545D01*
X147941296Y-107937087D01*
X147941293Y-107937092D01*
X147894924Y-108017406D01*
X147894922Y-108017411D01*
X147889412Y-108026955D01*
X147887498Y-108037806D01*
X147887497Y-108037811D01*
X147871393Y-108129145D01*
X147869479Y-108140000D01*
X147871393Y-108150855D01*
X147871393Y-108150856D01*
X147874366Y-108167717D01*
X147870448Y-108227485D01*
X147839375Y-108278691D01*
X147025523Y-109092543D01*
X146975080Y-109123373D01*
X146916127Y-109127802D01*
X146861644Y-109104855D01*
X146823623Y-109059583D01*
X146810437Y-109001956D01*
X146846573Y-105955305D01*
X146864046Y-105892772D01*
X146910341Y-105847239D01*
X146973161Y-105830805D01*
X147035821Y-105847834D01*
X147081682Y-105893804D01*
X147117221Y-105955359D01*
X147205154Y-106029144D01*
X147313021Y-106068404D01*
X147416782Y-106068404D01*
X147427809Y-106068404D01*
X147535676Y-106029144D01*
X147623609Y-105955359D01*
X147681003Y-105855949D01*
X147700936Y-105742904D01*
X147681003Y-105629859D01*
X147623609Y-105530449D01*
X147535676Y-105456664D01*
X147525316Y-105452893D01*
X147525314Y-105452892D01*
X147438171Y-105421175D01*
X147438168Y-105421174D01*
X147427809Y-105417404D01*
X147313021Y-105417404D01*
X147302661Y-105421174D01*
X147302659Y-105421175D01*
X147215514Y-105452893D01*
X147215511Y-105452894D01*
X147205155Y-105456664D01*
X147196714Y-105463746D01*
X147196710Y-105463749D01*
X147125666Y-105523362D01*
X147125663Y-105523364D01*
X147117221Y-105530449D01*
X147111710Y-105539993D01*
X147111710Y-105539994D01*
X147086863Y-105583031D01*
X147040485Y-105629299D01*
X146977146Y-105646029D01*
X146913969Y-105628698D01*
X146868032Y-105581992D01*
X146851753Y-105518538D01*
X146893023Y-102039049D01*
X146908328Y-101980342D01*
X146949299Y-101935591D01*
X147006435Y-101915177D01*
X147066488Y-101923834D01*
X147105844Y-101952498D01*
X147106479Y-101951742D01*
X147194412Y-102025527D01*
X147302279Y-102064787D01*
X147406040Y-102064787D01*
X147417067Y-102064787D01*
X147524934Y-102025527D01*
X147612867Y-101951742D01*
X147670261Y-101852332D01*
X147690194Y-101739287D01*
X147670261Y-101626242D01*
X147664632Y-101616493D01*
X147618377Y-101536376D01*
X147612867Y-101526832D01*
X147554920Y-101478208D01*
X147533378Y-101460132D01*
X147533376Y-101460131D01*
X147531484Y-101458543D01*
X147531481Y-101458540D01*
X147524934Y-101453047D01*
X147525535Y-101452330D01*
X147483779Y-101408712D01*
X147470021Y-101339550D01*
X147495580Y-101273827D01*
X147552446Y-101232130D01*
X147575272Y-101223823D01*
X147663205Y-101150038D01*
X147720599Y-101050628D01*
X147740532Y-100937583D01*
X147720599Y-100824538D01*
X147663205Y-100725128D01*
X147575272Y-100651343D01*
X147564912Y-100647572D01*
X147564910Y-100647571D01*
X147477767Y-100615854D01*
X147477764Y-100615853D01*
X147467405Y-100612083D01*
X147352617Y-100612083D01*
X147342257Y-100615853D01*
X147342255Y-100615854D01*
X147255110Y-100647572D01*
X147255107Y-100647573D01*
X147244751Y-100651343D01*
X147236310Y-100658425D01*
X147236306Y-100658428D01*
X147165262Y-100718041D01*
X147165259Y-100718043D01*
X147156817Y-100725128D01*
X147151307Y-100734671D01*
X147151305Y-100734674D01*
X147144223Y-100746942D01*
X147097844Y-100793210D01*
X147034506Y-100809940D01*
X146971329Y-100792609D01*
X146925392Y-100745903D01*
X146909113Y-100682447D01*
X146909251Y-100670847D01*
X146921677Y-99623174D01*
X146936982Y-99564467D01*
X146977954Y-99519716D01*
X147035091Y-99499302D01*
X147095144Y-99507960D01*
X147144188Y-99543682D01*
X147151075Y-99551889D01*
X147156586Y-99561434D01*
X147244519Y-99635219D01*
X147352386Y-99674479D01*
X147456147Y-99674479D01*
X147467174Y-99674479D01*
X147575041Y-99635219D01*
X147662974Y-99561434D01*
X147720368Y-99462024D01*
X147732843Y-99391276D01*
X149345410Y-99391276D01*
X149347324Y-99402131D01*
X149363428Y-99493464D01*
X149363429Y-99493467D01*
X149365343Y-99504321D01*
X149370854Y-99513866D01*
X149370855Y-99513869D01*
X149417226Y-99594186D01*
X149422737Y-99603731D01*
X149510670Y-99677516D01*
X149618537Y-99716776D01*
X149722298Y-99716776D01*
X149733325Y-99716776D01*
X149841192Y-99677516D01*
X149929125Y-99603731D01*
X149986519Y-99504321D01*
X150006452Y-99391276D01*
X149986519Y-99278231D01*
X149929125Y-99178821D01*
X149858390Y-99119467D01*
X149849638Y-99112123D01*
X149849637Y-99112122D01*
X149841192Y-99105036D01*
X149830832Y-99101265D01*
X149830830Y-99101264D01*
X149743687Y-99069547D01*
X149743684Y-99069546D01*
X149733325Y-99065776D01*
X149618537Y-99065776D01*
X149608177Y-99069546D01*
X149608175Y-99069547D01*
X149521030Y-99101265D01*
X149521027Y-99101266D01*
X149510671Y-99105036D01*
X149502230Y-99112118D01*
X149502226Y-99112121D01*
X149431182Y-99171734D01*
X149431179Y-99171736D01*
X149422737Y-99178821D01*
X149417227Y-99188363D01*
X149417224Y-99188368D01*
X149370855Y-99268682D01*
X149370853Y-99268687D01*
X149365343Y-99278231D01*
X149363429Y-99289082D01*
X149363428Y-99289087D01*
X149359782Y-99309766D01*
X149345410Y-99391276D01*
X147732843Y-99391276D01*
X147740301Y-99348979D01*
X147720368Y-99235934D01*
X147662974Y-99136524D01*
X147575041Y-99062739D01*
X147556972Y-99056162D01*
X147517891Y-99041938D01*
X147467349Y-99007847D01*
X147438728Y-98954018D01*
X147438729Y-98893053D01*
X147467351Y-98839225D01*
X147517888Y-98805138D01*
X147585682Y-98780464D01*
X147673615Y-98706679D01*
X147731009Y-98607269D01*
X147750942Y-98494224D01*
X147731009Y-98381179D01*
X147673615Y-98281769D01*
X147585682Y-98207984D01*
X147575322Y-98204213D01*
X147575320Y-98204212D01*
X147488177Y-98172495D01*
X147488174Y-98172494D01*
X147477815Y-98168724D01*
X147363027Y-98168724D01*
X147352667Y-98172494D01*
X147352665Y-98172495D01*
X147265520Y-98204213D01*
X147265517Y-98204214D01*
X147255161Y-98207984D01*
X147246720Y-98215066D01*
X147246716Y-98215069D01*
X147175669Y-98274684D01*
X147175665Y-98274688D01*
X147167227Y-98281769D01*
X147161717Y-98291311D01*
X147160952Y-98292224D01*
X147111353Y-98328169D01*
X147050666Y-98336477D01*
X146993231Y-98315185D01*
X146952624Y-98269326D01*
X146938441Y-98209740D01*
X146947237Y-97468161D01*
X147326318Y-97468161D01*
X147328232Y-97479016D01*
X147344336Y-97570349D01*
X147344337Y-97570352D01*
X147346251Y-97581206D01*
X147351762Y-97590751D01*
X147351763Y-97590754D01*
X147398134Y-97671071D01*
X147403645Y-97680616D01*
X147491578Y-97754401D01*
X147599445Y-97793661D01*
X147703206Y-97793661D01*
X147714233Y-97793661D01*
X147822100Y-97754401D01*
X147910033Y-97680616D01*
X147967427Y-97581206D01*
X147987360Y-97468161D01*
X147967427Y-97355116D01*
X147910033Y-97255706D01*
X147822100Y-97181921D01*
X147811740Y-97178150D01*
X147811738Y-97178149D01*
X147724595Y-97146432D01*
X147724592Y-97146431D01*
X147714233Y-97142661D01*
X147599445Y-97142661D01*
X147589085Y-97146431D01*
X147589083Y-97146432D01*
X147501938Y-97178150D01*
X147501935Y-97178151D01*
X147491579Y-97181921D01*
X147483138Y-97189003D01*
X147483134Y-97189006D01*
X147412090Y-97248619D01*
X147412087Y-97248621D01*
X147403645Y-97255706D01*
X147398135Y-97265248D01*
X147398132Y-97265253D01*
X147351763Y-97345567D01*
X147351761Y-97345572D01*
X147346251Y-97355116D01*
X147344337Y-97365967D01*
X147344336Y-97365972D01*
X147334522Y-97421634D01*
X147326318Y-97468161D01*
X146947237Y-97468161D01*
X146954315Y-96871358D01*
X146974645Y-96804214D01*
X147027733Y-96758348D01*
X147097121Y-96747983D01*
X147161296Y-96776333D01*
X147178871Y-96791080D01*
X147286738Y-96830340D01*
X147390499Y-96830340D01*
X147401526Y-96830340D01*
X147509393Y-96791080D01*
X147597326Y-96717295D01*
X147654720Y-96617885D01*
X147674653Y-96504840D01*
X147654720Y-96391795D01*
X147597326Y-96292385D01*
X147509393Y-96218600D01*
X147499033Y-96214829D01*
X147499031Y-96214828D01*
X147411888Y-96183111D01*
X147411885Y-96183110D01*
X147401526Y-96179340D01*
X147286738Y-96179340D01*
X147276378Y-96183110D01*
X147276376Y-96183111D01*
X147189231Y-96214829D01*
X147189228Y-96214830D01*
X147178872Y-96218600D01*
X147170428Y-96225684D01*
X147170423Y-96225688D01*
X147170109Y-96225952D01*
X147169517Y-96226211D01*
X147160880Y-96231198D01*
X147160326Y-96230238D01*
X147105194Y-96254396D01*
X147035194Y-96243300D01*
X146982258Y-96196175D01*
X146963133Y-96127933D01*
X146978594Y-94824389D01*
X146996250Y-94761547D01*
X147042984Y-94715971D01*
X147106251Y-94699897D01*
X149373654Y-94729893D01*
G37*
%TD.AperFunction*%
%TD*%
M02*
