%TF.GenerationSoftware,KiCad,Pcbnew,(7.0.0)*%
%TF.CreationDate,2023-03-20T12:13:30+05:30*%
%TF.ProjectId,IMRT1160_DB,494d5254-3131-4363-905f-44422e6b6963,rev?*%
%TF.SameCoordinates,Original*%
%TF.FileFunction,Drillmap*%
%TF.FilePolarity,Positive*%
%FSLAX45Y45*%
G04 Gerber Fmt 4.5, Leading zero omitted, Abs format (unit mm)*
G04 Created by KiCad (PCBNEW (7.0.0)) date 2023-03-20 12:13:30*
%MOMM*%
%LPD*%
G01*
G04 APERTURE LIST*
%ADD10C,0.100000*%
%ADD11C,0.200000*%
%ADD12C,0.020000*%
G04 APERTURE END LIST*
D10*
X11465000Y-7330000D02*
X16465000Y-7330000D01*
X16465000Y-7330000D02*
X16465000Y-12830000D01*
X16465000Y-12830000D02*
X11465000Y-12830000D01*
X11465000Y-12830000D02*
X11465000Y-7330000D01*
D11*
D12*
X11575000Y-12152500D02*
X11595000Y-12172500D01*
X11595000Y-12152500D02*
X11575000Y-12172500D01*
X11592500Y-12440000D02*
X11612500Y-12460000D01*
X11612500Y-12440000D02*
X11592500Y-12460000D01*
X11592500Y-12600000D02*
X11612500Y-12620000D01*
X11612500Y-12600000D02*
X11592500Y-12620000D01*
X11616250Y-12282500D02*
X11636250Y-12302500D01*
X11636250Y-12282500D02*
X11616250Y-12302500D01*
X11679167Y-12152500D02*
X11699167Y-12172500D01*
X11699167Y-12152500D02*
X11679167Y-12172500D01*
X11687500Y-11017500D02*
X11707500Y-11037500D01*
X11707500Y-11017500D02*
X11687500Y-11037500D01*
X11690000Y-10960000D02*
X11710000Y-10980000D01*
X11710000Y-10960000D02*
X11690000Y-10980000D01*
X11697500Y-12440000D02*
X11717500Y-12460000D01*
X11717500Y-12440000D02*
X11697500Y-12460000D01*
X11697500Y-12600000D02*
X11717500Y-12620000D01*
X11717500Y-12600000D02*
X11697500Y-12620000D01*
X11772500Y-12282500D02*
X11792500Y-12302500D01*
X11792500Y-12282500D02*
X11772500Y-12302500D01*
X11780000Y-11215000D02*
X11800000Y-11235000D01*
X11800000Y-11215000D02*
X11780000Y-11235000D01*
X11780000Y-11272500D02*
X11800000Y-11292500D01*
X11800000Y-11272500D02*
X11780000Y-11292500D01*
X11783333Y-12152500D02*
X11803333Y-12172500D01*
X11803333Y-12152500D02*
X11783333Y-12172500D01*
X11785000Y-7497500D02*
X11805000Y-7517500D01*
X11805000Y-7497500D02*
X11785000Y-7517500D01*
X11785000Y-10705000D02*
X11805000Y-10725000D01*
X11805000Y-10705000D02*
X11785000Y-10725000D01*
X11795000Y-8322500D02*
X11815000Y-8342500D01*
X11815000Y-8322500D02*
X11795000Y-8342500D01*
X11800000Y-12440000D02*
X11820000Y-12460000D01*
X11820000Y-12440000D02*
X11800000Y-12460000D01*
X11800000Y-12600000D02*
X11820000Y-12620000D01*
X11820000Y-12600000D02*
X11800000Y-12620000D01*
X11826000Y-9133000D02*
X11846000Y-9153000D01*
X11846000Y-9133000D02*
X11826000Y-9153000D01*
X11840000Y-11470000D02*
X11860000Y-11490000D01*
X11860000Y-11470000D02*
X11840000Y-11490000D01*
X11852500Y-8747500D02*
X11872500Y-8767500D01*
X11872500Y-8747500D02*
X11852500Y-8767500D01*
X11877500Y-8323750D02*
X11897500Y-8343750D01*
X11897500Y-8323750D02*
X11877500Y-8343750D01*
X11885000Y-8215000D02*
X11905000Y-8235000D01*
X11905000Y-8215000D02*
X11885000Y-8235000D01*
X11887500Y-12152500D02*
X11907500Y-12172500D01*
X11907500Y-12152500D02*
X11887500Y-12172500D01*
X11898500Y-10329500D02*
X11918500Y-10349500D01*
X11918500Y-10329500D02*
X11898500Y-10349500D01*
X11907000Y-9115000D02*
X11927000Y-9135000D01*
X11927000Y-9115000D02*
X11907000Y-9135000D01*
X11911000Y-9975000D02*
X11931000Y-9995000D01*
X11931000Y-9975000D02*
X11911000Y-9995000D01*
X11911000Y-10164500D02*
X11931000Y-10184500D01*
X11931000Y-10164500D02*
X11911000Y-10184500D01*
X11911000Y-10609000D02*
X11931000Y-10629000D01*
X11931000Y-10609000D02*
X11911000Y-10629000D01*
X11911000Y-10705000D02*
X11931000Y-10725000D01*
X11931000Y-10705000D02*
X11911000Y-10725000D01*
X11913500Y-9877000D02*
X11933500Y-9897000D01*
X11933500Y-9877000D02*
X11913500Y-9897000D01*
X11913500Y-10069500D02*
X11933500Y-10089500D01*
X11933500Y-10069500D02*
X11913500Y-10089500D01*
X11916000Y-10847000D02*
X11936000Y-10867000D01*
X11936000Y-10847000D02*
X11916000Y-10867000D01*
X11916250Y-10944750D02*
X11936250Y-10964750D01*
X11936250Y-10944750D02*
X11916250Y-10964750D01*
X11917500Y-7612500D02*
X11937500Y-7632500D01*
X11937500Y-7612500D02*
X11917500Y-7632500D01*
X11936000Y-9182501D02*
X11956000Y-9202501D01*
X11956000Y-9182501D02*
X11936000Y-9202501D01*
X11950000Y-8747500D02*
X11970000Y-8767500D01*
X11970000Y-8747500D02*
X11950000Y-8767500D01*
X11985568Y-10338787D02*
X12005568Y-10358787D01*
X12005568Y-10338787D02*
X11985568Y-10358787D01*
X11991000Y-10152000D02*
X12011000Y-10172000D01*
X12011000Y-10152000D02*
X11991000Y-10172000D01*
X11998007Y-9579007D02*
X12018007Y-9599007D01*
X12018007Y-9579007D02*
X11998007Y-9599007D01*
X12017500Y-8567500D02*
X12037500Y-8587500D01*
X12037500Y-8567500D02*
X12017500Y-8587500D01*
X12022500Y-8492500D02*
X12042500Y-8512500D01*
X12042500Y-8492500D02*
X12022500Y-8512500D01*
X12032500Y-7497500D02*
X12052500Y-7517500D01*
X12052500Y-7497500D02*
X12032500Y-7517500D01*
X12057117Y-9605924D02*
X12077117Y-9625924D01*
X12077117Y-9605924D02*
X12057117Y-9625924D01*
X12080000Y-8747500D02*
X12100000Y-8767500D01*
X12100000Y-8747500D02*
X12080000Y-8767500D01*
X12081000Y-11049500D02*
X12101000Y-11069500D01*
X12101000Y-11049500D02*
X12081000Y-11069500D01*
X12118059Y-10234433D02*
X12138059Y-10254433D01*
X12138059Y-10234433D02*
X12118059Y-10254433D01*
X12121000Y-10712000D02*
X12141000Y-10732000D01*
X12141000Y-10712000D02*
X12121000Y-10732000D01*
X12121000Y-10952000D02*
X12141000Y-10972000D01*
X12141000Y-10952000D02*
X12121000Y-10972000D01*
X12125000Y-12232500D02*
X12145000Y-12252500D01*
X12145000Y-12232500D02*
X12125000Y-12252500D01*
X12157500Y-7637500D02*
X12177500Y-7657500D01*
X12177500Y-7637500D02*
X12157500Y-7657500D01*
X12168500Y-9697000D02*
X12188500Y-9717000D01*
X12188500Y-9697000D02*
X12168500Y-9717000D01*
X12172500Y-8747500D02*
X12192500Y-8767500D01*
X12192500Y-8747500D02*
X12172500Y-8767500D01*
X12197006Y-10953422D02*
X12217006Y-10973422D01*
X12217006Y-10953422D02*
X12197006Y-10973422D01*
X12198500Y-9912000D02*
X12218500Y-9932000D01*
X12218500Y-9912000D02*
X12198500Y-9932000D01*
X12199733Y-10236161D02*
X12219733Y-10256161D01*
X12219733Y-10236161D02*
X12199733Y-10256161D01*
X12201035Y-10066460D02*
X12221035Y-10086460D01*
X12221035Y-10066460D02*
X12201035Y-10086460D01*
X12203500Y-9989500D02*
X12223500Y-10009500D01*
X12223500Y-9989500D02*
X12203500Y-10009500D01*
X12212500Y-7690000D02*
X12232500Y-7710000D01*
X12232500Y-7690000D02*
X12212500Y-7710000D01*
X12231000Y-11169500D02*
X12251000Y-11189500D01*
X12251000Y-11169500D02*
X12231000Y-11189500D01*
X12266000Y-9697000D02*
X12286000Y-9717000D01*
X12286000Y-9697000D02*
X12266000Y-9717000D01*
X12267500Y-7637500D02*
X12287500Y-7657500D01*
X12287500Y-7637500D02*
X12267500Y-7657500D01*
X12276234Y-9584999D02*
X12296234Y-9604999D01*
X12296234Y-9584999D02*
X12276234Y-9604999D01*
X12281000Y-10392000D02*
X12301000Y-10412000D01*
X12301000Y-10392000D02*
X12281000Y-10412000D01*
X12293501Y-9969500D02*
X12313501Y-9989500D01*
X12313501Y-9969500D02*
X12293501Y-9989500D01*
X12293501Y-10067000D02*
X12313501Y-10087000D01*
X12313501Y-10067000D02*
X12293501Y-10087000D01*
X12293501Y-10314500D02*
X12313501Y-10334500D01*
X12313501Y-10314500D02*
X12293501Y-10334500D01*
X12293501Y-10463200D02*
X12313501Y-10483200D01*
X12313501Y-10463200D02*
X12293501Y-10483200D01*
X12294349Y-10777847D02*
X12314349Y-10797847D01*
X12314349Y-10777847D02*
X12294349Y-10797847D01*
X12296000Y-10184248D02*
X12316000Y-10204248D01*
X12316000Y-10184248D02*
X12296000Y-10204248D01*
X12326500Y-11169500D02*
X12346500Y-11189500D01*
X12346500Y-11169500D02*
X12326500Y-11189500D01*
X12337500Y-10827500D02*
X12357500Y-10847500D01*
X12357500Y-10827500D02*
X12337500Y-10847500D01*
X12338500Y-11012000D02*
X12358500Y-11032000D01*
X12358500Y-11012000D02*
X12338500Y-11032000D01*
X12365000Y-10610000D02*
X12385000Y-10630000D01*
X12385000Y-10610000D02*
X12365000Y-10630000D01*
X12378000Y-7631000D02*
X12398000Y-7651000D01*
X12398000Y-7631000D02*
X12378000Y-7651000D01*
X12408500Y-10554500D02*
X12428500Y-10574500D01*
X12428500Y-10554500D02*
X12408500Y-10574500D01*
X12420000Y-12330000D02*
X12440000Y-12350000D01*
X12440000Y-12330000D02*
X12420000Y-12350000D01*
X12435000Y-7670000D02*
X12455000Y-7690000D01*
X12455000Y-7670000D02*
X12435000Y-7690000D01*
X12485000Y-7632500D02*
X12505000Y-7652500D01*
X12505000Y-7632500D02*
X12485000Y-7652500D01*
X12501000Y-10409601D02*
X12521000Y-10429601D01*
X12521000Y-10409601D02*
X12501000Y-10429601D01*
X12506353Y-10197768D02*
X12526353Y-10217768D01*
X12526353Y-10197768D02*
X12506353Y-10217768D01*
X12507500Y-10467500D02*
X12527500Y-10487500D01*
X12527500Y-10467500D02*
X12507500Y-10487500D01*
X12510000Y-11525000D02*
X12530000Y-11545000D01*
X12530000Y-11525000D02*
X12510000Y-11545000D01*
X12540000Y-12320000D02*
X12560000Y-12340000D01*
X12560000Y-12320000D02*
X12540000Y-12340000D01*
X12545000Y-8155000D02*
X12565000Y-8175000D01*
X12565000Y-8155000D02*
X12545000Y-8175000D01*
X12553500Y-11172000D02*
X12573500Y-11192000D01*
X12573500Y-11172000D02*
X12553500Y-11192000D01*
X12594521Y-8197979D02*
X12614521Y-8217979D01*
X12614521Y-8197979D02*
X12594521Y-8217979D01*
X12600348Y-10156865D02*
X12620348Y-10176865D01*
X12620348Y-10156865D02*
X12600348Y-10176865D01*
X12601000Y-10312000D02*
X12621000Y-10332000D01*
X12621000Y-10312000D02*
X12601000Y-10332000D01*
X12601000Y-10466419D02*
X12621000Y-10486419D01*
X12621000Y-10466419D02*
X12601000Y-10486419D01*
X12604950Y-9912500D02*
X12624950Y-9932500D01*
X12624950Y-9912500D02*
X12604950Y-9932500D01*
X12604950Y-10952000D02*
X12624950Y-10972000D01*
X12624950Y-10952000D02*
X12604950Y-10972000D01*
X12626000Y-9695952D02*
X12646000Y-9715952D01*
X12646000Y-9695952D02*
X12626000Y-9715952D01*
X12641371Y-9818674D02*
X12661371Y-9838674D01*
X12661371Y-9818674D02*
X12641371Y-9838674D01*
X12648500Y-11172000D02*
X12668500Y-11192000D01*
X12668500Y-11172000D02*
X12648500Y-11192000D01*
X12681000Y-10469500D02*
X12701000Y-10489500D01*
X12701000Y-10469500D02*
X12681000Y-10489500D01*
X12702500Y-7672500D02*
X12722500Y-7692500D01*
X12722500Y-7672500D02*
X12702500Y-7692500D01*
X12726000Y-9694500D02*
X12746000Y-9714500D01*
X12746000Y-9694500D02*
X12726000Y-9714500D01*
X12732500Y-12125000D02*
X12752500Y-12145000D01*
X12752500Y-12125000D02*
X12732500Y-12145000D01*
X12773500Y-9920800D02*
X12793500Y-9940800D01*
X12793500Y-9920800D02*
X12773500Y-9940800D01*
X12781000Y-10393453D02*
X12801000Y-10413453D01*
X12801000Y-10393453D02*
X12781000Y-10413453D01*
X12810000Y-12163101D02*
X12830000Y-12183101D01*
X12830000Y-12163101D02*
X12810000Y-12183101D01*
X12815000Y-7635000D02*
X12835000Y-7655000D01*
X12835000Y-7635000D02*
X12815000Y-7655000D01*
X12843500Y-10420700D02*
X12863500Y-10440700D01*
X12863500Y-10420700D02*
X12843500Y-10440700D01*
X12853500Y-9752000D02*
X12873500Y-9772000D01*
X12873500Y-9752000D02*
X12853500Y-9772000D01*
X12862500Y-9905000D02*
X12882500Y-9925000D01*
X12882500Y-9905000D02*
X12862500Y-9925000D01*
X12877500Y-7672500D02*
X12897500Y-7692500D01*
X12897500Y-7672500D02*
X12877500Y-7692500D01*
X12883500Y-9990800D02*
X12903500Y-10010800D01*
X12903500Y-9990800D02*
X12883500Y-10010800D01*
X12893500Y-10088401D02*
X12913500Y-10108401D01*
X12913500Y-10088401D02*
X12893500Y-10108401D01*
X12893500Y-10597000D02*
X12913500Y-10617000D01*
X12913500Y-10597000D02*
X12893500Y-10617000D01*
X12893500Y-10697000D02*
X12913500Y-10717000D01*
X12913500Y-10697000D02*
X12893500Y-10717000D01*
X12896000Y-10187000D02*
X12916000Y-10207000D01*
X12916000Y-10187000D02*
X12896000Y-10207000D01*
X12921000Y-10862000D02*
X12941000Y-10882000D01*
X12941000Y-10862000D02*
X12921000Y-10882000D01*
X12921000Y-11017000D02*
X12941000Y-11037000D01*
X12941000Y-11017000D02*
X12921000Y-11037000D01*
X12926000Y-7626000D02*
X12946000Y-7646000D01*
X12946000Y-7626000D02*
X12926000Y-7646000D01*
X12933500Y-9893200D02*
X12953500Y-9913200D01*
X12953500Y-9893200D02*
X12933500Y-9913200D01*
X12970000Y-8217500D02*
X12990000Y-8237500D01*
X12990000Y-8217500D02*
X12970000Y-8237500D01*
X12975000Y-8305000D02*
X12995000Y-8325000D01*
X12995000Y-8305000D02*
X12975000Y-8325000D01*
X12983500Y-10087000D02*
X13003500Y-10107000D01*
X13003500Y-10087000D02*
X12983500Y-10107000D01*
X12993500Y-10597000D02*
X13013500Y-10617000D01*
X13013500Y-10597000D02*
X12993500Y-10617000D01*
X12993500Y-10697500D02*
X13013500Y-10717500D01*
X13013500Y-10697500D02*
X12993500Y-10717500D01*
X13028500Y-9942000D02*
X13048500Y-9962000D01*
X13048500Y-9942000D02*
X13028500Y-9962000D01*
X13037500Y-8410000D02*
X13057500Y-8430000D01*
X13057500Y-8410000D02*
X13037500Y-8430000D01*
X13062500Y-8305000D02*
X13082500Y-8325000D01*
X13082500Y-8305000D02*
X13062500Y-8325000D01*
X13220000Y-7505000D02*
X13240000Y-7525000D01*
X13240000Y-7505000D02*
X13220000Y-7525000D01*
X13222500Y-7660000D02*
X13242500Y-7680000D01*
X13242500Y-7660000D02*
X13222500Y-7680000D01*
X13222500Y-8572500D02*
X13242500Y-8592500D01*
X13242500Y-8572500D02*
X13222500Y-8592500D01*
X13222500Y-8675000D02*
X13242500Y-8695000D01*
X13242500Y-8675000D02*
X13222500Y-8695000D01*
X13225000Y-8375000D02*
X13245000Y-8395000D01*
X13245000Y-8375000D02*
X13225000Y-8395000D01*
X13225000Y-8477500D02*
X13245000Y-8497500D01*
X13245000Y-8477500D02*
X13225000Y-8497500D01*
X13447500Y-8622500D02*
X13467500Y-8642500D01*
X13467500Y-8622500D02*
X13447500Y-8642500D01*
X13448200Y-8517200D02*
X13468200Y-8537200D01*
X13468200Y-8517200D02*
X13448200Y-8537200D01*
X13465000Y-12427500D02*
X13485000Y-12447500D01*
X13485000Y-12427500D02*
X13465000Y-12447500D01*
X13502500Y-8265000D02*
X13522500Y-8285000D01*
X13522500Y-8265000D02*
X13502500Y-8285000D01*
X13502500Y-8365000D02*
X13522500Y-8385000D01*
X13522500Y-8365000D02*
X13502500Y-8385000D01*
X13517500Y-12037500D02*
X13537500Y-12057500D01*
X13537500Y-12037500D02*
X13517500Y-12057500D01*
X13552500Y-8622500D02*
X13572500Y-8642500D01*
X13572500Y-8622500D02*
X13552500Y-8642500D01*
X13555000Y-8517500D02*
X13575000Y-8537500D01*
X13575000Y-8517500D02*
X13555000Y-8537500D01*
X13618500Y-12035000D02*
X13638500Y-12055000D01*
X13638500Y-12035000D02*
X13618500Y-12055000D01*
X13637500Y-7645000D02*
X13657500Y-7665000D01*
X13657500Y-7645000D02*
X13637500Y-7665000D01*
X13655000Y-8312500D02*
X13675000Y-8332500D01*
X13675000Y-8312500D02*
X13655000Y-8332500D01*
X13655000Y-8415000D02*
X13675000Y-8435000D01*
X13675000Y-8415000D02*
X13655000Y-8435000D01*
X13675000Y-7870000D02*
X13695000Y-7890000D01*
X13695000Y-7870000D02*
X13675000Y-7890000D01*
X13690000Y-12470000D02*
X13710000Y-12490000D01*
X13710000Y-12470000D02*
X13690000Y-12490000D01*
X13925000Y-7867500D02*
X13945000Y-7887500D01*
X13945000Y-7867500D02*
X13925000Y-7887500D01*
X14072500Y-8280000D02*
X14092500Y-8300000D01*
X14092500Y-8280000D02*
X14072500Y-8300000D01*
X14075000Y-7867500D02*
X14095000Y-7887500D01*
X14095000Y-7867500D02*
X14075000Y-7887500D01*
X14087314Y-10273186D02*
X14107314Y-10293186D01*
X14107314Y-10273186D02*
X14087314Y-10293186D01*
X14150000Y-10337500D02*
X14170000Y-10357500D01*
X14170000Y-10337500D02*
X14150000Y-10357500D01*
X14155000Y-12085000D02*
X14175000Y-12105000D01*
X14175000Y-12085000D02*
X14155000Y-12105000D01*
X14163550Y-10802883D02*
X14183550Y-10822883D01*
X14183550Y-10802883D02*
X14163550Y-10822883D01*
X14192500Y-8925000D02*
X14212500Y-8945000D01*
X14212500Y-8925000D02*
X14192500Y-8945000D01*
X14225000Y-7872500D02*
X14245000Y-7892500D01*
X14245000Y-7872500D02*
X14225000Y-7892500D01*
X14228500Y-10802884D02*
X14248500Y-10822884D01*
X14248500Y-10802884D02*
X14228500Y-10822884D01*
X14234485Y-10900486D02*
X14254485Y-10920486D01*
X14254485Y-10900486D02*
X14234485Y-10920486D01*
X14247500Y-12642500D02*
X14267500Y-12662500D01*
X14267500Y-12642500D02*
X14247500Y-12662500D01*
X14255000Y-12087500D02*
X14275000Y-12107500D01*
X14275000Y-12087500D02*
X14255000Y-12107500D01*
X14256743Y-11983257D02*
X14276743Y-12003257D01*
X14276743Y-11983257D02*
X14256743Y-12003257D01*
X14308500Y-10347000D02*
X14328500Y-10367000D01*
X14328500Y-10347000D02*
X14308500Y-10367000D01*
X14327792Y-10954500D02*
X14347792Y-10974500D01*
X14347792Y-10954500D02*
X14327792Y-10974500D01*
X14337500Y-11943800D02*
X14357500Y-11963800D01*
X14357500Y-11943800D02*
X14337500Y-11963800D01*
X14365000Y-8970000D02*
X14385000Y-8990000D01*
X14385000Y-8970000D02*
X14365000Y-8990000D01*
X14375000Y-7830000D02*
X14395000Y-7850000D01*
X14395000Y-7830000D02*
X14375000Y-7850000D01*
X14376592Y-11017000D02*
X14396592Y-11037000D01*
X14396592Y-11017000D02*
X14376592Y-11037000D01*
X14400000Y-8280000D02*
X14420000Y-8300000D01*
X14420000Y-8280000D02*
X14400000Y-8300000D01*
X14401250Y-12642500D02*
X14421250Y-12662500D01*
X14421250Y-12642500D02*
X14401250Y-12662500D01*
X14427500Y-7872500D02*
X14447500Y-7892500D01*
X14447500Y-7872500D02*
X14427500Y-7892500D01*
X14461250Y-12217500D02*
X14481250Y-12237500D01*
X14481250Y-12217500D02*
X14461250Y-12237500D01*
X14461250Y-12285000D02*
X14481250Y-12305000D01*
X14481250Y-12285000D02*
X14461250Y-12305000D01*
X14461250Y-12420000D02*
X14481250Y-12440000D01*
X14481250Y-12420000D02*
X14461250Y-12440000D01*
X14461250Y-12490000D02*
X14481250Y-12510000D01*
X14481250Y-12490000D02*
X14461250Y-12510000D01*
X14469800Y-11765757D02*
X14489800Y-11785757D01*
X14489800Y-11765757D02*
X14469800Y-11785757D01*
X14469800Y-11839785D02*
X14489800Y-11859785D01*
X14489800Y-11839785D02*
X14469800Y-11859785D01*
X14482228Y-10918228D02*
X14502228Y-10938228D01*
X14502228Y-10918228D02*
X14482228Y-10938228D01*
X14492500Y-11665000D02*
X14512500Y-11685000D01*
X14512500Y-11665000D02*
X14492500Y-11685000D01*
X14495780Y-9915699D02*
X14515780Y-9935699D01*
X14515780Y-9915699D02*
X14495780Y-9935699D01*
X14496300Y-11184000D02*
X14516300Y-11204000D01*
X14516300Y-11184000D02*
X14496300Y-11204000D01*
X14510000Y-9177800D02*
X14530000Y-9197800D01*
X14530000Y-9177800D02*
X14510000Y-9197800D01*
X14555000Y-9280000D02*
X14575000Y-9300000D01*
X14575000Y-9280000D02*
X14555000Y-9300000D01*
X14555000Y-12645000D02*
X14575000Y-12665000D01*
X14575000Y-12645000D02*
X14555000Y-12665000D01*
X14558993Y-9778300D02*
X14578993Y-9798300D01*
X14578993Y-9778300D02*
X14558993Y-9798300D01*
X14585000Y-9230000D02*
X14605000Y-9250000D01*
X14605000Y-9230000D02*
X14585000Y-9250000D01*
X14605000Y-8547500D02*
X14625000Y-8567500D01*
X14625000Y-8547500D02*
X14605000Y-8567500D01*
X14620000Y-11215000D02*
X14640000Y-11235000D01*
X14640000Y-11215000D02*
X14620000Y-11235000D01*
X14632500Y-11137500D02*
X14652500Y-11157500D01*
X14652500Y-11137500D02*
X14632500Y-11157500D01*
X14645000Y-12425000D02*
X14665000Y-12445000D01*
X14665000Y-12425000D02*
X14645000Y-12445000D01*
X14645000Y-12525000D02*
X14665000Y-12545000D01*
X14665000Y-12525000D02*
X14645000Y-12545000D01*
X14652441Y-10168441D02*
X14672441Y-10188441D01*
X14672441Y-10168441D02*
X14652441Y-10188441D01*
X14662250Y-12242250D02*
X14682250Y-12262250D01*
X14682250Y-12242250D02*
X14662250Y-12262250D01*
X14691500Y-8175000D02*
X14711500Y-8195000D01*
X14711500Y-8175000D02*
X14691500Y-8195000D01*
X14691500Y-8302500D02*
X14711500Y-8322500D01*
X14711500Y-8302500D02*
X14691500Y-8322500D01*
X14700000Y-12645000D02*
X14720000Y-12665000D01*
X14720000Y-12645000D02*
X14700000Y-12665000D01*
X14710000Y-8550000D02*
X14730000Y-8570000D01*
X14730000Y-8550000D02*
X14710000Y-8570000D01*
X14724413Y-9640484D02*
X14744413Y-9660484D01*
X14744413Y-9640484D02*
X14724413Y-9660484D01*
X14725000Y-7867500D02*
X14745000Y-7887500D01*
X14745000Y-7867500D02*
X14725000Y-7887500D01*
X14725967Y-10163929D02*
X14745967Y-10183929D01*
X14745967Y-10163929D02*
X14725967Y-10183929D01*
X14727041Y-10564290D02*
X14747041Y-10584290D01*
X14747041Y-10564290D02*
X14727041Y-10584290D01*
X14730978Y-9924898D02*
X14750978Y-9944898D01*
X14750978Y-9924898D02*
X14730978Y-9944898D01*
X14731001Y-10083758D02*
X14751001Y-10103758D01*
X14751001Y-10083758D02*
X14731001Y-10103758D01*
X14732042Y-9839422D02*
X14752042Y-9859422D01*
X14752042Y-9839422D02*
X14732042Y-9859422D01*
X14742500Y-9205000D02*
X14762500Y-9225000D01*
X14762500Y-9205000D02*
X14742500Y-9225000D01*
X14745000Y-12425000D02*
X14765000Y-12445000D01*
X14765000Y-12425000D02*
X14745000Y-12445000D01*
X14745000Y-12525000D02*
X14765000Y-12545000D01*
X14765000Y-12525000D02*
X14745000Y-12545000D01*
X14755684Y-9736816D02*
X14775684Y-9756816D01*
X14775684Y-9736816D02*
X14755684Y-9756816D01*
X14775000Y-7807500D02*
X14795000Y-7827500D01*
X14795000Y-7807500D02*
X14775000Y-7827500D01*
X14789000Y-11335300D02*
X14809000Y-11355300D01*
X14809000Y-11335300D02*
X14789000Y-11355300D01*
X14794250Y-11968250D02*
X14814250Y-11988250D01*
X14814250Y-11968250D02*
X14794250Y-11988250D01*
X14799250Y-12060250D02*
X14819250Y-12080250D01*
X14819250Y-12060250D02*
X14799250Y-12080250D01*
X14800250Y-12212250D02*
X14820250Y-12232250D01*
X14820250Y-12212250D02*
X14800250Y-12232250D01*
X14800250Y-12287250D02*
X14820250Y-12307250D01*
X14820250Y-12287250D02*
X14800250Y-12307250D01*
X14805351Y-10244864D02*
X14825351Y-10264864D01*
X14825351Y-10244864D02*
X14805351Y-10264864D01*
X14808978Y-10490800D02*
X14828978Y-10510800D01*
X14828978Y-10490800D02*
X14808978Y-10510800D01*
X14810000Y-10804000D02*
X14830000Y-10824000D01*
X14830000Y-10804000D02*
X14810000Y-10824000D01*
X14811000Y-10323200D02*
X14831000Y-10343200D01*
X14831000Y-10323200D02*
X14811000Y-10343200D01*
X14811045Y-10724646D02*
X14831045Y-10744646D01*
X14831045Y-10724646D02*
X14811045Y-10744646D01*
X14814490Y-10645490D02*
X14834490Y-10665490D01*
X14834490Y-10645490D02*
X14814490Y-10665490D01*
X14817500Y-12642500D02*
X14837500Y-12662500D01*
X14837500Y-12642500D02*
X14817500Y-12662500D01*
X14825000Y-7872500D02*
X14845000Y-7892500D01*
X14845000Y-7872500D02*
X14825000Y-7892500D01*
X14845000Y-12425000D02*
X14865000Y-12445000D01*
X14865000Y-12425000D02*
X14845000Y-12445000D01*
X14845000Y-12525000D02*
X14865000Y-12545000D01*
X14865000Y-12525000D02*
X14845000Y-12545000D01*
X14850000Y-8675000D02*
X14870000Y-8695000D01*
X14870000Y-8675000D02*
X14850000Y-8695000D01*
X14866250Y-12010250D02*
X14886250Y-12030250D01*
X14886250Y-12010250D02*
X14866250Y-12030250D01*
X14867500Y-12250000D02*
X14887500Y-12270000D01*
X14887500Y-12250000D02*
X14867500Y-12270000D01*
X14875000Y-7647500D02*
X14895000Y-7667500D01*
X14895000Y-7647500D02*
X14875000Y-7667500D01*
X14886447Y-10162479D02*
X14906447Y-10182479D01*
X14906447Y-10162479D02*
X14886447Y-10182479D01*
X14887500Y-10002500D02*
X14907500Y-10022500D01*
X14907500Y-10002500D02*
X14887500Y-10022500D01*
X14889751Y-10724647D02*
X14909751Y-10744647D01*
X14909751Y-10724647D02*
X14889751Y-10744647D01*
X14890000Y-10242500D02*
X14910000Y-10262500D01*
X14910000Y-10242500D02*
X14890000Y-10262500D01*
X14891000Y-10324500D02*
X14911000Y-10344500D01*
X14911000Y-10324500D02*
X14891000Y-10344500D01*
X14891000Y-10564500D02*
X14911000Y-10584500D01*
X14911000Y-10564500D02*
X14891000Y-10584500D01*
X14891000Y-10809500D02*
X14911000Y-10829500D01*
X14911000Y-10809500D02*
X14891000Y-10829500D01*
X14891079Y-10084481D02*
X14911079Y-10104481D01*
X14911079Y-10084481D02*
X14891079Y-10104481D01*
X14893500Y-10487000D02*
X14913500Y-10507000D01*
X14913500Y-10487000D02*
X14893500Y-10507000D01*
X14910733Y-10640076D02*
X14930733Y-10660076D01*
X14930733Y-10640076D02*
X14910733Y-10660076D01*
X14932500Y-12645000D02*
X14952500Y-12665000D01*
X14952500Y-12645000D02*
X14932500Y-12665000D01*
X14933250Y-12059250D02*
X14953250Y-12079250D01*
X14953250Y-12059250D02*
X14933250Y-12079250D01*
X14935250Y-11971250D02*
X14955250Y-11991250D01*
X14955250Y-11971250D02*
X14935250Y-11991250D01*
X14937250Y-12212250D02*
X14957250Y-12232250D01*
X14957250Y-12212250D02*
X14937250Y-12232250D01*
X14937250Y-12290250D02*
X14957250Y-12310250D01*
X14957250Y-12290250D02*
X14937250Y-12310250D01*
X14945000Y-12425000D02*
X14965000Y-12445000D01*
X14965000Y-12425000D02*
X14945000Y-12445000D01*
X14945000Y-12525000D02*
X14965000Y-12545000D01*
X14965000Y-12525000D02*
X14945000Y-12545000D01*
X14957593Y-9929128D02*
X14977593Y-9949128D01*
X14977593Y-9929128D02*
X14957593Y-9949128D01*
X14962550Y-10326178D02*
X14982550Y-10346178D01*
X14982550Y-10326178D02*
X14962550Y-10346178D01*
X14967000Y-9280000D02*
X14987000Y-9300000D01*
X14987000Y-9280000D02*
X14967000Y-9300000D01*
X14970000Y-11042500D02*
X14990000Y-11062500D01*
X14990000Y-11042500D02*
X14970000Y-11062500D01*
X14971000Y-10484500D02*
X14991000Y-10504500D01*
X14991000Y-10484500D02*
X14971000Y-10504500D01*
X14972500Y-9472500D02*
X14992500Y-9492500D01*
X14992500Y-9472500D02*
X14972500Y-9492500D01*
X14972761Y-10406211D02*
X14992761Y-10426211D01*
X14992761Y-10406211D02*
X14972761Y-10426211D01*
X14973000Y-10805000D02*
X14993000Y-10825000D01*
X14993000Y-10805000D02*
X14973000Y-10825000D01*
X14990000Y-11172866D02*
X15010000Y-11192866D01*
X15010000Y-11172866D02*
X14990000Y-11192866D01*
X15040000Y-8450000D02*
X15060000Y-8470000D01*
X15060000Y-8450000D02*
X15040000Y-8470000D01*
X15040000Y-8550000D02*
X15060000Y-8570000D01*
X15060000Y-8550000D02*
X15040000Y-8570000D01*
X15042434Y-11135066D02*
X15062434Y-11155066D01*
X15062434Y-11135066D02*
X15042434Y-11155066D01*
X15045850Y-10083027D02*
X15065850Y-10103027D01*
X15065850Y-10083027D02*
X15045850Y-10103027D01*
X15047500Y-10242500D02*
X15067500Y-10262500D01*
X15067500Y-10242500D02*
X15047500Y-10262500D01*
X15050000Y-11045000D02*
X15070000Y-11065000D01*
X15070000Y-11045000D02*
X15050000Y-11065000D01*
X15051000Y-10407000D02*
X15071000Y-10427000D01*
X15071000Y-10407000D02*
X15051000Y-10427000D01*
X15051000Y-10645000D02*
X15071000Y-10665000D01*
X15071000Y-10645000D02*
X15051000Y-10665000D01*
X15052500Y-12645000D02*
X15072500Y-12665000D01*
X15072500Y-12645000D02*
X15052500Y-12665000D01*
X15053945Y-10162954D02*
X15073945Y-10182954D01*
X15073945Y-10162954D02*
X15053945Y-10182954D01*
X15058134Y-10564268D02*
X15078134Y-10584268D01*
X15078134Y-10564268D02*
X15058134Y-10584268D01*
X15062500Y-9277500D02*
X15082500Y-9297500D01*
X15082500Y-9277500D02*
X15062500Y-9297500D01*
X15082479Y-11203479D02*
X15102479Y-11223479D01*
X15102479Y-11203479D02*
X15082479Y-11223479D01*
X15097500Y-9407500D02*
X15117500Y-9427500D01*
X15117500Y-9407500D02*
X15097500Y-9427500D01*
X15097500Y-9560000D02*
X15117500Y-9580000D01*
X15117500Y-9560000D02*
X15097500Y-9580000D01*
X15125000Y-9685000D02*
X15145000Y-9705000D01*
X15145000Y-9685000D02*
X15125000Y-9705000D01*
X15125000Y-10565000D02*
X15145000Y-10585000D01*
X15145000Y-10565000D02*
X15125000Y-10585000D01*
X15126000Y-10484500D02*
X15146000Y-10504500D01*
X15146000Y-10484500D02*
X15126000Y-10504500D01*
X15128500Y-10324500D02*
X15148500Y-10344500D01*
X15148500Y-10324500D02*
X15128500Y-10344500D01*
X15130000Y-9840000D02*
X15150000Y-9860000D01*
X15150000Y-9840000D02*
X15130000Y-9860000D01*
X15130000Y-9920000D02*
X15150000Y-9940000D01*
X15150000Y-9920000D02*
X15130000Y-9940000D01*
X15130000Y-10088000D02*
X15150000Y-10108000D01*
X15150000Y-10088000D02*
X15130000Y-10108000D01*
X15130000Y-10805000D02*
X15150000Y-10825000D01*
X15150000Y-10805000D02*
X15130000Y-10825000D01*
X15131000Y-10244500D02*
X15151000Y-10264500D01*
X15151000Y-10244500D02*
X15131000Y-10264500D01*
X15131000Y-10724500D02*
X15151000Y-10744500D01*
X15151000Y-10724500D02*
X15131000Y-10744500D01*
X15131000Y-10887000D02*
X15151000Y-10907000D01*
X15151000Y-10887000D02*
X15131000Y-10907000D01*
X15131000Y-10971352D02*
X15151000Y-10991352D01*
X15151000Y-10971352D02*
X15131000Y-10991352D01*
X15132500Y-11435000D02*
X15152500Y-11455000D01*
X15152500Y-11435000D02*
X15132500Y-11455000D01*
X15132500Y-11530000D02*
X15152500Y-11550000D01*
X15152500Y-11530000D02*
X15132500Y-11550000D01*
X15132500Y-11655000D02*
X15152500Y-11675000D01*
X15152500Y-11655000D02*
X15132500Y-11675000D01*
X15133457Y-9994438D02*
X15153457Y-10014438D01*
X15153457Y-9994438D02*
X15133457Y-10014438D01*
X15133500Y-10407000D02*
X15153500Y-10427000D01*
X15153500Y-10407000D02*
X15133500Y-10427000D01*
X15135000Y-10165000D02*
X15155000Y-10185000D01*
X15155000Y-10165000D02*
X15135000Y-10185000D01*
X15137851Y-10644500D02*
X15157851Y-10664500D01*
X15157851Y-10644500D02*
X15137851Y-10664500D01*
X15140000Y-8450000D02*
X15160000Y-8470000D01*
X15160000Y-8450000D02*
X15140000Y-8470000D01*
X15140000Y-8550000D02*
X15160000Y-8570000D01*
X15160000Y-8550000D02*
X15140000Y-8570000D01*
X15175000Y-11177500D02*
X15195000Y-11197500D01*
X15195000Y-11177500D02*
X15175000Y-11197500D01*
X15197500Y-12645000D02*
X15217500Y-12665000D01*
X15217500Y-12645000D02*
X15197500Y-12665000D01*
X15208500Y-10324500D02*
X15228500Y-10344500D01*
X15228500Y-10324500D02*
X15208500Y-10344500D01*
X15210000Y-10085000D02*
X15230000Y-10105000D01*
X15230000Y-10085000D02*
X15210000Y-10105000D01*
X15210000Y-10162500D02*
X15230000Y-10182500D01*
X15230000Y-10162500D02*
X15210000Y-10182500D01*
X15210000Y-10487500D02*
X15230000Y-10507500D01*
X15230000Y-10487500D02*
X15210000Y-10507500D01*
X15211000Y-9917649D02*
X15231000Y-9937649D01*
X15231000Y-9917649D02*
X15211000Y-9937649D01*
X15211000Y-10239500D02*
X15231000Y-10259500D01*
X15231000Y-10239500D02*
X15211000Y-10259500D01*
X15215000Y-10882500D02*
X15235000Y-10902500D01*
X15235000Y-10882500D02*
X15215000Y-10902500D01*
X15216000Y-10404500D02*
X15236000Y-10424500D01*
X15236000Y-10404500D02*
X15216000Y-10424500D01*
X15237800Y-8556000D02*
X15257800Y-8576000D01*
X15257800Y-8556000D02*
X15237800Y-8576000D01*
X15240000Y-8450000D02*
X15260000Y-8470000D01*
X15260000Y-8450000D02*
X15240000Y-8470000D01*
X15255000Y-11347500D02*
X15275000Y-11367500D01*
X15275000Y-11347500D02*
X15255000Y-11367500D01*
X15262500Y-11510000D02*
X15282500Y-11530000D01*
X15282500Y-11510000D02*
X15262500Y-11530000D01*
X15287500Y-11655000D02*
X15307500Y-11675000D01*
X15307500Y-11655000D02*
X15287500Y-11675000D01*
X15288500Y-10566500D02*
X15308500Y-10586500D01*
X15308500Y-10566500D02*
X15288500Y-10586500D01*
X15290000Y-10890000D02*
X15310000Y-10910000D01*
X15310000Y-10890000D02*
X15290000Y-10910000D01*
X15290795Y-10484159D02*
X15310795Y-10504159D01*
X15310795Y-10484159D02*
X15290795Y-10504159D01*
X15291000Y-10651352D02*
X15311000Y-10671352D01*
X15311000Y-10651352D02*
X15291000Y-10671352D01*
X15291000Y-10404500D02*
X15311000Y-10424500D01*
X15311000Y-10404500D02*
X15291000Y-10424500D01*
X15292500Y-10160000D02*
X15312500Y-10180000D01*
X15312500Y-10160000D02*
X15292500Y-10180000D01*
X15292500Y-10724500D02*
X15312500Y-10744500D01*
X15312500Y-10724500D02*
X15292500Y-10744500D01*
X15293500Y-10312000D02*
X15313500Y-10332000D01*
X15313500Y-10312000D02*
X15293500Y-10332000D01*
X15293950Y-11044500D02*
X15313950Y-11064500D01*
X15313950Y-11044500D02*
X15293950Y-11064500D01*
X15297851Y-10004500D02*
X15317851Y-10024500D01*
X15317851Y-10004500D02*
X15297851Y-10024500D01*
X15300000Y-12030000D02*
X15320000Y-12050000D01*
X15320000Y-12030000D02*
X15300000Y-12050000D01*
X15332500Y-11172200D02*
X15352500Y-11192200D01*
X15352500Y-11172200D02*
X15332500Y-11192200D01*
X15340575Y-8450575D02*
X15360575Y-8470575D01*
X15360575Y-8450575D02*
X15340575Y-8470575D01*
X15340575Y-8550575D02*
X15360575Y-8570575D01*
X15360575Y-8550575D02*
X15340575Y-8570575D01*
X15342500Y-12645000D02*
X15362500Y-12665000D01*
X15362500Y-12645000D02*
X15342500Y-12665000D01*
X15365000Y-10885000D02*
X15385000Y-10905000D01*
X15385000Y-10885000D02*
X15365000Y-10905000D01*
X15370818Y-10171573D02*
X15390818Y-10191573D01*
X15390818Y-10171573D02*
X15370818Y-10191573D01*
X15371000Y-10079500D02*
X15391000Y-10099500D01*
X15391000Y-10079500D02*
X15371000Y-10099500D01*
X15371000Y-10564500D02*
X15391000Y-10584500D01*
X15391000Y-10564500D02*
X15371000Y-10584500D01*
X15371000Y-10651351D02*
X15391000Y-10671351D01*
X15391000Y-10651351D02*
X15371000Y-10671351D01*
X15371000Y-10002200D02*
X15391000Y-10022200D01*
X15391000Y-10002200D02*
X15371000Y-10022200D01*
X15371048Y-10811293D02*
X15391048Y-10831293D01*
X15391048Y-10811293D02*
X15371048Y-10831293D01*
X15374010Y-9920977D02*
X15394010Y-9940977D01*
X15394010Y-9920977D02*
X15374010Y-9940977D01*
X15410000Y-9354000D02*
X15430000Y-9374000D01*
X15430000Y-9354000D02*
X15410000Y-9374000D01*
X15423000Y-8860000D02*
X15443000Y-8880000D01*
X15443000Y-8860000D02*
X15423000Y-8880000D01*
X15423000Y-8960000D02*
X15443000Y-8980000D01*
X15443000Y-8960000D02*
X15423000Y-8980000D01*
X15426500Y-12397500D02*
X15446500Y-12417500D01*
X15446500Y-12397500D02*
X15426500Y-12417500D01*
X15427500Y-8732500D02*
X15447500Y-8752500D01*
X15447500Y-8732500D02*
X15427500Y-8752500D01*
X15427500Y-12098500D02*
X15447500Y-12118500D01*
X15447500Y-12098500D02*
X15427500Y-12118500D01*
X15428500Y-12243500D02*
X15448500Y-12263500D01*
X15448500Y-12243500D02*
X15428500Y-12263500D01*
X15435000Y-7865000D02*
X15455000Y-7885000D01*
X15455000Y-7865000D02*
X15435000Y-7885000D01*
X15435000Y-7960500D02*
X15455000Y-7980500D01*
X15455000Y-7960500D02*
X15435000Y-7980500D01*
X15442500Y-11537500D02*
X15462500Y-11557500D01*
X15462500Y-11537500D02*
X15442500Y-11557500D01*
X15445000Y-10405000D02*
X15465000Y-10425000D01*
X15465000Y-10405000D02*
X15445000Y-10425000D01*
X15445000Y-11380000D02*
X15465000Y-11400000D01*
X15465000Y-11380000D02*
X15445000Y-11400000D01*
X15446000Y-10244500D02*
X15466000Y-10264500D01*
X15466000Y-10244500D02*
X15446000Y-10264500D01*
X15447856Y-10553438D02*
X15467856Y-10573438D01*
X15467856Y-10553438D02*
X15447856Y-10573438D01*
X15450000Y-10325000D02*
X15470000Y-10345000D01*
X15470000Y-10325000D02*
X15450000Y-10345000D01*
X15450000Y-10480000D02*
X15470000Y-10500000D01*
X15470000Y-10480000D02*
X15450000Y-10500000D01*
X15451000Y-11051352D02*
X15471000Y-11071352D01*
X15471000Y-11051352D02*
X15451000Y-11071352D01*
X15451000Y-10165000D02*
X15471000Y-10185000D01*
X15471000Y-10165000D02*
X15451000Y-10185000D01*
X15451000Y-10885000D02*
X15471000Y-10905000D01*
X15471000Y-10885000D02*
X15451000Y-10905000D01*
X15451000Y-10964500D02*
X15471000Y-10984500D01*
X15471000Y-10964500D02*
X15451000Y-10984500D01*
X15452000Y-10007950D02*
X15472000Y-10027950D01*
X15472000Y-10007950D02*
X15452000Y-10027950D01*
X15452500Y-10647500D02*
X15472500Y-10667500D01*
X15472500Y-10647500D02*
X15452500Y-10667500D01*
X15457500Y-11260000D02*
X15477500Y-11280000D01*
X15477500Y-11260000D02*
X15457500Y-11280000D01*
X15460000Y-11162500D02*
X15480000Y-11182500D01*
X15480000Y-11162500D02*
X15460000Y-11182500D01*
X15470000Y-7802500D02*
X15490000Y-7822500D01*
X15490000Y-7802500D02*
X15470000Y-7822500D01*
X15496500Y-12397500D02*
X15516500Y-12417500D01*
X15516500Y-12397500D02*
X15496500Y-12417500D01*
X15497500Y-12098500D02*
X15517500Y-12118500D01*
X15517500Y-12098500D02*
X15497500Y-12118500D01*
X15498500Y-12243500D02*
X15518500Y-12263500D01*
X15518500Y-12243500D02*
X15498500Y-12263500D01*
X15524000Y-8860000D02*
X15544000Y-8880000D01*
X15544000Y-8860000D02*
X15524000Y-8880000D01*
X15524000Y-8960000D02*
X15544000Y-8980000D01*
X15544000Y-8960000D02*
X15524000Y-8980000D01*
X15525894Y-10326014D02*
X15545894Y-10346014D01*
X15545894Y-10326014D02*
X15525894Y-10346014D01*
X15530000Y-10008000D02*
X15550000Y-10028000D01*
X15550000Y-10008000D02*
X15530000Y-10028000D01*
X15530000Y-10245000D02*
X15550000Y-10265000D01*
X15550000Y-10245000D02*
X15530000Y-10265000D01*
X15530000Y-10885000D02*
X15550000Y-10905000D01*
X15550000Y-10885000D02*
X15530000Y-10905000D01*
X15530000Y-10960000D02*
X15550000Y-10980000D01*
X15550000Y-10960000D02*
X15530000Y-10980000D01*
X15530500Y-10725000D02*
X15550500Y-10745000D01*
X15550500Y-10725000D02*
X15530500Y-10745000D01*
X15530500Y-10804500D02*
X15550500Y-10824500D01*
X15550500Y-10804500D02*
X15530500Y-10824500D01*
X15530500Y-11044500D02*
X15550500Y-11064500D01*
X15550500Y-11044500D02*
X15530500Y-11064500D01*
X15531000Y-9725000D02*
X15551000Y-9745000D01*
X15551000Y-9725000D02*
X15531000Y-9745000D01*
X15531000Y-10164500D02*
X15551000Y-10184500D01*
X15551000Y-10164500D02*
X15531000Y-10184500D01*
X15531000Y-9917648D02*
X15551000Y-9937648D01*
X15551000Y-9917648D02*
X15531000Y-9937648D01*
X15534000Y-10404500D02*
X15554000Y-10424500D01*
X15554000Y-10404500D02*
X15534000Y-10424500D01*
X15535500Y-7827500D02*
X15555500Y-7847500D01*
X15555500Y-7827500D02*
X15535500Y-7847500D01*
X15536000Y-10484500D02*
X15556000Y-10504500D01*
X15556000Y-10484500D02*
X15536000Y-10504500D01*
X15567500Y-12397500D02*
X15587500Y-12417500D01*
X15587500Y-12397500D02*
X15567500Y-12417500D01*
X15568500Y-12098500D02*
X15588500Y-12118500D01*
X15588500Y-12098500D02*
X15568500Y-12118500D01*
X15569500Y-12243500D02*
X15589500Y-12263500D01*
X15589500Y-12243500D02*
X15569500Y-12263500D01*
X15575000Y-9490000D02*
X15595000Y-9510000D01*
X15595000Y-9490000D02*
X15575000Y-9510000D01*
X15575000Y-9591000D02*
X15595000Y-9611000D01*
X15595000Y-9591000D02*
X15575000Y-9611000D01*
X15583271Y-9326729D02*
X15603271Y-9346729D01*
X15603271Y-9326729D02*
X15583271Y-9346729D01*
X15607200Y-9924500D02*
X15627200Y-9944500D01*
X15627200Y-9924500D02*
X15607200Y-9944500D01*
X15610000Y-9845000D02*
X15630000Y-9865000D01*
X15630000Y-9845000D02*
X15610000Y-9865000D01*
X15610000Y-10325000D02*
X15630000Y-10345000D01*
X15630000Y-10325000D02*
X15610000Y-10345000D01*
X15610000Y-10885000D02*
X15630000Y-10905000D01*
X15630000Y-10885000D02*
X15610000Y-10905000D01*
X15615800Y-11045000D02*
X15635800Y-11065000D01*
X15635800Y-11045000D02*
X15615800Y-11065000D01*
X15616000Y-10164500D02*
X15636000Y-10184500D01*
X15636000Y-10164500D02*
X15616000Y-10184500D01*
X15616000Y-10804500D02*
X15636000Y-10824500D01*
X15636000Y-10804500D02*
X15616000Y-10824500D01*
X15619700Y-11420000D02*
X15639700Y-11440000D01*
X15639700Y-11420000D02*
X15619700Y-11440000D01*
X15633500Y-9725000D02*
X15653500Y-9745000D01*
X15653500Y-9725000D02*
X15633500Y-9745000D01*
X15634500Y-8840000D02*
X15654500Y-8860000D01*
X15654500Y-8840000D02*
X15634500Y-8860000D01*
X15635500Y-7827500D02*
X15655500Y-7847500D01*
X15655500Y-7827500D02*
X15635500Y-7847500D01*
X15650000Y-8342500D02*
X15670000Y-8362500D01*
X15670000Y-8342500D02*
X15650000Y-8362500D01*
X15650500Y-11159500D02*
X15670500Y-11179500D01*
X15670500Y-11159500D02*
X15650500Y-11179500D01*
X15652500Y-8210000D02*
X15672500Y-8230000D01*
X15672500Y-8210000D02*
X15652500Y-8230000D01*
X15652500Y-11255000D02*
X15672500Y-11275000D01*
X15672500Y-11255000D02*
X15652500Y-11275000D01*
X15655000Y-8472500D02*
X15675000Y-8492500D01*
X15675000Y-8472500D02*
X15655000Y-8492500D01*
X15657200Y-11370000D02*
X15677200Y-11390000D01*
X15677200Y-11370000D02*
X15657200Y-11390000D01*
X15684149Y-10564500D02*
X15704149Y-10584500D01*
X15704149Y-10564500D02*
X15684149Y-10584500D01*
X15688500Y-10962000D02*
X15708500Y-10982000D01*
X15708500Y-10962000D02*
X15688500Y-10982000D01*
X15690000Y-10008000D02*
X15710000Y-10028000D01*
X15710000Y-10008000D02*
X15690000Y-10028000D01*
X15690000Y-10085000D02*
X15710000Y-10105000D01*
X15710000Y-10085000D02*
X15690000Y-10105000D01*
X15691000Y-10724000D02*
X15711000Y-10744000D01*
X15711000Y-10724000D02*
X15691000Y-10744000D01*
X15691000Y-9917648D02*
X15711000Y-9937648D01*
X15711000Y-9917648D02*
X15691000Y-9937648D01*
X15691196Y-10403767D02*
X15711196Y-10423767D01*
X15711196Y-10403767D02*
X15691196Y-10423767D01*
X15692000Y-10325000D02*
X15712000Y-10345000D01*
X15712000Y-10325000D02*
X15692000Y-10345000D01*
X15695000Y-10165000D02*
X15715000Y-10185000D01*
X15715000Y-10165000D02*
X15695000Y-10185000D01*
X15695000Y-10805000D02*
X15715000Y-10825000D01*
X15715000Y-10805000D02*
X15695000Y-10825000D01*
X15697500Y-8890000D02*
X15717500Y-8910000D01*
X15717500Y-8890000D02*
X15697500Y-8910000D01*
X15717800Y-9580350D02*
X15737800Y-9600350D01*
X15737800Y-9580350D02*
X15717800Y-9600350D01*
X15752500Y-9727500D02*
X15772500Y-9747500D01*
X15772500Y-9727500D02*
X15752500Y-9747500D01*
X15755000Y-11387500D02*
X15775000Y-11407500D01*
X15775000Y-11387500D02*
X15755000Y-11407500D01*
X15762500Y-8837500D02*
X15782500Y-8857500D01*
X15782500Y-8837500D02*
X15762500Y-8857500D01*
X15765000Y-8047500D02*
X15785000Y-8067500D01*
X15785000Y-8047500D02*
X15765000Y-8067500D01*
X15768954Y-10886032D02*
X15788954Y-10906032D01*
X15788954Y-10886032D02*
X15768954Y-10906032D01*
X15770000Y-9842500D02*
X15790000Y-9862500D01*
X15790000Y-9842500D02*
X15770000Y-9862500D01*
X15772500Y-10725000D02*
X15792500Y-10745000D01*
X15792500Y-10725000D02*
X15772500Y-10745000D01*
X15773000Y-10565000D02*
X15793000Y-10585000D01*
X15793000Y-10565000D02*
X15773000Y-10585000D01*
X15775000Y-11547500D02*
X15795000Y-11567500D01*
X15795000Y-11547500D02*
X15775000Y-11567500D01*
X15777000Y-10965000D02*
X15797000Y-10985000D01*
X15797000Y-10965000D02*
X15777000Y-10985000D01*
X15784859Y-10319606D02*
X15804859Y-10339606D01*
X15804859Y-10319606D02*
X15784859Y-10339606D01*
X15822500Y-8772500D02*
X15842500Y-8792500D01*
X15842500Y-8772500D02*
X15822500Y-8792500D01*
X15825000Y-8022500D02*
X15845000Y-8042500D01*
X15845000Y-8022500D02*
X15825000Y-8042500D01*
X15849521Y-9844521D02*
X15869521Y-9864521D01*
X15869521Y-9844521D02*
X15849521Y-9864521D01*
X15850000Y-10085500D02*
X15870000Y-10105500D01*
X15870000Y-10085500D02*
X15850000Y-10105500D01*
X15850000Y-10565000D02*
X15870000Y-10585000D01*
X15870000Y-10565000D02*
X15850000Y-10585000D01*
X15850000Y-10645000D02*
X15870000Y-10665000D01*
X15870000Y-10645000D02*
X15850000Y-10665000D01*
X15851363Y-9998082D02*
X15871363Y-10018082D01*
X15871363Y-9998082D02*
X15851363Y-10018082D01*
X15852500Y-11547500D02*
X15872500Y-11567500D01*
X15872500Y-11547500D02*
X15852500Y-11567500D01*
X15855000Y-10965000D02*
X15875000Y-10985000D01*
X15875000Y-10965000D02*
X15855000Y-10985000D01*
X15857500Y-9730000D02*
X15877500Y-9750000D01*
X15877500Y-9730000D02*
X15857500Y-9750000D01*
X15887500Y-8042500D02*
X15907500Y-8062500D01*
X15907500Y-8042500D02*
X15887500Y-8062500D01*
X15888500Y-8737430D02*
X15908500Y-8757430D01*
X15908500Y-8737430D02*
X15888500Y-8757430D01*
X15902500Y-12292500D02*
X15922500Y-12312500D01*
X15922500Y-12292500D02*
X15902500Y-12312500D01*
X15905000Y-11145000D02*
X15925000Y-11165000D01*
X15925000Y-11145000D02*
X15905000Y-11165000D01*
X15905000Y-11942500D02*
X15925000Y-11962500D01*
X15925000Y-11942500D02*
X15905000Y-11962500D01*
X15907500Y-12046000D02*
X15927500Y-12066000D01*
X15927500Y-12046000D02*
X15907500Y-12066000D01*
X15922500Y-11820000D02*
X15942500Y-11840000D01*
X15942500Y-11820000D02*
X15922500Y-11840000D01*
X15949700Y-9737500D02*
X15969700Y-9757500D01*
X15969700Y-9737500D02*
X15949700Y-9757500D01*
X15955000Y-11065000D02*
X15975000Y-11085000D01*
X15975000Y-11065000D02*
X15955000Y-11085000D01*
X15969398Y-8737300D02*
X15989398Y-8757300D01*
X15989398Y-8737300D02*
X15969398Y-8757300D01*
X15970000Y-10950000D02*
X15990000Y-10970000D01*
X15990000Y-10950000D02*
X15970000Y-10970000D01*
X15992500Y-11707500D02*
X16012500Y-11727500D01*
X16012500Y-11707500D02*
X15992500Y-11727500D01*
X15995000Y-10440000D02*
X16015000Y-10460000D01*
X16015000Y-10440000D02*
X15995000Y-10460000D01*
X15997499Y-10174999D02*
X16017499Y-10194999D01*
X16017499Y-10174999D02*
X15997499Y-10194999D01*
X15997500Y-10535000D02*
X16017500Y-10555000D01*
X16017500Y-10535000D02*
X15997500Y-10555000D01*
X16000000Y-8472500D02*
X16020000Y-8492500D01*
X16020000Y-8472500D02*
X16000000Y-8492500D01*
X16000000Y-10825000D02*
X16020000Y-10845000D01*
X16020000Y-10825000D02*
X16000000Y-10845000D01*
X16002500Y-8212500D02*
X16022500Y-8232500D01*
X16022500Y-8212500D02*
X16002500Y-8232500D01*
X16002500Y-8345000D02*
X16022500Y-8365000D01*
X16022500Y-8345000D02*
X16002500Y-8365000D01*
X16005000Y-10340000D02*
X16025000Y-10360000D01*
X16025000Y-10340000D02*
X16005000Y-10360000D01*
X16014398Y-8669800D02*
X16034398Y-8689800D01*
X16034398Y-8669800D02*
X16014398Y-8689800D01*
X16064398Y-8737300D02*
X16084398Y-8757300D01*
X16084398Y-8737300D02*
X16064398Y-8757300D01*
X16072500Y-11707500D02*
X16092500Y-11727500D01*
X16092500Y-11707500D02*
X16072500Y-11727500D01*
X16090000Y-11387500D02*
X16110000Y-11407500D01*
X16110000Y-11387500D02*
X16090000Y-11407500D01*
X16100000Y-11945000D02*
X16120000Y-11965000D01*
X16120000Y-11945000D02*
X16100000Y-11965000D01*
X16100000Y-12046000D02*
X16120000Y-12066000D01*
X16120000Y-12046000D02*
X16100000Y-12066000D01*
X16102500Y-12292500D02*
X16122500Y-12312500D01*
X16122500Y-12292500D02*
X16102500Y-12312500D01*
X16115000Y-10057500D02*
X16135000Y-10077500D01*
X16135000Y-10057500D02*
X16115000Y-10077500D01*
X16120000Y-10290000D02*
X16140000Y-10310000D01*
X16140000Y-10290000D02*
X16120000Y-10310000D01*
X16120000Y-10390000D02*
X16140000Y-10410000D01*
X16140000Y-10390000D02*
X16120000Y-10410000D01*
X16120000Y-10485000D02*
X16140000Y-10505000D01*
X16140000Y-10485000D02*
X16120000Y-10505000D01*
X16120000Y-10586000D02*
X16140000Y-10606000D01*
X16140000Y-10586000D02*
X16120000Y-10606000D01*
X16120000Y-10677000D02*
X16140000Y-10697000D01*
X16140000Y-10677000D02*
X16120000Y-10697000D01*
X16120000Y-10872000D02*
X16140000Y-10892000D01*
X16140000Y-10872000D02*
X16120000Y-10892000D01*
X16120000Y-10969500D02*
X16140000Y-10989500D01*
X16140000Y-10969500D02*
X16120000Y-10989500D01*
X16122500Y-10779500D02*
X16142500Y-10799500D01*
X16142500Y-10779500D02*
X16122500Y-10799500D01*
X16202150Y-10670050D02*
X16222150Y-10690050D01*
X16222150Y-10670050D02*
X16202150Y-10690050D01*
X16215000Y-9967500D02*
X16235000Y-9987500D01*
X16235000Y-9967500D02*
X16215000Y-9987500D01*
X16217500Y-10070000D02*
X16237500Y-10090000D01*
X16237500Y-10070000D02*
X16217500Y-10090000D01*
X16217500Y-10267200D02*
X16237500Y-10287200D01*
X16237500Y-10267200D02*
X16217500Y-10287200D01*
X16220000Y-10165000D02*
X16240000Y-10185000D01*
X16240000Y-10165000D02*
X16220000Y-10185000D01*
X16240000Y-11015000D02*
X16260000Y-11035000D01*
X16260000Y-11015000D02*
X16240000Y-11035000D01*
D10*
X11515000Y-7667500D02*
G75*
G03*
X11515000Y-7667500I-50000J0D01*
G01*
X11515000Y-7921500D02*
G75*
G03*
X11515000Y-7921500I-50000J0D01*
G01*
X11515000Y-8175500D02*
G75*
G03*
X11515000Y-8175500I-50000J0D01*
G01*
X11515000Y-8429500D02*
G75*
G03*
X11515000Y-8429500I-50000J0D01*
G01*
X11515000Y-8683500D02*
G75*
G03*
X11515000Y-8683500I-50000J0D01*
G01*
X11515000Y-8937500D02*
G75*
G03*
X11515000Y-8937500I-50000J0D01*
G01*
X11515000Y-9191500D02*
G75*
G03*
X11515000Y-9191500I-50000J0D01*
G01*
X11515000Y-9445500D02*
G75*
G03*
X11515000Y-9445500I-50000J0D01*
G01*
X11515000Y-9699500D02*
G75*
G03*
X11515000Y-9699500I-50000J0D01*
G01*
X11515000Y-9953500D02*
G75*
G03*
X11515000Y-9953500I-50000J0D01*
G01*
X11515000Y-10207500D02*
G75*
G03*
X11515000Y-10207500I-50000J0D01*
G01*
X11515000Y-10461500D02*
G75*
G03*
X11515000Y-10461500I-50000J0D01*
G01*
X11515000Y-10715500D02*
G75*
G03*
X11515000Y-10715500I-50000J0D01*
G01*
X11515000Y-10969500D02*
G75*
G03*
X11515000Y-10969500I-50000J0D01*
G01*
X11515000Y-11223500D02*
G75*
G03*
X11515000Y-11223500I-50000J0D01*
G01*
X11515000Y-11477500D02*
G75*
G03*
X11515000Y-11477500I-50000J0D01*
G01*
X11515000Y-11731500D02*
G75*
G03*
X11515000Y-11731500I-50000J0D01*
G01*
X11515000Y-11985500D02*
G75*
G03*
X11515000Y-11985500I-50000J0D01*
G01*
X11515000Y-12239500D02*
G75*
G03*
X11515000Y-12239500I-50000J0D01*
G01*
X11515000Y-12493500D02*
G75*
G03*
X11515000Y-12493500I-50000J0D01*
G01*
X11834500Y-12825000D02*
G75*
G03*
X11834500Y-12825000I-50000J0D01*
G01*
X12088500Y-12825000D02*
G75*
G03*
X12088500Y-12825000I-50000J0D01*
G01*
X12342500Y-12825000D02*
G75*
G03*
X12342500Y-12825000I-50000J0D01*
G01*
X12596500Y-12825000D02*
G75*
G03*
X12596500Y-12825000I-50000J0D01*
G01*
X12850500Y-12825000D02*
G75*
G03*
X12850500Y-12825000I-50000J0D01*
G01*
X13104500Y-12825000D02*
G75*
G03*
X13104500Y-12825000I-50000J0D01*
G01*
X13358500Y-12825000D02*
G75*
G03*
X13358500Y-12825000I-50000J0D01*
G01*
X13612500Y-12825000D02*
G75*
G03*
X13612500Y-12825000I-50000J0D01*
G01*
X13866500Y-12825000D02*
G75*
G03*
X13866500Y-12825000I-50000J0D01*
G01*
X14120500Y-12825000D02*
G75*
G03*
X14120500Y-12825000I-50000J0D01*
G01*
X14374500Y-12825000D02*
G75*
G03*
X14374500Y-12825000I-50000J0D01*
G01*
X14628500Y-12825000D02*
G75*
G03*
X14628500Y-12825000I-50000J0D01*
G01*
X14882500Y-12825000D02*
G75*
G03*
X14882500Y-12825000I-50000J0D01*
G01*
X15136500Y-12825000D02*
G75*
G03*
X15136500Y-12825000I-50000J0D01*
G01*
X15390500Y-12825000D02*
G75*
G03*
X15390500Y-12825000I-50000J0D01*
G01*
X15644500Y-12825000D02*
G75*
G03*
X15644500Y-12825000I-50000J0D01*
G01*
X15898500Y-12825000D02*
G75*
G03*
X15898500Y-12825000I-50000J0D01*
G01*
X16152500Y-12825000D02*
G75*
G03*
X16152500Y-12825000I-50000J0D01*
G01*
X16512500Y-7668000D02*
G75*
G03*
X16512500Y-7668000I-50000J0D01*
G01*
X16512500Y-7922000D02*
G75*
G03*
X16512500Y-7922000I-50000J0D01*
G01*
X16512500Y-8176000D02*
G75*
G03*
X16512500Y-8176000I-50000J0D01*
G01*
X16512500Y-8430000D02*
G75*
G03*
X16512500Y-8430000I-50000J0D01*
G01*
X16512500Y-8684000D02*
G75*
G03*
X16512500Y-8684000I-50000J0D01*
G01*
X16512500Y-8938000D02*
G75*
G03*
X16512500Y-8938000I-50000J0D01*
G01*
X16512500Y-9192000D02*
G75*
G03*
X16512500Y-9192000I-50000J0D01*
G01*
X16512500Y-9446000D02*
G75*
G03*
X16512500Y-9446000I-50000J0D01*
G01*
X16512500Y-9700000D02*
G75*
G03*
X16512500Y-9700000I-50000J0D01*
G01*
X16512500Y-9954000D02*
G75*
G03*
X16512500Y-9954000I-50000J0D01*
G01*
X16512500Y-10208000D02*
G75*
G03*
X16512500Y-10208000I-50000J0D01*
G01*
X16512500Y-10462000D02*
G75*
G03*
X16512500Y-10462000I-50000J0D01*
G01*
X16512500Y-10716000D02*
G75*
G03*
X16512500Y-10716000I-50000J0D01*
G01*
X16512500Y-10970000D02*
G75*
G03*
X16512500Y-10970000I-50000J0D01*
G01*
X16512500Y-11224000D02*
G75*
G03*
X16512500Y-11224000I-50000J0D01*
G01*
X16512500Y-11478000D02*
G75*
G03*
X16512500Y-11478000I-50000J0D01*
G01*
X16512500Y-11732000D02*
G75*
G03*
X16512500Y-11732000I-50000J0D01*
G01*
X16512500Y-11986000D02*
G75*
G03*
X16512500Y-11986000I-50000J0D01*
G01*
X16512500Y-12240000D02*
G75*
G03*
X16512500Y-12240000I-50000J0D01*
G01*
X16512500Y-12494000D02*
G75*
G03*
X16512500Y-12494000I-50000J0D01*
G01*
D11*
X11707619Y-13128476D02*
X11707619Y-12928476D01*
X11707619Y-12928476D02*
X11755238Y-12928476D01*
X11755238Y-12928476D02*
X11783809Y-12938000D01*
X11783809Y-12938000D02*
X11802857Y-12957048D01*
X11802857Y-12957048D02*
X11812381Y-12976095D01*
X11812381Y-12976095D02*
X11821905Y-13014190D01*
X11821905Y-13014190D02*
X11821905Y-13042762D01*
X11821905Y-13042762D02*
X11812381Y-13080857D01*
X11812381Y-13080857D02*
X11802857Y-13099905D01*
X11802857Y-13099905D02*
X11783809Y-13118952D01*
X11783809Y-13118952D02*
X11755238Y-13128476D01*
X11755238Y-13128476D02*
X11707619Y-13128476D01*
X11907619Y-13128476D02*
X11907619Y-12995143D01*
X11907619Y-13033238D02*
X11917143Y-13014190D01*
X11917143Y-13014190D02*
X11926667Y-13004667D01*
X11926667Y-13004667D02*
X11945714Y-12995143D01*
X11945714Y-12995143D02*
X11964762Y-12995143D01*
X12031428Y-13128476D02*
X12031428Y-12995143D01*
X12031428Y-12928476D02*
X12021905Y-12938000D01*
X12021905Y-12938000D02*
X12031428Y-12947524D01*
X12031428Y-12947524D02*
X12040952Y-12938000D01*
X12040952Y-12938000D02*
X12031428Y-12928476D01*
X12031428Y-12928476D02*
X12031428Y-12947524D01*
X12155238Y-13128476D02*
X12136190Y-13118952D01*
X12136190Y-13118952D02*
X12126667Y-13099905D01*
X12126667Y-13099905D02*
X12126667Y-12928476D01*
X12260000Y-13128476D02*
X12240952Y-13118952D01*
X12240952Y-13118952D02*
X12231428Y-13099905D01*
X12231428Y-13099905D02*
X12231428Y-12928476D01*
X12456190Y-13128476D02*
X12456190Y-12928476D01*
X12456190Y-12928476D02*
X12522857Y-13071333D01*
X12522857Y-13071333D02*
X12589524Y-12928476D01*
X12589524Y-12928476D02*
X12589524Y-13128476D01*
X12770476Y-13128476D02*
X12770476Y-13023714D01*
X12770476Y-13023714D02*
X12760952Y-13004667D01*
X12760952Y-13004667D02*
X12741905Y-12995143D01*
X12741905Y-12995143D02*
X12703809Y-12995143D01*
X12703809Y-12995143D02*
X12684762Y-13004667D01*
X12770476Y-13118952D02*
X12751428Y-13128476D01*
X12751428Y-13128476D02*
X12703809Y-13128476D01*
X12703809Y-13128476D02*
X12684762Y-13118952D01*
X12684762Y-13118952D02*
X12675238Y-13099905D01*
X12675238Y-13099905D02*
X12675238Y-13080857D01*
X12675238Y-13080857D02*
X12684762Y-13061809D01*
X12684762Y-13061809D02*
X12703809Y-13052286D01*
X12703809Y-13052286D02*
X12751428Y-13052286D01*
X12751428Y-13052286D02*
X12770476Y-13042762D01*
X12865714Y-12995143D02*
X12865714Y-13195143D01*
X12865714Y-13004667D02*
X12884762Y-12995143D01*
X12884762Y-12995143D02*
X12922857Y-12995143D01*
X12922857Y-12995143D02*
X12941905Y-13004667D01*
X12941905Y-13004667D02*
X12951428Y-13014190D01*
X12951428Y-13014190D02*
X12960952Y-13033238D01*
X12960952Y-13033238D02*
X12960952Y-13090381D01*
X12960952Y-13090381D02*
X12951428Y-13109428D01*
X12951428Y-13109428D02*
X12941905Y-13118952D01*
X12941905Y-13118952D02*
X12922857Y-13128476D01*
X12922857Y-13128476D02*
X12884762Y-13128476D01*
X12884762Y-13128476D02*
X12865714Y-13118952D01*
X13046667Y-13109428D02*
X13056190Y-13118952D01*
X13056190Y-13118952D02*
X13046667Y-13128476D01*
X13046667Y-13128476D02*
X13037143Y-13118952D01*
X13037143Y-13118952D02*
X13046667Y-13109428D01*
X13046667Y-13109428D02*
X13046667Y-13128476D01*
X13046667Y-13004667D02*
X13056190Y-13014190D01*
X13056190Y-13014190D02*
X13046667Y-13023714D01*
X13046667Y-13023714D02*
X13037143Y-13014190D01*
X13037143Y-13014190D02*
X13046667Y-13004667D01*
X13046667Y-13004667D02*
X13046667Y-13023714D01*
D12*
X11440000Y-13465000D02*
X11460000Y-13485000D01*
X11460000Y-13465000D02*
X11440000Y-13485000D01*
D11*
X11745714Y-13348476D02*
X11764762Y-13348476D01*
X11764762Y-13348476D02*
X11783809Y-13358000D01*
X11783809Y-13358000D02*
X11793333Y-13367524D01*
X11793333Y-13367524D02*
X11802857Y-13386571D01*
X11802857Y-13386571D02*
X11812381Y-13424667D01*
X11812381Y-13424667D02*
X11812381Y-13472286D01*
X11812381Y-13472286D02*
X11802857Y-13510381D01*
X11802857Y-13510381D02*
X11793333Y-13529428D01*
X11793333Y-13529428D02*
X11783809Y-13538952D01*
X11783809Y-13538952D02*
X11764762Y-13548476D01*
X11764762Y-13548476D02*
X11745714Y-13548476D01*
X11745714Y-13548476D02*
X11726667Y-13538952D01*
X11726667Y-13538952D02*
X11717143Y-13529428D01*
X11717143Y-13529428D02*
X11707619Y-13510381D01*
X11707619Y-13510381D02*
X11698095Y-13472286D01*
X11698095Y-13472286D02*
X11698095Y-13424667D01*
X11698095Y-13424667D02*
X11707619Y-13386571D01*
X11707619Y-13386571D02*
X11717143Y-13367524D01*
X11717143Y-13367524D02*
X11726667Y-13358000D01*
X11726667Y-13358000D02*
X11745714Y-13348476D01*
X11898095Y-13529428D02*
X11907619Y-13538952D01*
X11907619Y-13538952D02*
X11898095Y-13548476D01*
X11898095Y-13548476D02*
X11888571Y-13538952D01*
X11888571Y-13538952D02*
X11898095Y-13529428D01*
X11898095Y-13529428D02*
X11898095Y-13548476D01*
X11983809Y-13367524D02*
X11993333Y-13358000D01*
X11993333Y-13358000D02*
X12012381Y-13348476D01*
X12012381Y-13348476D02*
X12060000Y-13348476D01*
X12060000Y-13348476D02*
X12079048Y-13358000D01*
X12079048Y-13358000D02*
X12088571Y-13367524D01*
X12088571Y-13367524D02*
X12098095Y-13386571D01*
X12098095Y-13386571D02*
X12098095Y-13405619D01*
X12098095Y-13405619D02*
X12088571Y-13434190D01*
X12088571Y-13434190D02*
X11974286Y-13548476D01*
X11974286Y-13548476D02*
X12098095Y-13548476D01*
X12221905Y-13348476D02*
X12240952Y-13348476D01*
X12240952Y-13348476D02*
X12260000Y-13358000D01*
X12260000Y-13358000D02*
X12269524Y-13367524D01*
X12269524Y-13367524D02*
X12279048Y-13386571D01*
X12279048Y-13386571D02*
X12288571Y-13424667D01*
X12288571Y-13424667D02*
X12288571Y-13472286D01*
X12288571Y-13472286D02*
X12279048Y-13510381D01*
X12279048Y-13510381D02*
X12269524Y-13529428D01*
X12269524Y-13529428D02*
X12260000Y-13538952D01*
X12260000Y-13538952D02*
X12240952Y-13548476D01*
X12240952Y-13548476D02*
X12221905Y-13548476D01*
X12221905Y-13548476D02*
X12202857Y-13538952D01*
X12202857Y-13538952D02*
X12193333Y-13529428D01*
X12193333Y-13529428D02*
X12183809Y-13510381D01*
X12183809Y-13510381D02*
X12174286Y-13472286D01*
X12174286Y-13472286D02*
X12174286Y-13424667D01*
X12174286Y-13424667D02*
X12183809Y-13386571D01*
X12183809Y-13386571D02*
X12193333Y-13367524D01*
X12193333Y-13367524D02*
X12202857Y-13358000D01*
X12202857Y-13358000D02*
X12221905Y-13348476D01*
X12412381Y-13348476D02*
X12431429Y-13348476D01*
X12431429Y-13348476D02*
X12450476Y-13358000D01*
X12450476Y-13358000D02*
X12460000Y-13367524D01*
X12460000Y-13367524D02*
X12469524Y-13386571D01*
X12469524Y-13386571D02*
X12479048Y-13424667D01*
X12479048Y-13424667D02*
X12479048Y-13472286D01*
X12479048Y-13472286D02*
X12469524Y-13510381D01*
X12469524Y-13510381D02*
X12460000Y-13529428D01*
X12460000Y-13529428D02*
X12450476Y-13538952D01*
X12450476Y-13538952D02*
X12431429Y-13548476D01*
X12431429Y-13548476D02*
X12412381Y-13548476D01*
X12412381Y-13548476D02*
X12393333Y-13538952D01*
X12393333Y-13538952D02*
X12383809Y-13529428D01*
X12383809Y-13529428D02*
X12374286Y-13510381D01*
X12374286Y-13510381D02*
X12364762Y-13472286D01*
X12364762Y-13472286D02*
X12364762Y-13424667D01*
X12364762Y-13424667D02*
X12374286Y-13386571D01*
X12374286Y-13386571D02*
X12383809Y-13367524D01*
X12383809Y-13367524D02*
X12393333Y-13358000D01*
X12393333Y-13358000D02*
X12412381Y-13348476D01*
X12564762Y-13548476D02*
X12564762Y-13415143D01*
X12564762Y-13434190D02*
X12574286Y-13424667D01*
X12574286Y-13424667D02*
X12593333Y-13415143D01*
X12593333Y-13415143D02*
X12621905Y-13415143D01*
X12621905Y-13415143D02*
X12640952Y-13424667D01*
X12640952Y-13424667D02*
X12650476Y-13443714D01*
X12650476Y-13443714D02*
X12650476Y-13548476D01*
X12650476Y-13443714D02*
X12660000Y-13424667D01*
X12660000Y-13424667D02*
X12679048Y-13415143D01*
X12679048Y-13415143D02*
X12707619Y-13415143D01*
X12707619Y-13415143D02*
X12726667Y-13424667D01*
X12726667Y-13424667D02*
X12736190Y-13443714D01*
X12736190Y-13443714D02*
X12736190Y-13548476D01*
X12831429Y-13548476D02*
X12831429Y-13415143D01*
X12831429Y-13434190D02*
X12840952Y-13424667D01*
X12840952Y-13424667D02*
X12860000Y-13415143D01*
X12860000Y-13415143D02*
X12888571Y-13415143D01*
X12888571Y-13415143D02*
X12907619Y-13424667D01*
X12907619Y-13424667D02*
X12917143Y-13443714D01*
X12917143Y-13443714D02*
X12917143Y-13548476D01*
X12917143Y-13443714D02*
X12926667Y-13424667D01*
X12926667Y-13424667D02*
X12945714Y-13415143D01*
X12945714Y-13415143D02*
X12974286Y-13415143D01*
X12974286Y-13415143D02*
X12993333Y-13424667D01*
X12993333Y-13424667D02*
X13002857Y-13443714D01*
X13002857Y-13443714D02*
X13002857Y-13548476D01*
X13360952Y-13338952D02*
X13189524Y-13596095D01*
X13585714Y-13348476D02*
X13604762Y-13348476D01*
X13604762Y-13348476D02*
X13623810Y-13358000D01*
X13623810Y-13358000D02*
X13633333Y-13367524D01*
X13633333Y-13367524D02*
X13642857Y-13386571D01*
X13642857Y-13386571D02*
X13652381Y-13424667D01*
X13652381Y-13424667D02*
X13652381Y-13472286D01*
X13652381Y-13472286D02*
X13642857Y-13510381D01*
X13642857Y-13510381D02*
X13633333Y-13529428D01*
X13633333Y-13529428D02*
X13623810Y-13538952D01*
X13623810Y-13538952D02*
X13604762Y-13548476D01*
X13604762Y-13548476D02*
X13585714Y-13548476D01*
X13585714Y-13548476D02*
X13566667Y-13538952D01*
X13566667Y-13538952D02*
X13557143Y-13529428D01*
X13557143Y-13529428D02*
X13547619Y-13510381D01*
X13547619Y-13510381D02*
X13538095Y-13472286D01*
X13538095Y-13472286D02*
X13538095Y-13424667D01*
X13538095Y-13424667D02*
X13547619Y-13386571D01*
X13547619Y-13386571D02*
X13557143Y-13367524D01*
X13557143Y-13367524D02*
X13566667Y-13358000D01*
X13566667Y-13358000D02*
X13585714Y-13348476D01*
X13738095Y-13529428D02*
X13747619Y-13538952D01*
X13747619Y-13538952D02*
X13738095Y-13548476D01*
X13738095Y-13548476D02*
X13728571Y-13538952D01*
X13728571Y-13538952D02*
X13738095Y-13529428D01*
X13738095Y-13529428D02*
X13738095Y-13548476D01*
X13871429Y-13348476D02*
X13890476Y-13348476D01*
X13890476Y-13348476D02*
X13909524Y-13358000D01*
X13909524Y-13358000D02*
X13919048Y-13367524D01*
X13919048Y-13367524D02*
X13928571Y-13386571D01*
X13928571Y-13386571D02*
X13938095Y-13424667D01*
X13938095Y-13424667D02*
X13938095Y-13472286D01*
X13938095Y-13472286D02*
X13928571Y-13510381D01*
X13928571Y-13510381D02*
X13919048Y-13529428D01*
X13919048Y-13529428D02*
X13909524Y-13538952D01*
X13909524Y-13538952D02*
X13890476Y-13548476D01*
X13890476Y-13548476D02*
X13871429Y-13548476D01*
X13871429Y-13548476D02*
X13852381Y-13538952D01*
X13852381Y-13538952D02*
X13842857Y-13529428D01*
X13842857Y-13529428D02*
X13833333Y-13510381D01*
X13833333Y-13510381D02*
X13823810Y-13472286D01*
X13823810Y-13472286D02*
X13823810Y-13424667D01*
X13823810Y-13424667D02*
X13833333Y-13386571D01*
X13833333Y-13386571D02*
X13842857Y-13367524D01*
X13842857Y-13367524D02*
X13852381Y-13358000D01*
X13852381Y-13358000D02*
X13871429Y-13348476D01*
X14061905Y-13348476D02*
X14080952Y-13348476D01*
X14080952Y-13348476D02*
X14100000Y-13358000D01*
X14100000Y-13358000D02*
X14109524Y-13367524D01*
X14109524Y-13367524D02*
X14119048Y-13386571D01*
X14119048Y-13386571D02*
X14128571Y-13424667D01*
X14128571Y-13424667D02*
X14128571Y-13472286D01*
X14128571Y-13472286D02*
X14119048Y-13510381D01*
X14119048Y-13510381D02*
X14109524Y-13529428D01*
X14109524Y-13529428D02*
X14100000Y-13538952D01*
X14100000Y-13538952D02*
X14080952Y-13548476D01*
X14080952Y-13548476D02*
X14061905Y-13548476D01*
X14061905Y-13548476D02*
X14042857Y-13538952D01*
X14042857Y-13538952D02*
X14033333Y-13529428D01*
X14033333Y-13529428D02*
X14023810Y-13510381D01*
X14023810Y-13510381D02*
X14014286Y-13472286D01*
X14014286Y-13472286D02*
X14014286Y-13424667D01*
X14014286Y-13424667D02*
X14023810Y-13386571D01*
X14023810Y-13386571D02*
X14033333Y-13367524D01*
X14033333Y-13367524D02*
X14042857Y-13358000D01*
X14042857Y-13358000D02*
X14061905Y-13348476D01*
X14195238Y-13348476D02*
X14328571Y-13348476D01*
X14328571Y-13348476D02*
X14242857Y-13548476D01*
X14414286Y-13548476D02*
X14452381Y-13548476D01*
X14452381Y-13548476D02*
X14471429Y-13538952D01*
X14471429Y-13538952D02*
X14480952Y-13529428D01*
X14480952Y-13529428D02*
X14500000Y-13500857D01*
X14500000Y-13500857D02*
X14509524Y-13462762D01*
X14509524Y-13462762D02*
X14509524Y-13386571D01*
X14509524Y-13386571D02*
X14500000Y-13367524D01*
X14500000Y-13367524D02*
X14490476Y-13358000D01*
X14490476Y-13358000D02*
X14471429Y-13348476D01*
X14471429Y-13348476D02*
X14433333Y-13348476D01*
X14433333Y-13348476D02*
X14414286Y-13358000D01*
X14414286Y-13358000D02*
X14404762Y-13367524D01*
X14404762Y-13367524D02*
X14395238Y-13386571D01*
X14395238Y-13386571D02*
X14395238Y-13434190D01*
X14395238Y-13434190D02*
X14404762Y-13453238D01*
X14404762Y-13453238D02*
X14414286Y-13462762D01*
X14414286Y-13462762D02*
X14433333Y-13472286D01*
X14433333Y-13472286D02*
X14471429Y-13472286D01*
X14471429Y-13472286D02*
X14490476Y-13462762D01*
X14490476Y-13462762D02*
X14500000Y-13453238D01*
X14500000Y-13453238D02*
X14509524Y-13434190D01*
X14585714Y-13348476D02*
X14585714Y-13386571D01*
X14661905Y-13348476D02*
X14661905Y-13386571D01*
X14924762Y-13624667D02*
X14915238Y-13615143D01*
X14915238Y-13615143D02*
X14896191Y-13586571D01*
X14896191Y-13586571D02*
X14886667Y-13567524D01*
X14886667Y-13567524D02*
X14877143Y-13538952D01*
X14877143Y-13538952D02*
X14867619Y-13491333D01*
X14867619Y-13491333D02*
X14867619Y-13453238D01*
X14867619Y-13453238D02*
X14877143Y-13405619D01*
X14877143Y-13405619D02*
X14886667Y-13377048D01*
X14886667Y-13377048D02*
X14896191Y-13358000D01*
X14896191Y-13358000D02*
X14915238Y-13329428D01*
X14915238Y-13329428D02*
X14924762Y-13319905D01*
X15086667Y-13415143D02*
X15086667Y-13548476D01*
X15039048Y-13338952D02*
X14991429Y-13481809D01*
X14991429Y-13481809D02*
X15115238Y-13481809D01*
X15277143Y-13348476D02*
X15239048Y-13348476D01*
X15239048Y-13348476D02*
X15220000Y-13358000D01*
X15220000Y-13358000D02*
X15210476Y-13367524D01*
X15210476Y-13367524D02*
X15191429Y-13396095D01*
X15191429Y-13396095D02*
X15181905Y-13434190D01*
X15181905Y-13434190D02*
X15181905Y-13510381D01*
X15181905Y-13510381D02*
X15191429Y-13529428D01*
X15191429Y-13529428D02*
X15200952Y-13538952D01*
X15200952Y-13538952D02*
X15220000Y-13548476D01*
X15220000Y-13548476D02*
X15258095Y-13548476D01*
X15258095Y-13548476D02*
X15277143Y-13538952D01*
X15277143Y-13538952D02*
X15286667Y-13529428D01*
X15286667Y-13529428D02*
X15296191Y-13510381D01*
X15296191Y-13510381D02*
X15296191Y-13462762D01*
X15296191Y-13462762D02*
X15286667Y-13443714D01*
X15286667Y-13443714D02*
X15277143Y-13434190D01*
X15277143Y-13434190D02*
X15258095Y-13424667D01*
X15258095Y-13424667D02*
X15220000Y-13424667D01*
X15220000Y-13424667D02*
X15200952Y-13434190D01*
X15200952Y-13434190D02*
X15191429Y-13443714D01*
X15191429Y-13443714D02*
X15181905Y-13462762D01*
X15467619Y-13348476D02*
X15429524Y-13348476D01*
X15429524Y-13348476D02*
X15410476Y-13358000D01*
X15410476Y-13358000D02*
X15400952Y-13367524D01*
X15400952Y-13367524D02*
X15381905Y-13396095D01*
X15381905Y-13396095D02*
X15372381Y-13434190D01*
X15372381Y-13434190D02*
X15372381Y-13510381D01*
X15372381Y-13510381D02*
X15381905Y-13529428D01*
X15381905Y-13529428D02*
X15391429Y-13538952D01*
X15391429Y-13538952D02*
X15410476Y-13548476D01*
X15410476Y-13548476D02*
X15448572Y-13548476D01*
X15448572Y-13548476D02*
X15467619Y-13538952D01*
X15467619Y-13538952D02*
X15477143Y-13529428D01*
X15477143Y-13529428D02*
X15486667Y-13510381D01*
X15486667Y-13510381D02*
X15486667Y-13462762D01*
X15486667Y-13462762D02*
X15477143Y-13443714D01*
X15477143Y-13443714D02*
X15467619Y-13434190D01*
X15467619Y-13434190D02*
X15448572Y-13424667D01*
X15448572Y-13424667D02*
X15410476Y-13424667D01*
X15410476Y-13424667D02*
X15391429Y-13434190D01*
X15391429Y-13434190D02*
X15381905Y-13443714D01*
X15381905Y-13443714D02*
X15372381Y-13462762D01*
X15692381Y-13548476D02*
X15692381Y-13348476D01*
X15778095Y-13548476D02*
X15778095Y-13443714D01*
X15778095Y-13443714D02*
X15768572Y-13424667D01*
X15768572Y-13424667D02*
X15749524Y-13415143D01*
X15749524Y-13415143D02*
X15720952Y-13415143D01*
X15720952Y-13415143D02*
X15701905Y-13424667D01*
X15701905Y-13424667D02*
X15692381Y-13434190D01*
X15901905Y-13548476D02*
X15882857Y-13538952D01*
X15882857Y-13538952D02*
X15873333Y-13529428D01*
X15873333Y-13529428D02*
X15863810Y-13510381D01*
X15863810Y-13510381D02*
X15863810Y-13453238D01*
X15863810Y-13453238D02*
X15873333Y-13434190D01*
X15873333Y-13434190D02*
X15882857Y-13424667D01*
X15882857Y-13424667D02*
X15901905Y-13415143D01*
X15901905Y-13415143D02*
X15930476Y-13415143D01*
X15930476Y-13415143D02*
X15949524Y-13424667D01*
X15949524Y-13424667D02*
X15959048Y-13434190D01*
X15959048Y-13434190D02*
X15968572Y-13453238D01*
X15968572Y-13453238D02*
X15968572Y-13510381D01*
X15968572Y-13510381D02*
X15959048Y-13529428D01*
X15959048Y-13529428D02*
X15949524Y-13538952D01*
X15949524Y-13538952D02*
X15930476Y-13548476D01*
X15930476Y-13548476D02*
X15901905Y-13548476D01*
X16082857Y-13548476D02*
X16063810Y-13538952D01*
X16063810Y-13538952D02*
X16054286Y-13519905D01*
X16054286Y-13519905D02*
X16054286Y-13348476D01*
X16235238Y-13538952D02*
X16216191Y-13548476D01*
X16216191Y-13548476D02*
X16178095Y-13548476D01*
X16178095Y-13548476D02*
X16159048Y-13538952D01*
X16159048Y-13538952D02*
X16149524Y-13519905D01*
X16149524Y-13519905D02*
X16149524Y-13443714D01*
X16149524Y-13443714D02*
X16159048Y-13424667D01*
X16159048Y-13424667D02*
X16178095Y-13415143D01*
X16178095Y-13415143D02*
X16216191Y-13415143D01*
X16216191Y-13415143D02*
X16235238Y-13424667D01*
X16235238Y-13424667D02*
X16244762Y-13443714D01*
X16244762Y-13443714D02*
X16244762Y-13462762D01*
X16244762Y-13462762D02*
X16149524Y-13481809D01*
X16320953Y-13538952D02*
X16340000Y-13548476D01*
X16340000Y-13548476D02*
X16378095Y-13548476D01*
X16378095Y-13548476D02*
X16397143Y-13538952D01*
X16397143Y-13538952D02*
X16406667Y-13519905D01*
X16406667Y-13519905D02*
X16406667Y-13510381D01*
X16406667Y-13510381D02*
X16397143Y-13491333D01*
X16397143Y-13491333D02*
X16378095Y-13481809D01*
X16378095Y-13481809D02*
X16349524Y-13481809D01*
X16349524Y-13481809D02*
X16330476Y-13472286D01*
X16330476Y-13472286D02*
X16320953Y-13453238D01*
X16320953Y-13453238D02*
X16320953Y-13443714D01*
X16320953Y-13443714D02*
X16330476Y-13424667D01*
X16330476Y-13424667D02*
X16349524Y-13415143D01*
X16349524Y-13415143D02*
X16378095Y-13415143D01*
X16378095Y-13415143D02*
X16397143Y-13424667D01*
X16473334Y-13624667D02*
X16482857Y-13615143D01*
X16482857Y-13615143D02*
X16501905Y-13586571D01*
X16501905Y-13586571D02*
X16511429Y-13567524D01*
X16511429Y-13567524D02*
X16520953Y-13538952D01*
X16520953Y-13538952D02*
X16530476Y-13491333D01*
X16530476Y-13491333D02*
X16530476Y-13453238D01*
X16530476Y-13453238D02*
X16520953Y-13405619D01*
X16520953Y-13405619D02*
X16511429Y-13377048D01*
X16511429Y-13377048D02*
X16501905Y-13358000D01*
X16501905Y-13358000D02*
X16482857Y-13329428D01*
X16482857Y-13329428D02*
X16473334Y-13319905D01*
D10*
X11460000Y-13739000D02*
G75*
G03*
X11460000Y-13739000I-50000J0D01*
G01*
D11*
X11812381Y-13812476D02*
X11698095Y-13812476D01*
X11755238Y-13812476D02*
X11755238Y-13612476D01*
X11755238Y-13612476D02*
X11736190Y-13641048D01*
X11736190Y-13641048D02*
X11717143Y-13660095D01*
X11717143Y-13660095D02*
X11698095Y-13669619D01*
X11898095Y-13793428D02*
X11907619Y-13802952D01*
X11907619Y-13802952D02*
X11898095Y-13812476D01*
X11898095Y-13812476D02*
X11888571Y-13802952D01*
X11888571Y-13802952D02*
X11898095Y-13793428D01*
X11898095Y-13793428D02*
X11898095Y-13812476D01*
X12031428Y-13612476D02*
X12050476Y-13612476D01*
X12050476Y-13612476D02*
X12069524Y-13622000D01*
X12069524Y-13622000D02*
X12079048Y-13631524D01*
X12079048Y-13631524D02*
X12088571Y-13650571D01*
X12088571Y-13650571D02*
X12098095Y-13688667D01*
X12098095Y-13688667D02*
X12098095Y-13736286D01*
X12098095Y-13736286D02*
X12088571Y-13774381D01*
X12088571Y-13774381D02*
X12079048Y-13793428D01*
X12079048Y-13793428D02*
X12069524Y-13802952D01*
X12069524Y-13802952D02*
X12050476Y-13812476D01*
X12050476Y-13812476D02*
X12031428Y-13812476D01*
X12031428Y-13812476D02*
X12012381Y-13802952D01*
X12012381Y-13802952D02*
X12002857Y-13793428D01*
X12002857Y-13793428D02*
X11993333Y-13774381D01*
X11993333Y-13774381D02*
X11983809Y-13736286D01*
X11983809Y-13736286D02*
X11983809Y-13688667D01*
X11983809Y-13688667D02*
X11993333Y-13650571D01*
X11993333Y-13650571D02*
X12002857Y-13631524D01*
X12002857Y-13631524D02*
X12012381Y-13622000D01*
X12012381Y-13622000D02*
X12031428Y-13612476D01*
X12221905Y-13612476D02*
X12240952Y-13612476D01*
X12240952Y-13612476D02*
X12260000Y-13622000D01*
X12260000Y-13622000D02*
X12269524Y-13631524D01*
X12269524Y-13631524D02*
X12279048Y-13650571D01*
X12279048Y-13650571D02*
X12288571Y-13688667D01*
X12288571Y-13688667D02*
X12288571Y-13736286D01*
X12288571Y-13736286D02*
X12279048Y-13774381D01*
X12279048Y-13774381D02*
X12269524Y-13793428D01*
X12269524Y-13793428D02*
X12260000Y-13802952D01*
X12260000Y-13802952D02*
X12240952Y-13812476D01*
X12240952Y-13812476D02*
X12221905Y-13812476D01*
X12221905Y-13812476D02*
X12202857Y-13802952D01*
X12202857Y-13802952D02*
X12193333Y-13793428D01*
X12193333Y-13793428D02*
X12183809Y-13774381D01*
X12183809Y-13774381D02*
X12174286Y-13736286D01*
X12174286Y-13736286D02*
X12174286Y-13688667D01*
X12174286Y-13688667D02*
X12183809Y-13650571D01*
X12183809Y-13650571D02*
X12193333Y-13631524D01*
X12193333Y-13631524D02*
X12202857Y-13622000D01*
X12202857Y-13622000D02*
X12221905Y-13612476D01*
X12412381Y-13612476D02*
X12431429Y-13612476D01*
X12431429Y-13612476D02*
X12450476Y-13622000D01*
X12450476Y-13622000D02*
X12460000Y-13631524D01*
X12460000Y-13631524D02*
X12469524Y-13650571D01*
X12469524Y-13650571D02*
X12479048Y-13688667D01*
X12479048Y-13688667D02*
X12479048Y-13736286D01*
X12479048Y-13736286D02*
X12469524Y-13774381D01*
X12469524Y-13774381D02*
X12460000Y-13793428D01*
X12460000Y-13793428D02*
X12450476Y-13802952D01*
X12450476Y-13802952D02*
X12431429Y-13812476D01*
X12431429Y-13812476D02*
X12412381Y-13812476D01*
X12412381Y-13812476D02*
X12393333Y-13802952D01*
X12393333Y-13802952D02*
X12383809Y-13793428D01*
X12383809Y-13793428D02*
X12374286Y-13774381D01*
X12374286Y-13774381D02*
X12364762Y-13736286D01*
X12364762Y-13736286D02*
X12364762Y-13688667D01*
X12364762Y-13688667D02*
X12374286Y-13650571D01*
X12374286Y-13650571D02*
X12383809Y-13631524D01*
X12383809Y-13631524D02*
X12393333Y-13622000D01*
X12393333Y-13622000D02*
X12412381Y-13612476D01*
X12564762Y-13812476D02*
X12564762Y-13679143D01*
X12564762Y-13698190D02*
X12574286Y-13688667D01*
X12574286Y-13688667D02*
X12593333Y-13679143D01*
X12593333Y-13679143D02*
X12621905Y-13679143D01*
X12621905Y-13679143D02*
X12640952Y-13688667D01*
X12640952Y-13688667D02*
X12650476Y-13707714D01*
X12650476Y-13707714D02*
X12650476Y-13812476D01*
X12650476Y-13707714D02*
X12660000Y-13688667D01*
X12660000Y-13688667D02*
X12679048Y-13679143D01*
X12679048Y-13679143D02*
X12707619Y-13679143D01*
X12707619Y-13679143D02*
X12726667Y-13688667D01*
X12726667Y-13688667D02*
X12736190Y-13707714D01*
X12736190Y-13707714D02*
X12736190Y-13812476D01*
X12831429Y-13812476D02*
X12831429Y-13679143D01*
X12831429Y-13698190D02*
X12840952Y-13688667D01*
X12840952Y-13688667D02*
X12860000Y-13679143D01*
X12860000Y-13679143D02*
X12888571Y-13679143D01*
X12888571Y-13679143D02*
X12907619Y-13688667D01*
X12907619Y-13688667D02*
X12917143Y-13707714D01*
X12917143Y-13707714D02*
X12917143Y-13812476D01*
X12917143Y-13707714D02*
X12926667Y-13688667D01*
X12926667Y-13688667D02*
X12945714Y-13679143D01*
X12945714Y-13679143D02*
X12974286Y-13679143D01*
X12974286Y-13679143D02*
X12993333Y-13688667D01*
X12993333Y-13688667D02*
X13002857Y-13707714D01*
X13002857Y-13707714D02*
X13002857Y-13812476D01*
X13360952Y-13602952D02*
X13189524Y-13860095D01*
X13585714Y-13612476D02*
X13604762Y-13612476D01*
X13604762Y-13612476D02*
X13623810Y-13622000D01*
X13623810Y-13622000D02*
X13633333Y-13631524D01*
X13633333Y-13631524D02*
X13642857Y-13650571D01*
X13642857Y-13650571D02*
X13652381Y-13688667D01*
X13652381Y-13688667D02*
X13652381Y-13736286D01*
X13652381Y-13736286D02*
X13642857Y-13774381D01*
X13642857Y-13774381D02*
X13633333Y-13793428D01*
X13633333Y-13793428D02*
X13623810Y-13802952D01*
X13623810Y-13802952D02*
X13604762Y-13812476D01*
X13604762Y-13812476D02*
X13585714Y-13812476D01*
X13585714Y-13812476D02*
X13566667Y-13802952D01*
X13566667Y-13802952D02*
X13557143Y-13793428D01*
X13557143Y-13793428D02*
X13547619Y-13774381D01*
X13547619Y-13774381D02*
X13538095Y-13736286D01*
X13538095Y-13736286D02*
X13538095Y-13688667D01*
X13538095Y-13688667D02*
X13547619Y-13650571D01*
X13547619Y-13650571D02*
X13557143Y-13631524D01*
X13557143Y-13631524D02*
X13566667Y-13622000D01*
X13566667Y-13622000D02*
X13585714Y-13612476D01*
X13738095Y-13793428D02*
X13747619Y-13802952D01*
X13747619Y-13802952D02*
X13738095Y-13812476D01*
X13738095Y-13812476D02*
X13728571Y-13802952D01*
X13728571Y-13802952D02*
X13738095Y-13793428D01*
X13738095Y-13793428D02*
X13738095Y-13812476D01*
X13871429Y-13612476D02*
X13890476Y-13612476D01*
X13890476Y-13612476D02*
X13909524Y-13622000D01*
X13909524Y-13622000D02*
X13919048Y-13631524D01*
X13919048Y-13631524D02*
X13928571Y-13650571D01*
X13928571Y-13650571D02*
X13938095Y-13688667D01*
X13938095Y-13688667D02*
X13938095Y-13736286D01*
X13938095Y-13736286D02*
X13928571Y-13774381D01*
X13928571Y-13774381D02*
X13919048Y-13793428D01*
X13919048Y-13793428D02*
X13909524Y-13802952D01*
X13909524Y-13802952D02*
X13890476Y-13812476D01*
X13890476Y-13812476D02*
X13871429Y-13812476D01*
X13871429Y-13812476D02*
X13852381Y-13802952D01*
X13852381Y-13802952D02*
X13842857Y-13793428D01*
X13842857Y-13793428D02*
X13833333Y-13774381D01*
X13833333Y-13774381D02*
X13823810Y-13736286D01*
X13823810Y-13736286D02*
X13823810Y-13688667D01*
X13823810Y-13688667D02*
X13833333Y-13650571D01*
X13833333Y-13650571D02*
X13842857Y-13631524D01*
X13842857Y-13631524D02*
X13852381Y-13622000D01*
X13852381Y-13622000D02*
X13871429Y-13612476D01*
X14004762Y-13612476D02*
X14128571Y-13612476D01*
X14128571Y-13612476D02*
X14061905Y-13688667D01*
X14061905Y-13688667D02*
X14090476Y-13688667D01*
X14090476Y-13688667D02*
X14109524Y-13698190D01*
X14109524Y-13698190D02*
X14119048Y-13707714D01*
X14119048Y-13707714D02*
X14128571Y-13726762D01*
X14128571Y-13726762D02*
X14128571Y-13774381D01*
X14128571Y-13774381D02*
X14119048Y-13793428D01*
X14119048Y-13793428D02*
X14109524Y-13802952D01*
X14109524Y-13802952D02*
X14090476Y-13812476D01*
X14090476Y-13812476D02*
X14033333Y-13812476D01*
X14033333Y-13812476D02*
X14014286Y-13802952D01*
X14014286Y-13802952D02*
X14004762Y-13793428D01*
X14223810Y-13812476D02*
X14261905Y-13812476D01*
X14261905Y-13812476D02*
X14280952Y-13802952D01*
X14280952Y-13802952D02*
X14290476Y-13793428D01*
X14290476Y-13793428D02*
X14309524Y-13764857D01*
X14309524Y-13764857D02*
X14319048Y-13726762D01*
X14319048Y-13726762D02*
X14319048Y-13650571D01*
X14319048Y-13650571D02*
X14309524Y-13631524D01*
X14309524Y-13631524D02*
X14300000Y-13622000D01*
X14300000Y-13622000D02*
X14280952Y-13612476D01*
X14280952Y-13612476D02*
X14242857Y-13612476D01*
X14242857Y-13612476D02*
X14223810Y-13622000D01*
X14223810Y-13622000D02*
X14214286Y-13631524D01*
X14214286Y-13631524D02*
X14204762Y-13650571D01*
X14204762Y-13650571D02*
X14204762Y-13698190D01*
X14204762Y-13698190D02*
X14214286Y-13717238D01*
X14214286Y-13717238D02*
X14223810Y-13726762D01*
X14223810Y-13726762D02*
X14242857Y-13736286D01*
X14242857Y-13736286D02*
X14280952Y-13736286D01*
X14280952Y-13736286D02*
X14300000Y-13726762D01*
X14300000Y-13726762D02*
X14309524Y-13717238D01*
X14309524Y-13717238D02*
X14319048Y-13698190D01*
X14490476Y-13679143D02*
X14490476Y-13812476D01*
X14442857Y-13602952D02*
X14395238Y-13745809D01*
X14395238Y-13745809D02*
X14519048Y-13745809D01*
X14585714Y-13612476D02*
X14585714Y-13650571D01*
X14661905Y-13612476D02*
X14661905Y-13650571D01*
X14924762Y-13888667D02*
X14915238Y-13879143D01*
X14915238Y-13879143D02*
X14896191Y-13850571D01*
X14896191Y-13850571D02*
X14886667Y-13831524D01*
X14886667Y-13831524D02*
X14877143Y-13802952D01*
X14877143Y-13802952D02*
X14867619Y-13755333D01*
X14867619Y-13755333D02*
X14867619Y-13717238D01*
X14867619Y-13717238D02*
X14877143Y-13669619D01*
X14877143Y-13669619D02*
X14886667Y-13641048D01*
X14886667Y-13641048D02*
X14896191Y-13622000D01*
X14896191Y-13622000D02*
X14915238Y-13593428D01*
X14915238Y-13593428D02*
X14924762Y-13583905D01*
X15096191Y-13612476D02*
X15000952Y-13612476D01*
X15000952Y-13612476D02*
X14991429Y-13707714D01*
X14991429Y-13707714D02*
X15000952Y-13698190D01*
X15000952Y-13698190D02*
X15020000Y-13688667D01*
X15020000Y-13688667D02*
X15067619Y-13688667D01*
X15067619Y-13688667D02*
X15086667Y-13698190D01*
X15086667Y-13698190D02*
X15096191Y-13707714D01*
X15096191Y-13707714D02*
X15105714Y-13726762D01*
X15105714Y-13726762D02*
X15105714Y-13774381D01*
X15105714Y-13774381D02*
X15096191Y-13793428D01*
X15096191Y-13793428D02*
X15086667Y-13802952D01*
X15086667Y-13802952D02*
X15067619Y-13812476D01*
X15067619Y-13812476D02*
X15020000Y-13812476D01*
X15020000Y-13812476D02*
X15000952Y-13802952D01*
X15000952Y-13802952D02*
X14991429Y-13793428D01*
X15220000Y-13698190D02*
X15200952Y-13688667D01*
X15200952Y-13688667D02*
X15191429Y-13679143D01*
X15191429Y-13679143D02*
X15181905Y-13660095D01*
X15181905Y-13660095D02*
X15181905Y-13650571D01*
X15181905Y-13650571D02*
X15191429Y-13631524D01*
X15191429Y-13631524D02*
X15200952Y-13622000D01*
X15200952Y-13622000D02*
X15220000Y-13612476D01*
X15220000Y-13612476D02*
X15258095Y-13612476D01*
X15258095Y-13612476D02*
X15277143Y-13622000D01*
X15277143Y-13622000D02*
X15286667Y-13631524D01*
X15286667Y-13631524D02*
X15296191Y-13650571D01*
X15296191Y-13650571D02*
X15296191Y-13660095D01*
X15296191Y-13660095D02*
X15286667Y-13679143D01*
X15286667Y-13679143D02*
X15277143Y-13688667D01*
X15277143Y-13688667D02*
X15258095Y-13698190D01*
X15258095Y-13698190D02*
X15220000Y-13698190D01*
X15220000Y-13698190D02*
X15200952Y-13707714D01*
X15200952Y-13707714D02*
X15191429Y-13717238D01*
X15191429Y-13717238D02*
X15181905Y-13736286D01*
X15181905Y-13736286D02*
X15181905Y-13774381D01*
X15181905Y-13774381D02*
X15191429Y-13793428D01*
X15191429Y-13793428D02*
X15200952Y-13802952D01*
X15200952Y-13802952D02*
X15220000Y-13812476D01*
X15220000Y-13812476D02*
X15258095Y-13812476D01*
X15258095Y-13812476D02*
X15277143Y-13802952D01*
X15277143Y-13802952D02*
X15286667Y-13793428D01*
X15286667Y-13793428D02*
X15296191Y-13774381D01*
X15296191Y-13774381D02*
X15296191Y-13736286D01*
X15296191Y-13736286D02*
X15286667Y-13717238D01*
X15286667Y-13717238D02*
X15277143Y-13707714D01*
X15277143Y-13707714D02*
X15258095Y-13698190D01*
X15501905Y-13812476D02*
X15501905Y-13612476D01*
X15587619Y-13812476D02*
X15587619Y-13707714D01*
X15587619Y-13707714D02*
X15578095Y-13688667D01*
X15578095Y-13688667D02*
X15559048Y-13679143D01*
X15559048Y-13679143D02*
X15530476Y-13679143D01*
X15530476Y-13679143D02*
X15511429Y-13688667D01*
X15511429Y-13688667D02*
X15501905Y-13698190D01*
X15711429Y-13812476D02*
X15692381Y-13802952D01*
X15692381Y-13802952D02*
X15682857Y-13793428D01*
X15682857Y-13793428D02*
X15673333Y-13774381D01*
X15673333Y-13774381D02*
X15673333Y-13717238D01*
X15673333Y-13717238D02*
X15682857Y-13698190D01*
X15682857Y-13698190D02*
X15692381Y-13688667D01*
X15692381Y-13688667D02*
X15711429Y-13679143D01*
X15711429Y-13679143D02*
X15740000Y-13679143D01*
X15740000Y-13679143D02*
X15759048Y-13688667D01*
X15759048Y-13688667D02*
X15768572Y-13698190D01*
X15768572Y-13698190D02*
X15778095Y-13717238D01*
X15778095Y-13717238D02*
X15778095Y-13774381D01*
X15778095Y-13774381D02*
X15768572Y-13793428D01*
X15768572Y-13793428D02*
X15759048Y-13802952D01*
X15759048Y-13802952D02*
X15740000Y-13812476D01*
X15740000Y-13812476D02*
X15711429Y-13812476D01*
X15892381Y-13812476D02*
X15873333Y-13802952D01*
X15873333Y-13802952D02*
X15863810Y-13783905D01*
X15863810Y-13783905D02*
X15863810Y-13612476D01*
X16044762Y-13802952D02*
X16025714Y-13812476D01*
X16025714Y-13812476D02*
X15987619Y-13812476D01*
X15987619Y-13812476D02*
X15968572Y-13802952D01*
X15968572Y-13802952D02*
X15959048Y-13783905D01*
X15959048Y-13783905D02*
X15959048Y-13707714D01*
X15959048Y-13707714D02*
X15968572Y-13688667D01*
X15968572Y-13688667D02*
X15987619Y-13679143D01*
X15987619Y-13679143D02*
X16025714Y-13679143D01*
X16025714Y-13679143D02*
X16044762Y-13688667D01*
X16044762Y-13688667D02*
X16054286Y-13707714D01*
X16054286Y-13707714D02*
X16054286Y-13726762D01*
X16054286Y-13726762D02*
X15959048Y-13745809D01*
X16130476Y-13802952D02*
X16149524Y-13812476D01*
X16149524Y-13812476D02*
X16187619Y-13812476D01*
X16187619Y-13812476D02*
X16206667Y-13802952D01*
X16206667Y-13802952D02*
X16216191Y-13783905D01*
X16216191Y-13783905D02*
X16216191Y-13774381D01*
X16216191Y-13774381D02*
X16206667Y-13755333D01*
X16206667Y-13755333D02*
X16187619Y-13745809D01*
X16187619Y-13745809D02*
X16159048Y-13745809D01*
X16159048Y-13745809D02*
X16140000Y-13736286D01*
X16140000Y-13736286D02*
X16130476Y-13717238D01*
X16130476Y-13717238D02*
X16130476Y-13707714D01*
X16130476Y-13707714D02*
X16140000Y-13688667D01*
X16140000Y-13688667D02*
X16159048Y-13679143D01*
X16159048Y-13679143D02*
X16187619Y-13679143D01*
X16187619Y-13679143D02*
X16206667Y-13688667D01*
X16282857Y-13888667D02*
X16292381Y-13879143D01*
X16292381Y-13879143D02*
X16311429Y-13850571D01*
X16311429Y-13850571D02*
X16320953Y-13831524D01*
X16320953Y-13831524D02*
X16330476Y-13802952D01*
X16330476Y-13802952D02*
X16340000Y-13755333D01*
X16340000Y-13755333D02*
X16340000Y-13717238D01*
X16340000Y-13717238D02*
X16330476Y-13669619D01*
X16330476Y-13669619D02*
X16320953Y-13641048D01*
X16320953Y-13641048D02*
X16311429Y-13622000D01*
X16311429Y-13622000D02*
X16292381Y-13593428D01*
X16292381Y-13593428D02*
X16282857Y-13583905D01*
M02*
