%TF.GenerationSoftware,KiCad,Pcbnew,(7.0.0)*%
%TF.CreationDate,2023-03-20T12:13:36+05:30*%
%TF.ProjectId,IMRT1160_DB,494d5254-3131-4363-905f-44422e6b6963,rev?*%
%TF.SameCoordinates,Original*%
%TF.FileFunction,Soldermask,Top*%
%TF.FilePolarity,Negative*%
%FSLAX46Y46*%
G04 Gerber Fmt 4.6, Leading zero omitted, Abs format (unit mm)*
G04 Created by KiCad (PCBNEW (7.0.0)) date 2023-03-20 12:13:36*
%MOMM*%
%LPD*%
G01*
G04 APERTURE LIST*
G04 Aperture macros list*
%AMRoundRect*
0 Rectangle with rounded corners*
0 $1 Rounding radius*
0 $2 $3 $4 $5 $6 $7 $8 $9 X,Y pos of 4 corners*
0 Add a 4 corners polygon primitive as box body*
4,1,4,$2,$3,$4,$5,$6,$7,$8,$9,$2,$3,0*
0 Add four circle primitives for the rounded corners*
1,1,$1+$1,$2,$3*
1,1,$1+$1,$4,$5*
1,1,$1+$1,$6,$7*
1,1,$1+$1,$8,$9*
0 Add four rect primitives between the rounded corners*
20,1,$1+$1,$2,$3,$4,$5,0*
20,1,$1+$1,$4,$5,$6,$7,0*
20,1,$1+$1,$6,$7,$8,$9,0*
20,1,$1+$1,$8,$9,$2,$3,0*%
G04 Aperture macros list end*
%ADD10RoundRect,0.250000X0.250000X0.475000X-0.250000X0.475000X-0.250000X-0.475000X0.250000X-0.475000X0*%
%ADD11R,1.700000X1.700000*%
%ADD12O,1.700000X1.700000*%
%ADD13RoundRect,0.140000X0.140000X0.170000X-0.140000X0.170000X-0.140000X-0.170000X0.140000X-0.170000X0*%
%ADD14RoundRect,0.135000X0.185000X-0.135000X0.185000X0.135000X-0.185000X0.135000X-0.185000X-0.135000X0*%
%ADD15RoundRect,0.140000X-0.140000X-0.170000X0.140000X-0.170000X0.140000X0.170000X-0.140000X0.170000X0*%
%ADD16RoundRect,0.140000X0.170000X-0.140000X0.170000X0.140000X-0.170000X0.140000X-0.170000X-0.140000X0*%
%ADD17RoundRect,0.135000X0.135000X0.185000X-0.135000X0.185000X-0.135000X-0.185000X0.135000X-0.185000X0*%
%ADD18RoundRect,0.140000X-0.170000X0.140000X-0.170000X-0.140000X0.170000X-0.140000X0.170000X0.140000X0*%
%ADD19RoundRect,0.135000X-0.185000X0.135000X-0.185000X-0.135000X0.185000X-0.135000X0.185000X0.135000X0*%
%ADD20R,1.400000X1.200000*%
%ADD21C,0.606400*%
%ADD22RoundRect,0.135000X-0.135000X-0.185000X0.135000X-0.185000X0.135000X0.185000X-0.135000X0.185000X0*%
%ADD23RoundRect,0.225000X0.250000X-0.225000X0.250000X0.225000X-0.250000X0.225000X-0.250000X-0.225000X0*%
%ADD24RoundRect,0.150000X0.150000X-0.512500X0.150000X0.512500X-0.150000X0.512500X-0.150000X-0.512500X0*%
%ADD25R,0.250000X0.950000*%
%ADD26RoundRect,0.225000X0.225000X0.250000X-0.225000X0.250000X-0.225000X-0.250000X0.225000X-0.250000X0*%
%ADD27RoundRect,0.225000X-0.250000X0.225000X-0.250000X-0.225000X0.250000X-0.225000X0.250000X0.225000X0*%
%ADD28R,0.300000X1.300000*%
%ADD29R,1.800000X2.200000*%
%ADD30R,0.700000X1.750000*%
%ADD31R,1.000000X1.550000*%
%ADD32R,1.450000X1.000000*%
%ADD33R,1.500000X1.500000*%
%ADD34R,1.300000X1.500000*%
%ADD35R,0.800000X1.400000*%
%ADD36R,0.800000X1.500000*%
%ADD37RoundRect,0.200000X-0.200000X-0.275000X0.200000X-0.275000X0.200000X0.275000X-0.200000X0.275000X0*%
%ADD38R,2.000000X1.500000*%
%ADD39R,2.000000X3.800000*%
%ADD40C,0.590000*%
%ADD41R,0.431800X0.863600*%
%ADD42R,4.343400X3.454400*%
%ADD43R,1.437399X2.311400*%
G04 APERTURE END LIST*
D10*
%TO.C,C71*%
X146612500Y-122502500D03*
X144712500Y-122502500D03*
%TD*%
D11*
%TO.C,J5*%
X164624999Y-76679999D03*
D12*
X164624999Y-79219999D03*
X164624999Y-81759999D03*
X164624999Y-84299999D03*
X164624999Y-86839999D03*
X164624999Y-89379999D03*
X164624999Y-91919999D03*
X164624999Y-94459999D03*
X164624999Y-96999999D03*
X164624999Y-99539999D03*
X164624999Y-102079999D03*
X164624999Y-104619999D03*
X164624999Y-107159999D03*
X164624999Y-109699999D03*
X164624999Y-112239999D03*
X164624999Y-114779999D03*
X164624999Y-117319999D03*
X164624999Y-119859999D03*
X164624999Y-122399999D03*
X164624999Y-124939999D03*
%TD*%
D13*
%TO.C,C63*%
X126565000Y-111820000D03*
X125605000Y-111820000D03*
%TD*%
D14*
%TO.C,R25*%
X124200000Y-122335000D03*
X124200000Y-121315000D03*
%TD*%
D10*
%TO.C,C70*%
X146612500Y-124762500D03*
X144712500Y-124762500D03*
%TD*%
D13*
%TO.C,C52*%
X119580000Y-87575000D03*
X118620000Y-87575000D03*
%TD*%
D15*
%TO.C,C11*%
X149770000Y-92900000D03*
X150730000Y-92900000D03*
%TD*%
D14*
%TO.C,R9*%
X159175000Y-120560000D03*
X159175000Y-119540000D03*
%TD*%
D11*
%TO.C,J4*%
X114649999Y-76674999D03*
D12*
X114649999Y-79214999D03*
X114649999Y-81754999D03*
X114649999Y-84294999D03*
X114649999Y-86834999D03*
X114649999Y-89374999D03*
X114649999Y-91914999D03*
X114649999Y-94454999D03*
X114649999Y-96994999D03*
X114649999Y-99534999D03*
X114649999Y-102074999D03*
X114649999Y-104614999D03*
X114649999Y-107154999D03*
X114649999Y-109694999D03*
X114649999Y-112234999D03*
X114649999Y-114774999D03*
X114649999Y-117314999D03*
X114649999Y-119854999D03*
X114649999Y-122394999D03*
X114649999Y-124934999D03*
%TD*%
D16*
%TO.C,C67*%
X129035000Y-101950000D03*
X129035000Y-100990000D03*
%TD*%
D14*
%TO.C,R10*%
X159175000Y-123010000D03*
X159175000Y-121990000D03*
%TD*%
D17*
%TO.C,R15*%
X155350000Y-88700000D03*
X154330000Y-88700000D03*
%TD*%
D18*
%TO.C,C51*%
X151425000Y-114445000D03*
X151425000Y-115405000D03*
%TD*%
%TO.C,C46*%
X161300000Y-106870000D03*
X161300000Y-107830000D03*
%TD*%
D19*
%TO.C,R19*%
X150500000Y-84580000D03*
X150500000Y-85600000D03*
%TD*%
D17*
%TO.C,R17*%
X155360000Y-90750000D03*
X154340000Y-90750000D03*
%TD*%
D20*
%TO.C,Y1*%
X160424999Y-115574999D03*
X158224999Y-115574999D03*
X158224999Y-117174999D03*
X160424999Y-117174999D03*
%TD*%
D19*
%TO.C,R18*%
X162300000Y-101740000D03*
X162300000Y-102760000D03*
%TD*%
D16*
%TO.C,C59*%
X129035000Y-107070000D03*
X129035000Y-106110000D03*
%TD*%
D21*
%TO.C,U3*%
X127310000Y-110019999D03*
X126510000Y-110019999D03*
X125710000Y-110019999D03*
X122510000Y-110019999D03*
X121710000Y-110019999D03*
X120910000Y-110019999D03*
X127310000Y-109219999D03*
X126510000Y-109219999D03*
X125710000Y-109219999D03*
X122510000Y-109219999D03*
X121710000Y-109219999D03*
X120910000Y-109219999D03*
X127310000Y-108420000D03*
X126510000Y-108420000D03*
X125710000Y-108420000D03*
X122510000Y-108420000D03*
X121710000Y-108420000D03*
X120910000Y-108420000D03*
X127310000Y-107620000D03*
X126510000Y-107620000D03*
X125710000Y-107620000D03*
X122510000Y-107620000D03*
X121710000Y-107620000D03*
X120910000Y-107620000D03*
X127310000Y-106820000D03*
X126510000Y-106820000D03*
X125710000Y-106820000D03*
X122510000Y-106820000D03*
X121710000Y-106820000D03*
X120910000Y-106820000D03*
X127310000Y-106020000D03*
X126510000Y-106020000D03*
X125710000Y-106020000D03*
X122510000Y-106020000D03*
X121710000Y-106020000D03*
X120910000Y-106020000D03*
X127310000Y-105220000D03*
X126510000Y-105220000D03*
X125710000Y-105220000D03*
X122510000Y-105220000D03*
X121710000Y-105220000D03*
X120910000Y-105220000D03*
X127310000Y-104420000D03*
X126510000Y-104420000D03*
X125710000Y-104420000D03*
X122510000Y-104420000D03*
X121710000Y-104420000D03*
X120910000Y-104420000D03*
X127310000Y-103620000D03*
X126510000Y-103620000D03*
X125710000Y-103620000D03*
X122510000Y-103620000D03*
X121710000Y-103620000D03*
X120910000Y-103620000D03*
X127310000Y-102820000D03*
X126510000Y-102820000D03*
X125710000Y-102820000D03*
X122510000Y-102820000D03*
X121710000Y-102820000D03*
X120910000Y-102820000D03*
X127310000Y-102020000D03*
X126510000Y-102020000D03*
X125710000Y-102020000D03*
X122510000Y-102020000D03*
X121710000Y-102020000D03*
X120910000Y-102020000D03*
X127310000Y-101220000D03*
X126510000Y-101220000D03*
X125710000Y-101220000D03*
X122510000Y-101220000D03*
X121710000Y-101220000D03*
X120910000Y-101220000D03*
X127310000Y-100420000D03*
X126510000Y-100420000D03*
X125710000Y-100420000D03*
X122510000Y-100420000D03*
X121710000Y-100420000D03*
X120910000Y-100420000D03*
X127310000Y-99620001D03*
X126510000Y-99620001D03*
X125710000Y-99620001D03*
X122510000Y-99620001D03*
X121710000Y-99620001D03*
X120910000Y-99620001D03*
X127310000Y-98820001D03*
X126510000Y-98820001D03*
X125710000Y-98820001D03*
X122510000Y-98820001D03*
X121710000Y-98820001D03*
X120910000Y-98820001D03*
%TD*%
D13*
%TO.C,C73*%
X147975000Y-83125000D03*
X147015000Y-83125000D03*
%TD*%
%TO.C,C65*%
X127340000Y-97045000D03*
X126380000Y-97045000D03*
%TD*%
%TO.C,C64*%
X122765000Y-97070000D03*
X121805000Y-97070000D03*
%TD*%
D17*
%TO.C,R27*%
X147185000Y-85575000D03*
X146165000Y-85575000D03*
%TD*%
D18*
%TO.C,C60*%
X119210000Y-100790000D03*
X119210000Y-101750000D03*
%TD*%
D14*
%TO.C,R4*%
X134582000Y-86310000D03*
X134582000Y-85290000D03*
%TD*%
D22*
%TO.C,R26*%
X135265000Y-120450000D03*
X136285000Y-120450000D03*
%TD*%
D13*
%TO.C,C39*%
X158605000Y-114000000D03*
X157645000Y-114000000D03*
%TD*%
D23*
%TO.C,C1*%
X151075000Y-95700000D03*
X151075000Y-94150000D03*
%TD*%
D19*
%TO.C,FB1*%
X161300000Y-104940000D03*
X161300000Y-105960000D03*
%TD*%
D24*
%TO.C,U5*%
X120350000Y-123975000D03*
X121300000Y-123975000D03*
X122250000Y-123975000D03*
X122250000Y-121700000D03*
X120350000Y-121700000D03*
%TD*%
D14*
%TO.C,R7*%
X132340000Y-86850000D03*
X132340000Y-85830000D03*
%TD*%
D19*
%TO.C,R1*%
X142650000Y-119965000D03*
X142650000Y-120985000D03*
%TD*%
D13*
%TO.C,C38*%
X160980000Y-113975000D03*
X160020000Y-113975000D03*
%TD*%
D19*
%TO.C,FB2*%
X161300000Y-102990000D03*
X161300000Y-104010000D03*
%TD*%
D14*
%TO.C,R11*%
X161100000Y-120560000D03*
X161100000Y-119540000D03*
%TD*%
D19*
%TO.C,R22*%
X155850000Y-94990000D03*
X155850000Y-96010000D03*
%TD*%
D25*
%TO.C,IC2*%
X143099999Y-83449999D03*
X143599999Y-83449999D03*
X144099999Y-83449999D03*
X144599999Y-83449999D03*
X145099999Y-83449999D03*
X145099999Y-82349999D03*
X144599999Y-82349999D03*
X144099999Y-82349999D03*
X143599999Y-82349999D03*
X143099999Y-82349999D03*
%TD*%
D16*
%TO.C,C68*%
X130035000Y-107070000D03*
X130035000Y-106110000D03*
%TD*%
D26*
%TO.C,C47*%
X152975000Y-116650000D03*
X151425000Y-116650000D03*
%TD*%
D16*
%TO.C,C55*%
X154450000Y-79705000D03*
X154450000Y-78745000D03*
%TD*%
D23*
%TO.C,C56*%
X132350000Y-76675000D03*
X132350000Y-75125000D03*
%TD*%
D19*
%TO.C,R21*%
X152500000Y-84590000D03*
X152500000Y-85610000D03*
%TD*%
D27*
%TO.C,C50*%
X154525000Y-113900000D03*
X154525000Y-115450000D03*
%TD*%
D28*
%TO.C,J1*%
X148349999Y-79824999D03*
X147849999Y-79824999D03*
X147349999Y-79824999D03*
X146849999Y-79824999D03*
X146349999Y-79824999D03*
X145849999Y-79824999D03*
X145349999Y-79824999D03*
X144849999Y-79824999D03*
X144349999Y-79824999D03*
X143849999Y-79824999D03*
X143349999Y-79824999D03*
X142849999Y-79824999D03*
X142349999Y-79824999D03*
X141849999Y-79824999D03*
X141349999Y-79824999D03*
X140849999Y-79824999D03*
X140349999Y-79824999D03*
X139849999Y-79824999D03*
X139349999Y-79824999D03*
X138849999Y-79824999D03*
X138349999Y-79824999D03*
X137849999Y-79824999D03*
X137349999Y-79824999D03*
X136849999Y-79824999D03*
D29*
X134949999Y-76574999D03*
X150249999Y-76574999D03*
%TD*%
D13*
%TO.C,C74*%
X147975000Y-81850000D03*
X147015000Y-81850000D03*
%TD*%
D16*
%TO.C,C66*%
X119210000Y-99850000D03*
X119210000Y-98890000D03*
%TD*%
D19*
%TO.C,R3*%
X154375000Y-86415000D03*
X154375000Y-87435000D03*
%TD*%
D30*
%TO.C,J2*%
X121649999Y-74962499D03*
X122749999Y-74962499D03*
X123849999Y-74962499D03*
X124949999Y-74962499D03*
X126049999Y-74962499D03*
X127149999Y-74962499D03*
X128249999Y-74962499D03*
X129349999Y-74962499D03*
D31*
X119274999Y-85762499D03*
D32*
X130474999Y-84187499D03*
D33*
X119199999Y-75087499D03*
D34*
X130549999Y-75087499D03*
D35*
X118874999Y-83337499D03*
D36*
X130799999Y-82687499D03*
%TD*%
D18*
%TO.C,C7*%
X141600000Y-119970000D03*
X141600000Y-120930000D03*
%TD*%
D19*
%TO.C,R6*%
X132350000Y-83845000D03*
X132350000Y-84865000D03*
%TD*%
D37*
%TO.C,R28*%
X120200000Y-119675000D03*
X121850000Y-119675000D03*
%TD*%
D27*
%TO.C,C49*%
X152725000Y-113600000D03*
X152725000Y-115150000D03*
%TD*%
D11*
%TO.C,J3*%
X161024999Y-128249999D03*
D12*
X158484999Y-128249999D03*
X155944999Y-128249999D03*
X153404999Y-128249999D03*
X150864999Y-128249999D03*
X148324999Y-128249999D03*
X145784999Y-128249999D03*
X143244999Y-128249999D03*
X140704999Y-128249999D03*
X138164999Y-128249999D03*
X135624999Y-128249999D03*
X133084999Y-128249999D03*
X130544999Y-128249999D03*
X128004999Y-128249999D03*
X125464999Y-128249999D03*
X122924999Y-128249999D03*
X120384999Y-128249999D03*
X117844999Y-128249999D03*
%TD*%
D18*
%TO.C,C61*%
X119210000Y-106190000D03*
X119210000Y-107150000D03*
%TD*%
D38*
%TO.C,U4*%
X148772499Y-120262499D03*
X148772499Y-122562499D03*
D39*
X155072499Y-122562499D03*
D38*
X148772499Y-124862499D03*
%TD*%
D14*
%TO.C,R8*%
X135125000Y-83760000D03*
X135125000Y-82740000D03*
%TD*%
D23*
%TO.C,C58*%
X129310000Y-110295000D03*
X129310000Y-108745000D03*
%TD*%
D40*
%TO.C,U1*%
X146210000Y-98145000D03*
X147010000Y-98145000D03*
X147810000Y-98145000D03*
X148610000Y-98145000D03*
X149410000Y-98145000D03*
X150210000Y-98145000D03*
X151010000Y-98145000D03*
X151810000Y-98145000D03*
X152610000Y-98145000D03*
X153410000Y-98145000D03*
X154210000Y-98145000D03*
X155010000Y-98145000D03*
X155810000Y-98145000D03*
X156610000Y-98145000D03*
X157410000Y-98145000D03*
X158210000Y-98145000D03*
X159010000Y-98145000D03*
X146210000Y-98945000D03*
X147010000Y-98945000D03*
X147810000Y-98945000D03*
X148610000Y-98945000D03*
X149410000Y-98945000D03*
X150210000Y-98945000D03*
X151010000Y-98945000D03*
X151810000Y-98945000D03*
X152610000Y-98945000D03*
X153410000Y-98945000D03*
X154210000Y-98945000D03*
X155010000Y-98945000D03*
X155810000Y-98945000D03*
X156610000Y-98945000D03*
X157410000Y-98945000D03*
X158210000Y-98945000D03*
X159010000Y-98945000D03*
X146210000Y-99745000D03*
X147010000Y-99745000D03*
X147810000Y-99745000D03*
X148610000Y-99745000D03*
X149410000Y-99745000D03*
X150210000Y-99745000D03*
X151010000Y-99745000D03*
X151810000Y-99745000D03*
X152610000Y-99745000D03*
X153410000Y-99745000D03*
X154210000Y-99745000D03*
X155010000Y-99745000D03*
X155810000Y-99745000D03*
X156610000Y-99745000D03*
X157410000Y-99745000D03*
X158210000Y-99745000D03*
X159010000Y-99745000D03*
X146210000Y-100545000D03*
X147010000Y-100545000D03*
X147810000Y-100545000D03*
X148610000Y-100545000D03*
X149410000Y-100545000D03*
X150210000Y-100545000D03*
X151010000Y-100545000D03*
X151810000Y-100545000D03*
X152610000Y-100545000D03*
X153410000Y-100545000D03*
X154210000Y-100545000D03*
X155010000Y-100545000D03*
X155810000Y-100545000D03*
X156610000Y-100545000D03*
X157410000Y-100545000D03*
X158210000Y-100545000D03*
X159010000Y-100545000D03*
X146210000Y-101345000D03*
X147010000Y-101345000D03*
X147810000Y-101345000D03*
X148610000Y-101345000D03*
X149410000Y-101345000D03*
X150210000Y-101345000D03*
X151010000Y-101345000D03*
X151810000Y-101345000D03*
X152610000Y-101345000D03*
X153410000Y-101345000D03*
X154210000Y-101345000D03*
X155010000Y-101345000D03*
X155810000Y-101345000D03*
X156610000Y-101345000D03*
X157410000Y-101345000D03*
X158210000Y-101345000D03*
X159010000Y-101345000D03*
X146210000Y-102145000D03*
X147010000Y-102145000D03*
X147810000Y-102145000D03*
X148610000Y-102145000D03*
X149410000Y-102145000D03*
X150210000Y-102145000D03*
X151010000Y-102145000D03*
X151810000Y-102145000D03*
X152610000Y-102145000D03*
X153410000Y-102145000D03*
X154210000Y-102145000D03*
X155010000Y-102145000D03*
X155810000Y-102145000D03*
X156610000Y-102145000D03*
X157410000Y-102145000D03*
X158210000Y-102145000D03*
X159010000Y-102145000D03*
X146210000Y-102945000D03*
X147010000Y-102945000D03*
X147810000Y-102945000D03*
X148610000Y-102945000D03*
X149410000Y-102945000D03*
X150210000Y-102945000D03*
X151010000Y-102945000D03*
X151810000Y-102945000D03*
X152610000Y-102945000D03*
X153410000Y-102945000D03*
X154210000Y-102945000D03*
X155010000Y-102945000D03*
X155810000Y-102945000D03*
X156610000Y-102945000D03*
X157410000Y-102945000D03*
X158210000Y-102945000D03*
X159010000Y-102945000D03*
X146210000Y-103745000D03*
X147010000Y-103745000D03*
X147810000Y-103745000D03*
X148610000Y-103745000D03*
X149410000Y-103745000D03*
X150210000Y-103745000D03*
X151010000Y-103745000D03*
X151810000Y-103745000D03*
X152610000Y-103745000D03*
X153410000Y-103745000D03*
X154210000Y-103745000D03*
X155010000Y-103745000D03*
X155810000Y-103745000D03*
X156610000Y-103745000D03*
X157410000Y-103745000D03*
X158210000Y-103745000D03*
X159010000Y-103745000D03*
X146210000Y-104545000D03*
X147010000Y-104545000D03*
X147810000Y-104545000D03*
X148610000Y-104545000D03*
X149410000Y-104545000D03*
X150210000Y-104545000D03*
X151010000Y-104545000D03*
X151810000Y-104545000D03*
X152610000Y-104545000D03*
X153410000Y-104545000D03*
X154210000Y-104545000D03*
X155010000Y-104545000D03*
X155810000Y-104545000D03*
X156610000Y-104545000D03*
X157410000Y-104545000D03*
X158210000Y-104545000D03*
X159010000Y-104545000D03*
X146210000Y-105345000D03*
X147010000Y-105345000D03*
X147810000Y-105345000D03*
X148610000Y-105345000D03*
X149410000Y-105345000D03*
X150210000Y-105345000D03*
X151010000Y-105345000D03*
X151810000Y-105345000D03*
X152610000Y-105345000D03*
X153410000Y-105345000D03*
X154210000Y-105345000D03*
X155010000Y-105345000D03*
X155810000Y-105345000D03*
X156610000Y-105345000D03*
X157410000Y-105345000D03*
X158210000Y-105345000D03*
X159010000Y-105345000D03*
X146210000Y-106145000D03*
X147010000Y-106145000D03*
X147810000Y-106145000D03*
X148610000Y-106145000D03*
X149410000Y-106145000D03*
X150210000Y-106145000D03*
X151010000Y-106145000D03*
X151810000Y-106145000D03*
X152610000Y-106145000D03*
X153410000Y-106145000D03*
X154210000Y-106145000D03*
X155010000Y-106145000D03*
X155810000Y-106145000D03*
X156610000Y-106145000D03*
X157410000Y-106145000D03*
X158210000Y-106145000D03*
X159010000Y-106145000D03*
X146210000Y-106945000D03*
X147010000Y-106945000D03*
X147810000Y-106945000D03*
X148610000Y-106945000D03*
X149410000Y-106945000D03*
X150210000Y-106945000D03*
X151010000Y-106945000D03*
X151810000Y-106945000D03*
X152610000Y-106945000D03*
X153410000Y-106945000D03*
X154210000Y-106945000D03*
X155010000Y-106945000D03*
X155810000Y-106945000D03*
X156610000Y-106945000D03*
X157410000Y-106945000D03*
X158210000Y-106945000D03*
X159010000Y-106945000D03*
X146210000Y-107745000D03*
X147010000Y-107745000D03*
X147810000Y-107745000D03*
X148610000Y-107745000D03*
X149410000Y-107745000D03*
X150210000Y-107745000D03*
X151010000Y-107745000D03*
X151810000Y-107745000D03*
X152610000Y-107745000D03*
X153410000Y-107745000D03*
X154210000Y-107745000D03*
X155010000Y-107745000D03*
X155810000Y-107745000D03*
X156610000Y-107745000D03*
X157410000Y-107745000D03*
X158210000Y-107745000D03*
X159010000Y-107745000D03*
X146210000Y-108545000D03*
X147010000Y-108545000D03*
X147810000Y-108545000D03*
X148610000Y-108545000D03*
X149410000Y-108545000D03*
X150210000Y-108545000D03*
X151010000Y-108545000D03*
X151810000Y-108545000D03*
X152610000Y-108545000D03*
X153410000Y-108545000D03*
X154210000Y-108545000D03*
X155010000Y-108545000D03*
X155810000Y-108545000D03*
X156610000Y-108545000D03*
X157410000Y-108545000D03*
X158210000Y-108545000D03*
X159010000Y-108545000D03*
X146210000Y-109345000D03*
X147010000Y-109345000D03*
X147810000Y-109345000D03*
X148610000Y-109345000D03*
X149410000Y-109345000D03*
X150210000Y-109345000D03*
X151010000Y-109345000D03*
X151810000Y-109345000D03*
X152610000Y-109345000D03*
X153410000Y-109345000D03*
X154210000Y-109345000D03*
X155010000Y-109345000D03*
X155810000Y-109345000D03*
X156610000Y-109345000D03*
X157410000Y-109345000D03*
X158210000Y-109345000D03*
X159010000Y-109345000D03*
X146210000Y-110145000D03*
X147010000Y-110145000D03*
X147810000Y-110145000D03*
X148610000Y-110145000D03*
X149410000Y-110145000D03*
X150210000Y-110145000D03*
X151010000Y-110145000D03*
X151810000Y-110145000D03*
X152610000Y-110145000D03*
X153410000Y-110145000D03*
X154210000Y-110145000D03*
X155010000Y-110145000D03*
X155810000Y-110145000D03*
X156610000Y-110145000D03*
X157410000Y-110145000D03*
X158210000Y-110145000D03*
X159010000Y-110145000D03*
X146210000Y-110945000D03*
X147010000Y-110945000D03*
X147810000Y-110945000D03*
X148610000Y-110945000D03*
X149410000Y-110945000D03*
X150210000Y-110945000D03*
X151010000Y-110945000D03*
X151810000Y-110945000D03*
X152610000Y-110945000D03*
X153410000Y-110945000D03*
X154210000Y-110945000D03*
X155010000Y-110945000D03*
X155810000Y-110945000D03*
X156610000Y-110945000D03*
X157410000Y-110945000D03*
X158210000Y-110945000D03*
X159010000Y-110945000D03*
%TD*%
D18*
%TO.C,C62*%
X119260000Y-108590000D03*
X119260000Y-109550000D03*
%TD*%
D14*
%TO.C,R5*%
X136650000Y-84260000D03*
X136650000Y-83240000D03*
%TD*%
D16*
%TO.C,C21*%
X161300000Y-109800000D03*
X161300000Y-108840000D03*
%TD*%
D14*
%TO.C,R23*%
X162275000Y-100810000D03*
X162275000Y-99790000D03*
%TD*%
D41*
%TO.C,U2*%
X156444999Y-87474299D03*
X157714999Y-87474299D03*
X158984999Y-87474299D03*
X160254999Y-87474299D03*
X160254999Y-79625699D03*
X158984999Y-79625699D03*
X157714999Y-79625699D03*
X156444999Y-79625699D03*
D42*
X158349999Y-83549999D03*
%TD*%
D15*
%TO.C,C54*%
X120895000Y-87575000D03*
X121855000Y-87575000D03*
%TD*%
D17*
%TO.C,R14*%
X155350000Y-89700000D03*
X154330000Y-89700000D03*
%TD*%
D19*
%TO.C,R20*%
X153505750Y-84585750D03*
X153505750Y-85605750D03*
%TD*%
D13*
%TO.C,C57*%
X123365000Y-111820000D03*
X122405000Y-111820000D03*
%TD*%
D25*
%TO.C,IC1*%
X139824999Y-83449999D03*
X140324999Y-83449999D03*
X140824999Y-83449999D03*
X141324999Y-83449999D03*
X141824999Y-83449999D03*
X141824999Y-82349999D03*
X141324999Y-82349999D03*
X140824999Y-82349999D03*
X140324999Y-82349999D03*
X139824999Y-82349999D03*
%TD*%
D43*
%TO.C,L1*%
X149721998Y-115699999D03*
X146278000Y-115699999D03*
%TD*%
D18*
%TO.C,C10*%
X149800000Y-93870000D03*
X149800000Y-94830000D03*
%TD*%
D16*
%TO.C,C72*%
X146675000Y-120930000D03*
X146675000Y-119970000D03*
%TD*%
D14*
%TO.C,R12*%
X161100000Y-123010000D03*
X161100000Y-121990000D03*
%TD*%
D19*
%TO.C,R24*%
X151500000Y-84580000D03*
X151500000Y-85600000D03*
%TD*%
D13*
%TO.C,C53*%
X156435000Y-78375000D03*
X155475000Y-78375000D03*
%TD*%
D14*
%TO.C,R2*%
X135625000Y-86310000D03*
X135625000Y-85290000D03*
%TD*%
M02*
